<svg xmlns="http://www.w3.org/2000/svg" width="46.972" height="69.253" viewBox="0 0 46.972 69.253">
  <g id="Group_1981" data-name="Group 1981" transform="matrix(0.966, 0.259, -0.259, 0.966, -357.13, -241.762)" opacity="0.75">
    <g id="Group_1980" data-name="Group 1980" transform="translate(415.547 139.079)">
      <g id="Group_1973" data-name="Group 1973" transform="translate(28.407 45.272)">
        <path id="Path_5724" data-name="Path 5724" d="M439.931,191.624a8.6,8.6,0,0,0,3.376.323,7.481,7.481,0,0,0,.945-.132c.32-.079.641-.172.958-.28a11.309,11.309,0,0,0,1.846-.81,8.892,8.892,0,0,0,1.537-1.059,7.444,7.444,0,0,0,1.082-1.249,4.037,4.037,0,0,0,.8-2.371,5.048,5.048,0,0,0-1.326.023,11.919,11.919,0,0,0-1.51.241,12.087,12.087,0,0,0-1.652.529c-.284.113-.572.239-.863.375-.287.121-.574.241-.863.381C441.951,188.7,440.184,190.235,439.931,191.624Z" transform="translate(-439.931 -176.134)" fill="#fff"/>
        <path id="Path_5725" data-name="Path 5725" d="M444.087,177.533a3.651,3.651,0,0,1,1.9,1.032c.162.144.322.322.488.481s.336.322.5.5a11.84,11.84,0,0,1,.993,1.243,14.887,14.887,0,0,1,.878,1.422,9.956,9.956,0,0,1,.663,1.337,4.8,4.8,0,0,1,.409,2.431,4.582,4.582,0,0,1-1.255-.154,5.356,5.356,0,0,1-1.32-.629,8.37,8.37,0,0,1-1.269-.975c-.2-.188-.394-.387-.578-.6a7.953,7.953,0,0,1-.508-.725A6.185,6.185,0,0,1,444.087,177.533Z" transform="translate(-439.292 -177.533)" fill="#fff"/>
      </g>
      <g id="Group_1974" data-name="Group 1974" transform="translate(17.208 42.154)">
        <path id="Path_5726" data-name="Path 5726" d="M430.318,186.223a8.629,8.629,0,0,0,6.71,1.193c2.506-.48,4.116-1.985,4.46-3.265a5.868,5.868,0,0,0-1.213-.367,7.736,7.736,0,0,0-1.442-.223,19.02,19.02,0,0,0-3.44.2C432.968,184.128,430.931,185.039,430.318,186.223Z" transform="translate(-430.318 -173.423)" fill="#fff"/>
        <path id="Path_5727" data-name="Path 5727" d="M437.965,174.856c1.073.51,1.944,2.113,2.65,4.112.641,2.1.888,4.073.275,5.307a3.769,3.769,0,0,1-1.1-.507,6.836,6.836,0,0,1-1.021-.963,6.682,6.682,0,0,1-1.49-2.777A5.89,5.89,0,0,1,437.965,174.856Z" transform="translate(-429.216 -174.856)" fill="#fff"/>
      </g>
      <g id="Group_1975" data-name="Group 1975" transform="translate(8.305 36.958)">
        <path id="Path_5728" data-name="Path 5728" d="M422.676,178.461a4.938,4.938,0,0,0,.419.549,7.066,7.066,0,0,0,.557.5,9.071,9.071,0,0,0,1.357.9,10.165,10.165,0,0,0,1.591.692,10.315,10.315,0,0,0,1.807.323,7.413,7.413,0,0,0,3.133-.334,3.716,3.716,0,0,0,1.846-1.346,7.066,7.066,0,0,0-2.232-1.312,12.654,12.654,0,0,0-1.524-.444,12.408,12.408,0,0,0-1.654-.352,11.1,11.1,0,0,0-3.2-.035A3.576,3.576,0,0,0,422.676,178.461Z" transform="translate(-422.676 -169.225)" fill="#fff"/>
        <path id="Path_5729" data-name="Path 5729" d="M432.887,170.4a2.7,2.7,0,0,1,.267.359,3.052,3.052,0,0,1,.263.407,4.675,4.675,0,0,1,.4,1.033,8.156,8.156,0,0,1,.22,1.3,10.55,10.55,0,0,1,.129,1.443,11.127,11.127,0,0,1-.3,2.9,4.352,4.352,0,0,1-.977,2.021,4.5,4.5,0,0,1-1.5-1.963,6.8,6.8,0,0,1-.46-1.377,8.613,8.613,0,0,1-.108-1.588,6.905,6.905,0,0,1,.631-2.794A4.564,4.564,0,0,1,432.887,170.4Z" transform="translate(-421.333 -170.396)" fill="#fff"/>
      </g>
      <g id="Group_1976" data-name="Group 1976" transform="translate(2.406 30.129)">
        <path id="Path_5730" data-name="Path 5730" d="M417.612,169.01a5.65,5.65,0,0,0,1.562,2.406,7.981,7.981,0,0,0,2.781,1.877c2.187.873,4.048.678,5-.106a5.556,5.556,0,0,0-1.653-1.827q-.285-.215-.607-.422c-.2-.142-.4-.289-.623-.428a12.162,12.162,0,0,0-1.417-.777C420.585,168.8,418.706,168.422,417.612,169.01Z" transform="translate(-417.612 -163.842)" fill="#fff"/>
        <path id="Path_5731" data-name="Path 5731" d="M429.358,164.534a4.724,4.724,0,0,1,.338,1.915,12.567,12.567,0,0,1-.465,2.614c-.52,1.871-1.489,3.535-2.566,4.111a5.006,5.006,0,0,1-.8-2.212c-.029-.219-.049-.445-.058-.673a6.228,6.228,0,0,1,.058-.725,8.093,8.093,0,0,1,.334-1.469A5.344,5.344,0,0,1,429.358,164.534Z" transform="translate(-416.26 -164.534)" fill="#fff"/>
      </g>
      <g id="Group_1977" data-name="Group 1977" transform="translate(0 22.223)">
        <path id="Path_5732" data-name="Path 5732" d="M415.547,158.628a4.215,4.215,0,0,0,.168,1.258,8.047,8.047,0,0,0,.567,1.337,8.239,8.239,0,0,0,1.964,2.477c1.745,1.4,3.5,1.764,4.583,1.332a5.328,5.328,0,0,0-1-2.119,12.23,12.23,0,0,0-1.918-2.225C418.291,159.266,416.712,158.4,415.547,158.628Z" transform="translate(-415.547 -157.609)" fill="#fff"/>
        <path id="Path_5733" data-name="Path 5733" d="M427.708,157.748a3.649,3.649,0,0,1-.02.867,4.226,4.226,0,0,1-.212.991,10.044,10.044,0,0,1-1.178,2.258c-.986,1.548-2.331,2.769-3.475,2.978a4.734,4.734,0,0,1-.118-2.226,6.782,6.782,0,0,1,1.135-2.511A5.1,5.1,0,0,1,427.708,157.748Z" transform="translate(-414.379 -157.748)" fill="#fff"/>
      </g>
      <g id="Group_1978" data-name="Group 1978" transform="translate(1.014 11.135)">
        <path id="Path_5734" data-name="Path 5734" d="M416.6,148.23a6.919,6.919,0,0,0,1.042,5.31c1.138,1.745,2.642,2.572,3.749,2.5a5.639,5.639,0,0,0-.288-2.194,11.664,11.664,0,0,0-1.128-2.548C418.94,149.57,417.716,148.349,416.6,148.23Z" transform="translate(-416.417 -148.23)" fill="#fff"/>
        <path id="Path_5735" data-name="Path 5735" d="M428.084,150.619a6.1,6.1,0,0,1-2.42,3.37c-1.372,1.131-2.907,1.849-4,1.709a4.056,4.056,0,0,1,.538-2.047,6.361,6.361,0,0,1,1.714-1.961A4.9,4.9,0,0,1,428.084,150.619Z" transform="translate(-415.552 -147.857)" fill="#fff"/>
      </g>
      <g id="Group_1979" data-name="Group 1979" transform="translate(5.089)">
        <path id="Path_5736" data-name="Path 5736" d="M420.718,138.672a5.3,5.3,0,0,0-.762,2.246,7.48,7.48,0,0,0,.225,2.8,4.41,4.41,0,0,0,2.653,3.31,7.959,7.959,0,0,0,.066-4.665C422.48,140.536,421.673,139.081,420.718,138.672Z" transform="translate(-419.915 -138.672)" fill="#fff"/>
        <path id="Path_5737" data-name="Path 5737" d="M430.526,143.844a3.522,3.522,0,0,1-1.139,1.283,8.617,8.617,0,0,1-2,1.1,5.709,5.709,0,0,1-4.093.4,5,5,0,0,1,3.164-2.975A4.661,4.661,0,0,1,430.526,143.844Z" transform="translate(-419.358 -137.91)" fill="#fff"/>
      </g>
    </g>
    <path id="Path_5738" data-name="Path 5738" d="M429.373,136.2a6.578,6.578,0,0,0-4.9,7.134,9.2,9.2,0,0,0,4.9-7.134Z" transform="translate(1.449)" fill="#fff"/>
    <path id="Path_5739" data-name="Path 5739" d="M455.674,193.1a36.44,36.44,0,0,1-8.884-1.189,23.1,23.1,0,0,1-3.25-1.03c-.33-.122-.661-.245-.991-.362a11.6,11.6,0,0,1-1.35-.6c-.232-.115-.464-.231-.7-.337-.212-.107-.411-.2-.61-.295a10.545,10.545,0,0,1-1.417-.758l-1.887-1.145a11.822,11.822,0,0,1-1.207-.848c-.205-.157-.41-.315-.62-.465a24.4,24.4,0,0,1-2.66-2.216c-.252-.231-.5-.462-.758-.69a34.235,34.235,0,0,1-5.552-7.07,34.8,34.8,0,0,1-.795-34.372l.656.362a34.053,34.053,0,0,0,.785,33.63,33.482,33.482,0,0,0,5.424,6.908c.238.212.493.445.747.678a23.823,23.823,0,0,0,2.582,2.154c.223.158.436.322.648.485a11.106,11.106,0,0,0,1.135.8l1.906,1.158a9.963,9.963,0,0,0,1.333.711c.206.1.411.195.614.3.229.1.469.223.711.341a10.652,10.652,0,0,0,1.264.565c.338.12.671.245,1.005.368a22.69,22.69,0,0,0,3.171,1.005,35.841,35.841,0,0,0,8.729,1.167Z" transform="translate(0.873 0.91)" fill="#fff"/>
  </g>
</svg>
