<svg xmlns="http://www.w3.org/2000/svg" width="74.841" height="73.761" viewBox="0 0 74.841 73.761">
  <g id="Group_2962" data-name="Group 2962" transform="translate(-1004.044 -11492.877)">
    <g id="Group_2949" data-name="Group 2949" transform="matrix(0.966, 0.259, -0.259, 0.966, 1363.294, 10998.193)">
      <path id="Path_19298" data-name="Path 19298" d="M-142.57,596.747l-6.379,5.557,3.343,7.774-8.165,2.228-.361,8.455-8.323-1.523-3.995,7.46-6.834-5-6.834,5-3.995-7.46-8.324,1.522-.361-8.455-8.165-2.227,3.343-7.774-6.38-5.557,6.379-5.557-3.343-7.774,8.165-2.228.361-8.455,8.323,1.523,3.995-7.46,6.834,5,6.834-5,3.995,7.46,8.324-1.522.361,8.455,8.165,2.227-3.343,7.774Z" fill="#ffd82c"/>
    </g>
    <text id="NEW" transform="matrix(0.966, 0.259, -0.259, 0.966, 1021.754, 11531.976)" font-size="16" font-family="NotoSansCJKtc-Bold, Noto Sans CJK TC" font-weight="700"><tspan x="0" y="0">NEW</tspan></text>
  </g>
</svg>
