<svg xmlns="http://www.w3.org/2000/svg" width="27.469" height="33.262" viewBox="0 0 27.469 33.262">
  <path id="Path_5749" data-name="Path 5749" d="M524.981,156.636h-3.052v-4.267a7.63,7.63,0,1,0-15.26,0v4.267h-3.052a3.052,3.052,0,0,0-3.052,3.052v15.26A3.052,3.052,0,0,0,503.617,178h21.364a3.052,3.052,0,0,0,3.052-3.052v-15.26A3.052,3.052,0,0,0,524.981,156.636ZM514.3,170.37a3.052,3.052,0,1,1,3.052-3.052A3.052,3.052,0,0,1,514.3,170.37Zm3.052-13.734h-6.1v-4.267a3.052,3.052,0,1,1,6.1,0Z" transform="translate(-500.565 -144.739)" fill="#ffa95e"/>
</svg>
