<svg id="Group_1985" data-name="Group 1985" xmlns="http://www.w3.org/2000/svg" width="19.813" height="10.929" viewBox="0 0 19.813 10.929">
  <g id="Group_1970" data-name="Group 1970" transform="translate(1.26 1.864)">
    <path id="Path_5722" data-name="Path 5722" d="M516.179,223.358a45.782,45.782,0,0,0-4.108-4.473,45.735,45.735,0,0,0-4.1,4.474,45.109,45.109,0,0,0-4.537-3.476l1.408,8.067h14.477l1.408-8.068A45.076,45.076,0,0,0,516.179,223.358Z" transform="translate(-503.429 -218.885)" fill="#e39654"/>
  </g>
  <g id="Group_1971" data-name="Group 1971" transform="translate(0)">
    <circle id="Ellipse_164" data-name="Ellipse 164" cx="1.098" cy="1.098" r="1.098" transform="translate(0 1.171)" fill="#e39654"/>
    <circle id="Ellipse_165" data-name="Ellipse 165" cx="1.098" cy="1.098" r="1.098" transform="translate(17.617 1.171)" fill="#e39654"/>
    <path id="Path_5723" data-name="Path 5723" d="M518.6,216.813a1.1,1.1,0,1,1-1.1-1.1A1.1,1.1,0,0,1,518.6,216.813Z" transform="translate(-507.515 -215.715)" fill="#e39654"/>
  </g>
</svg>
