<?xml version="1.0" encoding="utf-8"?>
<!-- Generator: Adobe Illustrator 23.0.3, SVG Export Plug-In . SVG Version: 6.00 Build 0)  -->
<svg version="1.1" id="圖層_1" xmlns="http://www.w3.org/2000/svg" xmlns:xlink="http://www.w3.org/1999/xlink" x="0px" y="0px"
	 viewBox="0 0 100 100" style="enable-background:new 0 0 100 100;" xml:space="preserve">
<style type="text/css">
	.st0{fill:#002C7C;}
	.st1{display:none;}
	.st2{display:inline;fill:#002C7C;}
</style>
<g id="calendar" transform="translate(0 -0.999)">
	<path id="Path_183" class="st0" d="M89,59.1l-3.9-3.9c-1.6-1.5-4.1-1.5-5.8,0l-21,21l-2.9,10.6l-0.7,0.7c-0.5,0.5-0.5,1.4,0,1.9
		l0,0l0,0c0.5,0.5,1.4,0.5,1.9,0l0.7-0.7L68,85.8l21-21C90.6,63.3,90.6,60.7,89,59.1z M61.5,76.9l14-14l5.8,5.8l-14,14L61.5,76.9z
		 M60.3,79.5l4.4,4.4l-6,1.6L60.3,79.5z M87.1,62.9l-3.9,3.9L77.4,61l3.9-3.9c0.5-0.5,1.4-0.5,1.9,0l3.9,3.9
		C87.6,61.6,87.6,62.4,87.1,62.9z"/>
	<path id="Path_184" class="st0" d="M58.9,55.8h12.3v-15H19.3v39.5h27.3V55.8H58.9z M58.9,43.5h9.5V53h-9.5V43.5z M34.3,43.5h9.5V53
		h-9.5V43.5z M22.1,43.5h9.5V53h-9.5V43.5z M22.1,55.8h9.5v9.5h-9.5V55.8z M31.6,77.6h-9.5V68h9.5V77.6z M43.9,77.6h-9.5V68h9.5
		V77.6z M43.9,65.3h-9.5v-9.5h9.5V65.3z M46.6,53v-9.5h9.5V53L46.6,53z"/>
	<path id="Path_185" class="st0" d="M45.2,87.1H12.5V34h65.4v17.7c0,0.8,0.6,1.4,1.4,1.4c0.8,0,1.4-0.6,1.4-1.4V19
		c0-0.8-0.6-1.4-1.4-1.4c0,0,0,0,0,0h-6.8v-4.1c0-0.8-0.6-1.4-1.4-1.4c0,0,0,0,0,0h-9.5c-0.8,0-1.4,0.6-1.4,1.4c0,0,0,0,0,0v4.1h-30
		v-4.1c0-0.8-0.6-1.4-1.4-1.4c0,0,0,0,0,0h-9.5c-0.8,0-1.4,0.6-1.4,1.4v4.1h-6.8c-0.8,0-1.4,0.6-1.4,1.4c0,0,0,0,0,0v69.5
		c0,0.8,0.6,1.4,1.4,1.4c0,0,0,0,0,0h34.1c0.8,0,1.4-0.6,1.4-1.4C46.6,87.7,46,87.1,45.2,87.1L45.2,87.1z M62.9,14.9h6.8v8.2h-6.8
		V14.9z M20.7,14.9h6.8v8.2h-6.8L20.7,14.9L20.7,14.9z M12.5,20.3H18v4.1c0,0.8,0.6,1.4,1.4,1.4c0,0,0,0,0,0h9.5
		c0.8,0,1.4-0.6,1.4-1.4c0,0,0,0,0,0v-4.1h30v4.1c0,0.8,0.6,1.4,1.4,1.4c0,0,0,0,0,0h9.5c0.8,0,1.4-0.6,1.4-1.4c0,0,0,0,0,0v-4.1
		h5.5v10.9H12.5V20.3z"/>
</g>
<g id="Group_203" transform="translate(-46.044 -42.194)" class="st1">
	<rect id="Rectangle_128" x="201.9" y="137" class="st2" width="32.9" height="1.2"/>
	<rect id="Rectangle_129" x="201.9" y="131.6" class="st2" width="32.9" height="1.2"/>
	<rect id="Rectangle_130" x="245.2" y="137" class="st2" width="32.9" height="1.2"/>
	<rect id="Rectangle_131" x="201.9" y="126.2" class="st2" width="32.9" height="1.2"/>
	<rect id="Rectangle_132" x="201.9" y="120.8" class="st2" width="32.9" height="1.2"/>
	<rect id="Rectangle_133" x="201.9" y="115.4" class="st2" width="32.9" height="1.2"/>
	<path id="Path_128" class="st2" d="M277.7,89.5c-1.7-2.5-4.6-4.1-7.6-4.1h-4.9c-0.8,0-1.5,0.7-1.5,1.5c0,0.8,0.7,1.5,1.5,1.5
		c0,0,0,0,0,0h4.9c3.4,0,6.1,2.7,6.1,6.1v22.8c0,3.4-2.7,6.1-6.1,6.1h-11.8c-0.4,0-0.8,0.2-1.1,0.4l-5.5,5.5v-4.4
		c0-0.8-0.7-1.5-1.5-1.5H246c-3.4,0-6.1-2.7-6.1-6.1V94.6c0-3.4,2.7-6.1,6.1-6.1h5.7c0.8,0,1.5-0.7,1.5-1.5c0-0.8-0.7-1.5-1.5-1.5
		H246c-2.6,0-5,1.1-6.7,2.9v-6.8c0-1.3-1.1-2.4-2.4-2.4h-2.8c0.4-3.1,2.1-3.3,2.9-3.3c0.8-0.1,1.4-0.7,1.4-1.5v-4.6
		c0-0.8-0.7-1.5-1.5-1.5c0,0-0.1,0-0.1,0c-4.9,0.3-10.7,2.7-10.7,12.9v8c0,1.3,1.1,2.4,2.4,2.4h8.3c0.2,0,0.4,0,0.6-0.1
		c-0.4,1-0.6,2.1-0.6,3.2v22.8c0,1.7,0.5,3.3,1.3,4.8v21.5h-39.7V93.1h2.1c0.1,5.7,4.7,10.3,10.4,10.3h3.2l1.2,1.2h-13.5v1.2h14.7
		l4.2,4.2h-18.9v1.2H222l1.2,1.2c0.6,0.6,1.6,0.6,2.2,0c0.3-0.3,0.5-0.7,0.5-1.1v-0.1h9v-1.2h-9v-4.2h9v-1.2h-9v-1.2h5.4
		c0.8,0,1.5-0.7,1.5-1.5c0-0.8-0.7-1.5-1.5-1.5h-6.9c-0.8,0-1.5,0.7-1.5,1.5v5.7l-1.8-1.8l-1.2-1.2l-3.8-3.8
		c-0.3-0.3-0.7-0.5-1.1-0.4h-3.9c-4,0-7.2-3.2-7.3-7.2c0,0,0-0.1,0-0.1V66.6c0-4,3.3-7.3,7.3-7.3h27.8c4,0,7.3,3.3,7.3,7.3v9.1
		c0,0.8,0.7,1.5,1.5,1.5c0.8,0,1.5-0.7,1.5-1.5v-9.1c0-5.7-4.6-10.4-10.4-10.4h-27.8c-5.7,0-10.4,4.6-10.4,10.4v22.9h-5.7v57.8h90.3
		V89.5H277.7z M229.2,81c0-7.1,3.1-9,6.1-9.6V73c-2.1,0.6-4.4,2.5-4.4,7.7c0,0.8,0.7,1.5,1.5,1.5c0,0,0,0,0,0h3.8v6.1h-7V81z
		 M281.5,143.7h-39.7v-18.1c1.3,0.7,2.8,1,4.2,1h2.6v5h-3.3v1.2h3.3v0.4c0,0.8,0.7,1.5,1.5,1.5c0.4,0,0.8-0.2,1.1-0.5l1.5-1.5h25.4
		v-1.2h-24.2l5-5h11.2c5.1,0,9.2-4.1,9.2-9.2V94.6c0-0.5,0-1-0.1-1.5h2.4L281.5,143.7z"/>
	<path id="Path_129" class="st2" d="M221.3,75.8c0.8-0.1,1.4-0.7,1.4-1.5v-4.6c0-0.8-0.7-1.5-1.5-1.5c0,0-0.1,0-0.1,0
		c-4.9,0.3-10.7,2.7-10.7,12.9v8c0,1.3,1.1,2.4,2.4,2.4h8.3c1.3,0,2.4-1.1,2.4-2.4v-7.4c0-1.3-1.1-2.4-2.4-2.4h-2.8
		C218.8,76,220.5,75.9,221.3,75.8z M215.2,80.7c0,0.8,0.7,1.5,1.5,1.5c0,0,0,0,0,0h3.8v6.1h-7V81c0-7.1,3.1-9,6.1-9.6V73
		C217.6,73.6,215.2,75.5,215.2,80.7L215.2,80.7z"/>
	<path id="Path_130" class="st2" d="M262.2,109.3c-0.3,0.1-0.6,0.2-0.9,0.2c-0.8,0.1-1.4,0.7-1.4,1.5v4.1c0,0.8,0.7,1.5,1.5,1.5h0.1
		c0.5,0,1-0.1,1.5-0.2c2.5-0.3,4.7-1.6,6.1-3.6c0.8-1.1,1.3-2.3,1.6-3.6c0.3-1.2,0.4-2.4,0.5-3.6c0-0.2,0-0.5,0-0.7v-7.2
		c0-1.3-1-2.3-2.3-2.3h-7.5c-1.3,0-2.3,1-2.3,2.3v6.7c0,1.3,1,2.3,2.3,2.3h2.3C263.5,108.5,262.9,109.1,262.2,109.3z M267,105.7
		c0-0.1,0-0.3,0-0.4c0-0.8-0.7-1.5-1.5-1.5h-3.2v-5.2h6v6.5c0,0.2,0,0.5,0,0.7c0,1.2-0.2,2.4-0.6,3.6c-0.5,1.6-1.6,2.9-3.1,3.6
		c-0.5,0.2-1,0.4-1.5,0.5v-1.2l0,0c1.5-0.5,2.7-1.5,3.2-3C266.7,108.2,267,107,267,105.7L267,105.7z"/>
	<path id="Path_131" class="st2" d="M244.8,97.8v6.7c0,1.3,1,2.3,2.3,2.3h2.3c-0.3,1.6-0.9,2.3-1.6,2.5c-0.3,0.1-0.6,0.2-0.9,0.2
		c-0.8,0.1-1.4,0.7-1.4,1.5v4.1c0,0.8,0.7,1.5,1.5,1.5h0.1c0.5,0,1-0.1,1.5-0.2c2.5-0.3,4.7-1.6,6.1-3.6c0.8-1.1,1.3-2.3,1.6-3.6
		c0.3-1.2,0.4-2.4,0.5-3.6c0-0.2,0-0.5,0-0.7v-7.2c0-1.3-1-2.3-2.3-2.3h-7.5C245.9,95.5,244.8,96.5,244.8,97.8z M253.9,102.1v2.9
		c0,0.2,0,0.5,0,0.7c0,1.2-0.2,2.4-0.6,3.6c-0.5,1.6-1.6,2.9-3.1,3.6c-0.5,0.2-1,0.4-1.5,0.5v-1.2c1.5-0.5,2.7-1.5,3.2-3
		c0.5-1.1,0.7-2.4,0.7-3.6c0-0.1,0-0.3,0-0.4c0-0.8-0.7-1.5-1.5-1.5h-3.2v-5.2h6L253.9,102.1z"/>
	<path id="Path_132" class="st2" d="M258.8,88.5c0.8,0,1.5-0.7,1.5-1.5c0-0.8-0.7-1.5-1.5-1.5c-0.8,0-1.5,0.7-1.5,1.5
		c0,0.4,0.2,0.8,0.5,1.1C258,88.3,258.4,88.5,258.8,88.5z"/>
	<path id="Path_133" class="st2" d="M247.6,80c-0.8,0-1.5,0.7-1.5,1.5s0.7,1.5,1.5,1.5c0.8,0,1.5-0.7,1.5-1.5c0-0.4-0.2-0.8-0.5-1.1
		C248.4,80.1,248,80,247.6,80z"/>
</g>
</svg>
