<?xml version="1.0" encoding="utf-8"?>
<!-- Generator: Adobe Illustrator 23.0.3, SVG Export Plug-In . SVG Version: 6.00 Build 0)  -->
<svg version="1.1" id="圖層_1" xmlns="http://www.w3.org/2000/svg" xmlns:xlink="http://www.w3.org/1999/xlink" x="0px" y="0px"
	 viewBox="0 0 100 100" style="enable-background:new 0 0 100 100;" xml:space="preserve">
<style type="text/css">
	.st0{display:none;}
	.st1{display:inline;fill:#002C7C;}
	.st2{fill:#002C7C;}
</style>
<g id="calendar" transform="translate(0 -0.999)" class="st0">
	<path id="Path_183" class="st1" d="M89,59.1l-3.9-3.9c-1.6-1.5-4.1-1.5-5.8,0l-21,21l-2.9,10.6l-0.7,0.7c-0.5,0.5-0.5,1.4,0,1.9
		l0,0l0,0c0.5,0.5,1.4,0.5,1.9,0l0.7-0.7L68,85.8l21-21C90.6,63.3,90.6,60.7,89,59.1z M61.5,76.9l14-14l5.8,5.8l-14,14L61.5,76.9z
		 M60.3,79.5l4.4,4.4l-6,1.6L60.3,79.5z M87.1,62.9l-3.9,3.9L77.4,61l3.9-3.9c0.5-0.5,1.4-0.5,1.9,0l3.9,3.9
		C87.6,61.6,87.6,62.4,87.1,62.9z"/>
	<path id="Path_184" class="st1" d="M58.9,55.8h12.3v-15H19.3v39.5h27.3V55.8H58.9z M58.9,43.5h9.5V53h-9.5V43.5z M34.3,43.5h9.5V53
		h-9.5V43.5z M22.1,43.5h9.5V53h-9.5V43.5z M22.1,55.8h9.5v9.5h-9.5V55.8z M31.6,77.6h-9.5V68h9.5V77.6z M43.9,77.6h-9.5V68h9.5
		V77.6z M43.9,65.3h-9.5v-9.5h9.5V65.3z M46.6,53v-9.5h9.5V53L46.6,53z"/>
	<path id="Path_185" class="st1" d="M45.2,87.1H12.5V34h65.4v17.7c0,0.8,0.6,1.4,1.4,1.4c0.8,0,1.4-0.6,1.4-1.4V19
		c0-0.8-0.6-1.4-1.4-1.4c0,0,0,0,0,0h-6.8v-4.1c0-0.8-0.6-1.4-1.4-1.4c0,0,0,0,0,0h-9.5c-0.8,0-1.4,0.6-1.4,1.4c0,0,0,0,0,0v4.1h-30
		v-4.1c0-0.8-0.6-1.4-1.4-1.4c0,0,0,0,0,0h-9.5c-0.8,0-1.4,0.6-1.4,1.4v4.1h-6.8c-0.8,0-1.4,0.6-1.4,1.4c0,0,0,0,0,0v69.5
		c0,0.8,0.6,1.4,1.4,1.4c0,0,0,0,0,0h34.1c0.8,0,1.4-0.6,1.4-1.4C46.6,87.7,46,87.1,45.2,87.1L45.2,87.1z M62.9,14.9h6.8v8.2h-6.8
		V14.9z M20.7,14.9h6.8v8.2h-6.8L20.7,14.9L20.7,14.9z M12.5,20.3H18v4.1c0,0.8,0.6,1.4,1.4,1.4c0,0,0,0,0,0h9.5
		c0.8,0,1.4-0.6,1.4-1.4c0,0,0,0,0,0v-4.1h30v4.1c0,0.8,0.6,1.4,1.4,1.4c0,0,0,0,0,0h9.5c0.8,0,1.4-0.6,1.4-1.4c0,0,0,0,0,0v-4.1
		h5.5v10.9H12.5V20.3z"/>
</g>
<g>
	<path id="Path_173" class="st2" d="M20.6,9.9v5.3h-6.7v74.8h44.6l8.8-8.8V38.5l18.3-18.3c0.5-0.5,0.5-1.4,0-1.9L80.3,13
		c-0.5-0.5-1.4-0.5-1.9,0L67.4,24.1v-8.8h-6.7V9.9h-8v5.3H50V9.9h-8v5.3h-2.7V9.9h-8v5.3h-2.7V9.9H20.6z M23.3,12.6H26v8h-2.7V12.6z
		 M59.3,85.5v-3.5h3.5L59.3,85.5z M79.4,15.8l3.5,3.5l-7.5,7.5l-3.5-3.5L79.4,15.8z M70,25.2l3.5,3.5L51.3,50.8l-3.5-3.5L70,25.2z
		 M49,52.2l-4.5,1.9l1.9-4.5L49,52.2z M55.3,12.6H58v8h-2.7V12.6z M44.7,12.6h2.7v8h-2.7L44.7,12.6z M34,12.6h2.7v8H34L34,12.6z
		 M31.3,18v5.3h8V18H42v5.3h8V18h2.7v5.3h8V18h4v8.8L45.1,46.4c-0.1,0.1-0.2,0.3-0.3,0.4l0,0l-3.6,8.5H26V58h16c0.2,0,0.4,0,0.5-0.1
		l9.3-4l0,0c0.1-0.1,0.3-0.2,0.4-0.3l12.4-12.4v38.2H58c-0.7,0-1.3,0.6-1.3,1.3v6.7H16.6V18h4v5.3h8V18H31.3z"/>
	<path id="Path_174" class="st2" d="M26,34h24v2.7H26V34z"/>
	<path id="Path_175" class="st2" d="M26,44.7h16v2.7H26V44.7z"/>
	<path id="Path_176" class="st2" d="M30,67.4h24V70H30V67.4z"/>
	<path id="Path_177" class="st2" d="M19.3,70h8v-8h-8V70z M22,64.7h2.7v2.7H22V64.7z"/>
	<path id="Path_178" class="st2" d="M30,78h24v2.7H30V78z"/>
	<path id="Path_179" class="st2" d="M19.3,80.7h8v-8h-8V80.7z M22,75.4h2.7V78H22V75.4z"/>
	<path id="Path_180" class="st2" d="M25.8,30.6l-2.4-1.2l-2.1,4.1l-1.5-0.7l-1.2,2.4l3.9,1.9L25.8,30.6z"/>
	<path id="Path_181" class="st2" d="M25.8,41.2l-2.4-1.2l-2.1,4.1l-1.5-0.7l-1.2,2.4l3.9,1.9L25.8,41.2z"/>
	<path id="Path_182" class="st2" d="M25.8,51.9l-2.4-1.2l-2.1,4.1l-1.5-0.7l-1.2,2.4l3.9,1.9L25.8,51.9z"/>
</g>
</svg>
