<?xml version="1.0" encoding="utf-8"?>
<!-- Generator: Adobe Illustrator 23.0.3, SVG Export Plug-In . SVG Version: 6.00 Build 0)  -->
<svg version="1.1" id="圖層_1" xmlns="http://www.w3.org/2000/svg" xmlns:xlink="http://www.w3.org/1999/xlink" x="0px" y="0px"
	 viewBox="0 0 100 100" style="enable-background:new 0 0 100 100;" xml:space="preserve">
<style type="text/css">
	.st0{display:none;}
	.st1{display:inline;fill:#002C7C;}
	.st2{fill:#002C7C;}
</style>
<g id="calendar" transform="translate(0 -0.999)" class="st0">
	<path id="Path_183" class="st1" d="M89,59.1l-3.9-3.9c-1.6-1.5-4.1-1.5-5.8,0l-21,21l-2.9,10.6l-0.7,0.7c-0.5,0.5-0.5,1.4,0,1.9
		l0,0l0,0c0.5,0.5,1.4,0.5,1.9,0l0.7-0.7L68,85.8l21-21C90.6,63.3,90.6,60.7,89,59.1z M61.5,76.9l14-14l5.8,5.8l-14,14L61.5,76.9z
		 M60.3,79.5l4.4,4.4l-6,1.6L60.3,79.5z M87.1,62.9l-3.9,3.9L77.4,61l3.9-3.9c0.5-0.5,1.4-0.5,1.9,0l3.9,3.9
		C87.6,61.6,87.6,62.4,87.1,62.9z"/>
	<path id="Path_184" class="st1" d="M58.9,55.8h12.3v-15H19.3v39.5h27.3V55.8H58.9z M58.9,43.5h9.5V53h-9.5V43.5z M34.3,43.5h9.5V53
		h-9.5V43.5z M22.1,43.5h9.5V53h-9.5V43.5z M22.1,55.8h9.5v9.5h-9.5V55.8z M31.6,77.6h-9.5V68h9.5V77.6z M43.9,77.6h-9.5V68h9.5
		V77.6z M43.9,65.3h-9.5v-9.5h9.5V65.3z M46.6,53v-9.5h9.5V53L46.6,53z"/>
	<path id="Path_185" class="st1" d="M45.2,87.1H12.5V34h65.4v17.7c0,0.8,0.6,1.4,1.4,1.4c0.8,0,1.4-0.6,1.4-1.4V19
		c0-0.8-0.6-1.4-1.4-1.4c0,0,0,0,0,0h-6.8v-4.1c0-0.8-0.6-1.4-1.4-1.4c0,0,0,0,0,0h-9.5c-0.8,0-1.4,0.6-1.4,1.4c0,0,0,0,0,0v4.1h-30
		v-4.1c0-0.8-0.6-1.4-1.4-1.4c0,0,0,0,0,0h-9.5c-0.8,0-1.4,0.6-1.4,1.4v4.1h-6.8c-0.8,0-1.4,0.6-1.4,1.4c0,0,0,0,0,0v69.5
		c0,0.8,0.6,1.4,1.4,1.4c0,0,0,0,0,0h34.1c0.8,0,1.4-0.6,1.4-1.4C46.6,87.7,46,87.1,45.2,87.1L45.2,87.1z M62.9,14.9h6.8v8.2h-6.8
		V14.9z M20.7,14.9h6.8v8.2h-6.8L20.7,14.9L20.7,14.9z M12.5,20.3H18v4.1c0,0.8,0.6,1.4,1.4,1.4c0,0,0,0,0,0h9.5
		c0.8,0,1.4-0.6,1.4-1.4c0,0,0,0,0,0v-4.1h30v4.1c0,0.8,0.6,1.4,1.4,1.4c0,0,0,0,0,0h9.5c0.8,0,1.4-0.6,1.4-1.4c0,0,0,0,0,0v-4.1
		h5.5v10.9H12.5V20.3z"/>
</g>
<g id="Group_206" transform="translate(453.625 -41.693)">
	<path id="Path_150" class="st2" d="M-443.8,131.9V71.1h53.2V51.5h12.6v19.6h14.6v60.8L-443.8,131.9z M-366.4,129v-4h-35.8v4H-366.4
		z M-405.1,129v-4h-35.8v4H-405.1z M-366.4,122V74h-11.7v19.4c0,4.8-1.9,9.3-5.2,12.7l-1,1l-1-1c-3.4-3.4-5.3-7.9-5.3-12.7V74h-11.5
		v48H-366.4z M-405.1,122V74h-35.8v48H-405.1z M-387.7,93.5c0,3,0.9,5.9,2.6,8.4l0.8,1.2l0.8-1.2c1.7-2.5,2.6-5.4,2.6-8.4v-1.4h-6.7
		L-387.7,93.5z M-381,89.2V64.1h-6.7v25.1H-381z M-381,61.1v-6.7h-6.7v6.7H-381z"/>
	<path id="Path_151" class="st2" d="M-436.9,79.1h28.1v1.2h-28.1V79.1z"/>
	<path id="Path_152" class="st2" d="M-436.9,85.2h28.1v1.2h-28.1V85.2z"/>
	<path id="Path_153" class="st2" d="M-436.9,91.3h28.1v1.2h-28.1V91.3z"/>
	<path id="Path_154" class="st2" d="M-436.9,97.4h28.1v1.2h-28.1V97.4z"/>
	<path id="Path_155" class="st2" d="M-436.9,103.5h28.1v1.2h-28.1V103.5z"/>
	<path id="Path_156" class="st2" d="M-436.9,109.6h28.1v1.2h-28.1V109.6z"/>
	<path id="Path_157" class="st2" d="M-436.9,115.7h28.1v1.2h-28.1V115.7z"/>
	<path id="Path_158" class="st2" d="M-398.3,109.6h28.2v1.2h-28.2L-398.3,109.6z"/>
	<path id="Path_159" class="st2" d="M-398.3,115.7h28.2v1.2h-28.2L-398.3,115.7z"/>
</g>
</svg>
