<svg xmlns="http://www.w3.org/2000/svg" width="60.396" height="33.315" viewBox="0 0 60.396 33.315">
  <g id="Group_1972" data-name="Group 1972" transform="translate(-501.286 -215.715)" opacity="0.75">
    <g id="Group_1970" data-name="Group 1970" transform="translate(505.127 221.397)">
      <path id="Path_5722" data-name="Path 5722" d="M542.295,232.521a139.553,139.553,0,0,0-12.523-13.636,139.412,139.412,0,0,0-12.513,13.638,137.513,137.513,0,0,0-13.83-10.6l4.291,24.591h44.132l4.293-24.593A137.4,137.4,0,0,0,542.295,232.521Z" transform="translate(-503.429 -218.885)" fill="#e39654"/>
    </g>
    <g id="Group_1971" data-name="Group 1971" transform="translate(501.286 215.715)">
      <circle id="Ellipse_164" data-name="Ellipse 164" cx="3.346" cy="3.346" r="3.346" transform="translate(0 3.569)" fill="#e39654"/>
      <circle id="Ellipse_165" data-name="Ellipse 165" cx="3.346" cy="3.346" r="3.346" transform="translate(53.703 3.569)" fill="#e39654"/>
      <path id="Path_5723" data-name="Path 5723" d="M523.1,219.061a3.346,3.346,0,1,1-3.346-3.346A3.347,3.347,0,0,1,523.1,219.061Z" transform="translate(-489.308 -215.715)" fill="#e39654"/>
    </g>
  </g>
</svg>
