<svg xmlns="http://www.w3.org/2000/svg" xmlns:xlink="http://www.w3.org/1999/xlink" width="210" height="210" viewBox="0 0 210 210">
  <defs>
    <clipPath id="clip-path">
      <circle id="Ellipse_274" data-name="Ellipse 274" cx="100" cy="100" r="100" transform="translate(728 11369)" fill="#fff" stroke="#707070" stroke-width="1"/>
    </clipPath>
  </defs>
  <g id="Group_2580" data-name="Group 2580" transform="translate(-855 -6188)">
    <g id="Group_2205" data-name="Group 2205">
      <g id="Ellipse_218" data-name="Ellipse 218" transform="translate(860 6193)" fill="#c1a986" stroke="#0e1018" stroke-width="5">
        <circle cx="100" cy="100" r="100" stroke="none"/>
        <circle cx="100" cy="100" r="102.5" fill="none"/>
      </g>
      <g id="Mask_Group_16" data-name="Mask Group 16" transform="translate(132 -5176)" clip-path="url(#clip-path)">
        <g id="Group_1771" data-name="Group 1771" transform="translate(346.453 11221.874)">
          <rect id="Rectangle_941" data-name="Rectangle 941" width="4.752" height="1.034" transform="translate(563.718 400.049)" fill="#40327a"/>
          <g id="Group_1738" data-name="Group 1738" transform="translate(518.288 400.049)">
            <path id="Path_5405" data-name="Path 5405" d="M740.735,608.987h0Z" transform="translate(-740.735 -608.47)" fill="#f8f7ff"/>
            <rect id="Rectangle_942" data-name="Rectangle 942" width="41.542" height="1.034" fill="#40327a"/>
          </g>
          <rect id="Rectangle_943" data-name="Rectangle 943" width="60.675" height="1.034" transform="translate(280.068 400.05)" fill="#40327a"/>
          <rect id="Rectangle_944" data-name="Rectangle 944" width="25.533" height="1.034" transform="translate(400.298 400.049)" fill="#40327a"/>
          <rect id="Rectangle_945" data-name="Rectangle 945" width="20.663" height="1.034" transform="translate(437.359 400.049)" fill="#40327a"/>
          <g id="Group_1740" data-name="Group 1740" transform="translate(508.895 259.298)">
            <g id="Group_1739" data-name="Group 1739">
              <path id="Path_5406" data-name="Path 5406" d="M760.264,353.876a18.727,18.727,0,0,1-1.077,7.109l-34.937,1.451a18.854,18.854,0,1,1,36.014-8.56Z" transform="translate(-722.572 -335.804)" fill="#a796f2"/>
            </g>
          </g>
          <g id="Group_1742" data-name="Group 1742" transform="translate(522.577 272.982)">
            <g id="Group_1741" data-name="Group 1741" transform="translate(0 0)">
              <path id="Path_5407" data-name="Path 5407" d="M759.367,367.222a5.171,5.171,0,1,1-5.381-4.952A5.171,5.171,0,0,1,759.367,367.222Z" transform="translate(-749.029 -362.265)" fill="#e5659b"/>
            </g>
          </g>
          <path id="Path_5408" data-name="Path 5408" d="M768.869,278.76l25.339,22.519,10.3-9.541-20.535-26.967Z" transform="translate(-236.033 -42.205)" fill="#5a667e"/>
          <circle id="Ellipse_244" data-name="Ellipse 244" cx="10.342" cy="10.342" r="10.342" transform="translate(525.701 224.61) rotate(-28.256)" fill="#5a667e"/>
          <path id="Path_5409" data-name="Path 5409" d="M712.477,281.11l-21.571,26.151-11.649-7.841,16.14-29.807Z" transform="translate(-192.761 -44.543)" fill="#5a667e"/>
          <circle id="Ellipse_245" data-name="Ellipse 245" cx="10.342" cy="10.342" r="10.342" transform="translate(500.464 220.667) rotate(-5.424)" fill="#5a667e"/>
          <g id="Group_1743" data-name="Group 1743" transform="translate(532.134 285.213)">
            <path id="Path_5410" data-name="Path 5410" d="M781.628,385.917l-2.151,43.821H767.515l-.005-43.821Z" transform="translate(-767.51 -385.917)" fill="#121d21"/>
          </g>
          <g id="Group_1745" data-name="Group 1745" transform="translate(509.232 278.154)">
            <g id="Group_1744" data-name="Group 1744" transform="translate(0 0)">
              <circle id="Ellipse_246" data-name="Ellipse 246" cx="7.059" cy="7.059" r="7.059" fill="#40327a"/>
            </g>
          </g>
          <g id="Group_1747" data-name="Group 1747" transform="translate(532.133 278.154)">
            <g id="Group_1746" data-name="Group 1746" transform="translate(0 0)">
              <circle id="Ellipse_247" data-name="Ellipse 247" cx="7.059" cy="7.059" r="7.059" fill="#40327a"/>
            </g>
          </g>
          <path id="Path_5411" data-name="Path 5411" d="M756.282,264.161l-.1,13.1-.291,38.493-37.676,1.564-3.481-38.337-1.184-13.05a7.239,7.239,0,0,1,6.908-7.89l28.277-1.174A7.246,7.246,0,0,1,756.282,264.161Z" transform="translate(-209.307 -38.387)" fill="#5a667e"/>
          <g id="Group_1748" data-name="Group 1748" transform="translate(508.892 278.154)">
            <path id="Path_5412" data-name="Path 5412" d="M760.273,372.267l-.346,7.059-.017.346a7.059,7.059,0,0,1-7.05,6.713H729.978a7.059,7.059,0,0,1-7.05-6.713l-.017-.346-.346-7.059Z" transform="translate(-722.565 -372.267)" fill="#121d21"/>
          </g>
          <g id="Group_1749" data-name="Group 1749" transform="translate(509.236 285.213)">
            <path id="Path_5413" data-name="Path 5413" d="M737.342,385.917v43.821H725.382l-2.151-43.821Z" transform="translate(-723.23 -385.917)" fill="#121d21"/>
          </g>
          <g id="Group_1751" data-name="Group 1751" transform="translate(513.787 389.688)">
            <g id="Group_1750" data-name="Group 1750" transform="translate(0 0)">
              <circle id="Ellipse_248" data-name="Ellipse 248" cx="4.364" cy="4.364" r="4.364" transform="translate(0 8.53) rotate(-77.764)" fill="#40327a"/>
            </g>
          </g>
          <g id="Group_1753" data-name="Group 1753" transform="translate(531.28 389.661)">
            <g id="Group_1752" data-name="Group 1752" transform="translate(0 0)">
              <circle id="Ellipse_249" data-name="Ellipse 249" cx="4.364" cy="4.364" r="4.364" transform="matrix(0.22, -0.976, 0.976, 0.22, 0, 8.515)" fill="#40327a"/>
            </g>
          </g>
          <g id="Group_1755" data-name="Group 1755" transform="translate(531.255 322.169)">
            <g id="Group_1754" data-name="Group 1754" transform="translate(0 0)">
              <circle id="Ellipse_250" data-name="Ellipse 250" cx="5.98" cy="5.98" r="5.98" transform="translate(0 11.805) rotate(-80.749)" fill="#121d21"/>
            </g>
          </g>
          <g id="Group_1757" data-name="Group 1757" transform="translate(510.503 322.169)">
            <g id="Group_1756" data-name="Group 1756" transform="translate(0 0)">
              <circle id="Ellipse_251" data-name="Ellipse 251" cx="5.98" cy="5.98" r="5.98" transform="translate(0 11.805) rotate(-80.749)" fill="#121d21"/>
            </g>
          </g>
          <path id="Path_5414" data-name="Path 5414" d="M767.509,536.5V470.656h11.961L776.237,536.5Z" transform="translate(-235.376 -141.623)" fill="#121d21"/>
          <path id="Path_5415" data-name="Path 5415" d="M730.622,536.5l-3.232-65.845h11.961V536.5Z" transform="translate(-216.003 -141.623)" fill="#121d21"/>
          <path id="Path_5416" data-name="Path 5416" d="M757.795,603.158H770.92v-5.171h-8.734l-5.012,2.734a1.3,1.3,0,0,0-.677,1.14h0A1.3,1.3,0,0,0,757.795,603.158Z" transform="translate(-230.058 -203.109)" fill="#ff809f"/>
          <path id="Path_5417" data-name="Path 5417" d="M723.915,603.158H737.04v-5.171h-8.734l-5.012,2.734a1.3,1.3,0,0,0-.676,1.14h0A1.3,1.3,0,0,0,723.915,603.158Z" transform="translate(-213.698 -203.109)" fill="#ff809f"/>
          <path id="Path_5418" data-name="Path 5418" d="M720.641,209.1l4.421-.318-.927-12.93-4.421.317a6.482,6.482,0,0,0-6,6.928h0A6.482,6.482,0,0,0,720.641,209.1Z" transform="translate(-209.39 -8.926)" fill="#121d21"/>
          <path id="Rectangle_946" data-name="Rectangle 946" d="M9.088,0H9.4a0,0,0,0,1,0,0V9.848a0,0,0,0,1,0,0H0a0,0,0,0,1,0,0v-.76A9.088,9.088,0,0,1,9.088,0Z" transform="translate(535.234 205.146) rotate(175.898)" fill="#121d21"/>
          <rect id="Rectangle_947" data-name="Rectangle 947" width="12.928" height="14.009" transform="translate(531.017 218.639) rotate(175.898)" fill="#ff95a9"/>
          <path id="Path_5419" data-name="Path 5419" d="M728.251,214.9l14.343-1.029-2.084-29.064-21.048,1.509,1.6,22.359A6.723,6.723,0,0,0,728.251,214.9Z" transform="translate(-212.174 -3.593)" fill="#ff95a9"/>
          <path id="Path_5420" data-name="Path 5420" d="M721.834,215.6l-.207-8.937Z" transform="translate(-213.22 -14.145)" fill="none"/>
          <path id="Rectangle_948" data-name="Rectangle 948" d="M0,0H10.808a0,0,0,0,1,0,0V17.693a0,0,0,0,1,0,0h0A10.808,10.808,0,0,1,0,6.885V0A0,0,0,0,1,0,0Z" transform="matrix(-0.997, 0.072, -0.072, -0.997, 534.63, 196.729)" fill="#121d21"/>
          <path id="Path_5421" data-name="Path 5421" d="M759.791,213.663l-2.813.2-.2-2.813a2.82,2.82,0,0,1,2.611-3.014h0a2.82,2.82,0,0,1,3.014,2.611h0A2.819,2.819,0,0,1,759.791,213.663Z" transform="translate(-230.19 -14.806)" fill="#ff95a9"/>
          <path id="Path_5422" data-name="Path 5422" d="M731.783,185.483l5.139-.369a3.875,3.875,0,0,0,3.661-3.932,3.759,3.759,0,0,0-4.025-3.581l-5.139.368a3.876,3.876,0,0,0-3.661,3.933A3.76,3.76,0,0,0,731.783,185.483Z" transform="translate(-216.179 -0.108)" fill="#40327a"/>
          <path id="Path_5423" data-name="Path 5423" d="M734.9,185.259l5.139-.368a3.875,3.875,0,0,0,3.661-3.933,3.76,3.76,0,0,0-4.025-3.581l-5.139.369a3.875,3.875,0,0,0-3.661,3.932A3.76,3.76,0,0,0,734.9,185.259Z" transform="translate(-217.684)" fill="#121d21"/>
          <path id="Path_5424" data-name="Path 5424" d="M720.5,186.292l5.139-.368a3.875,3.875,0,0,0,3.661-3.933,3.76,3.76,0,0,0-4.025-3.581l-5.138.369a3.876,3.876,0,0,0-3.661,3.933A3.76,3.76,0,0,0,720.5,186.292Z" transform="translate(-210.729 -0.499)" fill="#121d21"/>
          <path id="Path_5425" data-name="Path 5425" d="M730.229,196.148l5.139-.369a3.875,3.875,0,0,0,3.661-3.932A3.76,3.76,0,0,0,735,188.267l-5.139.368a3.875,3.875,0,0,0-3.661,3.933A3.76,3.76,0,0,0,730.229,196.148Z" transform="translate(-215.429 -5.258)" fill="#121d21"/>
          <path id="Path_5426" data-name="Path 5426" d="M753.519,257.3a9.611,9.611,0,1,1-19.2.8Z" transform="translate(-219.347 -38.598)" fill="#ff95a9"/>
          <path id="Path_5427" data-name="Path 5427" d="M743.422,268.553a10.128,10.128,0,0,1-10.107-9.71l1.033-.043a9.094,9.094,0,0,0,14.38,7.02l.6.84a10.093,10.093,0,0,1-5.48,1.884C743.708,268.551,743.564,268.553,743.422,268.553Z" transform="translate(-218.864 -39.322)" fill="#fff"/>
          <path id="Path_5428" data-name="Path 5428" d="M767.163,268.113l-.793-.664a9.119,9.119,0,0,0,1.294-2.047l.94.431A10.153,10.153,0,0,1,767.163,268.113Z" transform="translate(-234.826 -42.51)" fill="#fff"/>
          <circle id="Ellipse_252" data-name="Ellipse 252" cx="6.464" cy="6.464" r="6.464" transform="matrix(0.899, -0.437, 0.437, 0.899, 515.93, 216.114)" fill="#ff95a9"/>
          <path id="Path_5429" data-name="Path 5429" d="M753.023,217.773h0a1.41,1.41,0,0,0,1.306-1.507l-.025-.352-2.813.2.025.352A1.41,1.41,0,0,0,753.023,217.773Z" transform="translate(-227.641 -18.613)" fill="#121d21"/>
          <path id="Path_5430" data-name="Path 5430" d="M721.25,196.792l5.139-.369a3.875,3.875,0,0,0,3.661-3.932,3.76,3.76,0,0,0-4.025-3.581l-5.139.368a3.876,3.876,0,0,0-3.661,3.933A3.76,3.76,0,0,0,721.25,196.792Z" transform="translate(-211.093 -5.569)" fill="#121d21"/>
          <path id="Path_5431" data-name="Path 5431" d="M715.18,192.031l4.421-.317-.927-12.93-4.421.317a6.482,6.482,0,0,0-6,6.929h0A6.482,6.482,0,0,0,715.18,192.031Z" transform="translate(-206.753 -0.684)" fill="#121d21"/>
          <rect id="Rectangle_949" data-name="Rectangle 949" width="24.822" height="3.103" transform="translate(378.365 301.067) rotate(180)" fill="#c4b8ff"/>
          <g id="Group_1758" data-name="Group 1758" transform="translate(420.169 321.753)">
            <path id="Path_5432" data-name="Path 5432" d="M645.933,456.579l22.723,78.3h2.611l-18.581-78.3Z" transform="translate(-596.838 -456.579)" fill="#916a43"/>
            <path id="Path_5433" data-name="Path 5433" d="M576.328,456.579l-22.723,78.3h-2.611l18.58-78.3Z" transform="translate(-550.994 -456.579)" fill="#916a43"/>
          </g>
          <circle id="Ellipse_253" data-name="Ellipse 253" cx="38.267" cy="38.267" r="38.267" transform="translate(419.117 272.314)" fill="#916a43"/>
          <path id="Path_5434" data-name="Path 5434" d="M606.493,506.511A38.6,38.6,0,0,1,596,504.082l.372-.965a37.55,37.55,0,0,0,10.21,2.364Z" transform="translate(-152.559 -157.298)" fill="#121d21"/>
          <path id="Path_5435" data-name="Path 5435" d="M622.958,476.312v-1.034a37.865,37.865,0,0,0,37.653-35.014l1.031.074A38.9,38.9,0,0,1,622.958,476.312Z" transform="translate(-165.575 -126.947)" fill="#121d21"/>
          <path id="Path_5436" data-name="Path 5436" d="M691.477,415.515h-1.034a37.623,37.623,0,0,0-5.906-20.282l.871-.556A38.655,38.655,0,0,1,691.477,415.515Z" transform="translate(-195.31 -104.934)" fill="#121d21"/>
          <path id="Path_5437" data-name="Path 5437" d="M676.822,385.2a38.139,38.139,0,0,0-2.988-3.263l.721-.742a39.219,39.219,0,0,1,3.069,3.352Z" transform="translate(-190.142 -98.422)" fill="#121d21"/>
          <g id="Group_1759" data-name="Group 1759" transform="translate(290.538 301.067)">
            <path id="Path_5438" data-name="Path 5438" d="M313.754,416.576l-.543,5.171-10.286,93.811h-2.611l7.72-98.982Z" transform="translate(-300.315 -416.576)" fill="#ddd6ff"/>
            <path id="Path_5439" data-name="Path 5439" d="M843.726,416.576l.543,5.171,10.286,93.811h2.611l-7.72-98.982Z" transform="translate(-562.718 -416.576)" fill="#ddd6ff"/>
          </g>
          <circle id="Ellipse_254" data-name="Ellipse 254" cx="12.024" cy="12.024" r="12.024" transform="translate(441.957 295.329)" fill="#ff95a9"/>
          <circle id="Ellipse_255" data-name="Ellipse 255" cx="6.723" cy="6.723" r="6.723" transform="translate(429.414 262.713)" fill="#ff95a9"/>
          <path id="Path_5440" data-name="Path 5440" d="M609.27,349.44l-1.74,37.606H583.483l-9.937-39.492a4.137,4.137,0,0,1,4.012-5.147h25A6.723,6.723,0,0,1,609.27,349.44Z" transform="translate(-141.653 -79.694)" fill="#ffc359"/>
          <circle id="Ellipse_256" data-name="Ellipse 256" cx="6.723" cy="6.723" r="6.723" transform="translate(429.414 262.713)" fill="#ffc359"/>
          <path id="Path_5441" data-name="Path 5441" d="M590.233,428.73H614.28l1.3,1.007a17.907,17.907,0,0,1,6.919,14.14v5.172a7.24,7.24,0,0,1-7.24,7.24H594.372a7.239,7.239,0,0,1-7.24-7.24v-7.082A29.8,29.8,0,0,1,590.233,428.73Z" transform="translate(-148.275 -121.378)" fill="#ff95a9"/>
          <circle id="Ellipse_257" data-name="Ellipse 257" cx="6.723" cy="6.723" r="6.723" transform="translate(454.205 262.713)" fill="#ffc359"/>
          <circle id="Ellipse_258" data-name="Ellipse 258" cx="4.885" cy="4.885" r="4.885" transform="translate(469.335 291.381)" fill="#ffc359"/>
          <g id="Group_1760" data-name="Group 1760" transform="translate(440.384 248.235)">
            <rect id="Rectangle_950" data-name="Rectangle 950" width="11.377" height="14.009" transform="translate(0 1.062) rotate(-5.354)" fill="#ff95a9"/>
            <path id="Path_5442" data-name="Path 5442" d="M603.917,336.564a5.688,5.688,0,1,1-6.195-5.133A5.688,5.688,0,0,1,603.917,336.564Z" transform="translate(-591.283 -322.617)" fill="#ff95a9"/>
          </g>
          <circle id="Ellipse_259" data-name="Ellipse 259" cx="8.1" cy="8.1" r="8.1" transform="matrix(0.644, -0.765, 0.765, 0.644, 444.929, 249.881)" fill="#121d21"/>
          <path id="Path_5443" data-name="Path 5443" d="M560.308,282.516a17.869,17.869,0,1,1,19.458,16.124l-9.919-8.22a8.76,8.76,0,0,1-9.539-7.9Z" transform="translate(-135.284 -41.339)" fill="#121d21"/>
          <path id="Path_5444" data-name="Path 5444" d="M610.006,308.153l-2.574.241-.482-5.148,2.574-.242a2.586,2.586,0,0,1,2.816,2.333h0A2.586,2.586,0,0,1,610.006,308.153Z" transform="translate(-157.845 -60.662)" fill="#ff95a9"/>
          <path id="Path_5445" data-name="Path 5445" d="M571.741,285.994l19.348-1.814,2.341,24.977-12.017,1.126a8.381,8.381,0,0,1-9.159-8.079Z" transform="translate(-140.843 -51.577)" fill="#ff95a9"/>
          <path id="Path_5446" data-name="Path 5446" d="M589.567,289.177l.515-.049-1.394-14.871-15.326,1.436a7.361,7.361,0,0,0-6.642,8.015l.027.291.516-.048a20.229,20.229,0,0,1,12.527,2.935h0a15.79,15.79,0,0,0,9.776,2.29Z" transform="translate(-138.403 -46.786)" fill="#121d21"/>
          <rect id="Rectangle_951" data-name="Rectangle 951" width="289.236" height="5.171" transform="translate(293.144 301.067)" fill="#dfdfe2"/>
          <rect id="Rectangle_952" data-name="Rectangle 952" width="289.236" height="5.171" transform="translate(293.144 301.067)" fill="#46505c"/>
          <path id="Path_5447" data-name="Path 5447" d="M630.563,350.366l11.6,27.543-8.743,4.324-14.887-25.917Z" transform="translate(-163.437 -83.537)" fill="#ffc359"/>
          <rect id="Rectangle_953" data-name="Rectangle 953" width="72.31" height="48.958" transform="translate(319.911 239.354)" fill="#121d21"/>
          <path id="Path_5448" data-name="Path 5448" d="M422.681,379.233H403.031l1.551-39.991H421.13Z" transform="translate(-59.376 -78.166)" fill="#c4b8ff"/>
          <circle id="Ellipse_260" data-name="Ellipse 260" cx="4.395" cy="4.395" r="4.395" transform="translate(349.084 271.764)" fill="#ddd6ff"/>
          <path id="Path_5449" data-name="Path 5449" d="M420.033,370.685a4.864,4.864,0,0,1-2.139-.489l.451-.93a3.879,3.879,0,0,0,4.862-5.722l.846-.595a4.913,4.913,0,0,1-4.02,7.736Z" transform="translate(-66.554 -89.613)" fill="#fff"/>
          <path id="Path_5450" data-name="Path 5450" d="M560.412,351.006l-9.878,27.453,8.953,3.869,13.246-26Z" transform="translate(-130.603 -83.846)" fill="#ffc359"/>
          <circle id="Ellipse_261" data-name="Ellipse 261" cx="6.723" cy="6.723" r="6.723" transform="translate(432.134 278.31)" fill="#ffc359"/>
          <path id="Path_5451" data-name="Path 5451" d="M581.013,395.276a7.275,7.275,0,0,1-6.552-4.157l.935-.441a6.236,6.236,0,0,0,5.616,3.563Z" transform="translate(-142.157 -103.003)" fill="#fff"/>
          <path id="Path_5452" data-name="Path 5452" d="M576.095,389.017a7.281,7.281,0,0,1-2.968-5.847,7.162,7.162,0,0,1,.413-2.4l.056-.161.977.337-.057.165a6.134,6.134,0,0,0-.355,2.06,6.242,6.242,0,0,0,2.545,5.012Z" transform="translate(-141.513 -98.141)" fill="#fff"/>
          <path id="Path_5453" data-name="Path 5453" d="M599.628,400.7a2.586,2.586,0,1,1,3.6.637A2.585,2.585,0,0,1,599.628,400.7Z" transform="translate(-154.084 -105.877)" fill="#ff95a9"/>
          <path id="Path_5454" data-name="Path 5454" d="M646.163,401.778a4.885,4.885,0,1,0,5.743-3.84A4.884,4.884,0,0,0,646.163,401.778Z" transform="translate(-176.735 -106.463)" fill="#ffc359"/>
          <path id="Path_5455" data-name="Path 5455" d="M630.358,397.259l-26.609-.629-.562,5.121,26.11,5.184Z" transform="translate(-156.028 -105.877)" fill="#ffc359"/>
          <path id="Path_5456" data-name="Path 5456" d="M610.53,403.209l-7.34-1.457.558-5.119,7.483.178Z" transform="translate(-156.03 -105.879)" fill="#ff95a9"/>
          <circle id="Ellipse_262" data-name="Ellipse 262" cx="3.361" cy="3.361" r="3.361" transform="translate(413.447 392.034)" fill="#40327a"/>
          <path id="Path_5457" data-name="Path 5457" d="M590.233,428.73H614.28l1.3,1.007a17.907,17.907,0,0,1,6.919,14.14v5.172a7.24,7.24,0,0,1-7.24,7.24H594.372a7.239,7.239,0,0,1-7.24-7.24v-7.082A29.8,29.8,0,0,1,590.233,428.73Z" transform="translate(-148.275 -121.378)" fill="#0b3558"/>
          <circle id="Ellipse_263" data-name="Ellipse 263" cx="7.24" cy="7.24" r="7.24" transform="translate(438.857 320.429)" fill="#0b3558"/>
          <circle id="Ellipse_264" data-name="Ellipse 264" cx="7.24" cy="7.24" r="7.24" transform="translate(459.741 320.429)" fill="#0b3558"/>
          <circle id="Ellipse_265" data-name="Ellipse 265" cx="5.849" cy="5.849" r="5.849" transform="translate(403.103 323.186)" fill="#0b3558"/>
          <path id="Path_5458" data-name="Path 5458" d="M529.735,469.736l5.377,66.564-6.671.8-10.314-65.974Z" transform="translate(-114.955 -141.179)" fill="#0b3558"/>
          <circle id="Ellipse_266" data-name="Ellipse 266" cx="3.361" cy="3.361" r="3.361" transform="translate(433.997 392.034)" fill="#40327a"/>
          <circle id="Ellipse_267" data-name="Ellipse 267" cx="5.849" cy="5.849" r="5.849" transform="translate(423.654 323.186)" fill="#40327a"/>
          <path id="Path_5459" data-name="Path 5459" d="M569.477,469.736l5.377,66.564-6.671.8-10.314-65.974Z" transform="translate(-134.145 -141.179)" fill="#0b3558"/>
          <path id="Path_5460" data-name="Path 5460" d="M565.492,454.057l-37.041,2.753.436,11.681,37.144.025Z" transform="translate(-119.94 -133.608)" fill="#0b3558"/>
          <path id="Path_5461" data-name="Path 5461" d="M517.182,404.791a2.586,2.586,0,1,1,3.438,1.245A2.586,2.586,0,0,1,517.182,404.791Z" transform="translate(-114.379 -108.04)" fill="#ff95a9"/>
          <path id="Path_5462" data-name="Path 5462" d="M506.453,401.805v0a3.619,3.619,0,1,0,1.924,6.874L514,406.05l-1.375-4.913Z" transform="translate(-107.757 -108.054)" fill="#ff95a9"/>
          <path id="Path_5463" data-name="Path 5463" d="M550.033,402a4.885,4.885,0,1,0,5.562-4.1A4.885,4.885,0,0,0,550.033,402Z" transform="translate(-130.334 -106.464)" fill="#ffc359"/>
          <path id="Path_5464" data-name="Path 5464" d="M540.531,397.88l-19.183,1.679-.16,5.133,19.041,2.885Z" transform="translate(-116.433 -106.481)" fill="#ffc359"/>
          <path id="Path_5465" data-name="Path 5465" d="M540.23,407.574l-19.045-2.886.16-5.133,3.1-.274,16.087-1.407Z" transform="translate(-116.431 -106.478)" fill="#ffc359"/>
          <path id="Path_5466" data-name="Path 5466" d="M524.258,406.467,521.185,406l.16-5.133,3.1-.274Z" transform="translate(-116.431 -107.792)" fill="#ff95a9"/>
          <path id="Path_5467" data-name="Path 5467" d="M588.8,398.538l0,0a3.619,3.619,0,1,0,3.074,6.443l5.085-3.557-2.2-4.6Z" transform="translate(-147.816 -105.971)" fill="#ff95a9"/>
          <circle id="Ellipse_268" data-name="Ellipse 268" cx="7.054" cy="7.054" r="7.054" transform="matrix(0.945, -0.326, 0.326, 0.945, 483.735, 253.862)" fill="#5a667e"/>
          <path id="Path_5468" data-name="Path 5468" d="M659.884,334.81l-36.715,17.57-3.2-5.287,1.682-1.252,2.486-1.849,28.476-21.2Z" transform="translate(-164.134 -70.222)" fill="#a796f2"/>
          <path id="Path_5469" data-name="Path 5469" d="M659.886,334.814l-36.715,17.57-3.2-5.287,5.842-4.349,26.8-19.953Z" transform="translate(-164.135 -70.224)" fill="#5a667e"/>
          <path id="Path_5470" data-name="Path 5470" d="M629.744,367.87l-6.572,3.145-3.2-5.287,5.842-4.349Z" transform="translate(-164.135 -88.856)" fill="#f0d9bb"/>
          <rect id="Rectangle_954" data-name="Rectangle 954" width="32.499" height="40.059" transform="translate(518.159 238.094)" fill="#ffc359"/>
          <circle id="Ellipse_269" data-name="Ellipse 269" cx="7.054" cy="7.054" r="7.054" transform="translate(553.853 249.516) rotate(-19.556)" fill="#5a667e"/>
          <path id="Path_5471" data-name="Path 5471" d="M534.13,598.987h6.723v4.654h-9.419a1.441,1.441,0,0,1-1.441-1.441h0a1.442,1.442,0,0,1,.723-1.25Z" transform="translate(-120.684 -203.592)" fill="#7760db"/>
          <path id="Path_5472" data-name="Path 5472" d="M573.872,598.987h6.723v4.654h-9.418a1.442,1.442,0,0,1-1.442-1.441h0a1.443,1.443,0,0,1,.723-1.25Z" transform="translate(-139.874 -203.592)" fill="#7760db"/>
          <g id="Group_1761" data-name="Group 1761" transform="translate(332.674 342.89)">
            <circle id="Ellipse_270" data-name="Ellipse 270" cx="9.976" cy="9.976" r="9.976" transform="translate(0 19.695) rotate(-80.783)" fill="#fff"/>
            <path id="Path_5473" data-name="Path 5473" d="M394.131,520.28a10.493,10.493,0,1,1,10.493-10.493A10.505,10.505,0,0,1,394.131,520.28Zm0-19.952a9.459,9.459,0,1,0,9.459,9.459A9.47,9.47,0,0,0,394.131,500.328Z" transform="translate(-382.686 -498.342)" fill="#40327a"/>
          </g>
          <g id="Group_1762" data-name="Group 1762" transform="translate(321.988 348.375)">
            <circle id="Ellipse_271" data-name="Ellipse 271" cx="7.18" cy="7.18" r="7.18" transform="translate(0 5.495) rotate(-22.5)" fill="#fff"/>
            <path id="Path_5474" data-name="Path 5474" d="M372.085,526.711a7.7,7.7,0,1,1,7.7-7.7A7.706,7.706,0,0,1,372.085,526.711Zm0-14.359a6.663,6.663,0,1,0,6.663,6.663A6.67,6.67,0,0,0,372.085,512.351Z" transform="translate(-362.704 -509.633)" fill="#40327a"/>
          </g>
          <path id="Path_5475" data-name="Path 5475" d="M391.4,521.587l-.677,5.208-.129,1.034-1.841,14.21-2.244,17.287-.222,1.727-.677,5.213h-29.1l-.677-5.213-.134-1.034-1.629-12.576-2.544-19.614-.129-1.034-.677-5.208Z" transform="translate(-34.115 -166.217)" fill="#a796f2"/>
          <path id="Path_5476" data-name="Path 5476" d="M391.879,561.137l-2.244,17.287-.222,1.727-.677,5.213h-29.1l-.677-5.213-.134-1.034L357.2,566.541Z" transform="translate(-37.244 -185.315)" fill="#c4b8ff"/>
          <g id="Group_1763" data-name="Group 1763" transform="translate(317.281 360.578)">
            <path id="Path_5477" data-name="Path 5477" d="M365.392,565.792l-1.029.093-.052-.564-2.968-32.191-.041-.471,1.034-.093.052.564,2.963,32.191Z" transform="translate(-356.507 -532.096)" fill="#fff"/>
            <rect id="Rectangle_955" data-name="Rectangle 955" width="1.034" height="33.275" transform="translate(10.541 0.547) rotate(-3.152)" fill="#fff"/>
            <rect id="Rectangle_956" data-name="Rectangle 956" width="1.034" height="33.23" transform="translate(16.285 0.528) rotate(-1.039)" fill="#fff"/>
            <rect id="Rectangle_957" data-name="Rectangle 957" width="33.231" height="1.034" transform="matrix(0.019, -1, 1, 0.019, 21.409, 33.734)" fill="#fff"/>
            <rect id="Rectangle_958" data-name="Rectangle 958" width="33.277" height="1.034" transform="translate(25.923 33.714) rotate(-86.806)" fill="#fff"/>
            <path id="Path_5478" data-name="Path 5478" d="M415.012,532.66l-.041.471-2.989,32.191-.052.564-1.029-.093.041-.471,2.989-32.191.052-.564Z" transform="translate(-380.458 -532.096)" fill="#fff"/>
            <path id="Path_5479" data-name="Path 5479" d="M352.031,531.657l.129,1.034h39.068l.129-1.034Zm35.019,33.225H356.333l.134,1.034h30.453l.222-1.727v-.026Z" transform="translate(-352.031 -531.657)" fill="#fff"/>
          </g>
          <g id="Group_1764" data-name="Group 1764" transform="translate(316.601 354.853)">
            <path id="Path_5480" data-name="Path 5480" d="M350.716,521.587h0Z" transform="translate(-350.716 -521.07)" fill="#f8f7ff"/>
            <rect id="Rectangle_959" data-name="Rectangle 959" width="15.108" height="1.034" transform="translate(0 0)" fill="#40327a"/>
          </g>
          <g id="Group_1765" data-name="Group 1765" transform="translate(347.121 400.049)">
            <path id="Path_5481" data-name="Path 5481" d="M409.735,608.987h0Z" transform="translate(-409.735 -608.47)" fill="#f8f7ff"/>
            <rect id="Rectangle_960" data-name="Rectangle 960" width="16.244" height="1.034" transform="translate(0)" fill="#40327a"/>
          </g>
          <g id="Group_1766" data-name="Group 1766" transform="translate(318.929 400.049)">
            <path id="Path_5482" data-name="Path 5482" d="M355.218,608.987h0Z" transform="translate(-355.218 -608.47)" fill="#f8f7ff"/>
            <rect id="Rectangle_961" data-name="Rectangle 961" width="8.237" height="1.034" fill="#40327a"/>
          </g>
          <rect id="Rectangle_962" data-name="Rectangle 962" width="1.034" height="20.01" transform="translate(361.237 261.097) rotate(-2.222)" fill="#40327a"/>
          <rect id="Rectangle_963" data-name="Rectangle 963" width="1.034" height="4.829" transform="translate(362.196 285.814) rotate(-2.223)" fill="#40327a"/>
          <path id="Path_5483" data-name="Path 5483" d="M403.065,378.771l-1.033-.04,1.571-40.488h8.771v1.034H404.6Z" transform="translate(-58.894 -77.683)" fill="#fff"/>
          <rect id="Rectangle_964" data-name="Rectangle 964" width="2.112" height="1.034" transform="translate(355.136 260.56)" fill="#fff"/>
          <rect id="Rectangle_965" data-name="Rectangle 965" width="60.336" height="1.034" transform="translate(293.144 305.721)" fill="#40327a"/>
          <rect id="Rectangle_966" data-name="Rectangle 966" width="4.201" height="1.034" transform="translate(361.754 305.721)" fill="#40327a"/>
          <rect id="Rectangle_967" data-name="Rectangle 967" width="54.47" height="1.034" transform="translate(374.011 305.721)" fill="#121d21"/>
          <rect id="Rectangle_968" data-name="Rectangle 968" width="68.661" height="1.034" transform="translate(432.217 305.721)" fill="#121d21"/>
          <rect id="Rectangle_969" data-name="Rectangle 969" width="66.09" height="1.034" transform="translate(516.29 305.721)" fill="#121d21"/>
          <rect id="Rectangle_970" data-name="Rectangle 970" width="1.034" height="31.342" transform="translate(517.642 238.094)" fill="#fff"/>
          <rect id="Rectangle_971" data-name="Rectangle 971" width="1.034" height="4.551" transform="translate(517.642 273.602)" fill="#fff"/>
          <rect id="Rectangle_972" data-name="Rectangle 972" width="7.815" height="1.034" transform="translate(432.733 280.621) rotate(-70.617)" fill="#fff"/>
          <path id="Path_5485" data-name="Path 5485" d="M630.1,391.129l-11.391-.285.026-1.034,9.551.239-3.637-6.328.9-.515Z" transform="translate(-163.525 -99.395)" fill="#fff"/>
          <g id="Group_1767" data-name="Group 1767" transform="translate(445.441 275.268)">
            <circle id="Ellipse_272" data-name="Ellipse 272" cx="4.137" cy="4.137" r="4.137" transform="translate(0 8.804) rotate(-70.497)" fill="#ff95a9"/>
            <circle id="Ellipse_273" data-name="Ellipse 273" cx="3.103" cy="3.103" r="3.103" transform="translate(8.157 5.671) rotate(-66.037)" fill="#ff95a9"/>
            <path id="Path_5486" data-name="Path 5486" d="M608.788,369.851l7.139-1.169,1.84,5.862-6.526,3.123Z" transform="translate(-604.174 -367.65)" fill="#ff95a9"/>
          </g>
          <path id="Path_5487" data-name="Path 5487" d="M627.235,370.618l-4.063,1.944-3.2-5.287,1.682-1.252,1.933-1.435Z" transform="translate(-164.136 -90.405)" fill="#ff95a9"/>
          <rect id="Rectangle_973" data-name="Rectangle 973" width="8.285" height="6.616" transform="translate(386.932 246.345) rotate(-11.423)" fill="#ffc359"/>
          <rect id="Rectangle_974" data-name="Rectangle 974" width="8.285" height="6.616" transform="translate(387.505 255.808)" fill="#ff809f"/>
          <rect id="Rectangle_975" data-name="Rectangle 975" width="8.285" height="6.616" transform="translate(388.804 264.576) rotate(8.616)" fill="#f0d9bb"/>
          <rect id="Rectangle_976" data-name="Rectangle 976" width="1.034" height="43.468" transform="matrix(0.973, -0.231, 0.231, 0.973, 484.058, 357.876)" fill="#c4b8ff"/>
          <rect id="Rectangle_977" data-name="Rectangle 977" width="1.034" height="2.835" transform="translate(581.342 359.974) rotate(-4.454)" fill="#c4b8ff"/>
          <rect id="Rectangle_978" data-name="Rectangle 978" width="1.034" height="33.145" transform="matrix(0.997, -0.078, 0.078, 0.997, 581.893, 367.045)" fill="#c4b8ff"/>
          <rect id="Rectangle_980" data-name="Rectangle 980" width="1.034" height="34.259" transform="translate(550.141 243.894)" fill="#121d21"/>
          <g id="Group_1768" data-name="Group 1768" transform="translate(521.8 247.023)">
            <path id="Path_5488" data-name="Path 5488" d="M786.638,312.066l-39.112,11.269,1.126,6.074,7.255-.632,33.288-2.9Z" transform="translate(-747.527 -312.066)" fill="#5a667e"/>
            <path id="Path_5489" data-name="Path 5489" d="M754.528,329.957l-7,2.017,1.126,6.074,7.255-.632Z" transform="translate(-747.527 -320.705)" fill="#f0d9bb"/>
          </g>
          <g id="Group_1769" data-name="Group 1769" transform="translate(521.801 257.047)">
            <path id="Path_5490" data-name="Path 5490" d="M751.856,331.449l-4.328,1.247,1.126,6.074,2.089-.182,2.4-.212Z" transform="translate(-747.528 -331.449)" fill="#ff95a9"/>
          </g>
          <g id="Group_1770" data-name="Group 1770" transform="translate(511.223 256.694)">
            <path id="Path_5491" data-name="Path 5491" d="M727.158,334.072a4.137,4.137,0,1,1,3.22,4.885A4.137,4.137,0,0,1,727.158,334.072Z" transform="translate(-727.073 -330.767)" fill="#ff95a9"/>
            <path id="Path_5492" data-name="Path 5492" d="M743.243,336.1a3.1,3.1,0,1,0,3.663-2.415A3.1,3.1,0,0,0,743.243,336.1Z" transform="translate(-734.85 -332.146)" fill="#ff95a9"/>
            <path id="Path_5493" data-name="Path 5493" d="M735.729,339.109l7.21-.589.37-6.132-7.086-1.455Z" transform="translate(-731.253 -330.847)" fill="#ff95a9"/>
          </g>
          <rect id="Rectangle_981" data-name="Rectangle 981" width="23.227" height="1.034" transform="matrix(0.996, -0.087, 0.087, 0.996, 534.704, 262.821)" fill="#121d21"/>
          <rect id="Rectangle_982" data-name="Rectangle 982" width="1.9" height="1.034" transform="matrix(0.996, -0.087, 0.087, 0.996, 530.899, 263.152)" fill="#121d21"/>
          <path id="Path_5494" data-name="Path 5494" d="M584.491,319.835a2.844,2.844,0,0,1-5.667.5Z" transform="translate(-144.264 -68.795)" fill="#fff"/>
          <path id="Path_5495" data-name="Path 5495" d="M734.494,228.428a2.844,2.844,0,1,1-5.673.414Z" transform="translate(-216.694 -24.656)" fill="#fff"/>
          <rect id="Rectangle_983" data-name="Rectangle 983" width="1.034" height="7.045" transform="matrix(0.856, -0.517, 0.517, 0.856, 459.014, 274.45)" fill="#fff"/>
          <rect id="Rectangle_984" data-name="Rectangle 984" width="1.034" height="7.045" transform="translate(525.62 257.141) rotate(-10.515)" fill="#fff"/>
          <rect id="Rectangle_985" data-name="Rectangle 985" width="1.035" height="6.616" transform="matrix(0.98, -0.198, 0.198, 0.98, 386.424, 246.447)" fill="#fff"/>
          <rect id="Rectangle_986" data-name="Rectangle 986" width="1.034" height="6.616" transform="translate(386.987 255.808)" fill="#fff"/>
          <rect id="Rectangle_987" data-name="Rectangle 987" width="6.616" height="1.034" transform="matrix(0.15, -0.989, 0.989, 0.15, 387.302, 271.04)" fill="#fff"/>
        </g>
      </g>
    </g>
  </g>
</svg>
