<?xml version="1.0" encoding="utf-8"?>
<!-- Generator: Adobe Illustrator 23.0.3, SVG Export Plug-In . SVG Version: 6.00 Build 0)  -->
<svg version="1.1" id="圖層_1" xmlns="http://www.w3.org/2000/svg" xmlns:xlink="http://www.w3.org/1999/xlink" x="0px" y="0px"
	 viewBox="0 0 180 180" style="enable-background:new 0 0 180 180;" xml:space="preserve">
<style type="text/css">
	.st0{fill:#00BAB3;}
</style>
<g id="Group_1647" transform="translate(773.589 23.463)">
	<g id="Group_1646" transform="translate(-773.589 -23.463)">
		<path id="Path_5229" class="st0" d="M113.4,115.5c-2.4,0-4.4,1.9-4.5,4.3h9C117.8,117.4,115.8,115.5,113.4,115.5z"/>
		<path id="Path_5230" class="st0" d="M171.6,59.9c-4.6-7.9-12.7-18.2-23.1-28.5S128,12.9,120.1,8.3C111,2.9,100.5,0,89.9,0
			C79.3,0,68.8,2.8,59.7,8.3c-7.9,4.6-18.1,12.7-28.4,23s-18.4,20.5-23,28.4C2.8,68.8,0,79.3,0,89.9c0,10.6,2.9,21.1,8.3,30.2
			c4.6,7.9,12.7,18.2,23.1,28.5s20.6,18.5,28.5,23.1c9.1,5.5,19.6,8.3,30.2,8.4c10.6,0,21.1-2.8,30.2-8.3c7.9-4.6,18.1-12.7,28.4-23
			c10.3-10.3,18.4-20.5,23-28.4c5.4-9.1,8.3-19.6,8.3-30.2C180,79.5,177.1,69,171.6,59.9z M52.5,122.9l0,3.5H40.6v-3.5l7.5-7.2
			c0.4-0.4,0.7-0.9,0.7-1.4c-0.1-1.1-1.1-2-2.2-1.9c-0.6,0-1.2,0.2-1.6,0.6c-0.4,0.4-0.7,0.8-0.8,1.3h-3.6c0.1-1.5,0.7-2.9,1.8-3.9
			c1.1-1.1,2.7-1.7,4.2-1.7c3.4,0,6.1,2.4,6.1,5.6c0,1.7-0.8,3.3-2.1,4.4l-4.5,4.3L52.5,122.9z M67.6,126.3h-3.8v-7.2
			c0-1.1-0.9-2-2-2c-1.1,0-2,0.9-2,2v7.2h-4v-18.5h4v8c0.9-1.4,2.5-2.1,4.2-1.9c2.5,0.4,3.5,2.5,3.6,5.5h0V126.3z M88.6,61.9
			c-0.5-2-1.9-3.7-3.7-4.8c-3.8-2.2-8.5-0.9-10.7,2.9l0,0L52.5,97.9l-12.8,0L61.3,60c5.2-9.1,16.8-12.2,25.9-7
			c2.4,1.4,4.4,3.3,6,5.5l8.8-15.2h12.8l-0.2,0.4l-31,53.8l-0.2,0.4H70.6l17.2-30C88.9,66.1,89.1,63.9,88.6,61.9L88.6,61.9z
			 M81.6,114.5v1.5h-3.1v10.7H77v-10.7h-2.2v-1.5H77v-4.1c-0.1-1.6,1.1-3,2.7-3.1c0.1,0,0.3,0,0.4,0c0.4,0,0.7,0.1,1.1,0.2
			c0.2,0.1,0.3,0.1,0.5,0.2l0.4,0.2l-0.8,1.3l-0.4-0.2c-0.1,0-0.2-0.1-0.3-0.1c-0.2-0.1-0.4-0.1-0.6-0.1c-0.8-0.1-1.5,0.4-1.6,1.2
			c0,0.1,0,0.2,0,0.4v4.1L81.6,114.5z M84.5,126.6H83v-12.2h1.5V126.6z M83.7,113.4c-0.6,0-1-0.5-1-1c0-0.6,0.5-1,1-1
			c0.6,0,1,0.5,1,1C84.8,112.9,84.3,113.4,83.7,113.4C83.7,113.4,83.7,113.4,83.7,113.4L83.7,113.4z M93.4,126.2
			c-0.2,0.1-0.3,0.2-0.5,0.2c-0.3,0.1-0.7,0.2-1.1,0.2c-1.6,0.1-3-1.1-3.1-2.7c0-0.1,0-0.3,0-0.4v-7.6h-2.3v-1.5h2.3v-3.1h1.5v3.1
			h3.2v1.5h-3.2v7.6c-0.1,0.8,0.5,1.5,1.2,1.6c0.1,0,0.2,0,0.4,0c0.2,0,0.4,0,0.6-0.1c0.1,0,0.2-0.1,0.3-0.1l0.4-0.2l0.8,1.3
			L93.4,126.2z M105.6,126.6h-1.5v-7.3c0-1.9-1.5-3.4-3.4-3.4c-1.9,0-3.4,1.5-3.4,3.4v7.3h-1.5v-12.2h1.5v1.4
			c0.9-0.9,2.1-1.4,3.4-1.4c2.7,0,4.9,2.2,4.9,4.9V126.6z M119.2,121.2h-9.9c0.2,2.2,2,3.9,4.2,4c1.4,0,2.7-0.5,3.7-1.5l0.3-0.3
			l1.1,1l-0.3,0.3c-1.2,1.3-3,2-4.8,2c-3.3,0-5.7-2.6-5.7-6.2s2.4-6.2,5.7-6.2s5.7,2.6,5.7,6.2V121.2z M124.9,126.8
			c-1.7,0.1-3.2-0.9-4-2.4l-0.2-0.4l1.4-0.6l0.2,0.4c0.5,1,1.5,1.5,2.6,1.4c1.5,0,2.7-0.9,2.7-2c-0.1-0.9-0.7-1.7-1.6-1.9
			c-0.5-0.2-0.9-0.3-1.4-0.4c-0.6-0.1-1.2-0.4-1.8-0.7c-1-0.6-1.7-1.6-1.7-2.8c0-1.8,1.7-3.3,3.9-3.3c1.5-0.1,2.9,0.8,3.6,2.1
			l0.2,0.4l-1.4,0.6l-0.2-0.4c-0.5-0.8-1.3-1.3-2.3-1.2c-1.3,0-2.4,0.8-2.4,1.8c0,0.6,0.4,1.2,1,1.5c0.4,0.2,0.9,0.4,1.3,0.5
			c0.5,0.1,1.1,0.3,1.6,0.5c1.4,0.5,2.4,1.8,2.5,3.3C129.1,125.2,127.2,126.8,124.9,126.8L124.9,126.8z M134.7,126.8
			c-1.7,0.1-3.2-0.9-4-2.4l-0.2-0.4l1.4-0.6l0.2,0.4c0.5,1,1.5,1.5,2.6,1.4c1.5,0,2.7-0.9,2.7-2c-0.1-0.9-0.7-1.7-1.6-1.9
			c-0.5-0.2-0.9-0.3-1.4-0.4c-0.6-0.1-1.2-0.4-1.8-0.7c-1-0.6-1.7-1.6-1.7-2.8c0-1.8,1.7-3.3,3.9-3.3c1.5-0.1,2.9,0.8,3.6,2.1
			l0.2,0.4l-1.4,0.6l-0.2-0.4c-0.5-0.8-1.3-1.3-2.3-1.2c-1.3,0-2.4,0.8-2.4,1.8c0,0.6,0.4,1.2,1,1.5c0.4,0.2,0.9,0.4,1.3,0.5
			c0.5,0.1,1.1,0.3,1.6,0.5c1.4,0.5,2.4,1.8,2.5,3.3C138.9,125.2,137,126.8,134.7,126.8L134.7,126.8z M137.3,91.1l-3.8,6.8h-12.8
			L130.9,80c1-1.8,1.3-3.9,0.8-6c-0.5-2-1.9-3.7-3.7-4.8c-3.6-2.1-8.2-1-10.5,2.5l-10,17.4l-5,8.6h0l0,0H89.7v0l0,0l14.7-25.7
			c0.3-0.5,0.6-1,0.9-1.4l15.8-27.5h12.8l-0.2,0.4l-11,19.1c2.7,0.3,5.3,1.1,7.6,2.4C139.4,70.4,142.5,82,137.3,91.1L137.3,91.1z"/>
	</g>
</g>
</svg>
