<svg xmlns="http://www.w3.org/2000/svg" width="133.852" height="161.979" viewBox="0 0 133.852 161.979">
  <g id="Group_2050" data-name="Group 2050" transform="translate(-1141 -13565.435)">
    <g id="Group_2049" data-name="Group 2049" transform="translate(1173.124 13565.435)">
      <g id="Group_1970" data-name="Group 1970" transform="translate(4.433 6.558)">
        <path id="Path_5722" data-name="Path 5722" d="M548.285,234.623a161.07,161.07,0,0,0-14.453-15.738,160.889,160.889,0,0,0-14.441,15.74,158.715,158.715,0,0,0-15.961-12.23l4.952,28.381h50.934l4.954-28.384A158.587,158.587,0,0,0,548.285,234.623Z" transform="translate(-503.429 -218.885)" fill="#101126"/>
      </g>
      <g id="Group_1971" data-name="Group 1971" transform="translate(0 0)">
        <circle id="Ellipse_164" data-name="Ellipse 164" cx="3.862" cy="3.862" r="3.862" transform="translate(0 4.119)" fill="#101126"/>
        <circle id="Ellipse_165" data-name="Ellipse 165" cx="3.862" cy="3.862" r="3.862" transform="translate(61.98 4.119)" fill="#101126"/>
        <path id="Path_5723" data-name="Path 5723" d="M524.127,219.577a3.862,3.862,0,1,1-3.862-3.862A3.862,3.862,0,0,1,524.127,219.577Z" transform="translate(-485.132 -215.715)" fill="#101126"/>
      </g>
    </g>
    <g id="Ellipse_199" data-name="Ellipse 199" transform="translate(1141 13593.563)" fill="#283550" stroke="#101126" stroke-width="5">
      <circle cx="66.926" cy="66.926" r="66.926" stroke="none"/>
      <circle cx="66.926" cy="66.926" r="64.426" fill="none"/>
    </g>
    <g id="Group_2048" data-name="Group 2048" transform="translate(1379.359 13399.082)">
      <path id="Path_5848" data-name="Path 5848" d="M-182.361,444.069A5.37,5.37,0,0,1-177,449.461a5.367,5.367,0,0,1-5.435,5.392,5.37,5.37,0,0,1-5.358-5.469A5.378,5.378,0,0,1-182.361,444.069Z" transform="translate(-16.299 -171.34)" fill="#fff"/>
      <path id="Path_5849" data-name="Path 5849" d="M-189.142,508.771h-19.217a36.636,36.636,0,0,1,.29-4.876,5.568,5.568,0,0,1,3.726-4.244,1.386,1.386,0,0,1,1.05.1,8.559,8.559,0,0,0,9.206-.014,1.325,1.325,0,0,1,.98-.1,5.98,5.98,0,0,1,3.956,5.356C-189.108,506.228-189.142,507.468-189.142,508.771Z" transform="translate(0 -215.346)" fill="#fff"/>
      <path id="Path_5850" data-name="Path 5850" d="M-63.134,392.334a8.4,8.4,0,0,1,8.374,8.41,8.4,8.4,0,0,1-8.45,8.414,8.4,8.4,0,0,1-8.373-8.412A8.4,8.4,0,0,1-63.134,392.334Z" transform="translate(-108.421 -130.331)" fill="#fff"/>
      <path id="Path_5851" data-name="Path 5851" d="M-71.953,487.874c-.313.014-.584.037-.856.037q-3.032,0-6.064,0c-.13,0-.251,0-.366.013h-14c-.062,0-.123-.01-.186-.01q-3.226-.007-6.452,0h-.942c.125-2.725-.35-5.415.353-8.02a9.092,9.092,0,0,1,6.392-6.617,1.477,1.477,0,0,1,1.115.181,11.6,11.6,0,0,0,13.155,0,1.512,1.512,0,0,1,1.117-.18,9.354,9.354,0,0,1,6.634,7.914c.049.463.089.93.092,1.395C-71.947,484.317-71.953,486.05-71.953,487.874Z" transform="translate(-85.215 -194.458)" fill="#fff"/>
      <path id="Path_5852" data-name="Path 5852" d="M79.079,444.068a5.393,5.393,0,1,1-5.375,5.377A5.381,5.381,0,0,1,79.079,444.068Z" transform="translate(-223.588 -171.34)" fill="#fff"/>
      <path id="Path_5853" data-name="Path 5853" d="M72.69,508.7H53.608a32.009,32.009,0,0,1,.036-4.362,5.74,5.74,0,0,1,3.936-4.773,1.2,1.2,0,0,1,.909.1,8.537,8.537,0,0,0,9.258.007,1.281,1.281,0,0,1,.981-.09,5.864,5.864,0,0,1,3.938,5.12A38.524,38.524,0,0,1,72.69,508.7Z" transform="translate(-207.609 -215.291)" fill="#fff"/>
      <path id="Path_5854" data-name="Path 5854" d="M-208,227.918v22.921l7.825.007v6.547c.386-.268,9.173-6.561,9.173-6.561l16.418-.035,3.255,6.885,3.967-6.885,16.664.047s7.889,6.294,8.253,6.532c0-1.655,0-6.532,0-6.532l7.826,0V227.918Zm24.8,6.051h43.591v2.294H-183.2Zm-19.8,0h14.649v2.294H-203Zm43.585,10.252H-203v-2.4h43.585Zm19.809,0h-14.65v-2.4h14.65Z" transform="translate(-0.288)" fill="#fff"/>
    </g>
  </g>
</svg>
