<svg xmlns="http://www.w3.org/2000/svg" width="133.852" height="161.979" viewBox="0 0 133.852 161.979">
  <g id="Group_2049" data-name="Group 2049" transform="translate(-490.61 -13565.435)">
    <g id="Group_2036" data-name="Group 2036" transform="translate(522.735 13565.435)">
      <g id="Group_1970" data-name="Group 1970" transform="translate(4.433 6.558)">
        <path id="Path_5722" data-name="Path 5722" d="M548.285,234.623a161.07,161.07,0,0,0-14.453-15.738,160.889,160.889,0,0,0-14.441,15.74,158.715,158.715,0,0,0-15.961-12.23l4.952,28.381h50.934l4.954-28.384A158.587,158.587,0,0,0,548.285,234.623Z" transform="translate(-503.429 -218.885)" fill="#101126"/>
      </g>
      <g id="Group_1971" data-name="Group 1971" transform="translate(0 0)">
        <circle id="Ellipse_164" data-name="Ellipse 164" cx="3.862" cy="3.862" r="3.862" transform="translate(0 4.119)" fill="#101126"/>
        <circle id="Ellipse_165" data-name="Ellipse 165" cx="3.862" cy="3.862" r="3.862" transform="translate(61.98 4.119)" fill="#101126"/>
        <path id="Path_5723" data-name="Path 5723" d="M524.127,219.577a3.862,3.862,0,1,1-3.862-3.862A3.862,3.862,0,0,1,524.127,219.577Z" transform="translate(-485.132 -215.715)" fill="#101126"/>
      </g>
    </g>
    <g id="Ellipse_172" data-name="Ellipse 172" transform="translate(490.61 13593.563)" fill="#283550" stroke="#101126" stroke-width="5">
      <circle cx="66.926" cy="66.926" r="66.926" stroke="none"/>
      <circle cx="66.926" cy="66.926" r="64.426" fill="none"/>
    </g>
    <g id="Group_2005" data-name="Group 2005" transform="translate(521.842 13627.472)">
      <path id="Path_645" data-name="Path 645" d="M168,352h17.648v7.564H168Z" transform="translate(-141.528 -299.056)" fill="#fff"/>
      <path id="Path_646" data-name="Path 646" d="M184,100.945v16.09l16.09-8.045Z" transform="translate(-155.007 -87.56)" fill="#fff"/>
      <path id="Path_647" data-name="Path 647" d="M88,416h42.86v2.521H88Z" transform="translate(-74.134 -352.971)" fill="#fff"/>
      <path id="Path_648" data-name="Path 648" d="M92.508,48H32V80.775H92.508ZM53.43,76.512V52.263L77.678,64.388Z" transform="translate(-26.958 -42.958)" fill="#fff"/>
      <path id="Path_649" data-name="Path 649" d="M70.593,65.163v-47.9A1.261,1.261,0,0,0,69.332,16H1.261A1.261,1.261,0,0,0,0,17.261v47.9a1.261,1.261,0,0,0,1.261,1.261H69.332A1.261,1.261,0,0,0,70.593,65.163ZM11.345,62.642h-6.3V60.12h6.3ZM15.127,63.9H12.606V58.86h2.521ZM65.55,62.642H16.388V60.12H65.55Zm2.521-6.3H2.521V18.521h65.55Z" transform="translate(0 -16)" fill="#fff"/>
    </g>
  </g>
</svg>
