<?xml version="1.0" encoding="utf-8"?>
<!-- Generator: Adobe Illustrator 23.0.3, SVG Export Plug-In . SVG Version: 6.00 Build 0)  -->
<svg version="1.1" id="Symbol" xmlns="http://www.w3.org/2000/svg" xmlns:xlink="http://www.w3.org/1999/xlink" x="0px" y="0px"
	 viewBox="0 0 128.3 164" style="enable-background:new 0 0 128.3 164;" xml:space="preserve">
<style type="text/css">
	.st0{fill:#002C7C;}
	.st1{fill:#E44E00;}
	.st2{fill:#F7F7F7;}
	.st3{enable-background:new    ;}
	.st4{fill:#FFFFFF;}
	.st5{fill:#FFFF00;}
</style>
<g>
	<g id="Group_220_1_" transform="translate(28.847 94.826)">
		<g id="Group_218_1_">
			<path id="Path_196_1_" class="st0" d="M19.5,68.4L49.8,4.6L22.4-8.5L-8,55.3l20.2-5.9L19.5,68.4z"/>
		</g>
		<g id="Group_219_1_" transform="translate(30.249)">
			<path id="Path_197_1_" class="st0" d="M22.4,68.4L-8,4.6L19.5-8.5l30.4,63.7l-20.2-5.9L22.4,68.4z"/>
		</g>
	</g>
	<ellipse id="Ellipse_37_1_" class="st1" cx="64.1" cy="63.7" rx="62.9" ry="62.9"/>
	<g id="Group_221_1_" transform="translate(12.67 12.755)">
		<path id="Path_198_1_" class="st2" d="M51.5,110.4c-0.8,0-1.6,0-2.3,0c-0.6,0-1.1-0.5-1.1-1.2c0-0.6,0.6-1.1,1.2-1.1
			c0.7,0,1.5,0,2.2,0h0.2c0.6,0,1.1,0.5,1.1,1.1s-0.5,1.1-1.1,1.1L51.5,110.4L51.5,110.4z M62.9,109.3c-0.6,0-1.1-0.5-1.1-1.1
			c0-0.5,0.4-1,0.9-1.1c0.7-0.1,1.5-0.3,2.2-0.5c0.6-0.1,1.2,0.2,1.4,0.8c0.1,0.6-0.2,1.2-0.8,1.4c-0.7,0.2-1.5,0.3-2.3,0.5
			C63.1,109.3,63,109.3,62.9,109.3z M38,108.9c-0.1,0-0.2,0-0.3,0c-0.8-0.2-1.5-0.4-2.2-0.6c-0.6-0.2-0.9-0.8-0.8-1.4
			c0.2-0.6,0.8-0.9,1.4-0.8l0,0c0.7,0.2,1.4,0.4,2.1,0.6c0.6,0.1,1,0.8,0.8,1.4C39,108.5,38.5,108.9,38,108.9z M75.8,105.1
			c-0.6,0-1.1-0.5-1.1-1.1c0-0.4,0.3-0.8,0.7-1c0.7-0.3,1.3-0.6,2-1c0.6-0.3,1.2,0,1.5,0.5c0.3,0.5,0,1.2-0.5,1.5
			c-0.7,0.3-1.4,0.7-2.1,1C76.2,105.1,76,105.1,75.8,105.1L75.8,105.1z M25.3,104.2c-0.2,0-0.3,0-0.5-0.1c-0.7-0.3-1.4-0.7-2-1.1
			c-0.5-0.3-0.7-1-0.4-1.5c0.3-0.5,1-0.7,1.5-0.4c0.6,0.4,1.3,0.7,2,1c0.6,0.3,0.8,1,0.5,1.5C26.1,104,25.7,104.2,25.3,104.2
			L25.3,104.2z M87.4,98.1c-0.6,0-1.1-0.5-1.1-1.1c0-0.3,0.2-0.7,0.4-0.9c0.6-0.5,1.2-0.9,1.7-1.4c0.5-0.4,1.2-0.3,1.6,0.1
			c0.4,0.5,0.3,1.2-0.1,1.6l0,0c-0.6,0.5-1.2,1-1.8,1.5C87.9,98,87.6,98.1,87.4,98.1z M13.9,96.8c-0.3,0-0.5-0.1-0.7-0.3
			c-0.6-0.5-1.2-1-1.7-1.5c-0.5-0.4-0.5-1.1,0-1.6c0.4-0.4,1.1-0.5,1.6-0.1c0.6,0.5,1.1,1,1.7,1.5c0.5,0.4,0.5,1.1,0.1,1.6
			C14.6,96.6,14.3,96.8,13.9,96.8L13.9,96.8z M97,88.5c-0.6,0-1.1-0.5-1.1-1.1c0-0.3,0.1-0.5,0.2-0.7c0.5-0.6,0.9-1.2,1.4-1.8
			c0.4-0.5,1.1-0.6,1.6-0.2c0.5,0.4,0.6,1.1,0.2,1.6l0,0c-0.5,0.6-0.9,1.2-1.4,1.8C97.7,88.4,97.4,88.5,97,88.5L97,88.5z M4.6,86.9
			c-0.4,0-0.7-0.2-0.9-0.5c-0.5-0.6-0.9-1.2-1.3-1.9C2,84.1,2.2,83.4,2.7,83s1.2-0.2,1.6,0.3c0.4,0.6,0.8,1.2,1.3,1.8
			c0.4,0.5,0.3,1.2-0.2,1.6c0,0,0,0,0,0C5.1,86.8,4.9,86.9,4.6,86.9L4.6,86.9z M104.2,77.1c-0.2,0-0.3,0-0.5-0.1
			c-0.6-0.3-0.8-0.9-0.5-1.5c0.3-0.7,0.6-1.3,0.9-2c0.2-0.6,0.9-0.8,1.5-0.6c0.6,0.2,0.8,0.9,0.6,1.5c-0.3,0.7-0.6,1.4-1,2.1
			C105.1,76.8,104.7,77.1,104.2,77.1L104.2,77.1z M-2.2,75.2c-0.4,0-0.9-0.3-1-0.7c-0.3-0.7-0.6-1.4-0.9-2.1
			c-0.2-0.6,0.1-1.2,0.6-1.5c0.6-0.2,1.2,0.1,1.5,0.6c0.3,0.7,0.5,1.4,0.8,2c0.2,0.6,0,1.2-0.6,1.5C-1.9,75.2-2,75.2-2.2,75.2z
			 M108.6,64.2c-0.1,0-0.2,0-0.2,0c-0.6-0.1-1-0.7-0.9-1.3c0.2-0.7,0.3-1.4,0.4-2.2c0.1-0.6,0.7-1,1.3-0.9c0.6,0.1,1,0.7,0.9,1.3
			c-0.1,0.8-0.3,1.5-0.4,2.3C109.6,63.8,109.1,64.2,108.6,64.2L108.6,64.2z M-6.1,62.2c-0.5,0-1-0.4-1.1-0.9
			c-0.1-0.8-0.3-1.5-0.4-2.3c-0.1-0.6,0.4-1.2,1-1.2c0.6-0.1,1.1,0.3,1.2,0.9c0.1,0.7,0.2,1.5,0.3,2.2c0.1,0.6-0.3,1.2-0.9,1.3
			C-5.9,62.2-6,62.2-6.1,62.2L-6.1,62.2z M109.9,50.7c-0.6,0-1.1-0.5-1.1-1.1c0-0.7,0-1.5-0.1-2.2c0-0.6,0.4-1.2,1.1-1.2
			c0,0,0,0,0,0c0.6,0,1.1,0.4,1.2,1.1c0,0.8,0.1,1.5,0.1,2.3C111,50.2,110.5,50.7,109.9,50.7C109.9,50.7,109.9,50.7,109.9,50.7
			L109.9,50.7z M-6.9,48.7L-6.9,48.7c-0.7,0-1.2-0.6-1.1-1.2c0-0.8,0.1-1.5,0.2-2.3c0-0.6,0.6-1.1,1.2-1c0,0,0,0,0,0
			c0.6,0.1,1.1,0.6,1,1.2c-0.1,0.7-0.1,1.5-0.2,2.2C-5.8,48.2-6.3,48.7-6.9,48.7L-6.9,48.7z M108,37.3c-0.5,0-1-0.3-1.1-0.8
			c-0.2-0.7-0.4-1.4-0.6-2.1c-0.2-0.6,0.2-1.2,0.8-1.4c0.6-0.2,1.2,0.2,1.4,0.7c0.2,0.7,0.4,1.5,0.6,2.2c0.2,0.6-0.2,1.2-0.8,1.4
			C108.2,37.3,108.1,37.3,108,37.3L108,37.3z M-4.5,35.3c-0.1,0-0.2,0-0.3,0c-0.6-0.2-0.9-0.8-0.8-1.4c0,0,0,0,0,0
			c0.2-0.7,0.5-1.5,0.7-2.2c0.2-0.6,0.8-0.9,1.4-0.7s0.9,0.8,0.7,1.4c-0.2,0.7-0.5,1.4-0.7,2.1C-3.6,35-4,35.3-4.5,35.3L-4.5,35.3z
			 M103.1,24.7c-0.4,0-0.8-0.2-1-0.6c-0.3-0.7-0.7-1.3-1.1-1.9c-0.3-0.5-0.2-1.2,0.4-1.6c0.5-0.3,1.2-0.2,1.6,0.4c0,0,0,0,0,0.1
			c0.4,0.7,0.8,1.3,1.1,2c0.3,0.5,0.1,1.2-0.5,1.5c0,0,0,0,0,0C103.4,24.6,103.3,24.7,103.1,24.7L103.1,24.7z M0.8,22.9
			c-0.6,0-1.1-0.5-1.1-1.1c0-0.2,0.1-0.4,0.2-0.6c0.4-0.7,0.8-1.3,1.2-2c0.3-0.5,1-0.7,1.5-0.4c0.5,0.3,0.7,1,0.4,1.5
			c0,0,0,0.1,0,0.1c-0.4,0.6-0.8,1.3-1.2,1.9C1.6,22.7,1.2,22.9,0.8,22.9L0.8,22.9z M95.4,13.5c-0.3,0-0.6-0.1-0.8-0.4
			c-0.5-0.6-1-1.1-1.5-1.6c-0.4-0.5-0.4-1.2,0.1-1.6c0.4-0.4,1.1-0.4,1.5,0c0.5,0.6,1,1.1,1.6,1.7c0.4,0.5,0.4,1.2-0.1,1.6
			C95.9,13.4,95.6,13.5,95.4,13.5L95.4,13.5z M8.9,12c-0.6,0-1.1-0.5-1.1-1.1c0-0.3,0.1-0.6,0.3-0.8C8.6,9.5,9.2,9,9.7,8.5
			c0.4-0.4,1.2-0.4,1.6,0s0.4,1.2,0,1.6l0,0c-0.5,0.5-1,1.1-1.6,1.6C9.5,11.9,9.2,12,8.9,12z M85.3,4.4c-0.2,0-0.5-0.1-0.7-0.2
			c-0.6-0.4-1.2-0.8-1.8-1.3c-0.5-0.3-0.7-1-0.4-1.6c0.3-0.5,1-0.7,1.6-0.4c0,0,0,0,0,0c0.6,0.4,1.3,0.9,1.9,1.3
			c0.5,0.4,0.6,1.1,0.3,1.6C86,4.3,85.7,4.4,85.3,4.4L85.3,4.4z M19.3,3.3c-0.6,0-1.1-0.5-1.1-1.1c0-0.4,0.2-0.7,0.5-0.9
			C19.3,0.8,20,0.4,20.6,0c0.5-0.3,1.2-0.1,1.5,0.4c0.3,0.5,0.1,1.2-0.4,1.5c-0.6,0.4-1.3,0.8-1.9,1.2C19.7,3.2,19.5,3.3,19.3,3.3z
			 M73.4-2.1c-0.1,0-0.3,0-0.4-0.1c-0.7-0.3-1.4-0.5-2.1-0.8c-0.6-0.2-0.9-0.9-0.7-1.4s0.9-0.9,1.4-0.7l0,0c0.7,0.3,1.4,0.5,2.2,0.8
			c0.6,0.2,0.9,0.9,0.6,1.5C74.3-2.4,73.9-2.1,73.4-2.1L73.4-2.1z M31.4-2.8c-0.6,0-1.1-0.5-1.1-1.1c0-0.5,0.3-0.9,0.7-1.1
			c0.7-0.3,1.4-0.5,2.2-0.8c0.6-0.2,1.2,0.1,1.4,0.7c0.2,0.6-0.1,1.2-0.7,1.4c-0.7,0.2-1.4,0.5-2.1,0.7C31.7-2.9,31.5-2.8,31.4-2.8
			L31.4-2.8z M60.4-5.7c-0.1,0-0.1,0-0.2,0C59.5-5.8,58.7-5.9,58-6c-0.6-0.1-1.1-0.6-1-1.2c0.1-0.6,0.6-1.1,1.2-1c0,0,0,0,0,0
			C59-8.2,59.8-8.1,60.5-8c0.6,0.1,1,0.7,0.9,1.3C61.4-6.1,60.9-5.7,60.4-5.7L60.4-5.7z M44.6-6c-0.6,0-1.1-0.5-1.1-1.1
			c0-0.6,0.4-1,1-1.1c0.8-0.1,1.5-0.2,2.3-0.2c0.6-0.1,1.2,0.4,1.2,1c0,0,0,0,0,0c0,0.6-0.4,1.2-1,1.2c-0.7,0.1-1.5,0.1-2.2,0.2
			C44.7-6,44.6-6,44.6-6L44.6-6z"/>
	</g>
	<g class="st3">
		<path class="st4" d="M35,55.1c0.3,0,0.7,0.1,1.1,0.1c0.2,0,0.3-0.1,0.3-0.4v-3L35.9,52c-0.2,0.1-0.4,0.1-0.5,0.3
			c-0.1,0.1-0.2,0.1-0.3,0.1c-0.1,0-0.1-0.1-0.2-0.2c-0.1-0.4-0.2-0.8-0.3-1.4c0.5,0,0.9-0.1,1.4-0.3l0.4-0.1v-2.9h-0.2l-1.3,0
			c-0.1,0-0.1,0-0.1,0c0,0,0-0.1,0-0.1v-1.1c0-0.1,0-0.1,0-0.1c0,0,0.1,0,0.1,0l1.3,0h0.2v-0.8c0-0.9,0-1.6-0.1-2.1
			c0.6,0,1.1,0,1.5,0.1c0.2,0,0.2,0.1,0.2,0.2c0,0,0,0.2-0.1,0.3c0,0.1-0.1,0.6-0.1,1.5V46l1,0c0.1,0,0.1,0,0.1,0c0,0,0,0.1,0,0.1
			v1.1c0,0.1,0,0.1,0,0.1c0,0-0.1,0-0.1,0c0,0-0.1,0-0.3,0c-0.2,0-0.4,0-0.7,0v2.4c0.1,0,0.3-0.1,0.5-0.2c0.3-0.1,0.4-0.2,0.4-0.2
			c-0.1,0.3-0.1,0.6-0.1,1.1c0,0.2,0,0.3-0.1,0.4c0,0-0.1,0.1-0.3,0.2c-0.2,0.1-0.3,0.2-0.5,0.2v0.6l0,3c0,0.8-0.2,1.3-0.5,1.5
			c-0.2,0.1-0.4,0.2-0.6,0.3c-0.2,0-0.5,0.1-1,0.1c-0.1,0-0.2,0-0.2,0c-0.2,0-0.2,0-0.3-0.1c0,0-0.1-0.2-0.1-0.4
			C35.3,55.8,35.2,55.5,35,55.1z M48.7,55.2c-0.3,0.3-0.5,0.7-0.6,1c-0.1,0.2-0.1,0.3-0.2,0.3c0,0-0.1,0.1-0.2,0.1c0,0-0.1,0-0.3,0
			c-1.4-0.2-2.7-0.7-3.8-1.5c-1,0.7-2.4,1.2-4,1.6c-0.2,0-0.3,0.1-0.3,0.1c-0.1,0-0.2-0.1-0.3-0.4c-0.2-0.4-0.3-0.7-0.6-1
			c1.7-0.3,3-0.7,4-1.3c-0.7-0.7-1.3-1.6-1.7-2.6l-0.6,0c-0.1,0-0.1,0-0.2,0c0,0,0-0.1,0-0.1v-0.7h-0.7c-0.1,0-0.1,0-0.1,0
			c0,0,0-0.1,0-0.1l0-1.4v-0.4l0-0.7c0-0.1,0-0.1,0-0.1s0.1,0,0.1,0l2.1,0h3.7c0.4-0.6,0.7-1.3,1-2c0.1-0.3,0.2-0.6,0.2-0.8
			c0.5,0.1,1,0.3,1.3,0.4c0.1,0,0.2,0.1,0.2,0.2c0,0.1,0,0.1-0.1,0.2c-0.1,0.1-0.2,0.2-0.3,0.4c-0.3,0.7-0.6,1.3-0.8,1.6l1.6,0
			c0.1,0,0.1,0,0.1,0c0,0,0,0.1,0,0.1l0,0.7v0.5l0,1.4c0,0.1,0,0.1,0,0.1c0,0-0.1,0-0.1,0H47c-0.1,0-0.1-0.1-0.1-0.2v-1.5h-6.2v1.2
			c0.2,0,0.7,0,1.5,0h3.5c0.2,0,0.3,0,0.4-0.1c0.1,0,0.1,0,0.1,0c0.1,0,0.3,0.1,0.5,0.4c0.3,0.3,0.4,0.5,0.4,0.6
			c0,0.1-0.1,0.2-0.2,0.3c-0.1,0.1-0.2,0.3-0.4,0.6c-0.5,0.9-1,1.6-1.6,2.2C45.9,54.7,47.2,55,48.7,55.2z M46.7,43.1
			c0.4,0.4,0.8,0.7,1,0.9c0.1,0.1,0.1,0.2,0.1,0.3c0,0.1-0.1,0.2-0.3,0.2c-0.1,0-0.3,0-0.7,0.1c-2,0.4-4.2,0.6-6.6,0.7
			c-0.1,0-0.2,0-0.2,0c-0.2,0-0.3,0-0.3-0.1c0,0-0.1-0.2-0.1-0.4c-0.1-0.3-0.2-0.6-0.4-0.8c2.6,0,4.8-0.2,6.6-0.6
			C46.2,43.3,46.5,43.3,46.7,43.1z M41.3,45.6c0.3,0.4,0.5,0.9,0.7,1.4c0,0,0,0.1,0,0.1c0,0.1-0.1,0.1-0.2,0.1l-0.9,0.3
			c-0.1,0-0.1,0-0.2,0c0,0-0.1,0-0.1-0.1c-0.2-0.6-0.5-1.1-0.7-1.5c0,0,0-0.1,0-0.1c0,0,0.1-0.1,0.2-0.1l0.8-0.3c0.1,0,0.1,0,0.2,0
			C41.2,45.5,41.3,45.5,41.3,45.6z M45,51.5h-2.6c0.3,0.7,0.8,1.3,1.4,1.8C44.2,52.8,44.7,52.2,45,51.5z M44,45.3
			c0.3,0.5,0.5,1,0.7,1.6c0,0,0,0.1,0,0.1c0,0.1-0.1,0.1-0.2,0.1l-0.8,0.3c-0.1,0-0.1,0-0.2,0c-0.1,0-0.1,0-0.1-0.1
			c-0.1-0.5-0.3-1.1-0.6-1.6c0-0.1,0-0.1,0-0.1c0-0.1,0.1-0.1,0.2-0.1l0.8-0.3c0.1,0,0.1,0,0.1,0C43.9,45.2,43.9,45.3,44,45.3z"/>
		<path class="st4" d="M51.6,45.7h1.6l1.6,0c0.1,0,0.1,0,0.1,0c0,0,0,0.1,0,0.1v1.1c0,0.1,0,0.1,0,0.2c0,0-0.1,0-0.1,0l-1.6,0h-1.6
			l-1.6,0c-0.1,0-0.1,0-0.1,0c0,0,0-0.1,0-0.1v-1.1c0-0.1,0-0.1,0-0.1c0,0,0.1,0,0.1,0L51.6,45.7z M54.7,56.4c0,0.1,0,0.2-0.1,0.2
			h-1.1c-0.1,0-0.1,0-0.1,0s0-0.1,0-0.1V56h-1.4v0.7c0,0.1,0,0.1,0,0.1c0,0-0.1,0-0.1,0h-1.1c-0.1,0-0.1,0-0.2,0c0,0,0-0.1,0-0.1
			l0-2.3v-1l0-1.4c0-0.1,0-0.1,0-0.1c0,0,0.1,0,0.1,0l1.4,0h1.2l1.4,0c0.1,0,0.1,0.1,0.1,0.2l0,1.2v1.6C56,54,57,53.1,57.7,52h-0.5
			l-2,0c-0.1,0-0.1,0-0.1,0s0-0.1,0-0.1v-1.1c0-0.1,0-0.1,0-0.1c0,0,0.1,0,0.1,0l2,0h1.3v-1.1h-0.8l-1.9,0c-0.1,0-0.1,0-0.1,0
			s0-0.1,0-0.1l0-1.5v-2.7l0-1.5c0-0.1,0-0.1,0-0.2c0,0,0.1,0,0.1,0l1.9,0h3l1.9,0c0.1,0,0.1,0,0.1,0c0,0,0,0.1,0,0.1l0,1.5V48
			l0,1.5c0,0.1,0,0.1,0,0.1s-0.1,0-0.1,0l-1.9,0h-0.8v1.1h1.5l2,0c0.1,0,0.1,0,0.1,0c0,0,0,0.1,0,0.1v1.1c0,0.1,0,0.1,0,0.1
			c0,0-0.1,0-0.1,0l-2,0h-0.7c0.8,1,1.9,1.9,3.2,2.5c-0.2,0.2-0.5,0.6-0.7,1c-0.1,0.2-0.2,0.3-0.2,0.3c0,0-0.1-0.1-0.3-0.2
			c-1.1-0.8-2-1.7-2.7-2.8c0,0.8,0,1.7,0,2.6c0,0.8,0,1.1,0,1.2c0,0.1,0,0.1,0,0.1c0,0-0.1,0-0.1,0h-1.2c-0.1,0-0.1,0-0.1,0
			c0,0,0-0.1,0-0.1c0-0.1,0-0.3,0-0.7c0-1.2,0-2.2,0.1-3c-0.7,1.1-1.6,2.1-2.7,2.9c-0.2,0.1-0.3,0.2-0.3,0.2c-0.1,0-0.2-0.1-0.3-0.3
			c-0.2-0.3-0.4-0.5-0.6-0.7L54.7,56.4z M52,43.6h1.1l1.4,0c0.1,0,0.1,0,0.2,0c0,0,0,0.1,0,0.1v1c0,0.1,0,0.1,0,0.1c0,0-0.1,0-0.1,0
			l-1.4,0H52l-1.4,0c-0.1,0-0.1,0-0.1,0c0,0,0-0.1,0-0.1v-1c0-0.1,0-0.1,0-0.1c0,0,0.1,0,0.1,0L52,43.6z M52.1,47.8h1l1.3,0
			c0.1,0,0.1,0,0.2,0c0,0,0,0.1,0,0.1v1c0,0.1,0,0.1,0,0.1c0,0-0.1,0-0.1,0l-1.3,0h-1l-1.3,0c-0.1,0-0.1,0-0.1,0c0,0,0-0.1,0-0.1v-1
			c0-0.1,0-0.1,0-0.1c0,0,0.1,0,0.1,0L52.1,47.8z M52.1,49.9h1l1.3,0c0.1,0,0.1,0,0.2,0c0,0,0,0.1,0,0.1v1c0,0.1,0,0.1,0,0.1
			c0,0-0.1,0-0.1,0l-1.3,0h-1l-1.3,0c-0.1,0-0.1,0-0.1,0c0,0,0-0.1,0-0.1v-1c0-0.1,0-0.1,0-0.1c0,0,0.1,0,0.1,0L52.1,49.9z
			 M53.3,53.1h-1.4v1.6h1.4V53.1z M57.1,46.1h1.4v-1.3h-1.4V46.1z M57.1,48.5h1.4v-1.2h-1.4V48.5z M61.4,44.9h-1.5v1.3h1.5V44.9z
			 M61.4,48.5v-1.2h-1.5v1.2H61.4z"/>
		<path class="st4" d="M69.6,55c0,0.1,0,0.1,0,0.1c0,0-0.1,0-0.1,0h-1.1c-0.1,0-0.1-0.1-0.1-0.2v-0.7h-1.4v1.2c0,0.1,0,0.2-0.1,0.2
			h-1.1c-0.1,0-0.1,0-0.1,0c0,0,0-0.1,0-0.1l0-4.6v-3.3l0-3.6c0-0.1,0-0.1,0-0.1s0.1,0,0.1,0l1.3,0h1.3l1.3,0c0.1,0,0.1,0,0.1,0
			s0,0.1,0,0.1l0,3v3.4L69.6,55z M68.2,45.3h-1.4v3.1h1.4V45.3z M66.8,53h1.4v-3.2h-1.4V53z M72.2,49l-2,0c-0.1,0-0.1,0-0.2,0
			c0,0,0-0.1,0-0.1v-1c0-0.1,0-0.1,0-0.1s0.1,0,0.1,0l2,0h1.1v-1.5h-0.7l-1.9,0c-0.1,0-0.1,0-0.2,0c0,0,0-0.1,0-0.1v-1
			c0-0.1,0-0.1,0-0.2c0,0,0.1,0,0.1,0l1.9,0h0.7c0-0.7,0-1.3-0.1-1.7c0.5,0,1,0.1,1.5,0.1c0.2,0,0.2,0.1,0.2,0.1c0,0,0,0.2-0.1,0.3
			c0,0.1-0.1,0.5-0.1,1.1h1l1.9,0c0.1,0,0.1,0,0.1,0c0,0,0,0.1,0,0.1v1c0,0.1,0,0.1,0,0.1c0,0-0.1,0-0.1,0l-1.9,0h-1v1.5h1.6l2,0
			c0.1,0,0.1,0,0.2,0c0,0,0,0.1,0,0.1v1c0,0.1,0,0.1,0,0.2c0,0-0.1,0-0.1,0l-2,0H72.2z M72.2,51.8l-2,0c-0.1,0-0.1,0-0.2,0
			s0-0.1,0-0.1v-1.1c0-0.1,0-0.1,0-0.1c0,0,0.1,0,0.1,0l2,0h3c0-0.4,0-0.9-0.1-1.3c0.6,0,1.1,0.1,1.5,0.1c0.2,0,0.3,0.1,0.3,0.2
			c0,0.1,0,0.2-0.1,0.3c0,0.1-0.1,0.4-0.1,0.8l1.5,0c0.1,0,0.1,0,0.2,0c0,0,0,0.1,0,0.1v1.1c0,0.1,0,0.1,0,0.1c0,0-0.1,0-0.1,0
			c0,0-0.1,0-0.2,0c-0.4,0-0.8,0-1.3,0v1.5l0,1.8c0,0.6-0.2,1-0.5,1.3c-0.3,0.2-1,0.3-1.9,0.3c-0.2,0-0.4,0-0.4-0.1
			c0,0-0.1-0.2-0.1-0.4c-0.1-0.4-0.2-0.8-0.4-1.1c0.5,0,1,0.1,1.5,0.1c0.3,0,0.5-0.2,0.5-0.5v-3H72.2z M72.3,52.2
			c0.5,0.5,0.9,1.1,1.4,1.7c0,0.1,0.1,0.1,0.1,0.1c0,0,0,0.1-0.1,0.2l-0.9,0.6c-0.1,0.1-0.1,0.1-0.2,0.1c0,0-0.1,0-0.1-0.1
			c-0.4-0.6-0.8-1.3-1.3-1.8c0-0.1-0.1-0.1-0.1-0.1c0,0,0-0.1,0.1-0.1l0.8-0.5c0.1,0,0.1-0.1,0.2-0.1S72.2,52.2,72.3,52.2z"/>
		<path class="st4" d="M81.5,53.2l-0.6,0c-0.3,0-0.5,0.1-0.6,0.1c-0.1,0-0.2,0.1-0.2,0.1c-0.1,0-0.2-0.1-0.2-0.2
			c-0.1-0.3-0.1-0.7-0.2-1.2c0.4,0,1,0,1.6,0l0.9,0c0.1-0.3,0.3-0.5,0.3-0.7h-0.2l-1.8,0c-0.1,0-0.1,0-0.1,0c0,0,0-0.1,0-0.1l0-0.8
			v-0.6l0-0.8c0-0.1,0-0.1,0-0.1c0,0,0.1,0,0.1,0l1.8,0h0.7v-0.6h-0.6l-1.8,0c-0.1,0-0.1,0-0.2,0c0,0,0-0.1,0-0.1l0-1.2v-0.3
			c-0.1,0-0.3,0-0.4,0c-0.1,0-0.1,0-0.2,0c-0.1,0-0.1,0-0.1,0c0,0,0-0.1,0-0.1v-0.7c0-0.1,0-0.1,0-0.2c0,0,0.1,0,0.1,0l0.6,0v-0.3
			l0-1.2c0-0.1,0-0.1,0-0.1c0,0,0.1,0,0.1,0l1.8,0h0.6c0-0.3,0-0.6-0.1-1c0.4,0,0.9,0,1.3,0.1c0.2,0,0.2,0.1,0.2,0.2
			c0,0.1,0,0.1-0.1,0.2c-0.1,0.1-0.1,0.3-0.1,0.6h0.7l1.8,0c0.1,0,0.1,0,0.1,0c0,0,0,0.1,0,0.1l0,1.2v0.3c0.1,0,0.3,0,0.4,0
			c0.1,0,0.1,0,0.2,0c0.1,0,0.1,0,0.1,0c0,0,0,0.1,0,0.1v0.7c0,0.1,0,0.1,0,0.2c0,0-0.1,0-0.1,0l-0.6,0v0.3l0,1.2c0,0.1,0,0.1,0,0.1
			s-0.1,0-0.1,0l-1.8,0h-0.7v0.6h0.8l1.8,0c0.1,0,0.1,0,0.1,0c0.7-1.1,1.3-2.7,1.6-4.6c0.1-0.4,0.1-0.8,0.2-1.3
			c0.2,0,0.6,0.1,1.4,0.2c0.2,0,0.3,0.1,0.3,0.2c0,0.1,0,0.2-0.1,0.3c-0.1,0.1-0.2,0.4-0.2,0.7c-0.1,0.3-0.2,0.7-0.3,1.3h1.7l1.7,0
			c0.1,0,0.1,0,0.1,0c0,0,0,0.1,0,0.1V47c0,0.1,0,0.1,0,0.1s-0.1,0-0.1,0l-0.8,0c-0.1,2.4-0.6,4.3-1.4,5.7c0.7,1,1.6,1.8,2.6,2.4
			c-0.2,0.2-0.5,0.6-0.7,1c-0.1,0.2-0.2,0.3-0.3,0.3c-0.1,0-0.2-0.1-0.3-0.2c-0.9-0.7-1.6-1.5-2.2-2.3c-0.7,0.9-1.6,1.7-2.6,2.4
			c-0.2,0.1-0.3,0.2-0.3,0.2c-0.1,0-0.2-0.1-0.3-0.3c-0.2-0.3-0.3-0.5-0.5-0.7l-0.3,0.5c-0.1,0.1-0.1,0.2-0.2,0.2c0,0-0.1,0-0.1-0.1
			c-0.7-0.4-1.2-0.7-1.6-0.8c-0.2,0.2-0.4,0.3-0.6,0.4c-0.8,0.4-1.8,0.7-3.1,0.8c-0.1,0-0.2,0-0.2,0c-0.1,0-0.2-0.1-0.3-0.3
			c-0.1-0.4-0.2-0.7-0.4-0.9c1.4-0.1,2.4-0.3,3.2-0.6l-1-0.3l0,0.1c-0.1,0.1-0.2,0.2-0.2,0.2c0,0-0.1,0-0.2,0l-0.8-0.2
			c-0.1,0-0.2-0.1-0.2-0.2c0,0,0-0.1,0.1-0.2c0.2-0.3,0.4-0.5,0.5-0.7c0-0.1,0.1-0.1,0.2-0.3C81.4,53.3,81.5,53.2,81.5,53.2z
			 M81.7,50.4h1.4v-0.7h-1.4V50.4z M81.8,45.7h1.3V45h-1.3V45.7z M81.8,47.3h1.3v-0.6h-1.3V47.3z M83,53.1c-0.1,0.1-0.2,0.3-0.3,0.5
			c0.4,0.1,0.9,0.2,1.4,0.4c0.3-0.3,0.5-0.7,0.6-1L83,53.1z M83.7,52c1.8-0.1,3.1-0.1,3.9-0.2c0,0.1-0.1,0.4-0.2,0.8
			c0,0.2-0.1,0.3-0.1,0.3S87.1,53,86.9,53l-1.7,0.1c0.4,0.1,0.7,0.2,0.8,0.3c0.2,0.1,0.2,0.2,0.2,0.3c0,0.1-0.1,0.2-0.2,0.3
			c-0.1,0.1-0.2,0.2-0.4,0.4c0,0.1-0.1,0.2-0.2,0.3c0.5,0.2,0.9,0.4,1.3,0.6c0.1,0,0.1,0.1,0.1,0.1c0,0,0,0,0,0
			c1.1-0.7,2-1.5,2.7-2.5c-0.5-1-0.9-2-1.1-3c0,0.1-0.1,0.2-0.2,0.4c-0.1,0.2-0.2,0.3-0.3,0.3c-0.1,0-0.1-0.1-0.3-0.3
			c-0.1-0.2-0.3-0.4-0.4-0.6v0.8l0,0.8c0,0.1,0,0.1,0,0.1c0,0-0.1,0-0.1,0l-1.8,0H84C83.9,51.5,83.8,51.7,83.7,52z M85.7,45h-1.3
			v0.6h1.3V45z M85.7,47.3v-0.6h-1.3v0.6H85.7z M85.9,50.4v-0.7h-1.5v0.7H85.9z M89.3,47.9c0.2,1.3,0.6,2.5,1,3.5
			c0.5-1.2,0.8-2.6,0.9-4.2h-1.6L89.3,47.9z"/>
	</g>
	<g class="st3">
		<path class="st5" d="M23,65.7v17.9h-3.8V70.1c-0.2,0.2-0.5,0.4-0.8,0.5c-0.3,0.2-0.6,0.3-0.9,0.5c-0.3,0.1-0.7,0.2-1,0.3
			c-0.3,0.1-0.7,0.2-1,0.2v-3.2c1-0.3,1.9-0.7,2.8-1.1c0.9-0.5,1.7-1,2.4-1.5H23z"/>
		<path class="st5" d="M32.4,80.4h7.4v3.2H28.2v-1.3c0-0.9,0.2-1.7,0.5-2.4c0.3-0.7,0.7-1.4,1.1-1.9s1-1.1,1.5-1.5
			c0.5-0.4,1.1-0.8,1.5-1.2c0.5-0.4,1-0.7,1.3-1s0.7-0.7,1-1c0.3-0.3,0.5-0.7,0.6-1c0.1-0.3,0.2-0.7,0.2-1.1c0-0.7-0.2-1.3-0.6-1.7
			c-0.4-0.4-1.1-0.6-1.9-0.6c-1.5,0-2.9,0.6-4.3,1.8v-3.4c1.5-1,3.2-1.5,5.2-1.5c0.9,0,1.7,0.1,2.4,0.3c0.7,0.2,1.3,0.6,1.8,1
			s0.9,1,1.1,1.6c0.3,0.6,0.4,1.3,0.4,2.1c0,0.8-0.1,1.5-0.4,2.1c-0.2,0.6-0.6,1.2-1,1.7c-0.4,0.5-0.9,1-1.4,1.4
			c-0.5,0.4-1.1,0.8-1.7,1.2c-0.4,0.3-0.8,0.6-1.1,0.8c-0.4,0.3-0.7,0.5-1,0.8s-0.5,0.5-0.7,0.8C32.5,79.9,32.4,80.2,32.4,80.4z"/>
		<path class="st5" d="M46.8,80.5L45,86.7h-3l1.2-6.2H46.8z"/>
		<path class="st5" d="M55.4,83.9c-4.2,0-6.3-2.9-6.3-8.8c0-3,0.6-5.3,1.7-6.9s2.8-2.4,4.9-2.4c4.1,0,6.1,3,6.1,8.9
			c0,3-0.6,5.2-1.7,6.8C59.1,83.1,57.5,83.9,55.4,83.9z M55.6,68.8c-1.7,0-2.5,2.1-2.5,6.3c0,3.9,0.8,5.9,2.5,5.9
			c1.6,0,2.4-2,2.4-6.1C57.9,70.8,57.2,68.8,55.6,68.8z"/>
		<path class="st5" d="M69.8,83.9c-4.2,0-6.3-2.9-6.3-8.8c0-3,0.6-5.3,1.7-6.9s2.8-2.4,4.9-2.4c4.1,0,6.1,3,6.1,8.9
			c0,3-0.6,5.2-1.7,6.8C73.5,83.1,71.9,83.9,69.8,83.9z M70,68.8c-1.7,0-2.5,2.1-2.5,6.3c0,3.9,0.8,5.9,2.5,5.9c1.6,0,2.4-2,2.4-6.1
			C72.3,70.8,71.5,68.8,70,68.8z"/>
		<path class="st5" d="M84.2,83.9c-4.2,0-6.3-2.9-6.3-8.8c0-3,0.6-5.3,1.7-6.9s2.8-2.4,4.9-2.4c4.1,0,6.1,3,6.1,8.9
			c0,3-0.6,5.2-1.7,6.8C87.9,83.1,86.3,83.9,84.2,83.9z M84.4,68.8c-1.7,0-2.5,2.1-2.5,6.3c0,3.9,0.8,5.9,2.5,5.9
			c1.6,0,2.4-2,2.4-6.1C86.7,70.8,85.9,68.8,84.4,68.8z"/>
	</g>
	<g class="st3">
		<path class="st4" d="M91.9,81.6c0.9-1,1.5-2.3,2-3.7c0.1-0.4,0.2-0.7,0.2-1c0.3,0.1,0.7,0.2,1.2,0.4c0.1,0.1,0.2,0.1,0.2,0.2
			c0,0.1,0,0.1-0.1,0.2c-0.1,0.1-0.2,0.3-0.2,0.5c-0.5,1.6-1.1,2.9-1.9,4c-0.1,0.2-0.2,0.2-0.2,0.2c0,0-0.1-0.1-0.3-0.2
			C92.6,81.9,92.3,81.8,91.9,81.6z M95,83.1c0.4,0,0.8,0.1,1.3,0.1c0.2,0,0.4,0,0.4-0.1c0.1-0.1,0.1-0.2,0.1-0.4V76
			c0-0.7,0-1.3-0.1-1.7c0.5,0,1,0,1.4,0.1c0.1,0,0.2,0.1,0.2,0.1c0,0,0,0.1-0.1,0.3c-0.1,0.1-0.1,0.5-0.1,1.2v4.7l0,2.4
			c0,0.6-0.1,1-0.4,1.2c-0.2,0.1-0.4,0.2-0.7,0.2c-0.3,0-0.7,0.1-1.2,0.1c-0.2,0-0.3,0-0.3-0.1c0,0-0.1-0.1-0.1-0.3
			C95.3,83.7,95.1,83.3,95,83.1z M103,81.5c-0.3,0.2-0.6,0.4-0.9,0.6c-0.1,0.1-0.2,0.2-0.3,0.2c-0.1,0-0.1-0.1-0.2-0.2
			c-0.4-0.7-0.9-1.5-1.3-2.4c-0.4-0.8-0.6-1.6-0.8-2.3c0,0,0-0.1,0-0.1c0,0,0.1-0.1,0.2-0.1l0.8-0.3c0.1,0,0.1,0,0.1,0
			c0,0,0.1,0,0.1,0.1C101.2,78.6,102,80.2,103,81.5z"/>
		<path class="st4" d="M107.8,83.5c0,0.1,0,0.1,0,0.1s0,0-0.1,0h-0.9c-0.1,0-0.1,0-0.1-0.1v-0.5h-1.1v0.9c0,0.1,0,0.1-0.1,0.1h-0.9
			c-0.1,0-0.1,0-0.1,0s0-0.1,0-0.1l0-3.7v-2.6l0-2.9c0-0.1,0-0.1,0-0.1s0.1,0,0.1,0l1,0h1l1,0c0.1,0,0.1,0,0.1,0s0,0.1,0,0.1l0,2.4
			v2.7L107.8,83.5z M106.7,75.7h-1.1v2.5h1.1V75.7z M105.6,81.9h1.1v-2.6h-1.1V81.9z M109.9,78.7l-1.6,0c-0.1,0-0.1,0-0.1,0
			c0,0,0-0.1,0-0.1v-0.8c0-0.1,0-0.1,0-0.1s0.1,0,0.1,0l1.6,0h0.9v-1.2h-0.6l-1.5,0c-0.1,0-0.1,0-0.1,0c0,0,0-0.1,0-0.1v-0.8
			c0-0.1,0-0.1,0-0.1c0,0,0.1,0,0.1,0l1.5,0h0.6c0-0.6,0-1-0.1-1.4c0.4,0,0.8,0,1.2,0.1c0.1,0,0.2,0.1,0.2,0.1c0,0,0,0.1-0.1,0.3
			c0,0.1-0.1,0.4-0.1,0.9h0.8l1.5,0c0.1,0,0.1,0,0.1,0s0,0.1,0,0.1v0.8c0,0.1,0,0.1,0,0.1s-0.1,0-0.1,0l-1.5,0H112v1.2h1.3l1.6,0
			c0.1,0,0.1,0,0.1,0c0,0,0,0.1,0,0.1v0.8c0,0.1,0,0.1,0,0.1c0,0-0.1,0-0.1,0l-1.6,0H109.9z M110,80.9l-1.6,0c-0.1,0-0.1,0-0.1,0
			s0-0.1,0-0.1V80c0-0.1,0-0.1,0-0.1s0.1,0,0.1,0l1.6,0h2.4c0-0.3,0-0.7-0.1-1.1c0.5,0,0.9,0.1,1.2,0.1c0.1,0,0.2,0.1,0.2,0.1
			c0,0.1,0,0.1-0.1,0.2c0,0.1-0.1,0.3-0.1,0.6l1.2,0c0.1,0,0.1,0,0.1,0c0,0,0,0.1,0,0.1v0.8c0,0.1,0,0.1,0,0.1s-0.1,0-0.1,0
			c0,0-0.1,0-0.2,0c-0.3,0-0.7,0-1,0v1.2l0,1.5c0,0.5-0.1,0.8-0.4,1c-0.3,0.2-0.8,0.3-1.6,0.3c-0.2,0-0.3,0-0.3-0.1
			c0,0-0.1-0.1-0.1-0.3c-0.1-0.3-0.2-0.6-0.4-0.9c0.4,0,0.8,0,1.2,0c0.3,0,0.4-0.1,0.4-0.4v-2.4H110z M110,81.3
			c0.4,0.4,0.8,0.9,1.1,1.4c0,0,0,0.1,0,0.1c0,0,0,0.1-0.1,0.1l-0.7,0.5c-0.1,0-0.1,0.1-0.1,0.1c0,0-0.1,0-0.1-0.1
			c-0.3-0.5-0.7-1-1.1-1.5c0,0-0.1-0.1-0.1-0.1c0,0,0-0.1,0.1-0.1l0.7-0.4c0.1,0,0.1-0.1,0.1-0.1S110,81.2,110,81.3z"/>
	</g>
	<g id="Group_226" transform="translate(9.64 15.951) rotate(-3)">
		<path id="Path_198-2_1_" class="st2" d="M51.9,110c-0.8,0-1.6,0-2.3,0c-0.6,0-1.1-0.5-1.1-1.2c0-0.6,0.6-1.1,1.2-1.1
			c0.7,0,1.5,0,2.2,0h0.2c0.6,0,1.1,0.5,1.1,1.1c0,0.6-0.5,1.1-1.1,1.1l0,0L51.9,110L51.9,110z M63.4,108.9c-0.6,0-1.1-0.5-1.1-1.1
			c0-0.5,0.4-1,0.9-1.1c0.7-0.1,1.5-0.3,2.2-0.5c0.6-0.1,1.2,0.2,1.4,0.8c0.1,0.6-0.2,1.2-0.8,1.4c-0.7,0.2-1.5,0.3-2.3,0.5
			C63.5,108.9,63.5,108.9,63.4,108.9z M38.5,108.5c-0.1,0-0.2,0-0.3,0c-0.8-0.2-1.5-0.4-2.2-0.6c-0.6-0.2-0.9-0.8-0.8-1.4
			c0.2-0.6,0.8-0.9,1.4-0.8l0,0c0.7,0.2,1.4,0.4,2.1,0.6c0.6,0.1,1,0.8,0.8,1.4C39.4,108.1,39,108.5,38.5,108.5z M76.3,104.7
			c-0.6,0-1.1-0.5-1.1-1.1c0-0.4,0.3-0.8,0.7-1c0.7-0.3,1.3-0.6,2-1c0.6-0.3,1.2,0,1.5,0.5c0.3,0.5,0,1.2-0.5,1.5
			c-0.7,0.3-1.4,0.7-2.1,1C76.6,104.7,76.4,104.7,76.3,104.7z M25.7,103.8c-0.2,0-0.3,0-0.5-0.1c-0.7-0.3-1.4-0.7-2-1.1
			c-0.5-0.3-0.7-1-0.4-1.5c0.3-0.5,1-0.7,1.5-0.4c0.6,0.4,1.3,0.7,2,1c0.6,0.3,0.8,1,0.5,1.5C26.5,103.6,26.1,103.8,25.7,103.8
			L25.7,103.8z M87.8,97.7c-0.6,0-1.1-0.5-1.1-1.1c0-0.3,0.2-0.7,0.4-0.9c0.6-0.5,1.2-0.9,1.7-1.4c0.5-0.4,1.2-0.3,1.6,0.1
			c0.4,0.5,0.3,1.2-0.1,1.6l0,0c-0.6,0.5-1.2,1-1.8,1.5C88.3,97.6,88.1,97.7,87.8,97.7z M14.4,96.4c-0.3,0-0.5-0.1-0.7-0.3
			c-0.6-0.5-1.2-1-1.7-1.5c-0.5-0.4-0.5-1.1,0-1.6c0.4-0.4,1.1-0.5,1.6-0.1c0.5,0.5,1.1,1,1.7,1.5c0.5,0.4,0.5,1.1,0.1,1.6
			C15,96.2,14.7,96.4,14.4,96.4z M97.5,88.1c-0.6,0-1.1-0.5-1.1-1.1c0-0.3,0.1-0.5,0.2-0.7c0.5-0.6,0.9-1.2,1.4-1.8
			c0.4-0.5,1.1-0.6,1.6-0.2c0.5,0.4,0.6,1.1,0.2,1.6c-0.5,0.6-0.9,1.2-1.4,1.8C98.2,88,97.8,88.1,97.5,88.1z M5.1,86.5
			c-0.4,0-0.7-0.2-0.9-0.5c-0.5-0.6-0.9-1.2-1.3-1.9c-0.4-0.5-0.2-1.2,0.3-1.6c0.5-0.4,1.2-0.2,1.6,0.3l0,0c0.4,0.6,0.8,1.2,1.3,1.8
			c0.4,0.5,0.3,1.2-0.2,1.6c0,0,0,0,0,0C5.6,86.4,5.3,86.5,5.1,86.5z M104.7,76.6c-0.2,0-0.3,0-0.5-0.1c-0.6-0.3-0.8-0.9-0.5-1.5
			c0.3-0.7,0.6-1.3,0.9-2c0.2-0.6,0.9-0.8,1.5-0.6s0.8,0.9,0.6,1.5c-0.3,0.7-0.6,1.4-1,2.1C105.5,76.4,105.1,76.6,104.7,76.6
			L104.7,76.6z M-1.7,74.8c-0.4,0-0.9-0.3-1-0.7c-0.3-0.7-0.6-1.4-0.9-2.1c-0.2-0.6,0.1-1.2,0.6-1.5s1.2,0.1,1.5,0.6l0,0
			c0.3,0.7,0.5,1.4,0.8,2.1c0.2,0.6,0,1.2-0.6,1.5C-1.4,74.8-1.6,74.8-1.7,74.8z M109.1,63.8c-0.1,0-0.2,0-0.2,0
			c-0.6-0.1-1-0.7-0.9-1.3c0.2-0.7,0.3-1.4,0.4-2.2c0.1-0.6,0.7-1,1.3-0.9c0.6,0.1,1,0.7,0.9,1.3c-0.1,0.8-0.3,1.5-0.4,2.3
			C110,63.4,109.6,63.8,109.1,63.8z M-5.6,61.8c-0.5,0-1-0.4-1.1-0.9c-0.1-0.8-0.3-1.5-0.4-2.3c-0.1-0.6,0.4-1.2,1-1.2
			c0.6-0.1,1.1,0.3,1.2,0.9c0.1,0.7,0.2,1.5,0.3,2.2c0.1,0.6-0.3,1.2-0.9,1.3C-5.5,61.8-5.6,61.8-5.6,61.8z M110.3,50.3
			c-0.6,0-1.1-0.5-1.1-1.1c0-0.7,0-1.5-0.1-2.2c0-0.6,0.4-1.2,1.1-1.2c0,0,0,0,0,0c0.6,0,1.1,0.4,1.2,1.1c0,0.8,0.1,1.5,0.1,2.3
			C111.5,49.8,111,50.3,110.3,50.3C110.3,50.3,110.3,50.3,110.3,50.3L110.3,50.3z M-6.4,48.3L-6.4,48.3c-0.7,0-1.2-0.6-1.1-1.2
			c0,0,0,0,0,0c0-0.8,0.1-1.5,0.2-2.3c0-0.6,0.6-1.1,1.2-1c0,0,0,0,0,0c0.6,0.1,1.1,0.6,1,1.2c-0.1,0.7-0.1,1.5-0.2,2.2
			C-5.3,47.8-5.8,48.3-6.4,48.3z M108.5,36.9c-0.5,0-1-0.3-1.1-0.8c-0.2-0.7-0.4-1.4-0.6-2.1c-0.2-0.6,0.2-1.2,0.8-1.4
			c0.6-0.2,1.2,0.2,1.4,0.7c0.2,0.7,0.4,1.5,0.6,2.2c0.2,0.6-0.2,1.2-0.8,1.4C108.7,36.9,108.6,36.9,108.5,36.9z M-4.1,34.9
			c-0.1,0-0.2,0-0.3,0c-0.6-0.2-0.9-0.8-0.8-1.4c0,0,0,0,0,0c0.2-0.7,0.5-1.5,0.7-2.2c0.2-0.6,0.8-0.9,1.4-0.7s0.9,0.8,0.7,1.4
			c-0.2,0.7-0.5,1.4-0.7,2.1C-3.1,34.6-3.6,34.9-4.1,34.9z M103.5,24.3c-0.4,0-0.8-0.2-1-0.6c-0.3-0.7-0.7-1.3-1.1-1.9
			c-0.3-0.5-0.2-1.2,0.4-1.6c0.5-0.3,1.2-0.2,1.6,0.4c0,0,0,0,0,0.1c0.4,0.7,0.8,1.3,1.1,2c0.3,0.5,0.1,1.2-0.5,1.5c0,0,0,0,0,0
			C103.9,24.2,103.7,24.3,103.5,24.3z M1.3,22.5c-0.6,0-1.1-0.5-1.1-1.1c0-0.2,0.1-0.4,0.2-0.6c0.4-0.7,0.8-1.3,1.2-2
			c0.3-0.5,1-0.7,1.5-0.4c0.5,0.3,0.7,1,0.4,1.5c0,0,0,0.1,0,0.1c-0.4,0.6-0.8,1.3-1.2,1.9C2.1,22.3,1.7,22.5,1.3,22.5z M95.8,13.1
			c-0.3,0-0.6-0.1-0.8-0.4c-0.5-0.6-1-1.1-1.5-1.6c-0.4-0.4-0.4-1.2,0-1.6s1.2-0.4,1.6,0c0,0,0,0,0,0.1c0.5,0.6,1,1.1,1.6,1.7
			c0.4,0.5,0.4,1.2-0.1,1.6C96.4,13,96.1,13.1,95.8,13.1L95.8,13.1z M9.4,11.6c-0.6,0-1.1-0.5-1.1-1.1c0-0.3,0.1-0.6,0.3-0.8
			c0.5-0.6,1.1-1.1,1.6-1.7c0.4-0.4,1.2-0.4,1.6,0c0.4,0.4,0.4,1.2,0,1.6l0,0c-0.5,0.5-1,1.1-1.6,1.6C10,11.5,9.7,11.6,9.4,11.6z
			 M85.8,4c-0.2,0-0.5-0.1-0.7-0.2c-0.6-0.4-1.2-0.8-1.8-1.3C82.8,2.2,82.6,1.5,83,1c0.3-0.5,1-0.6,1.5-0.3c0.6,0.4,1.3,0.9,1.9,1.3
			C86.9,2.3,87,3,86.7,3.6C86.5,3.8,86.1,4,85.8,4z M19.7,2.9c-0.6,0-1.1-0.5-1.1-1.1c0-0.4,0.2-0.7,0.5-0.9
			c0.6-0.4,1.3-0.8,1.9-1.2c0.5-0.3,1.2-0.1,1.5,0.4c0.3,0.5,0.1,1.2-0.4,1.5c-0.6,0.4-1.3,0.8-1.9,1.2C20.2,2.8,20,2.9,19.7,2.9z
			 M73.9-2.5c-0.1,0-0.3,0-0.4-0.1c-0.7-0.3-1.4-0.5-2.1-0.8c-0.6-0.2-0.9-0.9-0.7-1.4c0.2-0.6,0.9-0.9,1.4-0.7l0,0
			c0.7,0.3,1.4,0.5,2.2,0.8c0.6,0.2,0.9,0.9,0.6,1.5C74.8-2.8,74.3-2.5,73.9-2.5L73.9-2.5z M31.8-3.2c-0.6,0-1.1-0.5-1.1-1.1
			c0-0.5,0.3-0.9,0.7-1.1c0.7-0.3,1.4-0.5,2.2-0.8c0.6-0.2,1.2,0.1,1.4,0.7c0.2,0.6-0.1,1.2-0.7,1.4l0,0c-0.7,0.2-1.4,0.5-2.1,0.7
			C32.1-3.3,32-3.2,31.8-3.2z M60.8-6.1c-0.1,0-0.1,0-0.2,0c-0.7-0.1-1.5-0.2-2.2-0.3c-0.6-0.1-1.1-0.6-1-1.2c0.1-0.6,0.6-1.1,1.2-1
			c0,0,0,0,0,0c0.8,0.1,1.5,0.2,2.3,0.3c0.6,0.1,1,0.7,0.9,1.3C61.8-6.5,61.4-6.1,60.8-6.1L60.8-6.1z M45-6.4
			c-0.6,0-1.1-0.5-1.1-1.1c0-0.6,0.4-1,1-1.1c0.8-0.1,1.5-0.2,2.3-0.2c0.6-0.1,1.2,0.4,1.2,1c0,0,0,0,0,0c0,0.6-0.4,1.2-1,1.2
			c-0.7,0.1-1.5,0.1-2.2,0.2C45.1-6.4,45.1-6.4,45-6.4L45-6.4z"/>
	</g>
</g>
</svg>
