<?xml version="1.0" encoding="utf-8"?>
<!-- Generator: Adobe Illustrator 23.0.3, SVG Export Plug-In . SVG Version: 6.00 Build 0)  -->
<svg version="1.1" id="Symbol" xmlns="http://www.w3.org/2000/svg" xmlns:xlink="http://www.w3.org/1999/xlink" x="0px" y="0px"
	 viewBox="0 0 128.3 164" style="enable-background:new 0 0 128.3 164;" xml:space="preserve">
<style type="text/css">
	.st0{fill:#002C7C;}
	.st1{fill:#E44E00;}
	.st2{fill:#F7F7F7;}
	.st3{enable-background:new    ;}
	.st4{fill:#FFFFFF;}
	.st5{fill:#FFF700;}
</style>
<g>
	<g id="Group_220" transform="translate(28.847 94.826)">
		<g id="Group_218">
			<path id="Path_196" class="st0" d="M19.5,68.4L49.8,4.6L22.4-8.5L-8,55.3l20.2-5.9L19.5,68.4z"/>
		</g>
		<g id="Group_219" transform="translate(30.249)">
			<path id="Path_197" class="st0" d="M22.4,68.4L-8,4.6L19.5-8.5l30.4,63.7l-20.2-5.9L22.4,68.4z"/>
		</g>
	</g>
	<ellipse id="Ellipse_37" class="st1" cx="64.1" cy="63.7" rx="62.9" ry="62.9"/>
	<g id="Group_221" transform="translate(12.67 12.755)">
		<path id="Path_198" class="st2" d="M51.5,110.4c-0.8,0-1.6,0-2.3,0c-0.6,0-1.1-0.5-1.1-1.2c0-0.6,0.6-1.1,1.2-1.1
			c0.7,0,1.5,0,2.2,0h0.2c0.6,0,1.1,0.5,1.1,1.1s-0.5,1.1-1.1,1.1L51.5,110.4L51.5,110.4z M62.9,109.3c-0.6,0-1.1-0.5-1.1-1.1
			c0-0.5,0.4-1,0.9-1.1c0.7-0.1,1.5-0.3,2.2-0.5c0.6-0.1,1.2,0.2,1.4,0.8c0.1,0.6-0.2,1.2-0.8,1.4c-0.7,0.2-1.5,0.3-2.3,0.5
			C63.1,109.3,63,109.3,62.9,109.3z M38,108.9c-0.1,0-0.2,0-0.3,0c-0.8-0.2-1.5-0.4-2.2-0.6c-0.6-0.2-0.9-0.8-0.8-1.4
			c0.2-0.6,0.8-0.9,1.4-0.8l0,0c0.7,0.2,1.4,0.4,2.1,0.6c0.6,0.1,1,0.8,0.8,1.4C39,108.5,38.5,108.9,38,108.9z M75.8,105.1
			c-0.6,0-1.1-0.5-1.1-1.1c0-0.4,0.3-0.8,0.7-1c0.7-0.3,1.3-0.6,2-1c0.6-0.3,1.2,0,1.5,0.5c0.3,0.5,0,1.2-0.5,1.5
			c-0.7,0.3-1.4,0.7-2.1,1C76.2,105.1,76,105.1,75.8,105.1L75.8,105.1z M25.3,104.2c-0.2,0-0.3,0-0.5-0.1c-0.7-0.3-1.4-0.7-2-1.1
			c-0.5-0.3-0.7-1-0.4-1.5c0.3-0.5,1-0.7,1.5-0.4c0.6,0.4,1.3,0.7,2,1c0.6,0.3,0.8,1,0.5,1.5C26.1,104,25.7,104.2,25.3,104.2
			L25.3,104.2z M87.4,98.1c-0.6,0-1.1-0.5-1.1-1.1c0-0.3,0.2-0.7,0.4-0.9c0.6-0.5,1.2-0.9,1.7-1.4c0.5-0.4,1.2-0.3,1.6,0.1
			c0.4,0.5,0.3,1.2-0.1,1.6l0,0c-0.6,0.5-1.2,1-1.8,1.5C87.9,98,87.6,98.1,87.4,98.1z M13.9,96.8c-0.3,0-0.5-0.1-0.7-0.3
			c-0.6-0.5-1.2-1-1.7-1.5c-0.5-0.4-0.5-1.1,0-1.6c0.4-0.4,1.1-0.5,1.6-0.1c0.6,0.5,1.1,1,1.7,1.5c0.5,0.4,0.5,1.1,0.1,1.6
			C14.6,96.6,14.3,96.8,13.9,96.8L13.9,96.8z M97,88.5c-0.6,0-1.1-0.5-1.1-1.1c0-0.3,0.1-0.5,0.2-0.7c0.5-0.6,0.9-1.2,1.4-1.8
			c0.4-0.5,1.1-0.6,1.6-0.2c0.5,0.4,0.6,1.1,0.2,1.6l0,0c-0.5,0.6-0.9,1.2-1.4,1.8C97.7,88.4,97.4,88.5,97,88.5L97,88.5z M4.6,86.9
			c-0.4,0-0.7-0.2-0.9-0.5c-0.5-0.6-0.9-1.2-1.3-1.9C2,84.1,2.2,83.4,2.7,83s1.2-0.2,1.6,0.3c0.4,0.6,0.8,1.2,1.3,1.8
			c0.4,0.5,0.3,1.2-0.2,1.6c0,0,0,0,0,0C5.1,86.8,4.9,86.9,4.6,86.9L4.6,86.9z M104.2,77.1c-0.2,0-0.3,0-0.5-0.1
			c-0.6-0.3-0.8-0.9-0.5-1.5c0.3-0.7,0.6-1.3,0.9-2c0.2-0.6,0.9-0.8,1.5-0.6c0.6,0.2,0.8,0.9,0.6,1.5c-0.3,0.7-0.6,1.4-1,2.1
			C105.1,76.8,104.7,77.1,104.2,77.1L104.2,77.1z M-2.2,75.2c-0.4,0-0.9-0.3-1-0.7c-0.3-0.7-0.6-1.4-0.9-2.1
			c-0.2-0.6,0.1-1.2,0.6-1.5c0.6-0.2,1.2,0.1,1.5,0.6c0.3,0.7,0.5,1.4,0.8,2c0.2,0.6,0,1.2-0.6,1.5C-1.9,75.2-2,75.2-2.2,75.2z
			 M108.6,64.2c-0.1,0-0.2,0-0.2,0c-0.6-0.1-1-0.7-0.9-1.3c0.2-0.7,0.3-1.4,0.4-2.2c0.1-0.6,0.7-1,1.3-0.9c0.6,0.1,1,0.7,0.9,1.3
			c-0.1,0.8-0.3,1.5-0.4,2.3C109.6,63.8,109.1,64.2,108.6,64.2L108.6,64.2z M-6.1,62.2c-0.5,0-1-0.4-1.1-0.9
			c-0.1-0.8-0.3-1.5-0.4-2.3c-0.1-0.6,0.4-1.2,1-1.2c0.6-0.1,1.1,0.3,1.2,0.9c0.1,0.7,0.2,1.5,0.3,2.2c0.1,0.6-0.3,1.2-0.9,1.3
			C-5.9,62.2-6,62.2-6.1,62.2L-6.1,62.2z M109.9,50.7c-0.6,0-1.1-0.5-1.1-1.1c0-0.7,0-1.5-0.1-2.2c0-0.6,0.4-1.2,1.1-1.2
			c0,0,0,0,0,0c0.6,0,1.1,0.4,1.2,1.1c0,0.8,0.1,1.5,0.1,2.3C111,50.2,110.5,50.7,109.9,50.7C109.9,50.7,109.9,50.7,109.9,50.7
			L109.9,50.7z M-6.9,48.7L-6.9,48.7c-0.7,0-1.2-0.6-1.1-1.2c0-0.8,0.1-1.5,0.2-2.3c0-0.6,0.6-1.1,1.2-1c0,0,0,0,0,0
			c0.6,0.1,1.1,0.6,1,1.2c-0.1,0.7-0.1,1.5-0.2,2.2C-5.8,48.2-6.3,48.7-6.9,48.7L-6.9,48.7z M108,37.3c-0.5,0-1-0.3-1.1-0.8
			c-0.2-0.7-0.4-1.4-0.6-2.1c-0.2-0.6,0.2-1.2,0.8-1.4c0.6-0.2,1.2,0.2,1.4,0.7c0.2,0.7,0.4,1.5,0.6,2.2c0.2,0.6-0.2,1.2-0.8,1.4
			C108.2,37.3,108.1,37.3,108,37.3L108,37.3z M-4.5,35.3c-0.1,0-0.2,0-0.3,0c-0.6-0.2-0.9-0.8-0.8-1.4c0,0,0,0,0,0
			c0.2-0.7,0.5-1.5,0.7-2.2c0.2-0.6,0.8-0.9,1.4-0.7s0.9,0.8,0.7,1.4c-0.2,0.7-0.5,1.4-0.7,2.1C-3.6,35-4,35.3-4.5,35.3L-4.5,35.3z
			 M103.1,24.7c-0.4,0-0.8-0.2-1-0.6c-0.3-0.7-0.7-1.3-1.1-1.9c-0.3-0.5-0.2-1.2,0.4-1.6c0.5-0.3,1.2-0.2,1.6,0.4c0,0,0,0,0,0.1
			c0.4,0.7,0.8,1.3,1.1,2c0.3,0.5,0.1,1.2-0.5,1.5c0,0,0,0,0,0C103.4,24.6,103.3,24.7,103.1,24.7L103.1,24.7z M0.8,22.9
			c-0.6,0-1.1-0.5-1.1-1.1c0-0.2,0.1-0.4,0.2-0.6c0.4-0.7,0.8-1.3,1.2-2c0.3-0.5,1-0.7,1.5-0.4c0.5,0.3,0.7,1,0.4,1.5
			c0,0,0,0.1,0,0.1c-0.4,0.6-0.8,1.3-1.2,1.9C1.6,22.7,1.2,22.9,0.8,22.9L0.8,22.9z M95.4,13.5c-0.3,0-0.6-0.1-0.8-0.4
			c-0.5-0.6-1-1.1-1.5-1.6c-0.4-0.5-0.4-1.2,0.1-1.6c0.4-0.4,1.1-0.4,1.5,0c0.5,0.6,1,1.1,1.6,1.7c0.4,0.5,0.4,1.2-0.1,1.6
			C95.9,13.4,95.6,13.5,95.4,13.5L95.4,13.5z M8.9,12c-0.6,0-1.1-0.5-1.1-1.1c0-0.3,0.1-0.6,0.3-0.8C8.6,9.5,9.2,9,9.7,8.5
			c0.4-0.4,1.2-0.4,1.6,0s0.4,1.2,0,1.6l0,0c-0.5,0.5-1,1.1-1.6,1.6C9.5,11.9,9.2,12,8.9,12z M85.3,4.4c-0.2,0-0.5-0.1-0.7-0.2
			c-0.6-0.4-1.2-0.8-1.8-1.3c-0.5-0.3-0.7-1-0.4-1.6c0.3-0.5,1-0.7,1.6-0.4c0,0,0,0,0,0c0.6,0.4,1.3,0.9,1.9,1.3
			c0.5,0.4,0.6,1.1,0.3,1.6C86,4.3,85.7,4.4,85.3,4.4L85.3,4.4z M19.3,3.3c-0.6,0-1.1-0.5-1.1-1.1c0-0.4,0.2-0.7,0.5-0.9
			C19.3,0.8,20,0.4,20.6,0c0.5-0.3,1.2-0.1,1.5,0.4c0.3,0.5,0.1,1.2-0.4,1.5c-0.6,0.4-1.3,0.8-1.9,1.2C19.7,3.2,19.5,3.3,19.3,3.3z
			 M73.4-2.1c-0.1,0-0.3,0-0.4-0.1c-0.7-0.3-1.4-0.5-2.1-0.8c-0.6-0.2-0.9-0.9-0.7-1.4s0.9-0.9,1.4-0.7l0,0c0.7,0.3,1.4,0.5,2.2,0.8
			c0.6,0.2,0.9,0.9,0.6,1.5C74.3-2.4,73.9-2.1,73.4-2.1L73.4-2.1z M31.4-2.8c-0.6,0-1.1-0.5-1.1-1.1c0-0.5,0.3-0.9,0.7-1.1
			c0.7-0.3,1.4-0.5,2.2-0.8c0.6-0.2,1.2,0.1,1.4,0.7c0.2,0.6-0.1,1.2-0.7,1.4c-0.7,0.2-1.4,0.5-2.1,0.7C31.7-2.9,31.5-2.8,31.4-2.8
			L31.4-2.8z M60.4-5.7c-0.1,0-0.1,0-0.2,0C59.5-5.8,58.7-5.9,58-6c-0.6-0.1-1.1-0.6-1-1.2c0.1-0.6,0.6-1.1,1.2-1c0,0,0,0,0,0
			C59-8.2,59.8-8.1,60.5-8c0.6,0.1,1,0.7,0.9,1.3C61.4-6.1,60.9-5.7,60.4-5.7L60.4-5.7z M44.6-6c-0.6,0-1.1-0.5-1.1-1.1
			c0-0.6,0.4-1,1-1.1c0.8-0.1,1.5-0.2,2.3-0.2c0.6-0.1,1.2,0.4,1.2,1c0,0,0,0,0,0c0,0.6-0.4,1.2-1,1.2c-0.7,0.1-1.5,0.1-2.2,0.2
			C44.7-6,44.6-6,44.6-6L44.6-6z"/>
	</g>
	<g class="st3">
		<path class="st4" d="M48.1,48.3c-0.3,0.4-0.5,0.8-0.7,1.1c-0.1,0.2-0.2,0.4-0.3,0.4c-0.1,0-0.2,0-0.3-0.1c-2.6-1.2-4.6-2.8-6-4.7
			c-1.5,2-3.4,3.6-5.8,4.8c-0.2,0.1-0.3,0.1-0.4,0.1c-0.1,0-0.2-0.1-0.3-0.4c-0.2-0.4-0.4-0.7-0.7-1c2.5-1.1,4.5-2.6,5.8-4.6
			c0.2-0.3,0.4-0.7,0.5-1.1c0.4,0,0.9,0.2,1.6,0.3c0.2,0,0.3,0.1,0.3,0.2c0,0.1-0.1,0.2-0.2,0.2l-0.1,0.1
			C43.2,45.8,45.4,47.3,48.1,48.3z M36.2,56.2l-1.9,0c-0.1,0-0.2,0-0.2-0.1v-1.2c0-0.1,0.1-0.2,0.2-0.2l1.9,0h0.4v-3.3
			c0-0.8,0-1.3-0.1-1.6c0.7,0,1.2,0,1.7,0.1c0.2,0,0.2,0.1,0.2,0.2c0,0,0,0.1-0.1,0.3c-0.1,0.1-0.1,0.5-0.1,1.1v3.2h2.1v-5.7
			c0-0.8,0-1.3-0.1-1.6c0.7,0,1.2,0.1,1.7,0.1c0.2,0,0.2,0.1,0.2,0.2c0,0.1,0,0.2-0.1,0.3C42,48.2,42,48.5,42,49.1v1.4h1.5l1.9,0
			c0.1,0,0.1,0,0.1,0c0,0,0,0.1,0,0.1v1.2c0,0.1,0,0.1,0,0.1c0,0-0.1,0-0.1,0l-1.9,0H42v2.8h3.6l1.9,0c0.1,0,0.1,0,0.1,0
			s0,0.1,0,0.1v1.2c0,0.1-0.1,0.1-0.2,0.1l-1.9,0H36.2z"/>
		<path class="st4" d="M51.3,53.1l-1.9,0c-0.1,0-0.1,0-0.2,0c0,0,0-0.1,0-0.1v-0.9c0-0.1,0-0.1,0-0.2c0,0,0.1,0,0.1,0l1.9,0H55v-0.8
			h-2.1l-2.1,0c-0.1,0-0.1,0-0.1,0c0,0,0-0.1,0-0.1v-0.9c0-0.1,0-0.1,0-0.2c0,0,0.1,0,0.1,0l2.1,0H55v-0.8h-2.8l-2,0
			c-0.1,0-0.1,0-0.2,0c0,0,0-0.1,0-0.1v-0.9c0-0.1,0-0.1,0-0.1c0,0,0.1,0,0.1,0l2,0h0.9c-0.2-0.4-0.3-0.7-0.5-0.9
			c0-0.1-0.1-0.1-0.1-0.1c0,0,0.1-0.1,0.2-0.1l1-0.3h-2.4l-1.9,0c-0.1,0-0.1,0-0.2,0c0,0,0-0.1,0-0.1v-0.9c0-0.1,0-0.1,0-0.2
			c0,0,0.1,0,0.1,0l1.9,0h0.1c-0.2-0.4-0.5-0.8-0.9-1.3c0,0-0.1-0.1-0.1-0.1c0,0,0.1-0.1,0.2-0.2l0.9-0.4c0.1,0,0.1,0,0.1,0
			c0,0,0.1,0,0.1,0.1c0.4,0.5,0.8,1,1,1.5c0,0.1,0,0.1,0,0.1c0,0-0.1,0.1-0.2,0.1l-0.4,0.2h1.4v-1c0-0.6,0-1-0.1-1.3
			c0.6,0,1.1,0,1.5,0.1c0.1,0,0.2,0.1,0.2,0.1c0,0,0,0.1-0.1,0.3c-0.1,0.1-0.1,0.4-0.1,0.8v1h1.2v-1c0-0.6,0-1-0.1-1.3
			c0.6,0,1.1,0.1,1.4,0.1c0.1,0,0.2,0.1,0.2,0.1c0,0.1,0,0.1-0.1,0.2c-0.1,0.1-0.1,0.4-0.1,0.8v1h0.9c0.3-0.4,0.5-0.8,0.7-1.2
			c0.1-0.3,0.2-0.5,0.3-0.8c0.5,0.1,1,0.2,1.5,0.4c0.1,0,0.2,0.1,0.2,0.2c0,0.1,0,0.2-0.1,0.3c-0.1,0.1-0.2,0.2-0.3,0.3
			c-0.1,0.2-0.3,0.5-0.6,0.9h0.2l1.9,0c0.1,0,0.1,0,0.1,0c0,0,0,0.1,0,0.1v0.9c0,0.1,0,0.1,0,0.1s-0.1,0-0.1,0l-1.9,0h-2.6
			c0.4,0.1,0.8,0.2,1.2,0.3c0.1,0,0.2,0.1,0.2,0.2c0,0.1-0.1,0.2-0.2,0.2c0,0-0.1,0.1-0.2,0.3L58.6,48h1l2,0c0.1,0,0.1,0,0.1,0
			s0,0.1,0,0.1v0.9c0,0.1-0.1,0.1-0.2,0.1l-2,0h-3V50h2.4l2.1,0c0.1,0,0.1,0,0.1,0c0,0,0,0.1,0,0.1V51c0,0.1,0,0.1,0,0.1
			c0,0-0.1,0-0.1,0l-2.1,0h-2.4v0.8h3.9l1.9,0c0.1,0,0.1,0,0.1,0c0,0,0,0.1,0,0.1V53c0,0.1,0,0.1,0,0.1c0,0-0.1,0-0.1,0l-1.9,0h-2.7
			c1.2,0.8,2.8,1.5,5,1.9c-0.2,0.3-0.4,0.6-0.6,1c-0.1,0.3-0.2,0.4-0.3,0.4c0,0-0.2,0-0.3-0.1c-2-0.6-3.7-1.5-5-2.7l0.1,3
			c0,0.1,0,0.1,0,0.1c0,0-0.1,0-0.1,0h-1.3c-0.1,0-0.2-0.1-0.2-0.2c0-0.1,0-0.2,0-0.5c0-0.8,0-1.6,0-2.4c-1.2,1.1-2.8,2-4.8,2.7
			c-0.2,0.1-0.3,0.1-0.3,0.1c-0.1,0-0.2-0.1-0.3-0.4c-0.2-0.4-0.4-0.7-0.6-0.9c2.1-0.5,3.6-1.2,4.8-2.1H51.3z M57.5,47.2
			c0-0.1,0.1-0.3,0.2-0.6h-3.8c0,0,0.1,0,0.1,0.1c0.3,0.5,0.5,0.9,0.7,1.4h2.5C57.2,47.8,57.3,47.5,57.5,47.2z"/>
		<path class="st4" d="M64.2,55.1c0.3,0,0.7,0.1,1.1,0.1c0.2,0,0.3-0.1,0.3-0.4v-3L65.1,52c-0.2,0.1-0.4,0.1-0.5,0.3
			c-0.1,0.1-0.2,0.1-0.3,0.1c-0.1,0-0.1-0.1-0.2-0.2c-0.1-0.4-0.2-0.8-0.3-1.4c0.5,0,0.9-0.1,1.4-0.3l0.4-0.1v-2.9h-0.2l-1.3,0
			c-0.1,0-0.1,0-0.1,0c0,0,0-0.1,0-0.1v-1.1c0-0.1,0-0.1,0-0.1c0,0,0.1,0,0.1,0l1.3,0h0.2v-0.8c0-0.9,0-1.6-0.1-2.1
			c0.6,0,1.1,0,1.5,0.1c0.2,0,0.2,0.1,0.2,0.2c0,0,0,0.2-0.1,0.3c0,0.1-0.1,0.6-0.1,1.5V46l1,0c0.1,0,0.1,0,0.1,0c0,0,0,0.1,0,0.1
			v1.1c0,0.1,0,0.1,0,0.1c0,0-0.1,0-0.1,0c0,0-0.1,0-0.3,0c-0.2,0-0.4,0-0.7,0v2.4c0.1,0,0.3-0.1,0.5-0.2c0.2-0.1,0.4-0.2,0.4-0.2
			C68,49.7,68,50.1,68,50.5c0,0.2,0,0.3-0.1,0.4c0,0-0.1,0.1-0.3,0.2c-0.2,0.1-0.3,0.2-0.5,0.2v0.6l0,3c0,0.8-0.2,1.3-0.5,1.5
			c-0.2,0.1-0.4,0.2-0.6,0.3c-0.2,0-0.5,0.1-1,0.1c-0.1,0-0.2,0-0.2,0c-0.2,0-0.2,0-0.3-0.1c0,0-0.1-0.2-0.1-0.4
			C64.6,55.8,64.4,55.5,64.2,55.1z M77.9,55.2c-0.3,0.3-0.5,0.7-0.6,1c-0.1,0.2-0.1,0.3-0.2,0.3c0,0-0.1,0.1-0.2,0.1
			c0,0-0.1,0-0.3,0c-1.4-0.2-2.7-0.7-3.8-1.5c-1,0.7-2.4,1.2-4,1.6c-0.2,0-0.3,0.1-0.3,0.1c-0.1,0-0.2-0.1-0.3-0.4
			c-0.2-0.4-0.3-0.7-0.6-1c1.7-0.3,3-0.7,4-1.3c-0.7-0.7-1.3-1.6-1.7-2.6l-0.6,0c-0.1,0-0.1,0-0.2,0c0,0,0-0.1,0-0.1v-0.7h-0.7
			c-0.1,0-0.1,0-0.1,0c0,0,0-0.1,0-0.1l0-1.4v-0.4l0-0.7c0-0.1,0-0.1,0-0.1s0.1,0,0.1,0l2.1,0h3.7c0.4-0.6,0.7-1.3,1-2
			c0.1-0.3,0.2-0.6,0.2-0.8c0.5,0.1,1,0.3,1.3,0.4c0.1,0,0.2,0.1,0.2,0.2c0,0.1,0,0.1-0.1,0.2c-0.1,0.1-0.2,0.2-0.3,0.4
			c-0.3,0.7-0.6,1.3-0.8,1.6l1.6,0c0.1,0,0.1,0,0.1,0c0,0,0,0.1,0,0.1l0,0.7v0.5l0,1.4c0,0.1,0,0.1,0,0.1c0,0-0.1,0-0.1,0h-1.2
			c-0.1,0-0.1-0.1-0.1-0.2v-1.5h-6.2v1.2c0.2,0,0.7,0,1.5,0h3.5c0.2,0,0.3,0,0.4-0.1c0.1,0,0.1,0,0.1,0c0.1,0,0.3,0.1,0.5,0.4
			c0.3,0.3,0.4,0.5,0.4,0.6c0,0.1-0.1,0.2-0.2,0.3c-0.1,0.1-0.2,0.3-0.4,0.6c-0.5,0.9-1,1.6-1.6,2.2C75.1,54.7,76.4,55,77.9,55.2z
			 M75.9,43.1c0.4,0.4,0.8,0.7,1,0.9c0.1,0.1,0.1,0.2,0.1,0.3c0,0.1-0.1,0.2-0.3,0.2c-0.1,0-0.3,0-0.7,0.1c-2,0.4-4.2,0.6-6.6,0.7
			c-0.1,0-0.2,0-0.2,0c-0.2,0-0.3,0-0.3-0.1c0,0-0.1-0.2-0.1-0.4c-0.1-0.3-0.2-0.6-0.4-0.8c2.6,0,4.8-0.2,6.6-0.6
			C75.4,43.3,75.7,43.3,75.9,43.1z M70.6,45.6c0.3,0.4,0.5,0.9,0.7,1.4c0,0,0,0.1,0,0.1c0,0.1-0.1,0.1-0.2,0.1l-0.9,0.3
			c-0.1,0-0.1,0-0.2,0c0,0-0.1,0-0.1-0.1c-0.2-0.6-0.5-1.1-0.7-1.5c0,0,0-0.1,0-0.1c0,0,0.1-0.1,0.2-0.1l0.8-0.3c0.1,0,0.1,0,0.2,0
			C70.4,45.5,70.5,45.5,70.6,45.6z M74.2,51.5h-2.6c0.3,0.7,0.8,1.3,1.4,1.8C73.5,52.8,73.9,52.2,74.2,51.5z M73.2,45.3
			c0.3,0.5,0.5,1,0.7,1.6c0,0,0,0.1,0,0.1c0,0.1-0.1,0.1-0.2,0.1l-0.8,0.3c-0.1,0-0.1,0-0.2,0c-0.1,0-0.1,0-0.1-0.1
			c-0.1-0.5-0.3-1.1-0.6-1.6c0-0.1,0-0.1,0-0.1c0-0.1,0.1-0.1,0.2-0.1l0.8-0.3c0.1,0,0.1,0,0.1,0C73.1,45.2,73.2,45.3,73.2,45.3z"/>
		<path class="st4" d="M80.8,45.7h1.6l1.6,0c0.1,0,0.1,0,0.1,0c0,0,0,0.1,0,0.1v1.1c0,0.1,0,0.1,0,0.2c0,0-0.1,0-0.1,0l-1.6,0h-1.6
			l-1.6,0c-0.1,0-0.1,0-0.1,0c0,0,0-0.1,0-0.1v-1.1c0-0.1,0-0.1,0-0.1c0,0,0.1,0,0.1,0L80.8,45.7z M83.9,56.4c0,0.1,0,0.2-0.1,0.2
			h-1.1c-0.1,0-0.1,0-0.1,0s0-0.1,0-0.1V56h-1.4v0.7c0,0.1,0,0.1,0,0.1c0,0-0.1,0-0.1,0h-1.1c-0.1,0-0.1,0-0.2,0c0,0,0-0.1,0-0.1
			l0-2.3v-1l0-1.4c0-0.1,0-0.1,0-0.1c0,0,0.1,0,0.1,0l1.4,0h1.2l1.4,0c0.1,0,0.1,0.1,0.1,0.2l0,1.2v1.6c1.3-0.8,2.3-1.7,3.1-2.8
			h-0.5l-2,0c-0.1,0-0.1,0-0.1,0s0-0.1,0-0.1v-1.1c0-0.1,0-0.1,0-0.1c0,0,0.1,0,0.1,0l2,0h1.3v-1.1H87l-1.9,0c-0.1,0-0.1,0-0.1,0
			s0-0.1,0-0.1l0-1.5v-2.7l0-1.5c0-0.1,0-0.1,0-0.2c0,0,0.1,0,0.1,0l1.9,0h3l1.9,0c0.1,0,0.1,0,0.1,0c0,0,0,0.1,0,0.1l0,1.5V48
			l0,1.5c0,0.1,0,0.1,0,0.1s-0.1,0-0.1,0l-1.9,0h-0.8v1.1h1.5l2,0c0.1,0,0.1,0,0.1,0c0,0,0,0.1,0,0.1v1.1c0,0.1,0,0.1,0,0.1
			c0,0-0.1,0-0.1,0l-2,0h-0.7c0.8,1,1.9,1.9,3.2,2.5c-0.2,0.2-0.5,0.6-0.7,1c-0.1,0.2-0.2,0.3-0.2,0.3c0,0-0.1-0.1-0.3-0.2
			c-1.1-0.8-2-1.7-2.7-2.8c0,0.8,0,1.7,0,2.6c0,0.8,0,1.1,0,1.2c0,0.1,0,0.1,0,0.1c0,0-0.1,0-0.1,0h-1.2c-0.1,0-0.1,0-0.1,0
			c0,0,0-0.1,0-0.1c0-0.1,0-0.3,0-0.7c0-1.2,0-2.2,0.1-3C87,54,86.1,55,85.1,55.8c-0.2,0.1-0.3,0.2-0.3,0.2c-0.1,0-0.2-0.1-0.3-0.3
			c-0.2-0.3-0.4-0.5-0.6-0.7L83.9,56.4z M81.2,43.6h1.1l1.4,0c0.1,0,0.1,0,0.2,0c0,0,0,0.1,0,0.1v1c0,0.1,0,0.1,0,0.1
			c0,0-0.1,0-0.1,0l-1.4,0h-1.1l-1.4,0c-0.1,0-0.1,0-0.1,0c0,0,0-0.1,0-0.1v-1c0-0.1,0-0.1,0-0.1c0,0,0.1,0,0.1,0L81.2,43.6z
			 M81.3,47.8h1l1.3,0c0.1,0,0.1,0,0.2,0c0,0,0,0.1,0,0.1v1c0,0.1,0,0.1,0,0.1c0,0-0.1,0-0.1,0l-1.3,0h-1l-1.3,0c-0.1,0-0.1,0-0.1,0
			c0,0,0-0.1,0-0.1v-1c0-0.1,0-0.1,0-0.1c0,0,0.1,0,0.1,0L81.3,47.8z M81.3,49.9h1l1.3,0c0.1,0,0.1,0,0.2,0c0,0,0,0.1,0,0.1v1
			c0,0.1,0,0.1,0,0.1c0,0-0.1,0-0.1,0l-1.3,0h-1l-1.3,0c-0.1,0-0.1,0-0.1,0c0,0,0-0.1,0-0.1v-1c0-0.1,0-0.1,0-0.1c0,0,0.1,0,0.1,0
			L81.3,49.9z M82.5,53.1h-1.4v1.6h1.4V53.1z M86.3,46.1h1.4v-1.3h-1.4V46.1z M86.3,48.5h1.4v-1.2h-1.4V48.5z M90.6,44.9h-1.5v1.3
			h1.5V44.9z M90.6,48.5v-1.2h-1.5v1.2H90.6z"/>
	</g>
	<g class="st3">
		<path class="st5" d="M30.4,80.4h7.4v3.2H26.2v-1.3c0-0.9,0.2-1.7,0.5-2.4c0.3-0.7,0.7-1.3,1.1-1.9c0.5-0.6,1-1.1,1.5-1.5
			c0.5-0.4,1.1-0.8,1.5-1.2c0.5-0.4,1-0.7,1.3-1c0.4-0.3,0.7-0.7,1-1c0.3-0.3,0.5-0.7,0.6-1s0.2-0.7,0.2-1.1c0-0.8-0.2-1.3-0.6-1.7
			s-1.1-0.6-1.9-0.6c-1.5,0-2.9,0.6-4.3,1.8v-3.4c1.5-1,3.2-1.5,5.2-1.5c0.9,0,1.7,0.1,2.4,0.3c0.7,0.2,1.3,0.6,1.8,1s0.9,1,1.1,1.6
			s0.4,1.3,0.4,2.1c0,0.8-0.1,1.5-0.4,2.1c-0.2,0.6-0.6,1.2-1,1.7c-0.4,0.5-0.9,1-1.4,1.4s-1.1,0.8-1.7,1.2
			c-0.4,0.3-0.8,0.6-1.1,0.8c-0.4,0.3-0.7,0.5-1,0.8c-0.3,0.3-0.5,0.5-0.7,0.8C30.5,79.9,30.4,80.2,30.4,80.4z"/>
		<path class="st5" d="M44.9,80.5l-1.8,6.2h-3l1.2-6.2H44.9z"/>
		<path class="st5" d="M53.5,83.9c-4.2,0-6.3-2.9-6.3-8.8c0-3,0.6-5.3,1.7-6.9c1.1-1.6,2.8-2.4,4.9-2.4c4.1,0,6.1,3,6.1,8.9
			c0,3-0.6,5.2-1.7,6.8C57.1,83.1,55.5,83.9,53.5,83.9z M53.6,68.8c-1.7,0-2.5,2.1-2.5,6.3c0,3.9,0.8,5.9,2.5,5.9
			c1.6,0,2.4-2,2.4-6.1C56,70.8,55.2,68.8,53.6,68.8z"/>
		<path class="st5" d="M67.8,83.9c-4.2,0-6.2-2.9-6.2-8.8c0-3,0.6-5.3,1.7-6.9c1.1-1.6,2.8-2.4,4.9-2.4c4.1,0,6.1,3,6.1,8.9
			c0,3-0.6,5.2-1.7,6.8C71.5,83.1,69.9,83.9,67.8,83.9z M68,68.8c-1.7,0-2.5,2.1-2.5,6.3c0,3.9,0.8,5.9,2.5,5.9c1.6,0,2.4-2,2.4-6.1
			C70.3,70.8,69.6,68.8,68,68.8z"/>
		<path class="st5" d="M82.2,83.9C78,83.9,76,81,76,75.1c0-3,0.6-5.3,1.7-6.9c1.1-1.6,2.8-2.4,4.9-2.4c4.1,0,6.1,3,6.1,8.9
			c0,3-0.6,5.2-1.7,6.8C85.9,83.1,84.3,83.9,82.2,83.9z M82.4,68.8c-1.7,0-2.5,2.1-2.5,6.3c0,3.9,0.8,5.9,2.5,5.9
			c1.6,0,2.4-2,2.4-6.1C84.7,70.8,83.9,68.8,82.4,68.8z"/>
	</g>
	<g class="st3">
		<path class="st4" d="M93.6,80.1c0,0.1,0,0.4,0,0.7V81c0,0.1,0,0.2-0.1,0.2c0,0-0.1,0.1-0.3,0.2c-0.8,0.4-1.5,0.8-2.2,1
			c-0.2,0.1-0.3,0.1-0.4,0.2c-0.1,0.1-0.2,0.1-0.2,0.1c-0.1,0-0.1-0.1-0.2-0.2c-0.1-0.2-0.2-0.6-0.3-1.1c0.4-0.1,0.8-0.2,1.2-0.3
			c0,0,0.1,0,0.1-0.1s0.1,0,0.1,0v-3h-0.1l-1.1,0c-0.1,0-0.1,0-0.1-0.1v-0.9c0-0.1,0-0.1,0.1-0.1l1.1,0h0.1v-1c0-0.8,0-1.4-0.1-1.8
			c0.4,0,0.8,0,1.2,0.1c0.1,0,0.2,0.1,0.2,0.1c0,0,0,0.1-0.1,0.2c0,0.1-0.1,0.6-0.1,1.3v1.1l0.9,0c0.1,0,0.1,0,0.1,0s0,0.1,0,0.1V78
			c0,0.1,0,0.1,0,0.1c0,0-0.1,0-0.1,0l-0.9,0v2.5C93.1,80.3,93.5,80.1,93.6,80.1z M94.9,84.1c1.4-0.8,2.4-1.7,2.9-2.9h-0.6
			c-0.7,1.1-1.7,2-2.8,2.7C94.3,84,94.2,84,94.1,84c-0.1,0-0.2-0.1-0.3-0.2c-0.1-0.1-0.3-0.3-0.5-0.4c1.1-0.5,2-1.2,2.7-2.2h-0.8
			c-0.5,0.6-1,1-1.6,1.4c-0.2,0.1-0.3,0.2-0.3,0.2c0,0-0.1-0.1-0.3-0.2c-0.2-0.2-0.3-0.4-0.6-0.5c0.9-0.5,1.7-1.2,2.2-2
			c0.1-0.1,0.2-0.3,0.3-0.5l-1.4,0c-0.1,0-0.1,0-0.1,0c0,0,0-0.1,0-0.1v-0.8c0-0.1,0-0.1,0-0.1s0.1,0,0.1,0l1.6,0h4l1.6,0
			c0.1,0,0.1,0,0.1,0c0,0,0,0.1,0,0.1v0.8c0,0.1,0,0.1,0,0.1s-0.1,0-0.1,0l-1.6,0h-3.6l0.4,0.1c0.1,0,0.2,0.1,0.2,0.2s0,0.1-0.1,0.2
			c-0.1,0.1-0.1,0.1-0.2,0.2H99l1.4,0c0.1,0,0.2,0,0.2,0.1c0,0,0,0,0,0c0,0,0,0,0,0l-0.1,1.2c-0.1,1-0.2,1.8-0.4,2.3
			c-0.1,0.3-0.3,0.6-0.5,0.7c-0.2,0.1-0.5,0.2-0.8,0.2c-0.3,0-0.5,0-0.6,0c-0.1,0-0.2,0-0.3-0.1c0,0-0.1-0.1-0.1-0.3
			c-0.1-0.3-0.2-0.5-0.3-0.8c0.3,0.1,0.7,0.1,1.1,0.1c0.1,0,0.3,0,0.3-0.1c0.1-0.1,0.1-0.2,0.2-0.3c0.1-0.4,0.2-1.1,0.3-2.1H99
			c-0.6,1.4-1.6,2.6-3,3.5c-0.2,0.1-0.2,0.1-0.3,0.1c-0.1,0-0.2-0.1-0.3-0.2C95.3,84.4,95.1,84.2,94.9,84.1z M98.3,74.3l1.5,0
			c0.1,0,0.1,0,0.1,0c0,0,0,0.1,0,0.1l0,1v1.5l0,1c0,0.1,0,0.1,0,0.1s-0.1,0-0.1,0l-1.5,0H96l-1.5,0c-0.1,0-0.1,0-0.1,0s0-0.1,0-0.1
			l0-1v-1.5l0-1c0-0.1,0-0.1,0-0.1s0.1,0,0.1,0l1.5,0H98.3z M98.7,75.2h-3.1v0.6h3.1V75.2z M98.7,77.2v-0.6h-3.1v0.6H98.7z"/>
	</g>
	<g id="Group_225" transform="translate(9.64 15.951) rotate(-3)">
		<path id="Path_198-2" class="st2" d="M51.9,110c-0.8,0-1.6,0-2.3,0c-0.6,0-1.1-0.5-1.1-1.2c0-0.6,0.6-1.1,1.2-1.1
			c0.7,0,1.5,0,2.2,0h0.2c0.6,0,1.1,0.5,1.1,1.1c0,0.6-0.5,1.1-1.1,1.1l0,0L51.9,110L51.9,110z M63.4,108.9c-0.6,0-1.1-0.5-1.1-1.1
			c0-0.5,0.4-1,0.9-1.1c0.7-0.1,1.5-0.3,2.2-0.5c0.6-0.1,1.2,0.2,1.4,0.8c0.1,0.6-0.2,1.2-0.8,1.4c-0.7,0.2-1.5,0.3-2.3,0.5
			C63.5,108.9,63.5,108.9,63.4,108.9z M38.5,108.5c-0.1,0-0.2,0-0.3,0c-0.8-0.2-1.5-0.4-2.2-0.6c-0.6-0.2-0.9-0.8-0.8-1.4
			c0.2-0.6,0.8-0.9,1.4-0.8l0,0c0.7,0.2,1.4,0.4,2.1,0.6c0.6,0.1,1,0.8,0.8,1.4C39.4,108.1,39,108.5,38.5,108.5z M76.3,104.7
			c-0.6,0-1.1-0.5-1.1-1.1c0-0.4,0.3-0.8,0.7-1c0.7-0.3,1.3-0.6,2-1c0.6-0.3,1.2,0,1.5,0.5c0.3,0.5,0,1.2-0.5,1.5
			c-0.7,0.3-1.4,0.7-2.1,1C76.6,104.7,76.4,104.7,76.3,104.7z M25.7,103.8c-0.2,0-0.3,0-0.5-0.1c-0.7-0.3-1.4-0.7-2-1.1
			c-0.5-0.3-0.7-1-0.4-1.5c0.3-0.5,1-0.7,1.5-0.4c0.6,0.4,1.3,0.7,2,1c0.6,0.3,0.8,1,0.5,1.5C26.5,103.6,26.1,103.8,25.7,103.8
			L25.7,103.8z M87.8,97.7c-0.6,0-1.1-0.5-1.1-1.1c0-0.3,0.2-0.7,0.4-0.9c0.6-0.5,1.2-0.9,1.7-1.4c0.5-0.4,1.2-0.3,1.6,0.1
			c0.4,0.5,0.3,1.2-0.1,1.6l0,0c-0.6,0.5-1.2,1-1.8,1.5C88.3,97.6,88.1,97.7,87.8,97.7z M14.4,96.4c-0.3,0-0.5-0.1-0.7-0.3
			c-0.6-0.5-1.2-1-1.7-1.5c-0.5-0.4-0.5-1.1,0-1.6c0.4-0.4,1.1-0.5,1.6-0.1c0.5,0.5,1.1,1,1.7,1.5c0.5,0.4,0.5,1.1,0.1,1.6
			C15,96.2,14.7,96.4,14.4,96.4z M97.5,88.1c-0.6,0-1.1-0.5-1.1-1.1c0-0.3,0.1-0.5,0.2-0.7c0.5-0.6,0.9-1.2,1.4-1.8
			c0.4-0.5,1.1-0.6,1.6-0.2c0.5,0.4,0.6,1.1,0.2,1.6c-0.5,0.6-0.9,1.2-1.4,1.8C98.2,88,97.8,88.1,97.5,88.1z M5.1,86.5
			c-0.4,0-0.7-0.2-0.9-0.5c-0.5-0.6-0.9-1.2-1.3-1.9c-0.4-0.5-0.2-1.2,0.3-1.6c0.5-0.4,1.2-0.2,1.6,0.3l0,0c0.4,0.6,0.8,1.2,1.3,1.8
			c0.4,0.5,0.3,1.2-0.2,1.6c0,0,0,0,0,0C5.6,86.4,5.3,86.5,5.1,86.5z M104.7,76.6c-0.2,0-0.3,0-0.5-0.1c-0.6-0.3-0.8-0.9-0.5-1.5
			c0.3-0.7,0.6-1.3,0.9-2c0.2-0.6,0.9-0.8,1.5-0.6s0.8,0.9,0.6,1.5c-0.3,0.7-0.6,1.4-1,2.1C105.5,76.4,105.1,76.6,104.7,76.6
			L104.7,76.6z M-1.7,74.8c-0.4,0-0.9-0.3-1-0.7c-0.3-0.7-0.6-1.4-0.9-2.1c-0.2-0.6,0.1-1.2,0.6-1.5s1.2,0.1,1.5,0.6l0,0
			c0.3,0.7,0.5,1.4,0.8,2.1c0.2,0.6,0,1.2-0.6,1.5C-1.4,74.8-1.6,74.8-1.7,74.8z M109.1,63.8c-0.1,0-0.2,0-0.2,0
			c-0.6-0.1-1-0.7-0.9-1.3c0.2-0.7,0.3-1.4,0.4-2.2c0.1-0.6,0.7-1,1.3-0.9c0.6,0.1,1,0.7,0.9,1.3c-0.1,0.8-0.3,1.5-0.4,2.3
			C110,63.4,109.6,63.8,109.1,63.8z M-5.6,61.8c-0.5,0-1-0.4-1.1-0.9c-0.1-0.8-0.3-1.5-0.4-2.3c-0.1-0.6,0.4-1.2,1-1.2
			c0.6-0.1,1.1,0.3,1.2,0.9c0.1,0.7,0.2,1.5,0.3,2.2c0.1,0.6-0.3,1.2-0.9,1.3C-5.5,61.8-5.6,61.8-5.6,61.8z M110.3,50.3
			c-0.6,0-1.1-0.5-1.1-1.1c0-0.7,0-1.5-0.1-2.2c0-0.6,0.4-1.2,1.1-1.2c0,0,0,0,0,0c0.6,0,1.1,0.4,1.2,1.1c0,0.8,0.1,1.5,0.1,2.3
			C111.5,49.8,111,50.3,110.3,50.3C110.3,50.3,110.3,50.3,110.3,50.3L110.3,50.3z M-6.4,48.3L-6.4,48.3c-0.7,0-1.2-0.6-1.1-1.2
			c0,0,0,0,0,0c0-0.8,0.1-1.5,0.2-2.3c0-0.6,0.6-1.1,1.2-1c0,0,0,0,0,0c0.6,0.1,1.1,0.6,1,1.2c-0.1,0.7-0.1,1.5-0.2,2.2
			C-5.3,47.8-5.8,48.3-6.4,48.3z M108.5,36.9c-0.5,0-1-0.3-1.1-0.8c-0.2-0.7-0.4-1.4-0.6-2.1c-0.2-0.6,0.2-1.2,0.8-1.4
			c0.6-0.2,1.2,0.2,1.4,0.7c0.2,0.7,0.4,1.5,0.6,2.2c0.2,0.6-0.2,1.2-0.8,1.4C108.7,36.9,108.6,36.9,108.5,36.9z M-4.1,34.9
			c-0.1,0-0.2,0-0.3,0c-0.6-0.2-0.9-0.8-0.8-1.4c0,0,0,0,0,0c0.2-0.7,0.5-1.5,0.7-2.2c0.2-0.6,0.8-0.9,1.4-0.7s0.9,0.8,0.7,1.4
			c-0.2,0.7-0.5,1.4-0.7,2.1C-3.1,34.6-3.6,34.9-4.1,34.9z M103.5,24.3c-0.4,0-0.8-0.2-1-0.6c-0.3-0.7-0.7-1.3-1.1-1.9
			c-0.3-0.5-0.2-1.2,0.4-1.6c0.5-0.3,1.2-0.2,1.6,0.4c0,0,0,0,0,0.1c0.4,0.7,0.8,1.3,1.1,2c0.3,0.5,0.1,1.2-0.5,1.5c0,0,0,0,0,0
			C103.9,24.2,103.7,24.3,103.5,24.3z M1.3,22.5c-0.6,0-1.1-0.5-1.1-1.1c0-0.2,0.1-0.4,0.2-0.6c0.4-0.7,0.8-1.3,1.2-2
			c0.3-0.5,1-0.7,1.5-0.4c0.5,0.3,0.7,1,0.4,1.5c0,0,0,0.1,0,0.1c-0.4,0.6-0.8,1.3-1.2,1.9C2.1,22.3,1.7,22.5,1.3,22.5z M95.8,13.1
			c-0.3,0-0.6-0.1-0.8-0.4c-0.5-0.6-1-1.1-1.5-1.6c-0.4-0.4-0.4-1.2,0-1.6s1.2-0.4,1.6,0c0,0,0,0,0,0.1c0.5,0.6,1,1.1,1.6,1.7
			c0.4,0.5,0.4,1.2-0.1,1.6C96.4,13,96.1,13.1,95.8,13.1L95.8,13.1z M9.4,11.6c-0.6,0-1.1-0.5-1.1-1.1c0-0.3,0.1-0.6,0.3-0.8
			c0.5-0.6,1.1-1.1,1.6-1.7c0.4-0.4,1.2-0.4,1.6,0c0.4,0.4,0.4,1.2,0,1.6l0,0c-0.5,0.5-1,1.1-1.6,1.6C10,11.5,9.7,11.6,9.4,11.6z
			 M85.8,4c-0.2,0-0.5-0.1-0.7-0.2c-0.6-0.4-1.2-0.8-1.8-1.3C82.8,2.2,82.6,1.5,83,1c0.3-0.5,1-0.6,1.5-0.3c0.6,0.4,1.3,0.9,1.9,1.3
			C86.9,2.3,87,3,86.7,3.6C86.5,3.8,86.1,4,85.8,4z M19.7,2.9c-0.6,0-1.1-0.5-1.1-1.1c0-0.4,0.2-0.7,0.5-0.9
			c0.6-0.4,1.3-0.8,1.9-1.2c0.5-0.3,1.2-0.1,1.5,0.4c0.3,0.5,0.1,1.2-0.4,1.5c-0.6,0.4-1.3,0.8-1.9,1.2C20.2,2.8,20,2.9,19.7,2.9z
			 M73.9-2.5c-0.1,0-0.3,0-0.4-0.1c-0.7-0.3-1.4-0.5-2.1-0.8c-0.6-0.2-0.9-0.9-0.7-1.4c0.2-0.6,0.9-0.9,1.4-0.7l0,0
			c0.7,0.3,1.4,0.5,2.2,0.8c0.6,0.2,0.9,0.9,0.6,1.5C74.8-2.8,74.3-2.5,73.9-2.5L73.9-2.5z M31.8-3.2c-0.6,0-1.1-0.5-1.1-1.1
			c0-0.5,0.3-0.9,0.7-1.1c0.7-0.3,1.4-0.5,2.2-0.8c0.6-0.2,1.2,0.1,1.4,0.7c0.2,0.6-0.1,1.2-0.7,1.4l0,0c-0.7,0.2-1.4,0.5-2.1,0.7
			C32.1-3.3,32-3.2,31.8-3.2z M60.8-6.1c-0.1,0-0.1,0-0.2,0c-0.7-0.1-1.5-0.2-2.2-0.3c-0.6-0.1-1.1-0.6-1-1.2c0.1-0.6,0.6-1.1,1.2-1
			c0,0,0,0,0,0c0.8,0.1,1.5,0.2,2.3,0.3c0.6,0.1,1,0.7,0.9,1.3C61.8-6.5,61.4-6.1,60.8-6.1L60.8-6.1z M45-6.4
			c-0.6,0-1.1-0.5-1.1-1.1c0-0.6,0.4-1,1-1.1c0.8-0.1,1.5-0.2,2.3-0.2c0.6-0.1,1.2,0.4,1.2,1c0,0,0,0,0,0c0,0.6-0.4,1.2-1,1.2
			c-0.7,0.1-1.5,0.1-2.2,0.2C45.1-6.4,45.1-6.4,45-6.4L45-6.4z"/>
	</g>
</g>
</svg>
