<?xml version="1.0" encoding="utf-8"?>
<!-- Generator: Adobe Illustrator 23.0.3, SVG Export Plug-In . SVG Version: 6.00 Build 0)  -->
<svg version="1.1" id="Symbol" xmlns="http://www.w3.org/2000/svg" xmlns:xlink="http://www.w3.org/1999/xlink" x="0px" y="0px"
	 viewBox="0 0 128.3 164" style="enable-background:new 0 0 128.3 164;" xml:space="preserve">
<style type="text/css">
	.st0{fill:#002C7C;}
	.st1{fill:#E44E00;}
	.st2{fill:#F7F7F7;}
	.st3{enable-background:new    ;}
	.st4{fill:#FFFFFF;}
	.st5{fill:#FFFF00;}
</style>
<g>
	<g id="Group_220" transform="translate(28.847 94.826)">
		<g id="Group_218">
			<path id="Path_196" class="st0" d="M19.5,68.4L49.8,4.6L22.4-8.5L-8,55.3l20.2-5.9L19.5,68.4z"/>
		</g>
		<g id="Group_219" transform="translate(30.249)">
			<path id="Path_197" class="st0" d="M22.4,68.4L-8,4.6L19.5-8.5l30.4,63.7l-20.2-5.9L22.4,68.4z"/>
		</g>
	</g>
	<ellipse id="Ellipse_37" class="st1" cx="64.1" cy="63.7" rx="62.9" ry="62.9"/>
	<g id="Group_221" transform="translate(4.101 22.794) rotate(-9)">
		<path id="Path_198" class="st2" d="M52.9,109.3c-0.8,0-1.6,0-2.3,0c-0.6,0-1.1-0.5-1.1-1.2c0-0.6,0.6-1.1,1.2-1.1
			c0.7,0,1.5,0,2.2,0h0.2c0.6,0,1.1,0.5,1.1,1.1c0,0.6-0.5,1.1-1.1,1.1l0,0L52.9,109.3L52.9,109.3z M64.4,108.2
			c-0.6,0-1.1-0.5-1.1-1.1c0-0.5,0.4-1,0.9-1.1c0.7-0.1,1.5-0.3,2.2-0.5c0.6-0.1,1.2,0.2,1.4,0.8c0.1,0.6-0.2,1.2-0.8,1.4
			c-0.7,0.2-1.5,0.3-2.3,0.5C64.5,108.2,64.4,108.2,64.4,108.2z M39.4,107.7c-0.1,0-0.2,0-0.3,0c-0.8-0.2-1.5-0.4-2.2-0.6
			c-0.6-0.2-0.9-0.8-0.8-1.4c0.2-0.6,0.8-0.9,1.4-0.8l0,0c0.7,0.2,1.4,0.4,2.1,0.6c0.6,0.1,1,0.8,0.8,1.4
			C40.4,107.4,39.9,107.7,39.4,107.7z M77.3,104c-0.6,0-1.1-0.5-1.1-1.1c0-0.4,0.3-0.8,0.7-1c0.7-0.3,1.3-0.6,2-1
			c0.6-0.3,1.2,0,1.5,0.5c0.3,0.5,0,1.2-0.5,1.5c-0.7,0.3-1.4,0.7-2.1,1C77.6,103.9,77.4,104,77.3,104z M26.7,103.1
			c-0.2,0-0.3,0-0.5-0.1c-0.7-0.3-1.4-0.7-2-1.1c-0.5-0.3-0.7-1-0.4-1.5c0.3-0.5,1-0.7,1.5-0.4c0.6,0.4,1.3,0.7,2,1
			c0.6,0.3,0.8,1,0.5,1.5C27.5,102.9,27.1,103.1,26.7,103.1L26.7,103.1z M88.8,96.9c-0.6,0-1.1-0.5-1.1-1.1c0-0.3,0.2-0.7,0.4-0.9
			c0.6-0.5,1.2-0.9,1.7-1.4c0.5-0.4,1.2-0.3,1.6,0.1c0.4,0.5,0.3,1.2-0.1,1.6l0,0c-0.6,0.5-1.2,1-1.8,1.5
			C89.3,96.8,89.1,96.9,88.8,96.9z M15.4,95.6c-0.3,0-0.5-0.1-0.7-0.3c-0.6-0.5-1.2-1-1.7-1.5c-0.5-0.4-0.5-1.1,0-1.6
			c0.4-0.4,1.1-0.5,1.6-0.1c0.6,0.5,1.1,1,1.7,1.5c0.5,0.4,0.5,1.1,0.1,1.6C16,95.5,15.7,95.6,15.4,95.6z M98.5,87.4
			c-0.6,0-1.1-0.5-1.1-1.1c0-0.3,0.1-0.5,0.2-0.7c0.5-0.6,0.9-1.2,1.4-1.8c0.4-0.5,1.1-0.6,1.6-0.2c0.5,0.4,0.6,1.1,0.2,1.6
			c-0.5,0.6-0.9,1.2-1.4,1.8C99.1,87.2,98.8,87.4,98.5,87.4z M6.1,85.8c-0.4,0-0.7-0.2-0.9-0.5c-0.5-0.6-0.9-1.2-1.3-1.9
			c-0.4-0.5-0.2-1.2,0.3-1.6c0.5-0.4,1.2-0.2,1.6,0.3l0,0C6.1,82.8,6.5,83.4,7,84c0.4,0.5,0.3,1.2-0.2,1.6c0,0,0,0,0,0
			C6.5,85.7,6.3,85.8,6.1,85.8z M105.7,75.9c-0.2,0-0.3,0-0.5-0.1c-0.6-0.3-0.8-0.9-0.5-1.5c0.3-0.7,0.6-1.3,0.9-2
			c0.2-0.6,0.9-0.8,1.5-0.6s0.8,0.9,0.6,1.5c-0.3,0.7-0.6,1.4-1,2.1C106.5,75.7,106.1,75.9,105.7,75.9L105.7,75.9z M-0.7,74.1
			c-0.4,0-0.9-0.3-1-0.7c-0.3-0.7-0.6-1.4-0.9-2.1C-2.9,70.7-2.6,70-2,69.8s1.2,0.1,1.5,0.6l0,0c0.3,0.7,0.5,1.4,0.8,2.1
			c0.2,0.6,0,1.2-0.6,1.5C-0.4,74-0.6,74.1-0.7,74.1z M110,63.1c-0.1,0-0.2,0-0.2,0c-0.6-0.1-1-0.7-0.9-1.3c0.2-0.7,0.3-1.4,0.4-2.2
			c0.1-0.6,0.7-1,1.3-0.9c0.6,0.1,1,0.7,0.9,1.3c-0.1,0.8-0.3,1.5-0.4,2.3C111,62.7,110.6,63.1,110,63.1z M-4.6,61.1
			c-0.5,0-1-0.4-1.1-0.9c-0.1-0.8-0.3-1.5-0.4-2.3c-0.1-0.6,0.4-1.2,1-1.2c0.6-0.1,1.1,0.3,1.2,0.9c0.1,0.7,0.2,1.5,0.3,2.2
			c0.1,0.6-0.3,1.2-0.9,1.3C-4.5,61.1-4.6,61.1-4.6,61.1z M111.3,49.6c-0.6,0-1.1-0.5-1.1-1.1c0-0.7,0-1.5-0.1-2.2
			c0-0.6,0.4-1.2,1.1-1.2c0,0,0,0,0,0c0.6,0,1.1,0.4,1.2,1.1c0,0.8,0.1,1.5,0.1,2.3C112.4,49,111.9,49.6,111.3,49.6
			C111.3,49.6,111.3,49.6,111.3,49.6L111.3,49.6z M-5.4,47.6L-5.4,47.6c-0.7,0-1.2-0.6-1.1-1.2c0,0,0,0,0,0c0-0.8,0.1-1.5,0.2-2.3
			c0-0.6,0.6-1.1,1.2-1c0,0,0,0,0,0c0.6,0.1,1.1,0.6,1,1.2c-0.1,0.7-0.1,1.5-0.2,2.2C-4.4,47.1-4.9,47.5-5.4,47.6z M109.4,36.1
			c-0.5,0-1-0.3-1.1-0.8c-0.2-0.7-0.4-1.4-0.6-2.1c-0.2-0.6,0.2-1.2,0.8-1.4c0.6-0.2,1.2,0.2,1.4,0.7c0.2,0.7,0.4,1.5,0.6,2.2
			c0.2,0.6-0.2,1.2-0.8,1.4C109.6,36.1,109.5,36.2,109.4,36.1z M-3.1,34.2c-0.1,0-0.2,0-0.3,0C-4,34-4.4,33.4-4.2,32.8c0,0,0,0,0,0
			c0.2-0.7,0.5-1.5,0.7-2.2c0.2-0.6,0.8-0.9,1.4-0.7s0.9,0.8,0.7,1.4C-1.6,32-1.8,32.7-2,33.4C-2.2,33.9-2.6,34.2-3.1,34.2z
			 M104.5,23.5c-0.4,0-0.8-0.2-1-0.6c-0.3-0.7-0.7-1.3-1.1-1.9c-0.3-0.5-0.2-1.2,0.4-1.6c0.5-0.3,1.2-0.2,1.6,0.4c0,0,0,0,0,0.1
			c0.4,0.7,0.8,1.3,1.1,2c0.3,0.5,0.1,1.2-0.5,1.5c0,0,0,0,0,0C104.9,23.5,104.7,23.5,104.5,23.5z M2.3,21.7c-0.6,0-1.1-0.5-1.1-1.1
			c0-0.2,0.1-0.4,0.2-0.6c0.4-0.7,0.8-1.3,1.2-2c0.3-0.5,1-0.7,1.5-0.4c0.5,0.3,0.7,1,0.4,1.5c0,0,0,0.1,0,0.1
			c-0.4,0.6-0.8,1.3-1.2,1.9C3,21.5,2.7,21.7,2.3,21.7z M96.8,12.4c-0.3,0-0.6-0.1-0.8-0.4c-0.5-0.6-1-1.1-1.5-1.6
			c-0.4-0.4-0.4-1.2,0-1.6c0.4-0.4,1.2-0.4,1.6,0c0,0,0,0,0,0.1c0.5,0.6,1,1.1,1.6,1.7c0.4,0.5,0.4,1.2-0.1,1.6
			C97.3,12.3,97.1,12.4,96.8,12.4L96.8,12.4z M10.4,10.9c-0.6,0-1.1-0.5-1.1-1.1c0-0.3,0.1-0.6,0.3-0.8c0.5-0.6,1.1-1.1,1.6-1.7
			c0.4-0.4,1.2-0.4,1.6,0s0.4,1.2,0,1.6l0,0c-0.5,0.5-1,1.1-1.6,1.6C11,10.7,10.7,10.9,10.4,10.9z M86.7,3.3c-0.2,0-0.5-0.1-0.7-0.2
			c-0.6-0.4-1.2-0.8-1.8-1.3c-0.5-0.3-0.7-1-0.4-1.6c0.3-0.5,1-0.7,1.6-0.4c0,0,0,0,0,0c0.6,0.4,1.3,0.9,1.9,1.3
			c0.5,0.4,0.6,1.1,0.3,1.6C87.4,3.1,87.1,3.3,86.7,3.3z M20.7,2.1c-0.6,0-1.1-0.5-1.1-1.1c0-0.4,0.2-0.7,0.5-0.9
			c0.6-0.4,1.3-0.8,1.9-1.2c0.5-0.3,1.2-0.1,1.5,0.4c0.3,0.5,0.1,1.2-0.4,1.5c-0.6,0.4-1.3,0.8-1.9,1.2C21.2,2.1,20.9,2.1,20.7,2.1z
			 M74.9-3.3c-0.1,0-0.3,0-0.4-0.1c-0.7-0.3-1.4-0.5-2.1-0.8c-0.6-0.2-0.9-0.9-0.7-1.4c0.2-0.6,0.9-0.9,1.4-0.7l0,0
			c0.7,0.3,1.4,0.5,2.2,0.8c0.6,0.2,0.9,0.9,0.6,1.5C75.7-3.5,75.3-3.3,74.9-3.3L74.9-3.3z M32.8-4c-0.6,0-1.1-0.5-1.1-1.1
			c0-0.5,0.3-0.9,0.7-1.1c0.7-0.3,1.4-0.5,2.2-0.8c0.6-0.2,1.2,0.1,1.4,0.7c0.2,0.6-0.1,1.2-0.7,1.4l0,0c-0.7,0.2-1.4,0.5-2.1,0.7
			C33.1-4,32.9-4,32.8-4z M61.8-6.9c-0.1,0-0.1,0-0.2,0c-0.7-0.1-1.5-0.2-2.2-0.3c-0.6-0.1-1.1-0.6-1-1.2c0.1-0.6,0.6-1.1,1.2-1
			c0,0,0,0,0,0c0.8,0.1,1.5,0.2,2.3,0.3c0.6,0.1,1,0.7,0.9,1.3C62.8-7.3,62.3-6.9,61.8-6.9L61.8-6.9z M46-7.1
			c-0.6,0-1.1-0.5-1.1-1.1c0-0.6,0.4-1,1-1.1c0.8-0.1,1.5-0.2,2.3-0.2c0.6-0.1,1.2,0.4,1.2,1c0,0,0,0,0,0c0,0.6-0.4,1.2-1,1.2
			c-0.7,0.1-1.5,0.1-2.2,0.2C46.1-7.1,46-7.1,46-7.1L46-7.1z"/>
	</g>
	<g class="st3">
		<path class="st4" d="M33,55.1c0.3,0,0.7,0.1,1.1,0.1c0.2,0,0.3-0.1,0.3-0.4v-3L33.9,52c-0.2,0.1-0.4,0.1-0.5,0.3
			c-0.1,0.1-0.2,0.1-0.3,0.1c-0.1,0-0.1-0.1-0.2-0.2c-0.1-0.4-0.2-0.8-0.3-1.4c0.5,0,0.9-0.1,1.4-0.3l0.4-0.1v-2.9h-0.2l-1.3,0
			c-0.1,0-0.1,0-0.1,0c0,0,0-0.1,0-0.1v-1.1c0-0.1,0-0.1,0-0.1c0,0,0.1,0,0.1,0l1.3,0h0.2v-0.8c0-0.9,0-1.6-0.1-2.1
			c0.6,0,1.1,0,1.5,0.1c0.2,0,0.2,0.1,0.2,0.2c0,0,0,0.2-0.1,0.3c0,0.1-0.1,0.6-0.1,1.5V46l1,0c0.1,0,0.1,0,0.1,0c0,0,0,0.1,0,0.1
			v1.1c0,0.1,0,0.1,0,0.1c0,0-0.1,0-0.1,0c0,0-0.1,0-0.3,0c-0.2,0-0.4,0-0.7,0v2.4c0.1,0,0.3-0.1,0.5-0.2c0.2-0.1,0.4-0.2,0.4-0.2
			c-0.1,0.3-0.1,0.6-0.1,1.1c0,0.2,0,0.3-0.1,0.4c0,0-0.1,0.1-0.3,0.2c-0.2,0.1-0.3,0.2-0.5,0.2v0.6l0,3c0,0.8-0.2,1.3-0.5,1.5
			c-0.2,0.1-0.4,0.2-0.6,0.3c-0.2,0-0.5,0.1-1,0.1c-0.1,0-0.2,0-0.2,0c-0.2,0-0.2,0-0.3-0.1c0,0-0.1-0.2-0.1-0.4
			C33.3,55.8,33.1,55.5,33,55.1z M46.6,55.2c-0.3,0.3-0.5,0.7-0.6,1c-0.1,0.2-0.1,0.3-0.2,0.3c0,0-0.1,0.1-0.2,0.1c0,0-0.1,0-0.3,0
			c-1.4-0.2-2.7-0.7-3.8-1.5c-1,0.7-2.4,1.2-4,1.6c-0.2,0-0.3,0.1-0.3,0.1c-0.1,0-0.2-0.1-0.3-0.4c-0.2-0.4-0.3-0.7-0.6-1
			c1.7-0.3,3-0.7,4-1.3c-0.7-0.7-1.3-1.6-1.7-2.6l-0.6,0c-0.1,0-0.1,0-0.2,0c0,0,0-0.1,0-0.1v-0.7h-0.7c-0.1,0-0.1,0-0.1,0
			s0-0.1,0-0.1l0-1.4v-0.4l0-0.7c0-0.1,0-0.1,0-0.1s0.1,0,0.1,0l2.1,0H43c0.4-0.6,0.7-1.3,1-2c0.1-0.3,0.2-0.6,0.2-0.8
			c0.5,0.1,1,0.3,1.3,0.4c0.1,0,0.2,0.1,0.2,0.2c0,0.1,0,0.1-0.1,0.2c-0.1,0.1-0.2,0.2-0.3,0.4c-0.3,0.7-0.6,1.3-0.8,1.6l1.6,0
			c0.1,0,0.1,0,0.1,0c0,0,0,0.1,0,0.1l0,0.7v0.5l0,1.4c0,0.1,0,0.1,0,0.1c0,0-0.1,0-0.1,0h-1.2c-0.1,0-0.1-0.1-0.1-0.2v-1.5h-6.2
			v1.2c0.2,0,0.7,0,1.5,0h3.5c0.2,0,0.3,0,0.4-0.1c0.1,0,0.1,0,0.1,0c0.1,0,0.3,0.1,0.5,0.4c0.3,0.3,0.4,0.5,0.4,0.6
			c0,0.1-0.1,0.2-0.2,0.3c-0.1,0.1-0.2,0.3-0.4,0.6c-0.5,0.9-1,1.6-1.6,2.2C43.8,54.7,45.1,55,46.6,55.2z M44.7,43.1
			c0.4,0.4,0.8,0.7,1,0.9c0.1,0.1,0.1,0.2,0.1,0.3c0,0.1-0.1,0.2-0.3,0.2c-0.1,0-0.3,0-0.7,0.1c-2,0.4-4.2,0.6-6.6,0.7
			c-0.1,0-0.2,0-0.2,0c-0.2,0-0.3,0-0.3-0.1c0,0-0.1-0.2-0.1-0.4c-0.1-0.3-0.2-0.6-0.4-0.8c2.6,0,4.8-0.2,6.6-0.6
			C44.2,43.3,44.4,43.3,44.7,43.1z M39.3,45.6c0.3,0.4,0.5,0.9,0.7,1.4c0,0,0,0.1,0,0.1c0,0.1-0.1,0.1-0.2,0.1L39,47.6
			c-0.1,0-0.1,0-0.2,0c0,0-0.1,0-0.1-0.1c-0.2-0.6-0.5-1.1-0.7-1.5c0,0,0-0.1,0-0.1c0,0,0.1-0.1,0.2-0.1l0.8-0.3c0.1,0,0.1,0,0.2,0
			C39.2,45.5,39.2,45.5,39.3,45.6z M42.9,51.5h-2.6c0.3,0.7,0.8,1.3,1.4,1.8C42.2,52.8,42.6,52.2,42.9,51.5z M41.9,45.3
			c0.3,0.5,0.5,1,0.7,1.6c0,0,0,0.1,0,0.1c0,0.1-0.1,0.1-0.2,0.1l-0.8,0.3c-0.1,0-0.1,0-0.2,0c-0.1,0-0.1,0-0.1-0.1
			c-0.1-0.5-0.3-1.1-0.6-1.6c0-0.1,0-0.1,0-0.1c0-0.1,0.1-0.1,0.2-0.1l0.8-0.3c0.1,0,0.1,0,0.1,0C41.8,45.2,41.9,45.3,41.9,45.3z"/>
		<path class="st4" d="M49.6,45.7h1.6l1.6,0c0.1,0,0.1,0,0.1,0s0,0.1,0,0.1v1.1c0,0.1,0,0.1,0,0.2c0,0-0.1,0-0.1,0l-1.6,0h-1.6
			l-1.6,0c-0.1,0-0.1,0-0.1,0c0,0,0-0.1,0-0.1v-1.1c0-0.1,0-0.1,0-0.1c0,0,0.1,0,0.1,0L49.6,45.7z M52.6,56.4c0,0.1,0,0.2-0.1,0.2
			h-1.1c-0.1,0-0.1,0-0.1,0s0-0.1,0-0.1V56h-1.4v0.7c0,0.1,0,0.1,0,0.1c0,0-0.1,0-0.1,0h-1.1c-0.1,0-0.1,0-0.2,0c0,0,0-0.1,0-0.1
			l0-2.3v-1l0-1.4c0-0.1,0-0.1,0-0.1c0,0,0.1,0,0.1,0l1.4,0h1.2l1.4,0c0.1,0,0.1,0.1,0.1,0.2l0,1.2v1.6c1.3-0.8,2.3-1.7,3.1-2.8
			h-0.5l-2,0c-0.1,0-0.1,0-0.1,0s0-0.1,0-0.1v-1.1c0-0.1,0-0.1,0-0.1c0,0,0.1,0,0.1,0l2,0h1.3v-1.1h-0.8l-1.9,0c-0.1,0-0.1,0-0.1,0
			s0-0.1,0-0.1l0-1.5v-2.7l0-1.5c0-0.1,0-0.1,0-0.2c0,0,0.1,0,0.1,0l1.9,0h3l1.9,0c0.1,0,0.1,0,0.1,0c0,0,0,0.1,0,0.1l0,1.5V48
			l0,1.5c0,0.1,0,0.1,0,0.1s-0.1,0-0.1,0l-1.9,0h-0.8v1.1h1.5l2,0c0.1,0,0.1,0,0.1,0c0,0,0,0.1,0,0.1v1.1c0,0.1,0,0.1,0,0.1
			c0,0-0.1,0-0.1,0l-2,0h-0.7c0.8,1,1.9,1.9,3.2,2.5c-0.2,0.2-0.5,0.6-0.7,1c-0.1,0.2-0.2,0.3-0.2,0.3c0,0-0.1-0.1-0.3-0.2
			c-1.1-0.8-2-1.7-2.7-2.8c0,0.8,0,1.7,0,2.6c0,0.8,0,1.1,0,1.2c0,0.1,0,0.1,0,0.1c0,0-0.1,0-0.1,0h-1.2c-0.1,0-0.1,0-0.1,0
			c0,0,0-0.1,0-0.1c0-0.1,0-0.3,0-0.7c0-1.2,0-2.2,0.1-3c-0.7,1.1-1.6,2.1-2.7,2.9c-0.2,0.1-0.3,0.2-0.3,0.2c-0.1,0-0.2-0.1-0.3-0.3
			c-0.2-0.3-0.4-0.5-0.6-0.7L52.6,56.4z M50,43.6h1.1l1.4,0c0.1,0,0.1,0,0.2,0c0,0,0,0.1,0,0.1v1c0,0.1,0,0.1,0,0.1c0,0-0.1,0-0.1,0
			l-1.4,0H50l-1.4,0c-0.1,0-0.1,0-0.1,0s0-0.1,0-0.1v-1c0-0.1,0-0.1,0-0.1c0,0,0.1,0,0.1,0L50,43.6z M50,47.8h1l1.3,0
			c0.1,0,0.1,0,0.2,0c0,0,0,0.1,0,0.1v1c0,0.1,0,0.1,0,0.1c0,0-0.1,0-0.1,0l-1.3,0h-1l-1.3,0c-0.1,0-0.1,0-0.1,0c0,0,0-0.1,0-0.1v-1
			c0-0.1,0-0.1,0-0.1c0,0,0.1,0,0.1,0L50,47.8z M50,49.9h1l1.3,0c0.1,0,0.1,0,0.2,0c0,0,0,0.1,0,0.1v1c0,0.1,0,0.1,0,0.1
			c0,0-0.1,0-0.1,0l-1.3,0h-1l-1.3,0c-0.1,0-0.1,0-0.1,0c0,0,0-0.1,0-0.1v-1c0-0.1,0-0.1,0-0.1c0,0,0.1,0,0.1,0L50,49.9z M51.2,53.1
			h-1.4v1.6h1.4V53.1z M55.1,46.1h1.4v-1.3h-1.4V46.1z M55.1,48.5h1.4v-1.2h-1.4V48.5z M59.3,44.9h-1.5v1.3h1.5V44.9z M59.3,48.5
			v-1.2h-1.5v1.2H59.3z"/>
		<path class="st4" d="M76.4,55c-0.3,0.3-0.6,0.7-0.8,1.2c-0.1,0.2-0.2,0.4-0.3,0.4c0,0-0.2-0.1-0.3-0.2c-2.8-1.8-4.5-4.2-5.3-7.2
			c-0.8,3.2-2.6,5.6-5.4,7.2c-0.2,0.1-0.3,0.2-0.3,0.2c-0.1,0-0.2-0.1-0.3-0.4c-0.2-0.4-0.5-0.7-0.9-1c2-0.9,3.6-2.4,4.6-4.3
			c0.8-1.6,1.3-3.4,1.2-5.4c0-0.8-0.1-1.5-0.1-1.9c0.6,0,1.2,0.1,1.8,0.2c0.2,0,0.3,0.1,0.3,0.2c0,0.1,0,0.2-0.1,0.4
			c-0.1,0.1-0.1,0.5-0.1,1c0,0.1,0,0.3,0,0.5c0.3,2.4,1.1,4.3,2.2,5.8C73.4,52.9,74.7,54.1,76.4,55z"/>
		<path class="st4" d="M79.4,53.2l-0.6,0c-0.3,0-0.5,0.1-0.6,0.1c-0.1,0-0.2,0.1-0.2,0.1c-0.1,0-0.2-0.1-0.2-0.2
			c-0.1-0.3-0.1-0.7-0.2-1.2c0.4,0,1,0,1.6,0l0.9,0c0.1-0.3,0.3-0.5,0.3-0.7h-0.2l-1.8,0c-0.1,0-0.1,0-0.1,0s0-0.1,0-0.1l0-0.8v-0.6
			l0-0.8c0-0.1,0-0.1,0-0.1c0,0,0.1,0,0.1,0l1.8,0H81v-0.6h-0.6l-1.8,0c-0.1,0-0.1,0-0.2,0c0,0,0-0.1,0-0.1l0-1.2v-0.3
			c-0.1,0-0.3,0-0.4,0c-0.1,0-0.1,0-0.2,0c-0.1,0-0.1,0-0.1,0c0,0,0-0.1,0-0.1v-0.7c0-0.1,0-0.1,0-0.2c0,0,0.1,0,0.1,0l0.6,0v-0.3
			l0-1.2c0-0.1,0-0.1,0-0.1c0,0,0.1,0,0.1,0l1.8,0H81c0-0.3,0-0.6-0.1-1c0.4,0,0.9,0,1.3,0.1c0.2,0,0.2,0.1,0.2,0.2
			c0,0.1,0,0.1-0.1,0.2c-0.1,0.1-0.1,0.3-0.1,0.6H83l1.8,0c0.1,0,0.1,0,0.1,0c0,0,0,0.1,0,0.1l0,1.2v0.3c0.1,0,0.3,0,0.4,0
			c0.1,0,0.1,0,0.2,0c0.1,0,0.1,0,0.1,0c0,0,0,0.1,0,0.1v0.7c0,0.1,0,0.1,0,0.2c0,0-0.1,0-0.1,0l-0.6,0v0.3l0,1.2c0,0.1,0,0.1,0,0.1
			s-0.1,0-0.1,0l-1.8,0h-0.7v0.6h0.8l1.8,0c0.1,0,0.1,0,0.1,0c0.7-1.1,1.3-2.7,1.6-4.6c0.1-0.4,0.1-0.8,0.2-1.3
			c0.2,0,0.6,0.1,1.4,0.2c0.2,0,0.3,0.1,0.3,0.2c0,0.1,0,0.2-0.1,0.3c-0.1,0.1-0.2,0.4-0.2,0.7c-0.1,0.3-0.2,0.7-0.3,1.3h1.7l1.7,0
			c0.1,0,0.1,0,0.1,0c0,0,0,0.1,0,0.1V47c0,0.1,0,0.1,0,0.1s-0.1,0-0.1,0l-0.8,0c-0.1,2.4-0.6,4.3-1.4,5.7c0.7,1,1.6,1.8,2.6,2.4
			c-0.2,0.2-0.5,0.6-0.7,1c-0.1,0.2-0.2,0.3-0.3,0.3c-0.1,0-0.2-0.1-0.3-0.2c-0.9-0.7-1.6-1.5-2.2-2.3c-0.7,0.9-1.6,1.7-2.6,2.4
			c-0.2,0.1-0.3,0.2-0.3,0.2c-0.1,0-0.2-0.1-0.3-0.3c-0.2-0.3-0.3-0.5-0.5-0.7l-0.3,0.5c-0.1,0.1-0.1,0.2-0.2,0.2c0,0-0.1,0-0.1-0.1
			c-0.7-0.4-1.2-0.7-1.6-0.8c-0.2,0.2-0.4,0.3-0.6,0.4c-0.8,0.4-1.8,0.7-3.1,0.8c-0.1,0-0.2,0-0.2,0c-0.1,0-0.2-0.1-0.3-0.3
			c-0.1-0.4-0.2-0.7-0.4-0.9c1.4-0.1,2.4-0.3,3.2-0.6l-1-0.3l0,0.1c-0.1,0.1-0.2,0.2-0.2,0.2c0,0-0.1,0-0.2,0l-0.8-0.2
			c-0.1,0-0.2-0.1-0.2-0.2c0,0,0-0.1,0.1-0.2c0.2-0.3,0.4-0.5,0.5-0.7c0-0.1,0.1-0.1,0.2-0.3C79.4,53.3,79.4,53.2,79.4,53.2z
			 M79.6,50.4H81v-0.7h-1.4V50.4z M79.7,45.7H81V45h-1.3V45.7z M79.7,47.3H81v-0.6h-1.3V47.3z M80.9,53.1c-0.1,0.1-0.2,0.3-0.3,0.5
			c0.4,0.1,0.9,0.2,1.4,0.4c0.3-0.3,0.5-0.7,0.6-1L80.9,53.1z M81.6,52c1.8-0.1,3.1-0.1,3.9-0.2c0,0.1-0.1,0.4-0.2,0.8
			c0,0.2-0.1,0.3-0.1,0.3S85,53,84.8,53l-1.7,0.1c0.4,0.1,0.7,0.2,0.8,0.3c0.2,0.1,0.2,0.2,0.2,0.3c0,0.1-0.1,0.2-0.2,0.3
			c-0.1,0.1-0.2,0.2-0.4,0.4c0,0.1-0.1,0.2-0.2,0.3c0.5,0.2,0.9,0.4,1.3,0.6c0.1,0,0.1,0.1,0.1,0.1c0,0,0,0,0,0
			c1.1-0.7,2-1.5,2.7-2.5c-0.5-1-0.9-2-1.1-3c0,0.1-0.1,0.2-0.2,0.4c-0.1,0.2-0.2,0.3-0.3,0.3c-0.1,0-0.1-0.1-0.3-0.3
			c-0.1-0.2-0.3-0.4-0.4-0.6v0.8l0,0.8c0,0.1,0,0.1,0,0.1c0,0-0.1,0-0.1,0l-1.8,0h-1.2C81.8,51.5,81.7,51.7,81.6,52z M83.6,45h-1.3
			v0.6h1.3V45z M83.6,47.3v-0.6h-1.3v0.6H83.6z M83.8,50.4v-0.7h-1.5v0.7H83.8z M87.2,47.9c0.2,1.3,0.6,2.5,1,3.5
			c0.5-1.2,0.8-2.6,0.9-4.2h-1.6L87.2,47.9z"/>
	</g>
	<g class="st3">
		<path class="st5" d="M19.7,65.7v17.9h-3.8V70.1c-0.2,0.2-0.5,0.4-0.8,0.5c-0.3,0.2-0.6,0.3-0.9,0.5c-0.3,0.1-0.7,0.2-1,0.3
			c-0.4,0.1-0.7,0.2-1,0.2v-3.2c1-0.3,1.9-0.7,2.8-1.1c0.9-0.5,1.7-1,2.4-1.5H19.7z"/>
		<path class="st5" d="M31,83.9c-4.2,0-6.3-2.9-6.3-8.8c0-3,0.6-5.3,1.7-6.9c1.1-1.6,2.8-2.4,4.9-2.4c4.1,0,6.1,3,6.1,8.9
			c0,3-0.6,5.2-1.7,6.8C34.7,83.1,33.1,83.9,31,83.9z M31.2,68.8c-1.7,0-2.5,2.1-2.5,6.3c0,3.9,0.8,5.9,2.5,5.9c1.6,0,2.4-2,2.4-6.1
			C33.5,70.8,32.8,68.8,31.2,68.8z"/>
		<path class="st5" d="M45.4,83.9c-4.2,0-6.3-2.9-6.3-8.8c0-3,0.6-5.3,1.7-6.9c1.1-1.6,2.8-2.4,4.9-2.4c4.1,0,6.1,3,6.1,8.9
			c0,3-0.6,5.2-1.7,6.8C49.1,83.1,47.5,83.9,45.4,83.9z M45.6,68.8c-1.7,0-2.5,2.1-2.5,6.3c0,3.9,0.8,5.9,2.5,5.9
			c1.6,0,2.4-2,2.4-6.1C47.9,70.8,47.1,68.8,45.6,68.8z"/>
		<path class="st5" d="M58,80.5l-1.8,6.2h-3l1.2-6.2H58z"/>
		<path class="st5" d="M66.6,83.9c-4.2,0-6.3-2.9-6.3-8.8c0-3,0.6-5.3,1.7-6.9c1.1-1.6,2.8-2.4,4.9-2.4c4.1,0,6.1,3,6.1,8.9
			c0,3-0.6,5.2-1.7,6.8C70.2,83.1,68.6,83.9,66.6,83.9z M66.7,68.8c-1.7,0-2.5,2.1-2.5,6.3c0,3.9,0.8,5.9,2.5,5.9
			c1.6,0,2.4-2,2.4-6.1C69.1,70.8,68.3,68.8,66.7,68.8z"/>
		<path class="st5" d="M80.9,83.9c-4.2,0-6.3-2.9-6.3-8.8c0-3,0.6-5.3,1.7-6.9s2.8-2.4,4.9-2.4c4.1,0,6.1,3,6.1,8.9
			c0,3-0.6,5.2-1.7,6.8C84.6,83.1,83,83.9,80.9,83.9z M81.1,68.8c-1.7,0-2.5,2.1-2.5,6.3c0,3.9,0.8,5.9,2.5,5.9c1.6,0,2.4-2,2.4-6.1
			C83.4,70.8,82.7,68.8,81.1,68.8z"/>
		<path class="st5" d="M95.3,83.9c-4.2,0-6.3-2.9-6.3-8.8c0-3,0.6-5.3,1.7-6.9c1.1-1.6,2.8-2.4,4.9-2.4c4.1,0,6.1,3,6.1,8.9
			c0,3-0.6,5.2-1.7,6.8C99,83.1,97.4,83.9,95.3,83.9z M95.5,68.8c-1.7,0-2.5,2.1-2.5,6.3c0,3.9,0.8,5.9,2.5,5.9c1.6,0,2.4-2,2.4-6.1
			C97.8,70.8,97,68.8,95.5,68.8z"/>
	</g>
	<g class="st3">
		<path class="st4" d="M114.1,83.5c-0.3,0.3-0.5,0.6-0.7,0.9c-0.1,0.2-0.2,0.3-0.2,0.3c0,0-0.1,0-0.3-0.1c-2.2-1.4-3.6-3.3-4.2-5.7
			c-0.6,2.6-2.1,4.5-4.3,5.7c-0.1,0.1-0.2,0.1-0.3,0.1c-0.1,0-0.1-0.1-0.2-0.3c-0.2-0.3-0.4-0.6-0.7-0.8c1.6-0.8,2.9-1.9,3.7-3.5
			c0.7-1.3,1-2.7,1-4.3c0-0.7,0-1.2-0.1-1.6c0.5,0,1,0.1,1.5,0.1c0.2,0,0.2,0.1,0.2,0.2c0,0.1,0,0.2-0.1,0.3
			c-0.1,0.1-0.1,0.4-0.1,0.8c0,0.1,0,0.2,0,0.4c0.3,1.9,0.9,3.4,1.7,4.7C111.7,81.8,112.7,82.7,114.1,83.5z"/>
	</g>
	<g id="Group_227" transform="matrix(0.995, -0.105, 0.105, 0.995, 6.781, 19.3)">
		<path id="Path_198-2" class="st2" d="M52.4,109.7c-0.8,0-1.6,0-2.3,0c-0.6,0-1.1-0.5-1.1-1.2c0-0.6,0.6-1.1,1.2-1.1
			c0.7,0,1.5,0,2.2,0h0.2c0.6,0,1.1,0.5,1.1,1.1c0,0.6-0.5,1.1-1.1,1.1l0,0L52.4,109.7L52.4,109.7z M63.9,108.5
			c-0.6,0-1.1-0.5-1.1-1.1c0-0.5,0.4-1,0.9-1.1c0.7-0.1,1.5-0.3,2.2-0.5c0.6-0.1,1.2,0.2,1.4,0.8c0.1,0.6-0.2,1.2-0.8,1.4
			c-0.7,0.2-1.5,0.3-2.3,0.5C64,108.5,63.9,108.5,63.9,108.5z M38.9,108.1c-0.1,0-0.2,0-0.3,0c-0.8-0.2-1.5-0.4-2.2-0.6
			c-0.6-0.2-0.9-0.8-0.8-1.4c0.2-0.6,0.8-0.9,1.4-0.8l0,0c0.7,0.2,1.4,0.4,2.1,0.6c0.6,0.1,1,0.8,0.8,1.4
			C39.9,107.7,39.5,108.1,38.9,108.1z M76.8,104.3c-0.6,0-1.1-0.5-1.1-1.1c0-0.4,0.3-0.8,0.7-1c0.7-0.3,1.3-0.6,2-1
			c0.6-0.3,1.2,0,1.5,0.5c0.3,0.5,0,1.2-0.5,1.5c-0.7,0.3-1.4,0.7-2.1,1C77.1,104.3,76.9,104.3,76.8,104.3z M26.2,103.5
			c-0.2,0-0.3,0-0.5-0.1c-0.7-0.3-1.4-0.7-2-1.1c-0.5-0.3-0.7-1-0.4-1.5c0.3-0.5,1-0.7,1.5-0.4c0.6,0.4,1.3,0.7,2,1
			c0.6,0.3,0.8,1,0.5,1.5C27,103.2,26.6,103.5,26.2,103.5L26.2,103.5z M88.3,97.3c-0.6,0-1.1-0.5-1.1-1.1c0-0.3,0.2-0.7,0.4-0.9
			c0.6-0.5,1.2-0.9,1.7-1.4c0.5-0.4,1.2-0.3,1.6,0.1c0.4,0.5,0.3,1.2-0.1,1.6l0,0c-0.6,0.5-1.2,1-1.8,1.5
			C88.8,97.2,88.6,97.3,88.3,97.3z M14.9,96c-0.3,0-0.5-0.1-0.7-0.3c-0.6-0.5-1.2-1-1.7-1.5c-0.5-0.4-0.5-1.1,0-1.6
			c0.4-0.4,1.1-0.5,1.6-0.1c0.5,0.5,1.1,1,1.7,1.5c0.5,0.4,0.5,1.1,0.1,1.6C15.5,95.8,15.2,96,14.9,96z M98,87.7
			c-0.6,0-1.1-0.5-1.1-1.1c0-0.3,0.1-0.5,0.2-0.7c0.5-0.6,0.9-1.2,1.4-1.8c0.4-0.5,1.1-0.6,1.6-0.2c0.5,0.4,0.6,1.1,0.2,1.6
			c-0.5,0.6-0.9,1.2-1.4,1.8C98.6,87.6,98.3,87.7,98,87.7z M5.6,86.1c-0.4,0-0.7-0.2-0.9-0.5c-0.5-0.6-0.9-1.2-1.3-1.9
			c-0.4-0.5-0.2-1.2,0.3-1.6c0.5-0.4,1.2-0.2,1.6,0.3l0,0c0.4,0.6,0.8,1.2,1.3,1.8c0.4,0.5,0.3,1.2-0.2,1.6c0,0,0,0,0,0
			C6,86.1,5.8,86.1,5.6,86.1z M105.2,76.3c-0.2,0-0.3,0-0.5-0.1c-0.6-0.3-0.8-0.9-0.5-1.5c0.3-0.7,0.6-1.3,0.9-2
			c0.2-0.6,0.9-0.8,1.5-0.6s0.8,0.9,0.6,1.5c-0.3,0.7-0.6,1.4-1,2.1C106,76,105.6,76.3,105.2,76.3L105.2,76.3z M-1.2,74.4
			c-0.4,0-0.9-0.3-1-0.7c-0.3-0.7-0.6-1.4-0.9-2.1c-0.2-0.6,0.1-1.2,0.6-1.5s1.2,0.1,1.5,0.6l0,0c0.3,0.7,0.5,1.4,0.8,2.1
			c0.2,0.6,0,1.2-0.6,1.5C-0.9,74.4-1.1,74.4-1.2,74.4z M109.5,63.4c-0.1,0-0.2,0-0.2,0c-0.6-0.1-1-0.7-0.9-1.3
			c0.2-0.7,0.3-1.4,0.4-2.2c0.1-0.6,0.7-1,1.3-0.9c0.6,0.1,1,0.7,0.9,1.3c-0.1,0.8-0.3,1.5-0.4,2.3
			C110.5,63.1,110.1,63.4,109.5,63.4z M-5.1,61.4c-0.5,0-1-0.4-1.1-0.9c-0.1-0.8-0.3-1.5-0.4-2.3c-0.1-0.6,0.4-1.2,1-1.2
			c0.6-0.1,1.1,0.3,1.2,0.9c0.1,0.7,0.2,1.5,0.3,2.2c0.1,0.6-0.3,1.2-0.9,1.3C-5,61.4-5.1,61.4-5.1,61.4z M110.8,49.9
			c-0.6,0-1.1-0.5-1.1-1.1c0-0.7,0-1.5-0.1-2.2c0-0.6,0.4-1.2,1.1-1.2c0,0,0,0,0,0c0.6,0,1.1,0.4,1.2,1.1c0,0.8,0.1,1.5,0.1,2.3
			C111.9,49.4,111.5,49.9,110.8,49.9C110.8,49.9,110.8,49.9,110.8,49.9L110.8,49.9z M-5.9,47.9L-5.9,47.9c-0.7,0-1.2-0.6-1.1-1.2
			c0,0,0,0,0,0c0-0.8,0.1-1.5,0.2-2.3c0-0.6,0.6-1.1,1.2-1c0,0,0,0,0,0c0.6,0.1,1.1,0.6,1,1.2c-0.1,0.7-0.1,1.5-0.2,2.2
			C-4.8,47.4-5.3,47.9-5.9,47.9z M108.9,36.5c-0.5,0-1-0.3-1.1-0.8c-0.2-0.7-0.4-1.4-0.6-2.1c-0.2-0.6,0.2-1.2,0.8-1.4
			c0.6-0.2,1.2,0.2,1.4,0.7c0.2,0.7,0.4,1.5,0.6,2.2c0.2,0.6-0.2,1.2-0.8,1.4C109.1,36.5,109,36.5,108.9,36.5z M-3.6,34.6
			c-0.1,0-0.2,0-0.3,0c-0.6-0.2-0.9-0.8-0.8-1.4c0,0,0,0,0,0c0.2-0.7,0.5-1.5,0.7-2.2c0.2-0.6,0.8-0.9,1.4-0.7s0.9,0.8,0.7,1.4
			c-0.2,0.7-0.5,1.4-0.7,2.1C-2.7,34.2-3.1,34.6-3.6,34.6z M104,23.9c-0.4,0-0.8-0.2-1-0.6c-0.3-0.7-0.7-1.3-1.1-1.9
			c-0.3-0.5-0.2-1.2,0.4-1.6c0.5-0.3,1.2-0.2,1.6,0.4c0,0,0,0,0,0.1c0.4,0.7,0.8,1.3,1.1,2c0.3,0.5,0.1,1.2-0.5,1.5c0,0,0,0,0,0
			C104.4,23.8,104.2,23.9,104,23.9z M1.8,22.1c-0.6,0-1.1-0.5-1.1-1.1c0-0.2,0.1-0.4,0.2-0.6c0.4-0.7,0.8-1.3,1.2-2
			c0.3-0.5,1-0.7,1.5-0.4c0.5,0.3,0.7,1,0.4,1.5c0,0,0,0.1,0,0.1c-0.4,0.6-0.8,1.3-1.2,1.9C2.5,21.9,2.2,22.1,1.8,22.1z M96.3,12.7
			c-0.3,0-0.6-0.1-0.8-0.4c-0.5-0.6-1-1.1-1.5-1.6c-0.4-0.4-0.4-1.2,0-1.6s1.2-0.4,1.6,0c0,0,0,0,0,0.1c0.5,0.6,1,1.1,1.6,1.7
			c0.4,0.5,0.4,1.2-0.1,1.6C96.8,12.6,96.6,12.7,96.3,12.7L96.3,12.7z M9.9,11.2c-0.6,0-1.1-0.5-1.1-1.1c0-0.3,0.1-0.6,0.3-0.8
			c0.5-0.6,1.1-1.1,1.6-1.7c0.4-0.4,1.2-0.4,1.6,0c0.4,0.4,0.4,1.2,0,1.6l0,0c-0.5,0.5-1,1.1-1.6,1.6C10.5,11.1,10.2,11.2,9.9,11.2z
			 M86.2,3.6c-0.2,0-0.5-0.1-0.7-0.2C85,3,84.4,2.6,83.8,2.2c-0.5-0.3-0.7-1-0.4-1.6c0.3-0.5,1-0.7,1.6-0.4c0,0,0,0,0,0
			c0.6,0.4,1.3,0.9,1.9,1.3c0.5,0.4,0.6,1.1,0.3,1.6C86.9,3.5,86.6,3.6,86.2,3.6z M20.2,2.5c-0.6,0-1.1-0.5-1.1-1.1
			c0-0.4,0.2-0.7,0.5-0.9c0.6-0.4,1.3-0.8,1.9-1.2c0.5-0.3,1.2-0.1,1.5,0.4c0.3,0.5,0.1,1.2-0.4,1.5c-0.6,0.4-1.3,0.8-1.9,1.2
			C20.7,2.4,20.5,2.5,20.2,2.5z M74.4-2.9c-0.1,0-0.3,0-0.4-0.1c-0.7-0.3-1.4-0.5-2.1-0.8C71.3-4,71-4.6,71.2-5.2
			c0.2-0.6,0.9-0.9,1.4-0.7l0,0c0.7,0.3,1.4,0.5,2.2,0.8c0.6,0.2,0.9,0.9,0.6,1.5C75.2-3.2,74.8-2.9,74.4-2.9L74.4-2.9z M32.3-3.6
			c-0.6,0-1.1-0.5-1.1-1.1c0-0.5,0.3-0.9,0.7-1.1c0.7-0.3,1.4-0.5,2.2-0.8c0.6-0.2,1.2,0.1,1.4,0.7c0.2,0.6-0.1,1.2-0.7,1.4l0,0
			c-0.7,0.2-1.4,0.5-2.1,0.7C32.6-3.7,32.5-3.6,32.3-3.6z M61.3-6.5c-0.1,0-0.1,0-0.2,0c-0.7-0.1-1.5-0.2-2.2-0.3
			c-0.6-0.1-1.1-0.6-1-1.2c0.1-0.6,0.6-1.1,1.2-1c0,0,0,0,0,0C60-9,60.7-8.9,61.5-8.7c0.6,0.1,1,0.7,0.9,1.3
			C62.3-6.9,61.9-6.5,61.3-6.5L61.3-6.5z M45.5-6.8c-0.6,0-1.1-0.5-1.1-1.1c0-0.6,0.4-1,1-1.1c0.8-0.1,1.5-0.2,2.3-0.2
			c0.6-0.1,1.2,0.4,1.2,1c0,0,0,0,0,0c0,0.6-0.4,1.2-1,1.2c-0.7,0.1-1.5,0.1-2.2,0.2C45.6-6.8,45.5-6.8,45.5-6.8L45.5-6.8z"/>
	</g>
</g>
</svg>
