<?xml version="1.0" encoding="utf-8"?>
<!-- Generator: Adobe Illustrator 23.0.3, SVG Export Plug-In . SVG Version: 6.00 Build 0)  -->
<svg version="1.1" id="Symbol" xmlns="http://www.w3.org/2000/svg" xmlns:xlink="http://www.w3.org/1999/xlink" x="0px" y="0px"
	 viewBox="0 0 90 90" style="enable-background:new 0 0 90 90;" xml:space="preserve">
<style type="text/css">
	.st0{fill:#F24416;}
</style>
<g>
	<path id="Path_189" class="st0" d="M81.4,42.4H60.9V26.9c0-8.8-14.1-12.8-27-12.8c-15.1-0.2-27,7-27,15.9v30
		c0,8.1,9.9,14.7,23.2,15.7c0.2,0.1,0.4,0.2,0.7,0.2h50.7c0.9,0,1.7-0.7,1.7-1.7v-30C83.1,43.3,82.4,42.5,81.4,42.4z M33.9,42.4
		c-4.3,0.1-8.5-0.6-12.6-2v-5.3c3.3,2,9.1,3,17.2,3c7.3,0,14.7-1.8,18.9-5.1v9.6H33.9L33.9,42.4z M36.9,34.6
		c-10.8-0.2-15.6-2.5-15.6-4.6c0-1.8,4.8-4.3,15.6-4.6V34.6z M33.9,17.4c13.3,0,23.5,4.1,23.5,9.3c0,3.5-7.3,7.3-17.2,7.8V23.6
		c0-0.9-0.7-1.7-1.7-1.7c-12.9,0-20.7,3-20.7,8.1v9.1c-4.5-2.3-7.5-5.6-7.5-9.1C10.4,23.2,21.1,17.4,33.9,17.4z M16.3,68.3
		c-3.8-2.2-6.1-5.1-6.1-8.3V37.8c4.6,4.8,13.4,8.1,23.5,8.1h45.7v26.7h-47l-3.5-0.3c-3.2-0.3-6.3-1.1-9.3-2.3L16.3,68.3z"/>
	<path id="Path_190" class="st0" d="M19.8,69.9V58.3c0-0.9-0.7-1.7-1.7-1.7s-1.7,0.7-1.7,1.7v9.9L19.8,69.9z M32.4,72.6V55.4
		c0-0.9-0.7-1.7-1.7-1.7c-0.9,0.1-1.6,0.8-1.7,1.7v17.1L32.4,72.6z M45.2,72.6v-9.3c0-0.9-0.7-1.7-1.7-1.7s-1.7,0.7-1.7,1.7v9.3
		H45.2z M57.8,72.6V55.4c0-0.9-0.7-1.7-1.7-1.7s-1.7,0.7-1.7,1.7v17.2L57.8,72.6z M70.5,72.6v-9.3c0-0.9-0.7-1.7-1.7-1.7
		c-0.9,0-1.7,0.7-1.7,1.7v9.3H70.5z"/>
</g>
</svg>
