<?xml version="1.0" encoding="utf-8"?>
<!-- Generator: Adobe Illustrator 23.0.3, SVG Export Plug-In . SVG Version: 6.00 Build 0)  -->
<svg version="1.1" id="Symbol" xmlns="http://www.w3.org/2000/svg" xmlns:xlink="http://www.w3.org/1999/xlink" x="0px" y="0px"
	 viewBox="0 0 90 90" style="enable-background:new 0 0 90 90;" xml:space="preserve">
<style type="text/css">
	.st0{fill:#F24416;}
</style>
<g id="Group_217" transform="translate(-2.4 -10.4)">
	<path id="Path_192" class="st0" d="M83.9,62.7c-0.8,0-1.4,0.6-1.4,1.4c0,0,0,0,0,0v16c0,0,0,0.1-0.1,0.1c0,0,0,0,0,0H59
		c-1.8,0-3.6,0.7-4.9,2.1c-0.7,0.7-1.7,1.1-2.8,1.2h-8.3c-1,0-2-0.4-2.8-1.2l0,0c-1.3-1.3-3.1-2.1-4.9-2.1H12.2c0,0-0.1,0-0.1-0.1
		c0,0,0,0,0,0V33.9c0-0.8-0.6-1.4-1.4-1.4c-0.8,0-1.4,0.6-1.4,1.4c0,0,0,0,0,0v46.2c0,1.7,1.3,3,3,3c0,0,0,0,0.1,0h23.3
		c1,0,2,0.4,2.8,1.2l0,0c1.3,1.3,3.1,2.1,4.9,2.1h8.3c1.8,0,3.6-0.7,4.9-2.1c0.7-0.7,1.7-1.1,2.8-1.2h23.3c1.7,0,3-1.3,3-3
		c0,0,0,0,0-0.1v-16C85.4,63.3,84.7,62.7,83.9,62.7z"/>
	<path id="Path_193" class="st0" d="M17,76.8h22.3c2,0,4,0.9,5.2,2.6c0.3,0.4,0.7,0.6,1.2,0.6h3.2c0.6,0,1.1-0.3,1.3-0.8
		c0.9-1.7,2.3-2.4,5.1-2.4h22.3c0.8,0,1.4-0.6,1.4-1.4c0,0,0,0,0,0V69c0-0.8-0.6-1.4-1.4-1.4c-0.8,0-1.4,0.6-1.4,1.4c0,0,0,0,0,0
		v4.9h-21c-2.4-0.2-4.8,0.6-6.5,2.3V38.8l0,0c0-3.9,2.1-8.1,8.1-8.1h19.3V34c0,0.8,0.6,1.4,1.4,1.4c0.8,0,1.4-0.6,1.4-1.4
		c0,0,0,0,0,0v-4.8c0-0.8-0.6-1.4-1.4-1.4c0,0,0,0,0,0H56.8c-3.9-0.2-7.6,1.8-9.5,5.2c-2-3.4-5.6-5.4-9.5-5.2h-3.3v-1.8
		c0-0.8-0.6-1.4-1.4-1.4c0,0,0,0,0,0h-9.6c-0.8,0-1.4,0.6-1.4,1.4c0,0,0,0,0,0v1.7H17c-0.8,0-1.4,0.6-1.4,1.4c0,0,0,0,0,0v46.2
		C15.6,76,16.2,76.7,17,76.8C17,76.8,17,76.8,17,76.8z M24.8,27.4h6.6v14.9l-2.5-1.7c-0.5-0.4-1.1-0.4-1.6,0l-2.5,1.7L24.8,27.4
		L24.8,27.4z M18.5,30.6h3.5V45c0,0.5,0.3,1.1,0.8,1.2c0.2,0.1,0.5,0.2,0.7,0.2c0.3,0,0.6-0.1,0.8-0.3l4-2.7l4,2.7
		c0.5,0.3,1,0.3,1.5,0.1c0.5-0.2,0.8-0.7,0.8-1.2V30.6h3.3c6,0,8.1,4.2,8.1,8.1v37.8c-1.7-1.7-4.1-2.6-6.5-2.6h-21V30.6z"/>
	<path id="Path_194" class="st0" d="M53.8,51.3c0,8.7,7.1,15.8,15.8,15.8s15.8-7.1,15.8-15.8s-7.1-15.8-15.8-15.8
		C60.9,35.5,53.8,42.6,53.8,51.3C53.8,51.3,53.8,51.3,53.8,51.3z M82.5,51.3c0.1,7.1-5.6,12.9-12.8,13c-7.1,0.1-12.9-5.6-13-12.8
		c-0.1-7.1,5.6-12.9,12.8-13c0,0,0.1,0,0.1,0c7.1-0.1,12.9,5.6,12.9,12.6C82.5,51.3,82.5,51.3,82.5,51.3z"/>
	<path id="Path_195" class="st0" d="M65.4,45.3c-0.4,0.3-0.7,0.7-0.7,1.2v9.6c0,0.5,0.3,1,0.7,1.2c0.2,0.1,0.5,0.2,0.7,0.2
		c0.2,0,0.5-0.1,0.7-0.2l8.3-4.8c0.7-0.4,0.9-1.3,0.5-2c-0.1-0.2-0.3-0.4-0.5-0.5l-8.3-4.8C66.4,45,65.8,45,65.4,45.3z"/>
</g>
</svg>
