<?xml version="1.0" encoding="utf-8"?>
<!-- Generator: Adobe Illustrator 23.0.3, SVG Export Plug-In . SVG Version: 6.00 Build 0)  -->
<svg version="1.1" id="Symbol" xmlns="http://www.w3.org/2000/svg" xmlns:xlink="http://www.w3.org/1999/xlink" x="0px" y="0px"
	 viewBox="0 0 90 90" style="enable-background:new 0 0 90 90;" xml:space="preserve">
<style type="text/css">
	.st0{fill:#F24416;}
</style>
<g>
	<path class="st0" d="M53.3,38.9l-12.9-7.4c-0.7-0.4-1.6-0.4-2.3,0s-1.1,1.2-1.1,2v14.9c0,0.8,0.4,1.6,1.1,2
		c0.3,0.2,0.7,0.3,1.1,0.3c0.4,0,0.8-0.1,1.1-0.3L53.2,43c0.7-0.4,1.1-1.1,1.1-2C54.5,40.1,54,39.3,53.3,38.9z"/>
	<path class="st0" d="M87.8,60.8H81c0.7-0.3,1.3-1,1.3-1.8V19.8c0-3.1-2.5-5.7-5.7-5.7H13.2c-3.1,0-5.7,2.5-5.7,5.7V59
		c0,0.8,0.5,1.5,1.3,1.8H2c-1.1,0-1.9,0.9-1.9,1.9v1.9c0,6.2,5,11.3,11.3,11.3h67.1c6.2,0,11.3-5,11.3-11.3v-1.9
		C89.8,61.7,88.9,60.8,87.8,60.8z M11.4,59V19.8c0-1,0.8-1.8,1.8-1.8h63.4c1,0,1.8,0.8,1.8,1.8V59c0,0.8,0.5,1.5,1.3,1.8H10.1
		C10.9,60.5,11.4,59.8,11.4,59z M78.5,72H11.3c-4.1,0-7.4-3.3-7.4-7.3h82C85.8,68.7,82.5,72,78.5,72z"/>
	<path class="st0" d="M39.4,70.2h11.2c1.1,0,1.9-0.9,1.9-1.9c0-1.1-0.9-1.9-1.9-1.9H39.4c-1.1,0-1.9,0.9-1.9,1.9
		C37.5,69.4,38.3,70.2,39.4,70.2z"/>
</g>
</svg>
