<?xml version="1.0" encoding="utf-8"?>
<!-- Generator: Adobe Illustrator 23.0.3, SVG Export Plug-In . SVG Version: 6.00 Build 0)  -->
<svg version="1.1" id="Symbol" xmlns="http://www.w3.org/2000/svg" xmlns:xlink="http://www.w3.org/1999/xlink" x="0px" y="0px"
	 viewBox="0 0 90 90" style="enable-background:new 0 0 90 90;" xml:space="preserve">
<style type="text/css">
	.st0{fill:#F24416;}
</style>
<g>
	<path id="book" class="st0" d="M66.7,65c1,0,1.8-0.8,1.8-1.8l0,0V15.9c0-1-0.8-1.8-1.8-1.8c0,0,0,0,0,0H26.9c-3,0-5.4,2.4-5.4,5.4
		v47.3c0,3,2.4,5.4,5.4,5.4h5.4v1.8c0,1,0.8,1.8,1.8,1.8c0.4,0,0.7-0.1,1-0.3l4.4-3l4.4,3c0.8,0.6,2,0.3,2.5-0.5
		c0.2-0.3,0.3-0.6,0.3-1v-1.8h19.9c1,0,1.8-0.8,1.8-1.8c0-1-0.8-1.8-1.8-1.8h-1.8V65H66.7z M64.9,17.7v43.7H32.3V17.7H64.9z
		 M26.9,17.7h1.8v43.7h-1.8c-0.6,0-1.2,0.1-1.8,0.3V19.5C25.1,18.5,25.9,17.7,26.9,17.7z M26.9,68.7c-1,0-1.8-0.8-1.8-1.8
		c0-1,0.8-1.8,1.8-1.8h5.4v3.6H26.9z M43.2,70.7L40.6,69c-0.6-0.4-1.4-0.4-2,0l-2.6,1.7V65h7.2L43.2,70.7z M61.3,68.7H46.8V65h14.5
		L61.3,68.7z"/>
	<path id="Path_210" class="st0" d="M60.7,38H36.5c-0.8,0-1.5,0.7-1.5,1.5c0,0.8,0.7,1.5,1.5,1.5h24.2c0.8,0,1.5-0.7,1.5-1.5
		C62.2,38.7,61.5,38,60.7,38L60.7,38z"/>
	<path id="Path_212" class="st0" d="M60.7,25.2H36.5c-0.8,0-1.5,0.7-1.5,1.5v7.6c0,0.8,0.7,1.5,1.5,1.5h24.2c0.8,0,1.5-0.7,1.5-1.5
		v-7.6C62.2,25.9,61.5,25.2,60.7,25.2z M59.2,32.8H38v-4.7h21.3V32.8z"/>
</g>
</svg>
