<?xml version="1.0" encoding="utf-8"?>
<!-- Generator: Adobe Illustrator 23.0.3, SVG Export Plug-In . SVG Version: 6.00 Build 0)  -->
<svg version="1.1" id="圖層_1" xmlns="http://www.w3.org/2000/svg" xmlns:xlink="http://www.w3.org/1999/xlink" x="0px" y="0px"
	 viewBox="0 0 58 58" style="enable-background:new 0 0 58 58;" xml:space="preserve">
<style type="text/css">
	.st0{fill:#FF8F1C;}
	.st1{fill:#FFFFFF;}
</style>
<g id="Group_1669" transform="translate(-865.35 -976.299)">
	<path id="Path_5209" class="st0" d="M920.7,995.6c-2.1-3.3-4.6-6.4-7.4-9.2c-2.7-2.8-5.8-5.3-9.2-7.4c-2.9-1.8-6.3-2.7-9.7-2.7
		s-6.8,0.9-9.7,2.7c-3.3,2.1-6.4,4.6-9.2,7.4c-2.8,2.7-5.3,5.8-7.4,9.2c-1.8,2.9-2.7,6.3-2.7,9.7s0.9,6.8,2.7,9.7
		c2.1,3.3,4.6,6.4,7.4,9.2c2.7,2.8,5.8,5.3,9.2,7.4c2.9,1.8,6.3,2.7,9.7,2.7s6.8-0.9,9.7-2.7c3.3-2.1,6.4-4.6,9.2-7.4
		c2.8-2.7,5.3-5.8,7.4-9.2c1.8-2.9,2.7-6.3,2.7-9.7C923.3,1001.9,922.4,998.5,920.7,995.6z"/>
</g>
<path id="Path_5306" class="st1" d="M29,17.9l3.6,7.3l8.1,1.2l-5.8,5.7l1.4,8L29,36.3l-7.2,3.8l1.4-8l-5.8-5.7l8.1-1.2L29,17.9z"/>
</svg>
