<?xml version="1.0" encoding="utf-8"?>
<!-- Generator: Adobe Illustrator 23.0.3, SVG Export Plug-In . SVG Version: 6.00 Build 0)  -->
<svg version="1.1" id="圖層_1" xmlns="http://www.w3.org/2000/svg" xmlns:xlink="http://www.w3.org/1999/xlink" x="0px" y="0px"
	 viewBox="0 0 273.5 290.4" style="enable-background:new 0 0 273.5 290.4;" xml:space="preserve">
<style type="text/css">
	.st0{display:none;}
	.st1{display:inline;fill:#FFC1B5;}
	.st2{display:inline;fill:#FF445F;}
	.st3{display:inline;}
	.st4{clip-path:url(#SVGID_2_);}
	.st5{fill:#282D35;}
	.st6{fill:#291756;}
	.st7{fill:#FF867A;}
	.st8{fill:#AF3F47;}
	.st9{fill:#5C4DCE;}
	.st10{fill:#F95873;}
	.st11{fill:#302367;}
	.st12{fill:#FFFFFF;}
	.st13{display:inline;fill:#FFFF6E;}
	.st14{fill:#FFC1B5;}
	.st15{clip-path:url(#SVGID_4_);}
	.st16{fill:#8C2D63;}
	.st17{fill:#E16B6B;}
	.st18{fill:#311E69;}
	.st19{fill:#1E1240;}
	.st20{fill:#D95F76;}
	.st21{fill:#FF8B85;}
	.st22{fill:#F7F0F0;}
	.st23{fill-rule:evenodd;clip-rule:evenodd;fill:#FF445F;}
	.st24{fill:#FF445F;}
	.st25{clip-path:url(#SVGID_6_);}
	.st26{fill:#AD263D;}
	.st27{fill:#FF6161;}
	.st28{fill:#5442B8;}
	.st29{fill:#FFE1E1;}
	.st30{fill:#FFFF6E;}
</style>
<g id="Group_2759" transform="translate(0)" class="st0">
	<path id="Path_18141" class="st1" d="M269.7,190.6c-6.9,44-22.5,76.4-111.8,96.1S-20.4,182.5,5,120.9S216.9-6,248,66.9
		S274.1,162.2,269.7,190.6z"/>
	<path id="Path_18142" class="st2" d="M47.5,89.6l5.5-7.5L23.7,66.2l39,2.9l-5.5,7.5l29.4,15.9L47.5,89.6z"/>
	<path id="Path_18143" class="st2" d="M109.7,34.1l9.6,0.2l-4-34.3L136,34.7l-9.6-0.2l4,34.3L109.7,34.1z"/>
	<path id="Path_18144" class="st2" d="M226.4,46.5l-9.7-2.3l13-33.3l-29.8,29.3l9.7,2.3l-13,33.3L226.4,46.5z"/>
	<g class="st3">
		<defs>
			<path id="SVGID_1_" d="M269.6,192.5c-7.7,44.1-23.9,76.4-114,94.6S-21.7,179.4,4.9,117.9s215-123.8,245.1-50
				S274.5,164.1,269.6,192.5z"/>
		</defs>
		<clipPath id="SVGID_2_">
			<use xlink:href="#SVGID_1_"  style="overflow:visible;"/>
		</clipPath>
		<g id="Mask_Group_29" transform="translate(0.386 5.753)" class="st4">
			<g id="Group_2758" transform="translate(115.122 71.18)">
				<g id="Group_2757" transform="translate(0)">
					<path id="Path_18145" class="st5" d="M27.2,0.9c-5.3,0.7-9.6,8.5-11,14s-4.7,27.3-4.7,27.3S30,58.3,39.1,49.4
						c9.5-9.2,6.5-19.2,3.9-31.5C40.7,7.2,36-0.3,27.2,0.9z"/>
					<path id="Path_18146" class="st6" d="M5.8,288.9c-1.3,2.3-15,2.3-17.3,1.5c-1.4-0.4-0.1-1.8,1.1-2.9c-4.2,2.2-9.4,5-9.6,6.4
						c-0.3,2.4,24.6,2.3,28.7,0c2.2-1.2,0.6-3.8-1.3-6.8C6.7,287.5,6.2,288.2,5.8,288.9z"/>
					<path id="Path_18147" class="st6" d="M36.8,288.9c-1.3,2.3-14.9,2.3-17.3,1.5c-1.4-0.4-0.1-1.8,1.1-2.9c-4.2,2.2-9.4,5-9.6,6.4
						c-0.3,2.4,24.6,2.3,28.7,0c2.2-1.2,0.6-3.8-1.3-6.8C37.7,287.5,37.2,288.2,36.8,288.9z"/>
					<path id="Path_18148" class="st7" d="M-19.4,46.6c0,0,5.5,3.8,20.6,1.8c15.1-2,26.5-16,21.7-19.2S-19.7,35.9-19.4,46.6z"/>
					<path id="Path_18149" class="st7" d="M44.4,89.2C38.9,82.5,33.6,78,32.1,72.3c-12.1,3.4-25,3.3-37-0.4
						c-5.1,11.5-11.4,26.7-14.9,40.4C-32.6,162.7-4.4,279-4.4,279l0,0c0,0,1,4.8,0.6,5.6c-0.2,0.3-3.7,1.5-6.5,2.9
						c-1.3,1.1-2.5,2.5-1.1,2.9c2.3,0.8,16,0.8,17.3-1.5c0.4-0.7,0.9-1.3,1.6-1.8c-1.5-2.2,6.2-66.7,6-78
						c-0.3-10.7-3.6-24.9-3.6-24.9s4.3-54.4,8.5-58.7l0,0c-0.1,0.7-8,55.3,7.2,145.1l0,0c0,0,2.2,13.1,1.8,13.9
						c-0.1,0.3-3.7,1.5-6.5,2.9c-1.3,1.1-2.5,2.5-1.1,2.9c2.3,0.8,16,0.8,17.3-1.5c0.4-0.7,0.9-1.3,1.6-1.8
						c-1.8-2.7,2.4-31.7,3.2-37.3l0,0c2.5-14.9,5-30.2,5.2-39c0.2-9.8-8-24.2-8.8-29.5C37.6,178.6,49.2,95,44.4,89.2z"/>
					<path id="Path_18150" class="st7" d="M7.2,285.4c-0.1-10.7,6.4-65.9,6.2-76.3c-0.2-7.8-2-17.4-2.9-22.1
						c-1.9,8.9-7.5,34.8-7,53.7C3.9,263.5-3.1,281.7,7.2,285.4L7.2,285.4z"/>
					<path id="Path_18151" class="st8" d="M-15.3,224.7c0.3,1.9,0.6,3.7,1,5.6c5.3,1.2,13.9,2.5,17.9-1.3
						C7.4,225.5-5.5,224.8-15.3,224.7z"/>
					<path id="Path_18152" class="st7" d="M30.8,238.4c3.1,19.6-4.8,39.5,7.2,46.9c-0.6-6.9,2.9-30.6,3.6-35.6l0,0
						c2.5-14.9,5-30.2,5.2-39c0.1-6.1-0.3-12.2-1-18.3C39.5,203.4,28.2,222.3,30.8,238.4z"/>
					<path id="Path_18153" class="st8" d="M37.8,229.3c2-5.7-13.3-5.6-18.5-5.4c0.3,2.7,0.5,5.4,0.8,8.2
						C25.2,233.1,36,234.6,37.8,229.3z"/>
					<g id="Group_2747" transform="translate(0 71.935)">
						<path id="Path_18154" class="st9" d="M46.9,155c1-7.1-0.1-11.7-0.1-16c0-8.3-0.6-16.6-1.9-24.8c-0.4-2.7-0.1-5.5,0.8-8.1
							c4.1-11.3,7.3-29,8.1-44c1.9-35.3-4.7-38.9-9.5-44.7C38.9,10.6,33.6,6,32.1,0.4C20,3.8,7.1,3.7-4.9,0
							c-5.1,11.5-11.4,26.7-14.9,40.4c-7.6,29.7-2,70,4.8,113.6c4.8,3,17.8,4.1,29,2.1c1-8.4-0.5-14.1-0.6-19
							c-0.3-10.7-3.6-24.9-3.6-24.9s4.3-54.4,8.5-58.7l0,0c-0.1,0.6-7.8,33.2-0.7,102.8C24.7,159,36.9,158.8,46.9,155z"/>
					</g>
					<g id="Group_2748" transform="translate(7.327 27.451)">
						<path id="Path_18155" class="st10" d="M46.6,69c-4-4.5-18.4-20-19.3-24.5c-2.6-13,17.3-35,7.9-39.7C19-3.4,9.4-0.5-0.8,8.8
							c-6.4,5.8-0.1,10.8-3.7,19c-1.6,3.6-13.7,27-19,39.5c2.7,3.7,13.1,10.9,31.6,12.1C24.1,80.4,34.1,78.2,46.6,69z"/>
					</g>
					<path id="Path_18156" class="st11" d="M38.6,82.4c-4.2,3.3-8.5,9.2-7,18.9c2.6,18,15.2,19.3,12.8,34.4s-2.6,29.9-11.7,42.9
						c-5.5,7.8-13.8,9.6-10.6,20.6c2.3,7.8,0.3,21.2,4,30.7c7.1,0.5,14.3-0.6,21-3c1-7.1-0.1-11.7-0.1-16c0-8.3-0.6-16.6-1.8-24.8
						c-0.4-2.7-0.1-5.5,0.8-8.1c4.1-11.3,7.3-29,8.1-44c1.9-35.3-4.7-38.9-9.5-44.7C42.4,86.7,40.4,84.5,38.6,82.4z"/>
					<path id="Path_18157" class="st7" d="M30.6,17.9l0.1,10.7c0,1.8-4.3,6.3-7.1,4.1c-0.8-0.7,0.3-3.1,1-4.9l2.1-9.2L30.6,17.9z"/>
					<path id="Path_18158" class="st6" d="M25.5,24.1c2.3-0.7,4.6-4.2,4.6-4.2h-3.7L25.5,24.1z"/>
					<path id="Path_18159" class="st7" d="M30.6,11.1l0.6,4.1c0.6,3.3-1.6,6.4-4.8,7.1c-3,0.5-5.9-1.2-6.3-5c-0.4-3.4,2-6.3,2.9-7.8
						C25,6,29.6,6.4,30.6,11.1z"/>
					<path id="Path_18160" class="st8" d="M34.6,71.9c-2.6-13,17.3-35,7.9-39.7c-3.1-1.6-6.4-2.9-9.8-3.8
						c-0.1,5.9-0.4,14.7-1.4,18.8c-1.6,6.5-12.6-0.8-18.7,3.6s10,13.9,12.8,26.1c1.8,8-1.4,20.6-0.3,30.1c10.8-0.4,19-3.3,28.8-10.5
						C49.9,92,35.5,76.4,34.6,71.9z"/>
					<path id="Path_18161" class="st7" d="M21.9,13.8c0-0.4-0.1-0.7,0-1.1c0-0.7,0-1.7-1.1-1.3c-1.5,0.6-1.6,4.3,0.1,4.7
						C22.1,16.4,22,14.7,21.9,13.8z"/>
					<g id="Group_2749" transform="translate(43.553 17.09)">
						<path id="Path_18162" class="st7" d="M-17.5,3.8c-1.5,0-3-0.4-4.3-1.2C-22.5,1.9-23.1,1-23.4,0c0,0.1,0,0.1,0,0.2
							c0.4,3.8,3.3,5.5,6.3,5c1.9-0.4,3.6-1.7,4.3-3.5C-14,2.9-15.7,3.7-17.5,3.8z"/>
					</g>
					<path id="Path_18163" class="st7" d="M43,83.6c0,0-1.3-2.6-3.2-2.8s-3.5,1.4-2,2.3S43.4,85,43,83.6z"/>
					<path id="Path_18164" class="st7" d="M30.5,15c0.1-0.3,0.2-0.7,0.3-1.1c0.1-0.7,0.4-1.7,1.4-1c1.4,1,0.6,4.6-1.2,4.6
						C29.7,17.6,30.2,15.9,30.5,15z"/>
					<path id="Path_18165" class="st12" d="M25.8,17.7c0,0-3.3,0.4-3.3-0.8c0,0,0.1-0.3,1.1-0.6c1-0.3,1.9,0.3,2.2,1.3
						C25.8,17.6,25.8,17.6,25.8,17.7z"/>
					<path id="Path_18166" class="st11" d="M2.3,33.3c0,0-2.9,11.2-8.4,13.4s-10.7-0.9-9-2S2.3,33.3,2.3,33.3z"/>
					<path id="Path_18167" class="st7" d="M23.2,2.4c-0.3-0.7-2.8-1.3-5.7,0.5c-5.7,3.6-40.9,25.7-40.3,36.5
						c1.3,21,26.7-6.6,31.1-12.6S24.8,6,23.2,2.4z"/>
					<g id="Group_2756" transform="translate(11.923 125.528)">
						<path id="Path_18171" class="st11" d="M-6.8,11.8c-5.7,11.9-9.5,12.8-5.2,24.9s-11,15.5-11.4,27.9c-0.3,8.5,3.5,25.7,8.6,38.7
							c5.6,0.4,11.3,0.1,16.9-0.8c1-8.4-0.5-14.1-0.6-19C1.2,72.9-2.1,58.7-2.1,58.7S2.2,4.3,6.3,0l0,0C6.3,0-1.1-0.1-6.8,11.8z"/>
					</g>
					<path id="Path_18172" class="st7" d="M16.6,9.7C12.3,14.9,9.5,15.7,6,19.7s-18.1,24.8-23.2,23.9c-2-0.4-3.8-1.2-5.4-2.4
						C-20,58.8,4,32.7,8.4,26.8c3.9-5.2,13.5-17.2,14.8-22.5C20.6,5.6,18.4,7.4,16.6,9.7z"/>
					<path id="Path_18173" class="st7" d="M20.8,1.7c1.6-1.4,3.7-1.9,5.8-1.6c3.3,0.7,4.9,0.8,1.3,2s-4.1,4.1-6.2,3.1
						c-1.1-0.4-1.8-1.6-1.4-2.7C20.4,2.2,20.6,2,20.8,1.7z"/>
					<path id="Path_18174" class="st7" d="M39.2,32.5c2.2-2.2,10.2,0.4,22.3,11.6c5.9,5.5,14.8,12.9,20.8,23.1
						C104,104.9,41.1,97.1,41,86.5C40.9,78,68.9,74.9,68.9,74.9S29.9,41.8,39.2,32.5z"/>
					<path id="Path_18175" class="st7" d="M43.5,83.9c0,0-5.9-2.5-7.1-1.4s0.4,3.4,0.8,5.5s2.8,2.1,7,1.6S45.5,84.6,43.5,83.9z"/>
					<path id="Path_18176" class="st7" d="M82.3,67.3C76.4,57,67.4,49.6,61.5,44.1C53,36.2,46.5,32.6,42.6,31.9
						c4.4,4.9,17.5,19.5,23.5,26.5c7.3,8.5,12.6,12.2,14.5,19.2s-5.5,9.7-10,11.1S47,88.6,45.6,89.1c-0.9,0.2-1.9,0.4-2.8,0.5
						C53,98.2,101.8,101.1,82.3,67.3z"/>
				</g>
			</g>
		</g>
	</g>
	<path id="Path_18178" class="st13" d="M229.7,119.1c0,3.4-2.8,6.2-6.2,6.2c-3.4,0-6.2-2.8-6.2-6.2c0-3.4,2.8-6.2,6.2-6.2l0,0
		C226.9,113,229.7,115.7,229.7,119.1z"/>
	<path id="Path_18179" class="st13" d="M66.3,134.6c0,2.1-1.7,3.8-3.8,3.8s-3.8-1.7-3.8-3.8c0-2.1,1.7-3.8,3.8-3.8l0,0
		C64.6,130.8,66.3,132.5,66.3,134.6z"/>
	<path id="Path_18180" class="st13" d="M193.4,226.7c0,2.8-2.3,5.2-5.2,5.2s-5.2-2.3-5.2-5.2c0-2.8,2.3-5.2,5.2-5.2
		S193.4,223.8,193.4,226.7L193.4,226.7z"/>
	<path id="Path_18181" class="st13" d="M67.3,184.5l5.9,2l5-3.7l-0.1,6.2l5.1,3.6l-6,1.9l-1.9,6l-3.6-5.1l-6.2,0.1l3.7-5L67.3,184.5
		z"/>
	<path id="Path_18182" class="st13" d="M180.3,81.8l2,2.8l3.4,0l-2,2.7l1.1,3.2l-3.2-1.1l-2.7,2l0-3.4l-2.8-2l3.3-1L180.3,81.8z"/>
</g>
<g id="Group_2772" transform="translate(0 -16.169)">
	<g id="Group_2770" transform="translate(0 46.314)">
		<path id="Path_18183" class="st14" d="M43.6,43.2C12.7,69.7-21.5,176.9,64.2,231.4c88.3,56.2,176.5,0.3,196.8-100.5
			C281.9,27.8,160.1-56.5,43.6,43.2z"/>
		<g>
			<defs>
				<path id="SVGID_3_" d="M43.6,43.2C12.7,69.7-21.5,176.9,64.2,231.4c88.3,56.2,176.5,0.3,196.8-100.5
					C281.9,27.8,160.1-56.5,43.6,43.2z"/>
			</defs>
			<clipPath id="SVGID_4_">
				<use xlink:href="#SVGID_3_"  style="overflow:visible;"/>
			</clipPath>
			<g id="Mask_Group_30" transform="translate(0 0)" class="st15">
				<g id="Group_2769" transform="translate(14.35 50.296)">
					
						<image style="overflow:visible;enable-background:new    ;" width="131" height="16" id="Rectangle_3756" xlink:href="472384DD.png"  transform="matrix(1.34 0 0 1.34 10.0436 295.2032)">
					</image>
					<g id="Group_2768" transform="translate(27.414)">
						<path id="Path_18184" class="st16" d="M127.4,24.5c1.1-0.6,5.2-3.2,6.8-2.2c13.2,7.8,38.9,63.8,23.5,82.9
							C139.5,128,102.2,72,102.2,65.3c0-14.9,19.8-30.6,19.8-30.6l10.4,28.5C132.4,63.2,118.5,29,127.4,24.5z"/>
						<path id="Path_18185" class="st7" d="M128.5,175.7c-5.2-22.7-30.4-75.6-30.4-75.6s-16.6-6.5-28-6.7c-7.4-3.8-17.3-6.2-28-1.3
							c-22.4,10.2-0.2,76.3-2.9,102.7c-0.7,7.2-3.5,18.6-4.8,31.6c-2.6,26.6,0.1,54.9,2.2,59.3c2.1,4.3,13.6,6.9,16.1,1.2
							c0.7-1.5,12.1-54.6,15.8-74.3c2.5-13.3,6-39.8,9-63.4c8.6,20,17.2,39.2,17.4,45.1c0.6,20.3-19.2,102,0,99.1
							C111.2,291,134.1,200.2,128.5,175.7z"/>
						<path id="Path_18186" class="st17" d="M97.7,280.6c-1,4.1-1.6,8.3-1.7,12.6c16-5.4,38.1-93.5,32.6-117.4
							c-1.6-6.4-3.7-12.8-6.1-19c-11.7-4-13.1,8.5-11.7,24.2c1.2,12.9,1.6,25.9,1.2,38.9C111.6,230.9,100.3,269.3,97.7,280.6z"/>
						<g id="Group_2760" transform="translate(20.895 90.746)">
							<path id="Path_18187" class="st18" d="M77.3,9.4c0,0-16.6-6.5-28-6.7c-7.4-3.8-17.3-6.2-28-1.3
								c-22.4,10.2-3.9,76.5-6.6,102.9c-0.1,0.8-0.2,1.6-0.3,2.5c6.2,2.9,18.9,3.5,36.6,1.3c2.1-14,3.7-32.6,5.9-49.6
								c6,13.8,11.2,27.8,15.5,42.2c0.4,2,0.7,4,0.9,6c13-1.8,26.8-5.5,36.4-11.4c-0.7-4.1-1.3-7.5-1.9-10.3
								C102.4,62.3,77.3,9.4,77.3,9.4z"/>
						</g>
						<path id="Path_18188" class="st18" d="M114.2,50.9c-3.1,3.5-7.5,12.1-10.5,18.7c2.1,4.2,4.6,8.2,7.3,12
							c1.7-3.9,3.2-8,4.5-12.1c2.7-8.8,7.4-22.9,7.4-22.9S119.5,44.9,114.2,50.9z"/>
						<path id="Path_18189" class="st19" d="M128.5,175.7c-5.2-22.7-30.4-75.6-30.4-75.6s-1.1-0.4-3-1.1c0.3,7,1.2,24.7,3.5,36.3
							c2.9,14.8,11.7,36.4,13.6,41.9c1.2,3.3,3.3,9.9,4.9,14.8c4.6-1.5,9.1-3.6,13.3-6.1C129.8,182,129.2,178.5,128.5,175.7z"/>
						<path id="Path_18190" class="st20" d="M31.4,105.3c-5.9-26.5,9.9-92,37.7-95.1c17.9-2,61.7,10.5,53.6,37
							c-5.4,17.6-13.5,19.8-17.6,27.2c-2.5,4.5-1.9,27.6-2.5,33.3c-1,10.5-19.4,16.1-29.9,14.5C46.1,118,33.8,115.9,31.4,105.3z"/>
						<g id="Group_2761" transform="translate(63.476 21.999)">
							<path id="Path_18191" class="st16" d="M46.9-1.4c1,6,2,16.7-1.3,27.5c-5,16.3-33.3,46.7-35.1,65.8c-0.3,3-0.4,5.8-0.4,8.3
								c10.6,1.3,28.2-4.3,29.2-14.6c0.5-5.7,0-28.8,2.5-33.3c4.1-7.4,12.2-9.6,17.6-27.2C62.8,13.7,56.5,4.8,46.9-1.4z"/>
						</g>
						<g id="Group_2763" transform="translate(80.961)">
							<path id="Path_18192" class="st18" d="M33.2,8.2c0,0,7.4-2.2,3.6-7.9c-2-3.1-8.8-0.9-8.8-0.9c-2.2-0.4-4.4,0.2-6,1.6
								c-2.7,2.5-2.2,9.4-2.2,9.4S30.8,11.7,33.2,8.2z"/>
							<path id="Path_18193" class="st7" d="M22.7,7.4l-8.8,9.1c-0.7,1.5,5.5,9.6,8.8,8.8c1-0.2,1.5-1.8,1.5-3.7l0.1-10.5L22.7,7.4z
								"/>
							<path id="Path_18194" class="st18" d="M24.3,13.3c-1.5-1.1-3.6-2.6-3.6-2.6c-0.7,1.9-0.6,4,0.3,5.9c0.7,1.5,1.8,2.8,3.3,3.6
								L24.3,13.3z"/>
							<path id="Path_18195" class="st7" d="M26.5,4.9l-5.1,4.8c-1.6,1.7-1.5,4.3,0.2,6c1.3,1.2,2.8,2.2,4.5,2.7
								c1.8,0.7,3.5-0.4,4.7-2.6c1.2-2.4,2.1-4.9,2.5-7.5C33.8,4.4,30.1,2,26.5,4.9z"/>
							<path id="Path_18196" class="st12" d="M30.1,12.1L30.1,12.1c0.5,0.3,0.7,0.9,0.5,1.4C30.5,13.8,30.2,14,30,14
								c-0.1,0-0.2,0-0.2,0c-0.3,0-0.5-0.1-0.7-0.3C28,13.1,29,11.6,30.1,12.1z"/>
							<g id="Group_2762" transform="translate(10.213 10.939)">
								<path id="Path_18197" class="st17" d="M17.5,5.5c-1.7-1.4-4.6,0.6-6.5-3.9c-0.2-1-0.1-2.1,0.2-3l-0.1,0.1
									c-1.6,1.7-1.5,4.3,0.2,6c1.3,1.2,2.8,2.2,4.5,2.7c1.1,0.4,2.3,0.2,3.1-0.6C18.6,6.7,18,5.9,17.5,5.5z"/>
							</g>
							<path id="Path_18198" class="st7" d="M25.4,7.3c0.1-0.4,0.3-0.8,0.5-1.2c0.4-0.7,0.8-1.9-0.5-2c-2-0.1-4,3.4-2.3,4.7
								C24.2,9.8,25.1,8.4,25.4,7.3z"/>
							<path id="Path_18199" class="st21" d="M19.2,24.1c0,0-3.8-8.2-3.2-9.8c-1.8,0.1-3.6,0.4-5.3,1.1c-2.3,1.1,1.3,11.4,1.3,11.4
								S15.7,23,19.2,24.1z"/>
							<path id="Path_18200" class="st21" d="M18.5,23.8l1.7-0.2c1.4-0.2,2.6-0.9,3.4-2.1l0.6-1c0.9,1,1.4,2.4,1.3,3.8
								c0,2.1-2.9,6-2.9,6S19.9,24,18.5,23.8z"/>
						</g>
						<path id="Path_18201" class="st18" d="M33.2,109.6c2.5,3.7,7.1,6,14.3,7.9c9.1-5.2,17.7-11,25.9-17.4
							c13.3-10.8,20.4-29.1,20.4-29.1s-48.3,34.4-57.2,37.2C35.5,108.6,34.3,109.1,33.2,109.6z"/>
						<path id="Path_18202" class="st18" d="M77.5,27.3c0.9,4.6,0.2,9.4-2.2,13.5C71.4,47.8,50,77.4,50.9,80.5s-7.9,3.4-8.1-2.2
							c-0.3-8,1.7-15.9,5.7-22.9c5-8.6,14-19,14-19L77.5,27.3z"/>
						<path id="Path_18203" class="st20" d="M56.1,16.6c-15.7,9.2-56.2,67.7-43.7,88c21.7,35.1,97.2-30.5,81.8-48.3
							c-7.4-8.5-45.3,26-47.9,22c-2.1-3.2,31.2-38,31.2-51C77.5,13.2,61.9,13.3,56.1,16.6z"/>
						<path id="Path_18204" class="st17" d="M42.4,289.6c4.1,1.2,8.9,0.8,10.4-2.7c0.7-1.5,12.1-54.6,15.8-74.3
							c1.5-8.2,3.5-21.5,5.4-36c-6.6,4.8-16.2,12.7-18.7,20.4c-3.9,12.1-12,75.3-12.8,88.1C42.5,286.6,42.4,288.1,42.4,289.6z"/>
						<g id="Group_2765" transform="translate(76.5 281.97)">
							<path id="Path_18205" class="st22" d="M29.1,1.4c-0.9,2.9-4.2,10.9-3.1,13.1c-1,1.1-2.5,1.8-4,1.8c-3.6,0-7.1-0.4-10.7-1.2
								c0.9-3.6-0.8-12.1-1.1-15.5c0-0.5,0.3-0.9,0.8-0.9c0,0,0.1,0,0.1,0L28-0.1c0.6,0,1.2,0.6,1.1,1.2C29.1,1.2,29.1,1.3,29.1,1.4
								z"/>
							<g id="Group_2764" transform="translate(0 15.861)">
								<path id="Path_18206" class="st12" d="M22.9,7.4c6.3,0.3,12.6,0.1,18.9-0.6c0.1,0.5,0.2,0.9,0.2,1.4
									c0.1,2.5-25.7,3.2-30,0.8c-1.2-0.8-1.9-2.1-1.8-3.6C14.3,6.4,18.6,7.1,22.9,7.4z"/>
								<path id="Path_18207" class="st19" d="M22.9,7.4c-4.3-0.3-8.6-0.9-12.8-1.9c0-1.7,0.3-3.4,0.9-5c0.2-0.4,0.3-0.8,0.4-1.3
									c3.5,0.7,7.1,1.1,10.7,1.2c1.5,0,3-0.6,4-1.8c0,0.1,0.1,0.1,0.1,0.2c0.7,1.1,2.8,1.8,5.6,2.9c4.1,2,9.1,0.8,10.1,5
									C35.5,7.4,29.2,7.6,22.9,7.4z"/>
							</g>
						</g>
						<g id="Group_2767" transform="translate(25.197 281.97)">
							<path id="Path_18208" class="st22" d="M29.1,1.4c-0.9,2.9-4.2,10.9-3.1,13.1c-1,1.1-2.5,1.8-4,1.8c-3.6,0-7.1-0.4-10.7-1.2
								c0.9-3.6-0.8-12.1-1.1-15.5c0-0.5,0.3-0.9,0.8-0.9c0,0,0.1,0,0.1,0L28-0.1c0.6,0,1.2,0.6,1.1,1.2C29.1,1.2,29.1,1.3,29.1,1.4
								z"/>
							<g id="Group_2766" transform="translate(0 15.861)">
								<path id="Path_18209" class="st12" d="M22.9,7.4c6.3,0.3,12.6,0.1,18.9-0.6c0.1,0.5,0.2,0.9,0.2,1.4
									c0.1,2.5-25.7,3.2-30,0.8c-1.2-0.8-1.9-2.1-1.8-3.6C14.3,6.4,18.6,7.1,22.9,7.4z"/>
								<path id="Path_18210" class="st19" d="M22.9,7.4c-4.3-0.3-8.6-0.9-12.8-1.9C10,3.7,10.3,2,11,0.4c0.2-0.4,0.3-0.8,0.4-1.3
									c3.5,0.7,7.1,1.1,10.7,1.2c1.5,0,3-0.6,4-1.8c0,0.1,0.1,0.1,0.1,0.2c0.7,1.1,2.8,1.8,5.6,2.9c4.1,2,9.1,0.8,10.1,5
									C35.5,7.4,29.2,7.6,22.9,7.4z"/>
							</g>
						</g>
						<path id="Path_18211" class="st19" d="M56.1,181.5c-2.1,8.7-3.3,14.8-3.9,18.7c6.6,0,13.1-0.5,19.6-1.3
							c2.1-14,3.7-32.6,5.9-49.6C77.6,149.2,60.3,163.9,56.1,181.5z"/>
						<path id="Path_18212" class="st7" d="M131,25.6c1.1-0.7,1.6-2.1,1.1-3.3c-0.6-1.4-1.1-2.8-1.4-4.3c0-1-2.1-2.2-3.3-2
							s-4.1,2.1-4.2,3.6s1.9,2.9,1.9,2.9s0.8,3.6,3.3,3.7C129.4,26.3,130.2,26,131,25.6z"/>
						<path id="Path_18213" class="st16" d="M94.8,57.1c0,0.4-0.1,0.7-0.1,1.1c-0.4,4.4-6.1,9.4-14,16.3S71,84.2,63,87.8
							s-23.2,19.9-33.8,19.2s-9.3-4.6-12.5-13c-2.2-5.7,1.3-21.8,3.8-31.6c-8.6,16.5-13.6,33.2-8,42.2
							C33.7,139.2,107.4,76,94.8,57.1z"/>
						<path id="Path_18214" class="st7" d="M90.4,60.8c-0.8-1.6-0.7-3.6,0.1-5.2c1-1.9,4-3.8,4.4-5.2s3-3.1,2.9,0.7
							c-0.1,2-1.3,3-0.4,2.9s8.6-2.9,9.1-1.5c0.3,0.9-4.8,2.4-4.4,2.7s5.8-3.2,5.2,0.6c-0.3,2-6.1,6.3-8.2,6.8S92.6,64.6,90.4,60.8z
							"/>
						<path id="Path_18215" class="st16" d="M46.3,78.3c-2.1-3.2,31.2-38,31.2-51c0-9-6.4-12.3-12.6-12.5c1.5,3.2,2.3,6.6,2.5,10.2
							c0.5,8.1,1.1,9.4-4,16.9s-8.4,12.4-10.8,18.4S44.2,76.5,46.3,78.3z"/>
					</g>
				</g>
			</g>
		</g>
	</g>
	<g id="Group_2771" transform="translate(18.189 49.34) rotate(-14)">
		<path id="Path_18244" class="st23" d="M122.7,45.6c-1.7,0.6-3.5,1-5,1.5c-2.7,1.1-5.5,2-8.3,2.7c-2,0.4-4.1,0.5-6.1,0.2
			c-6.9-1.1-12.5-5.8-15.9-11.9c-3.4-6.1-4.5-13.5-2.4-20c2.6-8.3,8.8-13.4,16.1-15.7c7.4-2.2,15.3-1.8,22.4,1.2
			c1.5,0.6,3,1.4,4.4,2.3c1.9,0.3,3.7,0.8,5.5,1.4c3.7,1.3,8.2,3.5,10.9,6.9c2.1,2.4,3.1,5.6,2.6,8.7c-0.5,2.3-1.5,4.5-3,6.3
			c0.2,1.3,0.3,2.6,0.3,3.9c-0.2,5.9-2.7,10.2-6.5,12.6c-3.7,2.3-8.6,2.7-13.9,0.6C123.6,46,123.1,45.8,122.7,45.6L122.7,45.6z
			 M108.6,9.9c-0.4-0.1-0.7-0.2-1.1-0.3c-7.5-1.6-15.8,1-19.5,9.2c-0.4,1-0.8,1.9-1,3c-0.2,1-0.4,2.1-0.4,3.1
			c-0.1,6.1,3.5,11.9,8.5,16c5,4.1,11.4,6.5,17.1,5.3c2.1-0.5,4.2-1.4,6-2.7c-2.6,0-5.1-0.7-7.3-1.9c-3.5,0.5-7-0.3-9.9-2.3
			c-3.4-2.3-5.5-6.2-5.5-10.3c-0.1-4.1,1.8-8,5.1-10.5c0.3-0.2,0.5-0.4,0.8-0.6c-0.7-0.2-1.4-0.2-2.1-0.2c-3.5,0-5.9,2.4-7.2,5.4
			c-1.3,3.1-1.4,6.6-0.2,9.8c0.3,0.6,0,1.3-0.6,1.6c-0.6,0.3-1.3,0-1.6-0.6c0,0,0,0,0,0c-1.5-3.8-1.4-8,0.2-11.8
			c1.6-3.9,4.8-6.8,9.4-6.9c1.6,0,3.1,0.3,4.5,0.9C104.9,13.7,106.6,11.6,108.6,9.9z M141.9,31.5c-1.1,1.1-2.4,2-3.8,2.8
			c-1.6,0.9-3.4,1.5-5.2,1.6c-0.9,1.1-1.9,2.1-3,3c-0.7,0.6-1.5,1.2-2.3,1.7c0,0.4,0,0.8-0.1,1.2c0.1,0.2,0.2,0.3,0.4,0.5
			c0.5,0.5,0.5,1.3,0,1.8c-0.5,0.5-1.2,0.5-1.7,0c0,0,0,0,0,0c0,0-0.1-0.1-0.1-0.1c-0.1,0.1-0.3,0.2-0.4,0.3c4.2,1.4,8,1.1,10.9-0.7
			c3.2-1.9,5.1-5.6,5.3-10.5C142,32.5,142,32,141.9,31.5L141.9,31.5z M123.7,42.6c-0.3,0.1-0.6,0.2-0.9,0.3l-0.1,0.1l0.1,0l0,0
			C123.1,42.8,123.4,42.7,123.7,42.6L123.7,42.6z M121.9,34.5c-1.2,1.8-2.7,3.4-4.5,4.6c0.7,0.7,1.5,1.3,2.2,1.9
			c0.7-0.1,1.3-0.2,2-0.3c0.9-1,1.8-2,2.7-3.1C123.6,36.4,122.8,35.4,121.9,34.5z M115.1,40.3l-0.2,0.1l-0.1,0.1
			c0.2,0.1,0.5,0.1,0.7,0.2l-0.2-0.2L115.1,40.3L115.1,40.3L115.1,40.3z M102.4,20.2c-0.1,0.1-0.2,0.2-0.4,0.3
			c-2.7,2-4.2,5.2-4.1,8.5c0,3.3,1.7,6.4,4.4,8.3c1.6,1,3.3,1.7,5.2,1.9c-3.6-3.6-5.6-8.4-5.7-13.4C101.8,23.8,102,22,102.4,20.2
			L102.4,20.2z M105.1,19.5c-0.6,2-0.8,4-0.8,6.1c0.2,5.2,2.4,10.4,6.9,13.2l0.2,0.1c0.2,0,0.4-0.1,0.6-0.1c0.5-0.1,0.9-0.3,1.4-0.4
			c-0.2-0.2-0.4-0.4-0.5-0.6c-3.2-3.6-5.3-8.1-6.1-12.8c-0.2-1.4-0.2-2.8,0.1-4.1C106.2,20.4,105.6,19.9,105.1,19.5L105.1,19.5z
			 M128.9,35.2c-0.2,0.4-0.4,0.7-0.7,1c-0.1,0.1-0.1,0.2-0.2,0.3c-0.1,0.4-0.2,0.7-0.3,1.1c0.2-0.2,0.5-0.4,0.7-0.6
			c0.5-0.5,1.1-0.9,1.5-1.4C129.6,35.5,129.2,35.3,128.9,35.2L128.9,35.2z M114.7,29.8c0.1,0.6,0.2,1.2,0.2,1.8c0.1,1,0,2.1-0.2,3.1
			c-0.1,0.3-0.3,0.6-0.6,0.8c0.2,0.2,0.4,0.4,0.5,0.7c0.3,0.4,0.6,0.7,1,1.1c1.7-1.1,3.2-2.5,4.3-4.2l0.1-0.2
			c-1.2-0.9-2.6-1.8-3.9-2.5C115.6,30.1,115.2,29.9,114.7,29.8L114.7,29.8z M124,28.6c-0.2,1.2-0.5,2.5-1,3.6
			c0.1,0.1,0.2,0.2,0.3,0.3c0.9,0.9,1.7,1.8,2.4,2.8l0.3-1.1c0.1-0.4,0.2-0.7,0.3-1.1l0,0c-0.2-0.3-0.5-0.6-0.7-1
			C125,31,124.5,29.8,124,28.6L124,28.6z M132.8,15.8c1,2.2,1.3,4.7,0.9,7.1c-0.6,3.5-1.8,6.9-3.6,10.1c0.5,0.2,1.1,0.4,1.7,0.4
			c2.9-3.8,4.2-8.7,3.4-13.4c-0.2-1-0.4-1.9-0.8-2.9c-0.3-0.2-0.5-0.5-0.8-0.7C133.4,16.2,133.1,16,132.8,15.8L132.8,15.8z
			 M137.8,20.8c0.4,4.3-0.6,8.6-2.8,12.2c1.4-0.5,2.7-1.2,3.8-2.1c1-0.7,1.9-1.5,2.7-2.4C140.8,25.7,139.5,23.1,137.8,20.8
			L137.8,20.8z M110,24.8c0,0.9,0,1.9,0.2,2.8c0.3,1.2,0.8,2.4,1.4,3.6c0.2,0.5,0.5,1,0.9,1.4c0-0.4,0-0.8,0-0.8
			c-0.1-1.2-0.4-2.4-0.8-3.6c-0.8-0.6-1.2-1.5-1.2-2.5C110.4,25.4,110.2,25.1,110,24.8L110,24.8z M119.2,21.2
			c-2.8,0.2-5.5,1.5-6.1,4.1c0.2,0.5,0.4,0.9,0.6,1.4c1.2,0.7,2.8,1.2,3.5,1.6c1.3,0.7,2.6,1.5,3.8,2.4c0.1-0.3,0.2-0.6,0.3-0.9
			c0.3-1.2,0.5-2.4,0.4-3.6c0-0.9-0.1-1.7-0.2-2.5C120.9,22.7,120.1,21.9,119.2,21.2L119.2,21.2z M123.7,21.9
			c0.1,0.2,0.1,0.5,0.1,0.7c0.3,0.4,0.5,0.8,0.8,1.2c0.9,1.6,1.5,3.7,2.3,5.5c0.1-1.2,0.1-2.3,0-3.5
			C126.6,24.1,125.4,22.6,123.7,21.9L123.7,21.9z M124.3,12.4c-1.8-0.2-3.7,0.1-5.4,0.7c1.7,1.7,3,3.7,3.9,5.9c3.3,0.8,6,3,6.6,6.5
			c0.2,1.1,0.2,2.3,0.1,3.4c0.9-2,1.6-4.1,1.9-6.3c0.4-2.8,0-5.6-2-7.5C127.9,13.8,126.2,12.8,124.3,12.4L124.3,12.4z M132.6,9.6
			L132.6,9.6c1.7,1.8,3,3.8,3.9,6.1c3.1,2.9,5.4,6.4,6.8,10.4c0.7-1.1,1.2-2.3,1.4-3.5c0.3-2.4-0.4-4.9-2.1-6.8
			c-2.5-3-6.5-5-9.8-6.1L132.6,9.6L132.6,9.6z M112.2,18.2c-0.7,1-1.2,2.1-1.5,3.2c0.3,0.3,0.5,0.7,0.8,1.1l0.2,0.2
			c1.1-1.6,2.7-2.8,4.6-3.4C114.9,18.7,113.5,18.4,112.2,18.2L112.2,18.2z M116.4,14.2L116.4,14.2c-0.9,0.5-1.7,1.1-2.4,1.8
			c1.2,0.2,2.3,0.6,3.4,1.1c0.9,0.4,1.7,0.9,2.5,1.4C118.9,16.9,117.8,15.4,116.4,14.2L116.4,14.2z M111.4,10.9
			c-0.4,0.3-0.9,0.6-1.3,0.9c-1.4,1.1-2.6,2.5-3.5,4.1c0.3-0.1,0.7-0.1,1-0.2c0.5-0.1,0.9-0.1,1.4-0.1c1.2-1.5,2.6-2.8,4.3-3.7
			C112.7,11.5,112.1,11.2,111.4,10.9L111.4,10.9z M127.1,8.3c-2-0.3-4.1-0.4-6.1-0.3c-2.4,0.1-4.7,0.6-6.9,1.5
			c0.6,0.4,1.3,0.8,1.9,1.2c2.7-1,5.6-1.3,8.5-0.7c2.5,0.2,4.9,1,7,2.2c-0.2-0.2-0.4-0.5-0.7-0.7C129.7,10.2,128.5,9.2,127.1,8.3
			L127.1,8.3z M121.4,5.5c-6.3-2.3-13.2-2.5-19.6-0.6c-2.7,0.8-5.3,2.1-7.5,3.9c4.3-2.1,9.1-2.6,13.7-1.5c1.1,0.2,2.2,0.6,3.2,1
			c3-1.6,6.3-2.5,9.6-2.7C121.1,5.5,121.2,5.5,121.4,5.5L121.4,5.5z"/>
		<path id="Path_18245" class="st23" d="M17.7,25.3c0.6-0.9,1.2-1.7,1.9-2.5c3.5-3.9,8.6-6,13.8-5.6c4.6,0.4,9.2,2.8,12.6,7.9
			c2.7,4.1,4,9,3.9,13.9c-0.1,5.6-2.3,10.6-6.2,13c-1.2,0.7-2.5,1.1-3.8,1.2c-1.8,0.1-3.7,0-5.5-0.2c-0.9-0.1-2,0-3,0
			c-0.2,0.2-0.3,0.3-0.5,0.5c-2.9,3-6.4,3.7-9.5,2.3c-2.5-1.1-4.7-3.6-6.2-7.4c-0.4-0.9-0.6-1.9-0.8-2.8c-1.4-1-2.5-2.4-3.3-3.9
			c-1.2-2.4-1.4-5.3-0.5-7.8c0.9-2.4,2.4-4.6,4.3-6.3C15.8,26.6,16.7,25.9,17.7,25.3z M47,38.2c-0.2,0.1-0.4,0.2-0.6,0.2
			c-0.6,0-1.1-0.5-1.2-1.1c0,0,0,0,0,0c-0.1-2.4-1-4.7-2.4-6.7c-1.4-2-3.4-3.4-5.4-2.7c-0.2,0.1-0.5,0.2-0.7,0.3
			c0.1,0.1,0.3,0.1,0.4,0.2c2.7,1.3,4.8,3.6,5.7,6.5c1.1,2.8,0.9,6-0.5,8.6c-1.1,2-3,3.4-5.2,3.9c-0.8,1.2-1.9,2.1-3.2,2.7
			c1.1,0.4,2.4,0.6,3.6,0.5c3.7-0.3,6.7-3.7,8.4-7.9C46.5,41.3,46.9,39.8,47,38.2L47,38.2z M17.3,47.3c0,0.1,0.1,0.2,0.1,0.3
			c1.2,3.1,3,5.2,5.1,6.2c1.9,0.8,4,0.6,5.6-0.7c-0.1,0-0.2,0-0.3-0.1c-0.6-0.2-0.9-0.8-0.7-1.4c0-0.1,0.1-0.3,0.1-0.4
			c-0.2-0.3-0.3-0.5-0.4-0.8l-0.1,0c-1.4-0.5-2.8-1.2-4-2.2c-1.3,0.3-2.7,0.2-3.9-0.3C18.3,47.7,17.8,47.5,17.3,47.3L17.3,47.3z
			 M29.1,45.1c-0.2,0.6-0.3,1.3-0.4,2c0.7,0.6,1.4,1.1,2.2,1.5c0.3,0,0.5-0.1,0.8-0.1c0.2-0.5,0.5-1,0.7-1.5
			C31.1,46.6,30,45.9,29.1,45.1z M37.1,31c0.5,0.9,0.9,1.9,1.2,2.9c1.2,3.4,1.4,7,0.4,10.4c0.7-0.5,1.2-1.1,1.6-1.9
			c1.1-2.1,1.2-4.6,0.3-6.8C40.1,33.8,38.9,32.1,37.1,31L37.1,31z M34.6,31.1c0,0.1-0.1,0.2-0.1,0.2l-0.1,0.2
			c0.5,0.9,0.9,1.9,1.1,2.9c0.7,3.3,0.7,6.7-0.1,10c-0.1,0.3-0.2,0.7-0.2,1c0.1,0,0.3,0,0.4,0c0.1,0,0.2,0,0.3,0
			c1.7-2.9,1.6-7,0.4-10.8C35.8,33.3,35.3,32.1,34.6,31.1L34.6,31.1L34.6,31.1z M31.5,40.3C31.5,40.3,31.5,40.3,31.5,40.3
			c-0.6,0.9-1.1,1.7-1.6,2.6l0.1,0.1c0.9,0.8,1.9,1.5,3,1.9c0.1-0.3,0.2-0.6,0.2-1l0-0.1c-0.2-0.1-0.4-0.3-0.6-0.5
			c-0.4-0.7-0.7-1.4-0.9-2.1C31.7,40.9,31.6,40.6,31.5,40.3L31.5,40.3z M25,46.9L25,46.9L25,46.9l0.2,0.2l0,0L25,46.9L25,46.9z
			 M26.6,42.3c0,0.4,0,0.8,0,1.1c0,0.3-0.1,0.6-0.1,1l0.2,0.3l0.2,0.4c0.1-0.6,0.3-1.2,0.5-1.7C27.1,43,26.8,42.6,26.6,42.3
			L26.6,42.3z M17.7,36.1c0,0.2,0.1,0.5,0.1,0.7c0.8,3.4,2.6,6.5,5.3,8.7c0.1-0.1,0.2-0.2,0.3-0.2c-1.9-1.9-3.4-4.1-4.7-6.5
			C18.3,38,18,37,17.7,36.1L17.7,36.1z M16.4,39.7c-0.1,1.5-0.1,3,0.2,4.6c0.5,0.4,1.1,0.7,1.7,1c0.7,0.3,1.3,0.6,2.1,0.7
			C18.6,44.1,17.2,42,16.4,39.7L16.4,39.7z M47.1,34.5c-0.1-1.4-0.4-2.7-0.9-4c-0.6-1.5-1.4-2.9-2.4-4.1c-4.2-5-9.6-5.1-13.3-2.3
			c1.5,0.8,2.9,1.8,4,3.1c0.6-0.6,1.4-1.1,2.2-1.3c2.4-0.8,4.9,0.2,6.8,2.2C45.3,29.8,46.5,32.1,47.1,34.5L47.1,34.5z M27.2,34.6
			c-0.3,0.6-0.4,1.3-0.6,1.9c0.1,0.6,0.3,1.3,0.5,1.9c0.3,0.9,0.7,1.7,1.2,2.5l0.1,0.1c0.4-0.7,0.8-1.3,1.2-1.9c0.3-0.4,1-1,1.4-1.7
			c0,0,0.1-0.1,0.1-0.1c0-0.4,0-0.7,0-1.1C30.3,34.9,28.7,34.2,27.2,34.6L27.2,34.6z M33.5,37.7L33.5,37.7c0,0.4,0,0.7,0.1,1
			C33.5,38.4,33.5,38,33.5,37.7L33.5,37.7z M24.3,36.9c-0.3,0.8-0.3,1.6-0.1,2.4c0,0.1,0,0.2,0.1,0.3c0-0.6,0-1.3,0-1.9
			C24.3,37.4,24.3,37.2,24.3,36.9L24.3,36.9z M24.7,28.8c-0.9,0-1.9,0.2-2.7,0.6C21,30,20.3,31,20,32.1c-0.6,1.8-0.1,3.8,0.8,5.8
			c0.4,0.7,0.8,1.4,1.2,2.1l0-0.2c-0.6-2.3,0.2-4.7,2-6.1C24,32,24.2,30.3,24.7,28.8L24.7,28.8z M15.8,29.8c-1.3,1.3-2.3,2.9-3,4.7
			c-1,2.5-0.5,5.4,1.3,7.5c-0.1-2.6,0.3-5.3,1.2-7.7C15.2,32.8,15.4,31.3,15.8,29.8L15.8,29.8z M30.1,31.2c-0.5,0.3-1,0.7-1.4,1.1
			c1,0.1,2,0.5,2.8,1l0-0.2l0-0.2c-0.2-0.3-0.4-0.5-0.6-0.8C30.7,31.8,30.4,31.5,30.1,31.2z M26.9,29.2c-0.3,0.8-0.4,1.5-0.5,2.3
			l0.1-0.1c0.5-0.6,1.1-1.2,1.7-1.7C27.8,29.5,27.4,29.3,26.9,29.2L26.9,29.2z M28.8,25.8c-0.2,0.2-0.3,0.4-0.5,0.7
			c1.2,0.4,2.3,0.9,3.3,1.7c0.2-0.1,0.4-0.1,0.6-0.1l0,0c-0.8-0.8-1.8-1.5-2.8-1.9C29.2,25.9,29,25.9,28.8,25.8z M26.4,25.2
			c-1.3-0.1-2.6,0-3.8,0.3c-1.1,0.3-2.2,0.8-3.3,1.4c-0.5,0.8-0.8,1.6-1.1,2.4c0.8-0.8,1.6-1.5,2.6-2c1.5-1,3.3-1.4,5-1.3
			C26.1,25.8,26.2,25.5,26.4,25.2z M36,19.9c-0.9-0.3-1.8-0.4-2.7-0.5c-4-0.3-8,1.1-11,3.9c1.9-0.5,3.9-0.5,5.8-0.1
			c0.3-0.3,0.6-0.6,0.9-0.8C31,20.8,33.5,19.9,36,19.9L36,19.9z"/>
		<path id="Path_18246" class="st23" d="M186.2,96.8c-0.9-0.5-1.8-1.1-2.6-1.5c-1.7-0.7-3.3-1.5-4.9-2.5c-1.1-0.8-2-1.8-2.7-2.9
			c-2.3-4-1.6-9.5,1.1-14.4c2.3-4.3,5.9-7.9,10.2-10.1c5.6-2.7,10.7-2.5,14.9-0.6c4.7,2.3,8.1,6.6,9.2,11.7c0.2,1,0.4,2.1,0.4,3.2
			c0.5,1,1,2.1,1.3,3.2c0.8,2.5,1,5.1,0.6,7.6c-0.5,2.7-2,5.1-4.3,6.6c-1.5,0.9-3.1,1.5-4.8,1.7c-0.7,0.7-1.4,1.4-2.1,2.1
			c-3.2,2.6-6.4,3.6-9.1,3.3c-3.4-0.3-6-2.6-7.1-6.7C186.3,97.3,186.3,97.1,186.2,96.8L186.2,96.8z M191.6,96.9
			c-0.2,0.2-0.5,0.4-0.7,0.5c-0.1,0.1-0.1,0.2-0.1,0.4c-0.1,0.6-0.7,1-1.3,0.9c0,0,0,0,0,0c-0.1,0-0.2-0.1-0.3-0.1
			c0.8,1.9,2.5,3.2,4.6,3.4c2.2,0.2,4.8-0.7,7.4-2.8c0.1-0.1,0.1-0.1,0.2-0.2c-0.5,0-1.1-0.1-1.6-0.2c-1.3-0.2-2.6-0.8-3.6-1.7
			C194.7,97.2,193.1,97.1,191.6,96.9C191.6,96.9,191.6,96.9,191.6,96.9z M205.9,92.8c-1.9,1.6-4.1,2.8-6.5,3.5
			c0.7,0.2,1.4,0.4,2.1,0.4c0.6,0,1.3,0,1.9,0C204.5,95.5,205.3,94.2,205.9,92.8L205.9,92.8z M211.4,84.5c-0.4,1.4-1,2.8-1.8,4.1
			c-0.5,2.6-1.4,5.1-2.8,7.3c2.5-0.9,4.4-3.2,4.8-5.9C211.9,88.2,211.8,86.4,211.4,84.5z M194.6,94.8L194.6,94.8l0.1,0h0.1l0,0
			L194.6,94.8L194.6,94.8z M206.5,89c-0.7,0.7-1.5,1.3-2.3,1.9c-2.2,1.4-4.7,2.6-7.2,3.3c0,0.1,0.1,0.2,0.1,0.4
			c3.4-0.7,6.5-2.4,8.9-5C206.2,89.4,206.4,89.2,206.5,89L206.5,89z M192.2,91.2c-1.2,0.2-2.5,0.3-3.8,0.1c-0.1,0.6-0.1,1.1-0.2,1.6
			c0.2,0.2,0.4,0.3,0.6,0.5c0.9,0,1.8-0.1,2.7-0.3C191.8,92.5,192,91.9,192.2,91.2L192.2,91.2z M193.9,72.8
			c-0.1-0.2-0.3-0.4-0.4-0.6c-1.4-1.6-3.8-1.3-6-0.3c-2.2,1-4.1,2.6-5.4,4.6c-0.3,0.5-1,0.7-1.5,0.4c0,0,0,0,0,0
			c-0.2-0.1-0.3-0.3-0.4-0.5c-0.6,1.4-1,2.9-1.3,4.5c-0.7,4.5,0.3,8.9,3.3,11.1c1,0.7,2.2,1.1,3.4,1.3c-0.8-1.2-1.3-2.5-1.5-4
			c-1.7-1.5-2.6-3.7-2.6-5.9c0.1-3,1.5-5.8,3.8-7.8c2.2-2,5.2-3,8.2-2.8C193.6,72.8,193.7,72.8,193.9,72.8L193.9,72.8z M195.8,90
			c-0.4,0.2-0.8,0.4-1.2,0.5c-0.1,0.6-0.2,1.2-0.4,1.8l0.4-0.2l0.3-0.2c0.1-0.3,0.2-0.6,0.4-0.9C195.4,90.7,195.6,90.3,195.8,90
			L195.8,90z M204.1,79.2c-0.4,1.6-1,3.2-1.8,4.6c0.9,2.2,0.4,4.7-1.3,6.3l-0.1,0.1c0.7-0.4,1.4-0.8,2.1-1.2
			c1.8-1.2,3.2-2.7,3.6-4.6c0.2-1.1,0.1-2.3-0.4-3.4C205.7,80.3,204.9,79.7,204.1,79.2z M192.5,85.8c-0.2,0.2-0.4,0.4-0.6,0.6
			c-0.6,0.5-1.2,1-1.9,1.4c-0.2,0.1-0.5,0.2-0.8,0.1l0,0.1c-0.1,0.3-0.2,0.6-0.3,1c1.2,0.2,2.4,0.1,3.5-0.2l0.1,0
			C192.6,87.9,192.6,86.9,192.5,85.8C192.5,85.9,192.5,85.9,192.5,85.8L192.5,85.8z M200.4,86.5c-0.1,0.2-0.2,0.4-0.3,0.7
			c-0.3,0.6-0.6,1.1-0.9,1.7c0.1-0.1,0.1-0.1,0.2-0.2C199.9,88,200.3,87.3,200.4,86.5L200.4,86.5z M194.4,76.2
			c-1.2,0.6-2.2,1.4-3.2,2.3c-2.9,2.6-5.1,6.1-5,9.5c0.1,0.1,0.2,0.1,0.2,0.2c0.1,0.1,0.2,0.1,0.4,0.2c0.1-0.3,0.2-0.6,0.3-1
			c1-3.2,2.7-6.2,4.9-8.7c0.7-0.8,1.5-1.4,2.4-2l0-0.2C194.4,76.5,194.4,76.4,194.4,76.2L194.4,76.2L194.4,76.2z M199,83
			c-1.1-1.1-2.9-1.3-4.2-0.5c-0.2,0.3-0.3,0.6-0.5,0.9l0,0.1c0.1,0.8,0.4,1.7,0.4,2.2c0.1,0.7,0.1,1.5,0.1,2.3l0.1-0.1
			c0.8-0.4,1.6-1,2.2-1.6c0.5-0.4,1-0.9,1.4-1.4C198.8,84.3,199,83.7,199,83L199,83z M192.2,75c-2,0.1-4,0.9-5.5,2.3
			c-1.8,1.5-3,3.7-3.1,6c0,0.8,0.2,1.7,0.5,2.4c0.9-3.5,2.8-6.6,5.5-8.9C190.5,76.2,191.3,75.5,192.2,75z M192.1,82.7
			c-0.2,0.2-0.4,0.5-0.6,0.8C191.7,83.3,191.9,83,192.1,82.7C192.1,82.7,192.1,82.7,192.1,82.7z M204.4,75.3c0,0.3,0,0.7,0,1
			c1.6,0.8,2.9,2.1,3.7,3.7c0.6,0.9,1,2,1.3,3c0.2-0.9,0.2-1.8,0.2-2.7c-0.6-1-1.3-2-2.1-2.8C206.6,76.5,205.6,75.8,204.4,75.3
			L204.4,75.3z M200.6,78.3c0.3,0.7,0.5,1.5,0.6,2.3l0,0.1c0.3-0.7,0.5-1.5,0.7-2.3C201.5,78.4,201.1,78.3,200.6,78.3L200.6,78.3z
			 M198.3,78.6c-0.5,0.1-0.9,0.3-1.4,0.4c-0.3,0.1-0.6,0.2-0.9,0.4l-0.1,0.2l-0.1,0.2c1-0.1,2,0.1,3,0.5
			C198.8,79.7,198.5,79.2,198.3,78.6z M198.7,65.9c2.2,1.3,3.9,3.3,4.9,5.7c0.1,0.4,0.3,0.8,0.4,1.1c1.9,0.6,3.6,1.6,5,2.9
			c-1.2-3.9-4-7.1-7.6-8.8C200.5,66.4,199.6,66.1,198.7,65.9L198.7,65.9z M202,74.6c-0.2,0-0.4-0.1-0.7-0.1c-1.1-0.1-2.3,0-3.4,0.3
			l0,0c0.2,0.1,0.3,0.3,0.5,0.4c1.2-0.2,2.5-0.1,3.7,0.2C202.1,75.1,202.1,74.9,202,74.6L202,74.6z M201.4,72.2
			c-1.8-4.3-6.5-6.9-12.7-4.6c-0.7,0.3-1.5,0.6-2.1,1c-0.7,0.4-1.3,0.8-1.9,1.4c-1.1,0.9-2,1.9-2.8,3.1c1.7-1.8,3.9-3.1,6.3-3.9
			c2.7-0.8,5.3-0.4,7,1.5c0.6,0.7,1,1.4,1.2,2.3C198,72.4,199.7,72.2,201.4,72.2L201.4,72.2z"/>
	</g>
</g>
<g class="st0">
	<path id="Path_18101" class="st1" d="M244.3,103c-21-38.7-46.1-63.6-134.6-51.6S-19.1,208.9,24.8,257.8s236.6,46.3,240.9-32.2
		S257.8,128,244.3,103z"/>
	<path id="Path_18132" class="st13" d="M74.6,162.3l4.5,9.2l10.1,1.5L82,180l1.7,10.1l-9-4.8l-9,4.8l1.7-10.1l-7.3-7.1l10.1-1.5
		L74.6,162.3z"/>
	<path id="Path_18133" class="st13" d="M215,190.5l-0.7,7.5l5.8,4.9l-7.4,1.6l-2.8,7L206,205l-7.5-0.5l5-5.7l-1.8-7.3l6.9,3
		L215,190.5z"/>
	<path id="Path_18134" class="st13" d="M246.8,130.1l-0.6,6l4.6,3.9l-5.8,1.3l-2.3,5.5l-3-5.2l-6-0.4l4-4.5l-1.4-5.8l5.5,2.4
		L246.8,130.1z"/>
	<path id="Path_18135" class="st13" d="M245.7,193.9c0,1-0.8,1.8-1.8,1.8c-1,0-1.8-0.8-1.8-1.8s0.8-1.8,1.8-1.8l0,0
		C244.9,192.1,245.7,192.9,245.7,193.9z"/>
	<path id="Path_18136" class="st13" d="M92.8,74.3c0,3.4-2.8,6.2-6.2,6.2c-3.4,0-6.2-2.8-6.2-6.2c0-3.4,2.8-6.2,6.2-6.2l0,0
		C90,68.1,92.8,70.9,92.8,74.3z"/>
	<ellipse id="Ellipse_238" class="st13" cx="59.6" cy="231.3" rx="4.8" ry="4.8"/>
	<g id="Group_2745" transform="translate(139.213 0)" class="st3">
		<g id="Group_2742">
			<path id="Path_18137" class="st24" d="M12.2,55.3l4.1,0.4c1.2,0.1,2.2,0.7,2.9,1.6c0.8,0.9,1.1,2,1,3.1l-0.4,3.8
				c-0.2,2.4-2.3,4.1-4.7,3.8c0,0,0,0,0,0l-4.3-0.5c-2.4-0.2-4.1-2.3-3.8-4.7c0,0,0,0,0,0l0.4-3.7C7.5,58.1,8.1,57,9,56.3
				C9.9,55.5,11,55.2,12.2,55.3z M26.1,5.3l-5.6,32.9c-0.2,1.1-0.8,2.2-1.7,2.9c-0.8,0.7-1.9,1-3,0.9c-1.2-0.1-2.2-0.7-2.9-1.6
				c-0.7-0.9-1-2-1-3.1l1.4-33.5c0-1.1,0.6-2.2,1.5-2.9C15.7,0.2,16.9-0.1,18,0l4.3,0.5c1.2,0.1,2.2,0.7,2.9,1.7
				C26,3,26.3,4.2,26.1,5.3L26.1,5.3z"/>
		</g>
		<g id="Group_2743" transform="translate(24.767 5.346)">
			<path id="Path_18138" class="st24" d="M13.9,53.1l3.9,1.3c1.1,0.4,2,1.1,2.5,2.2c0.6,1,0.7,2.2,0.3,3.3l-1.2,3.6
				c-0.7,2.3-3.1,3.5-5.4,2.8c0,0,0,0,0,0l-4.1-1.3c-2.3-0.7-3.5-3.1-2.8-5.4c0,0,0,0,0,0l1.1-3.5c0.4-1.1,1.2-2,2.2-2.5
				C11.6,52.8,12.8,52.7,13.9,53.1z M38,7.1l-12.4,31c-0.4,1.1-1.2,2-2.3,2.5c-1,0.5-2.1,0.6-3.2,0.3c-1.1-0.3-2.1-1.1-2.5-2.2
				c-0.5-1-0.6-2.2-0.3-3.3L25.8,3c0.3-1.1,1-2,2.1-2.5c1-0.5,2.2-0.6,3.3-0.3l4.1,1.3c1.1,0.4,2,1.2,2.5,2.3
				C38.3,4.8,38.4,6,38,7.1L38,7.1z"/>
		</g>
		<g id="Group_2744" transform="translate(44.147 22.96)">
			<path id="Path_18139" class="st24" d="M16,46.4l3.4,2.3c1,0.7,1.6,1.7,1.8,2.8c0.2,1.1,0,2.3-0.7,3.2l-2.2,3.1
				c-1.3,1.9-4,2.4-6,1.1c0,0,0,0,0,0l-3.5-2.5c-1.9-1.3-2.4-4-1.1-6c0,0,0,0,0,0l2.1-3c0.7-0.9,1.7-1.6,2.9-1.8
				C13.8,45.5,15,45.7,16,46.4z M52.3,9.3L31.5,35.5c-0.7,0.9-1.8,1.5-2.9,1.7c-1.1,0.2-2.2,0-3.1-0.7c-1-0.6-1.6-1.7-1.8-2.8
				c-0.2-1.1,0.1-2.3,0.7-3.2L41.8,1.9c0.6-1,1.6-1.6,2.7-1.8c1.1-0.2,2.3,0,3.3,0.7l3.5,2.5c1,0.7,1.6,1.7,1.8,2.9
				C53.3,7.3,53,8.4,52.3,9.3L52.3,9.3z"/>
		</g>
	</g>
	<g class="st3">
		<defs>
			<path id="SVGID_5_" d="M244.3,103c-21-38.7-46.1-63.6-134.6-51.6S-19.1,208.9,24.8,257.8s236.6,46.3,240.9-32.2
				S257.8,128,244.3,103z"/>
		</defs>
		<clipPath id="SVGID_6_">
			<use xlink:href="#SVGID_5_"  style="overflow:visible;"/>
		</clipPath>
		<g id="Mask_Group_28" transform="translate(0 48.341)" class="st25">
			<g id="Group_2741" transform="translate(51.55 29.637)">
				
					<image style="overflow:visible;enable-background:new    ;" width="764" height="98" id="Rectangle_3755" xlink:href="472384DF.png"  transform="matrix(0.2355 0 0 0.2355 8.84 242.7267)">
				</image>
				<g id="Group_2740">
					<path id="Path_18102" class="st19" d="M93.2,15.9c1.7-11.5,75.1-2.4,79.7,24s-49.3,23.4-54.7,17.6s-5.9-24.8-5.9-24.8l28.9,3.4
						C141.2,36.1,91.1,29.6,93.2,15.9z"/>
					<g id="Group_2729" transform="translate(120.262 235.357)">
						<path id="Path_18103" class="st12" d="M17.5,0c0,0,1.2,9.2,2.4,11.4c-0.8,0.9-1.9,1.4-3.1,1.4c-2.8,0-5.6-0.2-8.4-0.8
							C9.2,8.9,8.1,2.4,6.9,0L17.5,0z"/>
						<g id="Group_2728" transform="translate(0.563 11.397)">
							<path id="Path_18104" class="st12" d="M17.1,6.9c5,0.1,9.9-0.2,14.8-0.8c0.1,0.4,0.2,0.7,0.2,1.1c0.1,2-20.1,2.9-23.6,1.2
								C7.5,7.8,6.9,6.8,7,5.6C10.3,6.3,13.7,6.8,17.1,6.9z"/>
							<path id="Path_18105" class="st19" d="M17.1,6.9C13.7,6.8,10.3,6.3,7,5.6c-0.1-1.3,0.1-2.7,0.6-4c0.1-0.3,0.2-0.7,0.3-1
								c2.8,0.5,5.6,0.8,8.4,0.7c1.2,0,2.3-0.5,3.1-1.4c0,0,0.1,0.1,0.1,0.1c0.6,0.8,2.2,1.4,4.5,2.2c3.2,1.5,7.2,0.5,8,3.8
								C27,6.8,22.1,7.1,17.1,6.9z"/>
						</g>
					</g>
					<path id="Path_18106" class="st19" d="M58.8,244.8c1,0.4,1.4,2.7,1.3,3.7c-0.1,1.3-0.6,3-1.9,3.8c-2.3,1.3-13.6,3.8-17,3.8
						c-3.8,0-4.1-0.6-4.5-2.1c-0.2-1,3.6-3.6,7.4-5.8c1.8-1.1,4.7-2.8,6.1-3.2C52.8,244.4,55.9,243.6,58.8,244.8z"/>
					<path id="Path_18107" class="st12" d="M43.6,254.4c3.8-0.6,12.9-3.3,16.2-4.3c-0.3,0.9-0.8,1.7-1.6,2.2
						c-2.3,1.3-13.6,3.8-17,3.8c-3.7,0-4.1-0.6-4.4-1.9C39,254.7,41.3,254.8,43.6,254.4z"/>
					<path id="Path_18108" class="st12" d="M58.6,246.7c0,0,2.2-7.4,1.6-7.5s-9.6-1-10,0.5s-0.7,6.4-1.1,7.2s-2.1,1.6-0.9,1.9
						S57.6,248.2,58.6,246.7z"/>
					<g id="Group_2730" transform="translate(84.225 97.71)">
						<path id="Path_18109" class="st19" d="M35.8,0c0,0,29.7,137.3,25,142.7c-6.1,7.1-17.3,6-20.6,2.8C38.4,143.7,3.3,29.7,7.2,6.6
							C8,2.2,35.8,0,35.8,0z"/>
					</g>
					<g id="Group_2731" transform="translate(39.126 98.212)">
						<path id="Path_18110" class="st19" d="M31.8,0.5c-2.7,3.9-4.5,8.4-5.4,13C19.5,47.9,4.6,139.1,7.2,142.8
							c3.3,4.6,15.4,3.4,17.3,0.9S60.8,20.8,62.7,14.4s4.5-12.8-2.5-13.9S31.8,0.5,31.8,0.5z"/>
					</g>
					<path id="Path_18111" class="st26" d="M95.8,18.5c0.5,0.4,1.7,0.1,1.8-0.4c0.1-0.6,0.2-1.2,0.1-1.7c-0.1-2.6-1.9-3.8-2.3-3.8
						c-2.6,0.1-1.9,3.1-1.5,4.2C94.2,17.4,95.2,18,95.8,18.5z"/>
					<g id="Group_2732" transform="translate(52.809 28.767)">
						<path id="Path_18112" class="st18" d="M10.2,11.1C19.1-0.1,40-2,54.4,1.8C59.2,3,64.2,5,65.5,10c2.4,9.2,6,42.1,6.6,74.8
							c0,1.2-7.5,4.6-20.5,5.5c-2,0.1-1.7-9-3.7-8.9c-1.2,0.1-2.6,8.2-3.8,8.3c-14.1,0.6-33.3-0.4-33.9-1.8
							c-1.7-3.7-2-26.2-2.3-40.4C7.4,28.9,5.1,17.4,10.2,11.1z"/>
					</g>
					<path id="Path_18113" class="st12" d="M84.6,30.5c0,0,7.1-1.9,9.9,0c2.8,1.9,5.4,40.8,3.7,40.8C95.2,71.4,76.8,33,84.6,30.5z"
						/>
					<g id="Group_2733" transform="translate(76.161 9.546)">
						<path id="Path_18114" class="st18" d="M19.5,8.7c0.6-1.9,0.5-3.9-0.4-5.6c-1-1.8-3-3.1-3.6-3.1c-3.3,0-1.2,1.5-5.3,3.5
							c-2.8,1.4-3.8,5.4-2.9,8.2c1.4,4.5,3.6,5.4,4.8,4.9S19.5,8.7,19.5,8.7z"/>
					</g>
					<g id="Group_2734" transform="translate(78.258 21.666)">
						<path id="Path_18115" class="st27" d="M9,0L6.9,10.2c0.2,1.4,6,3.7,8,1.6c0.6-0.6-0.7-9.2-0.7-9.2L9,0z"/>
					</g>
					<g id="Group_2735" transform="translate(81.74 26.934)">
						<path id="Path_18116" class="st18" d="M11.4,3c-0.1-0.8-0.2-1.7-0.3-2.6L6.9,0C8,1.5,9.6,2.6,11.4,3z"/>
					</g>
					<g id="Group_2736" transform="translate(80.456 14.963)">
						<path id="Path_18117" class="st27" d="M8.5,2.8L7,8.6c-0.3,1.9,0.9,3.8,2.8,4.2c1.5,0.3,3,0.3,4.4-0.1c1.6-0.3,2.3-1.9,2.2-4
							c-0.2-2.2-0.7-4.4-1.7-6.5C13.5-0.8,9.8-0.8,8.5,2.8z"/>
					</g>
					<g id="Group_2737" transform="translate(86.328 21.607)">
						<path id="Path_18118" class="st12" d="M9.9,1.1c0,0-0.6,2-2.7,0.4C6.9,1.4,6.8,1,7.1,0.7c0,0,0,0,0,0c0.2-0.2,0.4-0.4,0.6-0.5
							C8.5-0.2,9.8,0.1,9.9,1.1z"/>
					</g>
					<g id="Group_2738" transform="translate(79.383 18.237)">
						<path id="Path_18119" class="st27" d="M9.3,2.2C9.2,1.8,9,1.5,8.9,1.1C8.8,0.5,8.3-0.5,7.5,0.3C6.2,1.4,7.4,4.9,9.1,4.8
							C10.4,4.6,9.8,3,9.3,2.2z"/>
					</g>
					<g id="Group_2739" transform="translate(80.619 25.187)">
						<path id="Path_18120" class="st26" d="M10.3,1.5c1.5,0.3,3-0.1,4.3-0.9c0.5-0.3,1-0.4,1.6-0.3c-0.2,1-1,1.9-2,2.1
							c-1.5,0.4-3,0.4-4.4,0.1C8.4,2.2,7.3,1.3,6.9,0C7.9,0.8,9,1.4,10.3,1.5z"/>
					</g>
					<path id="Path_18121" class="st19" d="M59.8,51.8c-0.1,3.6,0.1,7.8,0.4,12.6c4.4-0.8,8.5-3.1,11.6-6.4
						c4.8-5.5,5.3-17.3,5.3-17.3L59.8,51.8z"/>
					<path id="Path_18122" class="st28" d="M81.2,18.3c-4.8-5.8-57.8,3-67.7,10.1c-14.9,10.8-2.6,26,16.5,29.3
						c15.3,2.6,29.1,1,35.6-2.9c8.5-5,14.9-17.8,11.9-23c-1.3-2.3-21.2,0.9-32.5,2.9c10.6-2.1,29.2-6.1,36.4-10
						C84.2,23.2,81.8,19,81.2,18.3z"/>
					<path id="Path_18123" class="st18" d="M82.3,20.3c-4,1.9-8.1,3.6-12.4,4.9c-6.7,2.1-31.4,7.8-35.6,8.3s-5.4,0.7-5.4,0.7
						S41,34.8,45,34.7c10.6-2.1,29.2-6.1,36.4-10C83.1,23.8,82.9,21.8,82.3,20.3z"/>
					<path id="Path_18124" class="st27" d="M80.8,20.2c0,0-0.4-3.8,0.4-4.8c1.1-1.1,2.6-1.7,4.2-1.7c0.8,0.1-1.6,1.5-1.6,1.5
						s2.1-1,3-0.4S84.9,17,85,17.2s1.5-1,1.7-0.7s-1.8,2-1.8,3.2s-1.5,2.9-2.6,2.4C81.6,21.7,81.1,21,80.8,20.2z"/>
					<path id="Path_18125" class="st29" d="M91.4,32.4c-1.6,0.2-5.7-3.3-5.7-3.3c-0.7,0.8-1.3,1.7-1.8,2.6c0,0.4,3.8,3.3,4.7,3.7
						s2.4-1,2.7-1.1s2.5,0.8,2.8,0.8c0.2,0-0.2-3.5-0.7-4.2c0-0.1-0.1-0.1-0.2,0c0,0,0,0,0,0C93.2,30.8,92.5,32.2,91.4,32.4z"/>
					<path id="Path_18126" class="st18" d="M65.6,54.9c3.2-2,5.9-4.6,8-7.8c-2.7,0.6-6,1.4-9,1.8c-6.8,1.1-35.8,2.2-47.7-2.6
						c-4.4-1.6-7.9-4.9-9.8-9.1c-1.8,8.9,8.7,18,22.9,20.5C45.3,60.4,59.2,58.7,65.6,54.9z"/>
					<path id="Path_18127" class="st19" d="M124.9,113.5c-0.5-32.7-4.2-65.6-6.6-74.8c-1.2-4.6-5.6-6.6-10.1-7.9
						c1.2,3.5,4.8,14.2,5.3,23.5c0.6,9,0.9,47.9,1.1,63.3C121.3,116.3,125,114.4,124.9,113.5z"/>
					<path id="Path_18128" class="st30" d="M85.9,0.7c-2.3-0.2-4.7-0.4-7-0.4c-1.2,0-2.3,0-3.5,0.1c-0.5,0-1.1,0.1-1.6,0.3
						c-0.2,0.1-0.2,0.3,0,0.6c0.1,0.2,0.3,0.5,0.5,0.7C75,2.7,75.9,3.4,76.9,4c1,0.6,2,1.2,3,1.8c2.1,1.1,4.2,2,6.5,2.6
						c2.2,0.7,4.5,1.4,6.7,2.1c2.2,0.7,4.5,1.2,6.8,1.6c0.6,0.1,1.2,0.2,1.7,0.2c0.6,0,1.1,0,1.7-0.2c0.2-0.1,0.4-0.3,0.5-0.5
						c0-0.3,0-0.5-0.2-0.7c-0.3-0.5-0.7-0.9-1.1-1.3c-1.8-1.5-3.8-2.8-5.9-3.9c1.1,0.5,2.1,1.1,3.1,1.7c1,0.6,2,1.3,2.9,2
						c0.5,0.4,0.9,0.8,1.2,1.3c0.2,0.3,0.3,0.6,0.2,1c-0.1,0.3-0.3,0.6-0.7,0.8c-0.6,0.2-1.2,0.3-1.8,0.3c-0.6,0-1.2-0.1-1.8-0.1
						c-2.3-0.4-4.6-0.9-6.9-1.6c-2.3-0.6-4.5-1.3-6.8-2c-2.3-0.7-4.5-1.6-6.6-2.7c-1-0.6-2.1-1.2-3.1-1.8c-1-0.6-2-1.4-2.8-2.2
						c-0.2-0.2-0.4-0.5-0.5-0.8c-0.1-0.2-0.1-0.3-0.1-0.5c0-0.2,0.1-0.4,0.3-0.5c0.3-0.2,0.6-0.3,0.9-0.3c0.3,0,0.6,0,0.9-0.1
						c1.2,0,2.4,0,3.5,0C81.2,0.2,83.6,0.4,85.9,0.7z"/>
					<path id="Path_18129" class="st30" d="M79.9,7.9c-0.5,0.4-1,0.9-1.4,1.5c-0.2,0.3-0.3,0.6-0.3,0.9c0,0.3,0.1,0.6,0.4,0.8
						c0.1,0.1,0.2,0.2,0.4,0.2c0.2,0,0.3,0,0.5,0c0.3-0.1,0.6-0.1,1-0.2c0.6-0.2,1.3-0.5,1.9-0.7c2.5-1.1,4.9-2.4,7.2-3.8
						c1.2-0.7,2.3-1.4,3.5-2.2c0.6-0.4,1.1-0.8,1.6-1.2c0.3-0.2,0.5-0.4,0.7-0.7c0.1-0.1,0.2-0.2,0.2-0.3c0,0,0,0,0-0.1
						c0,0-0.1-0.1-0.1-0.1c-0.3-0.1-0.6-0.1-0.9-0.1c-0.3,0-0.7,0.1-1,0.1c-0.7,0.1-1.3,0.2-2,0.4c-1.3,0.3-2.6,0.6-4,1
						C88.7,3,90,2.5,91.3,2.2c0.7-0.2,1.3-0.3,2-0.5c0.3-0.1,0.7-0.1,1-0.2c0.4-0.1,0.7,0,1.1,0c0.1,0,0.2,0.1,0.3,0.2
						c0.1,0.1,0.2,0.2,0.2,0.4c0,0.1,0,0.1,0,0.2c0,0.1,0,0.1-0.1,0.1c0,0.1-0.1,0.2-0.2,0.2c-0.2,0.3-0.5,0.5-0.8,0.7
						c-0.5,0.4-1.1,0.9-1.6,1.2c-1.1,0.8-2.3,1.5-3.5,2.2c-2.4,1.4-4.8,2.6-7.3,3.7c-0.6,0.3-1.3,0.5-1.9,0.7
						c-0.3,0.1-0.7,0.2-1,0.2c-0.2,0-0.4,0-0.5,0c-0.1,0-0.2,0-0.3-0.1c-0.1,0-0.2-0.1-0.2-0.2c-0.3-0.2-0.5-0.6-0.4-1
						c0.1-0.4,0.2-0.7,0.4-1C78.8,8.8,79.3,8.3,79.9,7.9z"/>
					<ellipse id="Ellipse_237" class="st30" cx="100.8" cy="5" rx="1" ry="1"/>
					<path id="Path_18130" class="st30" d="M77.7,2.5l0.7,1.5L80,4.2l-1.2,1.2L79.1,7l-1.5-0.8L76.2,7l0.3-1.6l-1.2-1.2l1.6-0.2
						L77.7,2.5z"/>
					<path id="Path_18131" class="st30" d="M75.3,8.5L75.8,9l0.7-0.2l-0.3,0.7l0.4,0.7l-0.8-0.1l-0.5,0.6L75.2,10l-0.7-0.3l0.7-0.4
						L75.3,8.5z"/>
				</g>
			</g>
		</g>
	</g>
</g>
</svg>
