<svg xmlns="http://www.w3.org/2000/svg" width="18.985" height="18.123" viewBox="0 0 18.985 18.123">
  <path id="Path_18247" data-name="Path 18247" d="M36.676,83.385l2.41,4.883a.675.675,0,0,0,.509.37l5.389.783a.676.676,0,0,1,.374,1.153l-3.9,3.8a.675.675,0,0,0-.194.6l.92,5.367a.676.676,0,0,1-.98.712l-4.82-2.534a.675.675,0,0,0-.629,0l-4.82,2.534a.676.676,0,0,1-.98-.712l.92-5.367a.675.675,0,0,0-.194-.6l-3.9-3.8a.676.676,0,0,1,.374-1.153l5.389-.783a.675.675,0,0,0,.509-.37l2.41-4.883A.676.676,0,0,1,36.676,83.385Z" transform="translate(-26.578 -83.008)" fill="#ffd82c" fill-rule="evenodd"/>
</svg>
