<?xml version="1.0" encoding="utf-8"?>
<!-- Generator: Adobe Illustrator 23.0.3, SVG Export Plug-In . SVG Version: 6.00 Build 0)  -->
<svg version="1.1" id="圖層_1" xmlns="http://www.w3.org/2000/svg" xmlns:xlink="http://www.w3.org/1999/xlink" x="0px" y="0px"
	 viewBox="0 0 10 10" style="enable-background:new 0 0 10 10;" xml:space="preserve">
<style type="text/css">
	.st0{fill:#00BAB3;}
</style>
<path id="Path_5212" class="st0" d="M9.5,3.3C9.2,2.8,8.7,2.2,8.3,1.7c-0.5-0.5-1-0.9-1.6-1.3C6.2,0.2,5.6,0,5,0
	C4.4,0,3.8,0.2,3.3,0.5C2.7,0.8,2.2,1.3,1.7,1.7c-0.5,0.5-0.9,1-1.3,1.6C0.2,3.8,0,4.4,0,5c0,0.6,0.2,1.2,0.5,1.7
	c0.4,0.6,0.8,1.1,1.3,1.6c0.5,0.5,1,0.9,1.6,1.3C3.8,9.8,4.4,10,5,10c0.6,0,1.2-0.2,1.7-0.5c0.6-0.4,1.1-0.8,1.6-1.3
	c0.5-0.5,0.9-1,1.3-1.6C9.8,6.2,10,5.6,10,5C10,4.4,9.8,3.8,9.5,3.3z"/>
</svg>
