<?xml version="1.0" encoding="utf-8"?>
<!-- Generator: Adobe Illustrator 16.0.0, SVG Export Plug-In . SVG Version: 6.00 Build 0)  -->
<!DOCTYPE svg PUBLIC "-//W3C//DTD SVG 1.1//EN" "http://www.w3.org/Graphics/SVG/1.1/DTD/svg11.dtd">
<svg version="1.1" id="icons" xmlns="http://www.w3.org/2000/svg" xmlns:xlink="http://www.w3.org/1999/xlink" x="0px" y="0px"
	 width="18px" height="18px" viewBox="0 0 18 18" enable-background="new 0 0 18 18" xml:space="preserve">
<g>
	<g>
		<path fill-rule="evenodd" clip-rule="evenodd" fill="#D03A19" d="M9.551,7.979c0.008-0.001,0.015-0.002,0.022-0.005
			C9.593,8,9.614,8.026,9.634,8.052c0.23,0.309,0.46,0.616,0.689,0.924c0.075,0.101,0.15,0.131,0.244,0.099
			c0.09-0.031,0.127-0.094,0.128-0.217c0-0.272,0-0.544,0-0.814c0-0.209-0.001-0.418,0-0.626c0-0.068-0.013-0.129-0.069-0.173
			c-0.063-0.047-0.132-0.059-0.204-0.024s-0.111,0.095-0.111,0.176c0,0.279,0,0.558,0,0.836c0,0.025,0,0.05,0,0.075
			c-0.006,0.002-0.013,0.005-0.019,0.006c-0.017-0.019-0.033-0.037-0.049-0.056c-0.234-0.314-0.468-0.627-0.702-0.94
			C9.523,7.294,9.506,7.27,9.485,7.252C9.428,7.201,9.361,7.188,9.29,7.213C9.223,7.237,9.178,7.285,9.169,7.359
			C9.164,7.4,9.16,7.44,9.16,7.481C9.159,7.784,9.159,8.086,9.159,8.389c0,0.163-0.002,0.326,0.002,0.49
			c0.003,0.127,0.092,0.214,0.201,0.208c0.111-0.004,0.188-0.093,0.188-0.219c0-0.271,0-0.543,0-0.813
			C9.551,8.029,9.551,8.004,9.551,7.979z M12.404,8.127c0.006,0.058,0.007,0.116,0.019,0.172c0.105,0.503,0.544,0.827,1.054,0.773
			c0.089-0.011,0.177-0.041,0.263-0.069c0.058-0.021,0.084-0.071,0.071-0.133c-0.013-0.064-0.066-0.1-0.135-0.093
			c-0.025,0.002-0.05,0.015-0.075,0.019c-0.083,0.015-0.166,0.042-0.248,0.039c-0.481-0.02-0.75-0.441-0.691-0.806
			c0.058-0.357,0.396-0.661,0.826-0.591c0.364,0.062,0.639,0.367,0.597,0.828c-0.007,0.063-0.047,0.1-0.108,0.105
			c-0.057,0.005-0.108-0.044-0.114-0.108c-0.003-0.043-0.001-0.086-0.001-0.129c-0.004-0.304-0.263-0.521-0.563-0.48
			c-0.264,0.035-0.45,0.273-0.42,0.528c0.035,0.279,0.282,0.465,0.559,0.43c0.083-0.011,0.138-0.067,0.13-0.135
			c-0.008-0.078-0.074-0.121-0.164-0.108C13.27,8.39,13.139,8.29,13.125,8.158c-0.014-0.133,0.086-0.255,0.217-0.266
			c0.146-0.011,0.263,0.088,0.269,0.228c0.003,0.067,0.002,0.135,0.012,0.2c0.025,0.168,0.167,0.29,0.333,0.293
			c0.185,0.004,0.343-0.105,0.364-0.278c0.014-0.127,0.013-0.26-0.009-0.386c-0.082-0.468-0.546-0.818-1.057-0.757
			C12.773,7.251,12.41,7.646,12.404,8.127z M10.986,8.143c0,0.247-0.001,0.494,0,0.742c0.001,0.118,0.077,0.201,0.196,0.202
			c0.252,0.003,0.504,0.003,0.757,0c0.118-0.001,0.195-0.084,0.194-0.195c-0.002-0.112-0.079-0.183-0.203-0.184
			c-0.164-0.001-0.326-0.002-0.489,0.001c-0.054,0-0.073-0.021-0.072-0.072c0.003-0.076,0.003-0.154,0-0.23
			c-0.001-0.053,0.019-0.071,0.072-0.069c0.148,0.002,0.298,0.001,0.446,0c0.045-0.002,0.092-0.006,0.134-0.021
			c0.084-0.03,0.124-0.115,0.11-0.212c-0.013-0.079-0.083-0.144-0.172-0.146c-0.17-0.004-0.341-0.004-0.511-0.002
			c-0.053,0-0.083-0.013-0.08-0.072c0.003-0.074,0.004-0.148,0-0.223c-0.004-0.064,0.023-0.084,0.084-0.083
			c0.156,0.003,0.313,0.003,0.468,0c0.042-0.001,0.088-0.009,0.124-0.028c0.074-0.038,0.105-0.123,0.085-0.21
			c-0.019-0.079-0.097-0.141-0.196-0.141c-0.248-0.003-0.495-0.003-0.742-0.001c-0.141,0.002-0.21,0.108-0.207,0.217
			C10.99,7.657,10.986,7.9,10.986,8.143z M7.112,8.142c0,0.242-0.001,0.485,0,0.728C7.113,9,7.19,9.086,7.318,9.087
			c0.249,0.003,0.499,0.003,0.749,0c0.115-0.001,0.202-0.09,0.2-0.193C8.267,8.785,8.183,8.709,8.063,8.708
			C7.907,8.707,7.751,8.703,7.595,8.709C7.521,8.711,7.502,8.688,7.503,8.616C7.506,8.218,7.504,7.818,7.504,7.42
			c0-0.106-0.049-0.181-0.133-0.208c-0.137-0.044-0.258,0.05-0.259,0.202C7.11,7.655,7.112,7.898,7.112,8.142z M8.859,8.145
			c0-0.247,0.001-0.494-0.001-0.741C8.857,7.285,8.769,7.197,8.66,7.199C8.553,7.201,8.467,7.286,8.467,7.401
			c-0.002,0.493-0.002,0.987,0,1.481c0,0.086,0.04,0.154,0.121,0.188c0.135,0.056,0.27-0.039,0.271-0.191
			C8.86,8.634,8.859,8.39,8.859,8.145z"/>
	</g>
	<g>
		<path fill="none" d="M7.913,13.063c-0.148,0.076-0.267,0.112-0.375,0.112c-0.145,0-0.268-0.067-0.338-0.183
			c-0.122-0.202-0.021-0.443,0.063-0.606c0.227-0.429,0.365-0.881,0.426-1.375C6.524,10.291,5.834,9.18,5.834,8.008
			c0-2.015,1.985-3.665,4.488-3.802V3.9h-7.2v9.6h7.2v-1.688c-0.126-0.008-0.253-0.019-0.384-0.035
			C9.386,12.223,8.722,12.644,7.913,13.063z"/>
		<path fill="none" d="M10.322,2.793c0-0.408-0.299-0.693-0.743-0.693H3.89c-0.432,0-0.768,0.314-0.768,0.731V3.3h7.2V2.793z
			 M7.935,2.699h-2.4c-0.083,0-0.149-0.066-0.149-0.149S5.451,2.4,5.534,2.4h2.4c0.083,0,0.149,0.066,0.149,0.149
			S8.018,2.699,7.935,2.699z"/>
		<path fill="none" d="M6.434,8.008c0,1.01,0.643,1.975,1.721,2.582l0.167,0.094l-0.016,0.191c-0.043,0.535-0.164,1.028-0.368,1.495
			c0.678-0.369,1.255-0.751,1.72-1.139l0.102-0.084l0.131,0.019c0.149,0.021,0.292,0.033,0.433,0.043V4.806
			C8.149,4.937,6.434,6.32,6.434,8.008z"/>
		<path fill="none" d="M14.879,8.008c0-1.705-1.753-3.1-3.957-3.204v6.408C13.126,11.106,14.879,9.712,14.879,8.008z"/>
		<path fill="none" d="M3.122,15.169c0,0.417,0.336,0.731,0.768,0.731h5.689c0.431,0,0.743-0.314,0.743-0.731V14.1h-7.2V15.169z"/>
		<path d="M9.759,11.147l-0.102,0.084c-0.465,0.388-1.042,0.77-1.72,1.139c0.204-0.467,0.325-0.96,0.368-1.495l0.016-0.191
			L8.154,10.59C7.076,9.982,6.434,9.018,6.434,8.008c0-1.688,1.716-3.071,3.889-3.202v-0.6C7.819,4.343,5.834,5.993,5.834,8.008
			c0,1.172,0.69,2.283,1.855,3.004c-0.061,0.494-0.199,0.946-0.426,1.375C7.179,12.55,7.078,12.791,7.2,12.993
			c0.07,0.115,0.193,0.183,0.338,0.183c0.108,0,0.227-0.036,0.375-0.112c0.809-0.42,1.473-0.841,2.025-1.287
			c0.131,0.017,0.258,0.027,0.384,0.035v-0.603c-0.141-0.01-0.283-0.022-0.433-0.043L9.759,11.147z"/>
		<path d="M15.479,8.008c0-2.033-2.021-3.695-4.557-3.805v0.601c2.204,0.104,3.957,1.499,3.957,3.204
			c0,1.704-1.753,3.099-3.957,3.204v0.6C13.458,11.701,15.479,10.04,15.479,8.008z"/>
		<path d="M3.122,2.831C3.122,2.414,3.458,2.1,3.89,2.1h5.689c0.444,0,0.743,0.285,0.743,0.693V3.3h0.6V2.793
			c0-0.737-0.57-1.293-1.343-1.293H3.89c-0.76,0-1.368,0.585-1.368,1.331V3.3h0.601V2.831z"/>
		<path d="M10.322,15.169c0,0.417-0.313,0.731-0.743,0.731H3.89c-0.432,0-0.768-0.314-0.768-0.731V14.1H2.521v1.069
			c0,0.746,0.608,1.331,1.368,1.331h5.689c0.76,0,1.343-0.585,1.343-1.331V14.1h-0.6V15.169z"/>
		<rect x="3.122" y="3.3" width="7.2" height="0.601"/>
		<rect x="3.122" y="13.5" width="7.2" height="0.6"/>
		<path d="M10.322,11.812V13.5v0.6h0.6v-2.288c-0.089,0.003-0.176,0.01-0.265,0.01C10.546,11.821,10.435,11.818,10.322,11.812z"/>
		<polygon points="3.122,13.5 3.122,3.9 3.122,3.3 2.521,3.3 2.521,14.1 3.122,14.1 		"/>
		<path d="M10.322,3.9v0.306c0.111-0.007,0.222-0.014,0.335-0.014c0.089,0,0.176,0.007,0.265,0.011V3.3h-0.6V3.9z"/>
		<path d="M10.657,11.222c-0.111,0-0.223-0.005-0.335-0.013v0.603c0.112,0.007,0.224,0.01,0.335,0.01
			c0.089,0,0.176-0.007,0.265-0.01v-0.6C10.834,11.216,10.746,11.222,10.657,11.222z"/>
		<path d="M10.322,4.206v0.6c0.11-0.007,0.222-0.013,0.335-0.013c0.089,0,0.177,0.006,0.265,0.011V4.203
			c-0.089-0.004-0.176-0.011-0.265-0.011C10.544,4.192,10.434,4.199,10.322,4.206z"/>
		<path d="M7.935,2.4h-2.4c-0.083,0-0.149,0.066-0.149,0.149s0.066,0.149,0.149,0.149h2.4c0.083,0,0.149-0.066,0.149-0.149
			S8.018,2.4,7.935,2.4z"/>
	</g>
</g>
</svg>
