<?xml version="1.0" encoding="utf-8"?>
<!-- Generator: Adobe Illustrator 23.0.3, SVG Export Plug-In . SVG Version: 6.00 Build 0)  -->
<svg version="1.1" id="圖層_1" xmlns="http://www.w3.org/2000/svg" xmlns:xlink="http://www.w3.org/1999/xlink" x="0px" y="0px"
	 viewBox="0 0 878.4 123" style="enable-background:new 0 0 878.4 123;" xml:space="preserve">
<style type="text/css">
	.st0{fill:#FFD400;}
	.st1{fill:#FFFFFF;}
	.st2{fill:#00BAB3;}
</style>
<g>
	<polygon class="st0" points="82.3,58.2 86.6,52 106.1,52 112.1,44 92.1,44 98.4,34.8 87.3,34.8 81,44 50.6,44 56.8,35.2 45.9,35.2 
		39.8,44 23.7,44 17.7,52 34.3,52 8.6,89.2 19.5,89.2 38.8,60.7 55.4,78.2 60.8,70.3 44.3,52.9 44.9,52 75.5,52 50.3,88.8 
		61.2,88.8 76.9,66.1 99.2,88.8 112.4,88.8 	"/>
	<path class="st0" d="M78.7,89.3c-0.4,0.2-0.6,0.6-0.6,1.1v27.9c0,0.7,0.9,1.3,1.6,1.3s1.4-0.6,1.4-1.3V93.8L98.2,104l-12.9,8.2
		c-0.6,0.4-0.9,1.6-0.5,2.1c0.4,0.6,1.6,0.9,2.2,0.5l15.5-10c0.4-0.2,0.6-0.7,0.6-1.1s-0.2-0.8-0.6-1.1L80,89.3
		C79.6,89.1,79.1,89.1,78.7,89.3L78.7,89.3z"/>
	<g>
		<path class="st0" d="M60.9,122.6c-8.2,0-16.2-1.6-23.7-4.8c-7.2-3.1-13.7-7.4-19.3-13S8,92.7,4.9,85.4C1.7,77.9,0.1,70,0.1,61.8
			s1.6-16.2,4.8-23.7c3.1-7.2,7.4-13.7,13-19.3s12.1-10,19.3-13C44.7,2.6,52.7,1,60.9,1s16.2,1.6,23.7,4.8c7.2,3.1,13.7,7.4,19.3,13
			s10,12.1,13,19.3c3.2,7.5,4.8,15.5,4.8,23.7c0,14.9-5.4,29.2-15.3,40.3c-0.3,0.4-0.9,0.4-1.3,0.1s-0.4-0.9-0.1-1.3
			c9.5-10.8,14.8-24.6,14.8-39C119.8,29.4,93.4,3,60.9,3S2,29.3,2,61.8s26.4,58.9,58.9,58.9c3.9,0,7.7-0.4,11.5-1.1
			c0.5-0.1,1,0.2,1.1,0.7s-0.2,1-0.7,1.1C68.9,122.2,64.9,122.6,60.9,122.6z"/>
	</g>
</g>
<g>
	<path class="st0" d="M172.6,53.5c1.9,10.2,8.7,20,23.8,25.6l-0.1,0.7c-4.1,0.8-6.5,3.5-7.2,8.2c-11.7-7.5-15.8-21.2-17.2-32.4
		c-1.8,13.5-7.5,24.7-28.4,32.4l-0.4-0.7c15.2-9.8,19.3-20.9,20.4-33.7H144l-0.4-1.6h20c0.3-5.3,0.3-10.9,0.3-16.8l11.1,1
		c-0.2,0.9-0.7,1.4-2.1,1.6c-0.1,4.9-0.2,9.7-0.6,14.2h10.8l4.6-5.9c0,0,5.2,3.9,8.3,6.5c-0.2,0.6-0.8,0.9-1.7,0.9
		C194.3,53.5,172.6,53.5,172.6,53.5z"/>
	<path class="st0" d="M228.5,53.5c1.9,10.2,8.7,20,23.8,25.6l-0.1,0.7c-4.1,0.8-6.5,3.5-7.2,8.2c-11.7-7.5-15.8-21.2-17.2-32.4
		c-1.8,13.5-7.5,24.7-28.4,32.4l-0.4-0.7c15.2-9.8,19.3-20.9,20.4-33.7H200l-0.4-1.6h20c0.3-5.3,0.3-10.9,0.3-16.8l11.1,1
		c-0.2,0.9-0.7,1.4-2.1,1.6c-0.1,4.9-0.2,9.7-0.6,14.2H239l4.6-5.9c0,0,5.2,3.9,8.3,6.5c-0.2,0.6-0.8,0.9-1.7,0.9
		C250.2,53.5,228.5,53.5,228.5,53.5z"/>
	<path class="st0" d="M271.8,42.5c0,0,3.2,2.5,5,4.3c-0.1,0.6-0.7,0.9-1.5,0.9h-19.8l-0.4-1.6h14L271.8,42.5z M267.8,53.2l2.6-3.5
		c0,0,3,2.4,4.7,4.1c-0.1,0.6-0.7,0.9-1.5,0.9h-16.3l-0.4-1.6L267.8,53.2L267.8,53.2z M257.4,62l-0.4-1.6h10.8l2.6-3.5
		c0,0,3,2.4,4.7,4.1c-0.1,0.6-0.7,0.9-1.5,0.9L257.4,62L257.4,62z M273.8,82.8c-0.1,0.5-3.4,2-5.7,2h-1.2v-2.9h-3v3.6
		c0,0.6-2.9,2.1-5.8,2.1h-0.9V64.9l6.9,2.7h2.3l3-3.2l6.1,4.6c-0.3,0.3-0.9,0.8-1.8,0.9v12.9H273.8z M259.2,36.3
		c16.3-0.6,10.1,12.2,3.2,7.7c-0.4-2.7-2-5.6-3.6-7.4L259.2,36.3z M266.9,80.3V69.2h-3v11.1C263.9,80.3,266.9,80.3,266.9,80.3z
		 M295,66.4c2.9,4.8,8.1,8.4,13.2,10.1l-0.1,0.6c-2.7,0.7-4.6,3.1-5.6,6.9c-4.5-3.7-6.9-9.2-8.5-16.6v18.8c-0.1,0.4-2.2,1.9-5.8,1.9
		H287V73.8c-3.2,4.3-7.5,7.8-12.9,10.6l-0.5-0.7c4.6-4.5,7.7-10.8,9.3-17.3h-7.7l-0.4-1.6H287v-6h-2.7v0.7c0,0.5-2.1,2-5.5,2h-1.2
		V36.1l7.4,2.8h11l3.2-3.5l6.6,5.1c-0.3,0.4-1.1,0.9-2.2,1.2v17.5c-0.1,0.2-0.6,0.4-1.4,0.7c0.7,0.6,4.1,3.6,6.1,5.6
		c-0.2,0.6-0.7,0.9-1.5,0.9H295z M284.3,40.5V48h3.2v-7.5H284.3z M284.3,57.3h3.2v-7.7h-3.2V57.3z M293.6,40.5V48h3v-7.5H293.6z
		 M296.6,49.6h-3v7.7h3V49.6z M294.1,58.8v6h4.4l3.4-4.9c-1.2,0.4-2.8,0.8-4.1,0.8h-1.2v-1.9H294.1z"/>
	<path class="st0" d="M325.9,57.5c13.7,5.3,7,15.8,1.7,10.7c-0.1-2.7-0.8-5.6-1.7-8.2v25.9c0,0.4-2.4,2.1-6.1,2.1h-1.4V70.2
		c-2.1,3-4.7,5.7-7.5,8.1l-0.6-0.6c3.7-6.2,6.1-15,7.4-23.1h-6.5l-0.4-1.6h7.8v-8.9c-2.5,0.3-5.1,0.5-7.5,0.6l-0.2-0.6
		c5.4-2.3,12-6.5,15.2-9.4l8.4,7.2c-0.8,0.6-2.1,0.7-4,0.1c-1.3,0.3-2.7,0.6-4.4,0.9v9.2l2.6-3.9c0,0,3.6,3.2,5.6,5.3
		c-0.2,0.6-0.7,0.9-1.5,0.9H326v3.1H325.9z M358.1,78.6c0,0,3.9,3.3,6.1,5.5c-0.2,0.6-0.7,0.9-1.6,0.9h-32.4l-0.4-1.6H343V73h-8.8
		l-0.4-1.6h9.2v-9.8h-9.7l-0.4-1.6h21l3.4-4.7c0,0,3.8,3.2,6,5.4c-0.1,0.6-0.7,0.9-1.5,0.9h-11.2v9.8h1.7l3.5-4.8
		c0,0,4.1,3.2,6.4,5.5c-0.2,0.6-0.7,0.9-1.6,0.9h-10.1v10.4h4.2L358.1,78.6z M342.1,54.9c0,0.7-3.2,2.3-6.3,2.3h-1.1V36.6l7.6,2.9
		h9.3l3.4-3.6l7,5.3c-0.3,0.4-1.1,0.9-2.2,1.2v11.5c-0.1,0.4-3.8,1.7-6.3,1.7h-1.3v-2.1h-10.1V54.9z M342.1,41v10.7h10.1V41H342.1z"
		/>
</g>
<g>
	<polygon class="st1" points="389.2,81.3 405.7,64.8 389.2,48.4 391.6,46 408,62.5 424.5,46 426.8,48.3 410.4,64.8 426.8,81.3 
		424.5,83.6 408,67.1 391.6,83.6 	"/>
</g>
<g>
	<g>
		<path class="st2" d="M543,22.7h-15.5l-10.6,18.5c-1.9-2.7-4.3-5-7.3-6.7c-11-6.3-25.1-2.5-31.4,8.5l-26.3,45.9l15.6,0L493.8,43
			l0,0c2.6-4.5,8.4-6.1,13-3.5c2.2,1.3,3.8,3.3,4.4,5.8c0.7,2.5,0.3,5-0.9,7.2l-20.8,36.4l14.8,0l0.7,0l0,0h0l0.3-0.5l37.5-65.2
			L543,22.7z"/>
		<path class="st2" d="M530.4,57.7l-17.8,31.2h0l0,0l15.5,0l0,0h0l6-10.5l12.2-21.2c2.8-4.2,8.3-5.5,12.8-3c2.2,1.3,3.8,3.3,4.4,5.8
			c0.7,2.5,0.3,5-0.9,7.2l-12.3,21.6l15.5,0l4.6-8.2c6.3-11,2.5-25.1-8.5-31.4c-2.9-1.7-6-2.7-9.3-3l13.3-23.1l0.3-0.5h-15.5
			L531.5,56C531.1,56.5,530.8,57.1,530.4,57.7z"/>
		<path class="st2" d="M588,27.8c-0.4-0.7-1.1-1.5-1.9-2.4c-0.9-0.9-1.7-1.6-2.4-1.9c-0.8-0.5-1.7-0.7-2.6-0.7
			c-0.9,0-1.8,0.2-2.6,0.7c-0.7,0.4-1.5,1.1-2.4,1.9c-0.9,0.9-1.6,1.7-1.9,2.4c-0.5,0.8-0.7,1.7-0.7,2.6c0,0.9,0.2,1.8,0.7,2.6
			c0.4,0.7,1.1,1.5,1.9,2.4c0.9,0.9,1.7,1.6,2.4,1.9c0.8,0.5,1.7,0.7,2.6,0.7c0.9,0,1.8-0.2,2.6-0.7c0.7-0.4,1.5-1.1,2.4-1.9
			c0.9-0.9,1.6-1.7,1.9-2.4c0.5-0.8,0.7-1.7,0.7-2.6C588.7,29.4,588.5,28.5,588,27.8z"/>
	</g>
	<g>
		<path class="st2" d="M656.3,57.2c0-8.3-7-14.4-15.7-14.4c-4.1,0-8,1.6-10.9,4.4c-2.5,2.4-4.5,6.3-4.5,10.1h9.2
			c0.5-1.6,1.4-2.7,2.1-3.4c1.1-1,2.5-1.6,4.1-1.6c3.1,0,5.6,2.2,5.6,5c0,1.4-0.7,2.6-1.8,3.7l-19.3,18.6v0v6.1v2.9h3.1h0.5h27.1
			l0-9h-16.4l11.5-11C654.2,65.4,656.3,61.5,656.3,57.2z"/>
		<path class="st2" d="M779.9,58.4c-3.7,0-7.2,1.8-9.4,4.7v-4.7H768v30.2h2.5V70.3c0-5.2,4.2-9.4,9.4-9.4s9.4,4.2,9.4,9.4v18.2h2.5
			V70.3C791.8,63.8,786.5,58.4,779.9,58.4z"/>
		<rect x="734.9" y="58.4" class="st2" width="2.5" height="30.2"/>
		<path class="st2" d="M846.3,72.6c-0.1-0.1-1.4-0.6-4-1.2c-2.2-0.5-3.5-1.2-3.7-1.3c-1.9-1.2-2.8-2.7-2.8-4.5
			c0-2.9,3.1-5.2,6.8-5.2c2.9,0,5.5,1.4,6.5,3.5l0.2,0.4l2.3-1l-0.2-0.4c-1.4-3-4.9-5-8.8-5c-5.2,0-9.4,3.5-9.4,7.7
			c0,2.7,1.3,5,4,6.6c0.2,0.1,1.7,1,4.4,1.6c2.3,0.6,3.5,1,3.7,1.1c2.7,1,4.4,3.2,4.4,5.5c0,3.3-3.4,5.9-7.6,5.9
			c-3.3,0-6.3-1.7-7.3-4.1l-0.2-0.4l-2.3,1l0.2,0.4c1.4,3.4,5.3,5.7,9.6,5.7c5.6,0,10.1-3.8,10.1-8.4
			C852.4,77.1,849.9,73.9,846.3,72.6z"/>
		<path class="st2" d="M871.4,72.6c-0.1-0.1-1.4-0.6-4-1.2c-2.2-0.5-3.5-1.2-3.7-1.3c-1.9-1.2-2.8-2.7-2.8-4.5
			c0-2.9,3.1-5.2,6.8-5.2c2.9,0,5.5,1.4,6.5,3.5l0.2,0.4l2.3-1l-0.2-0.4c-1.4-3-4.9-5-8.8-5c-5.2,0-9.4,3.5-9.4,7.7
			c0,2.7,1.3,5,4,6.6c0.2,0.1,1.7,1,4.4,1.6c2.3,0.6,3.5,1,3.7,1.1c2.7,1,4.4,3.2,4.4,5.5c0,3.3-3.4,5.9-7.6,5.9
			c-3.3,0-6.3-1.7-7.3-4.1l-0.2-0.4l-2.3,1l0.2,0.4c1.4,3.4,5.3,5.7,9.6,5.7c5.6,0,10.1-3.8,10.1-8.4
			C877.5,77.1,875.1,73.9,871.4,72.6z"/>
		<path class="st2" d="M759.6,85.4c-0.2,0.1-0.5,0.3-0.8,0.4c-0.5,0.2-1.1,0.3-1.7,0.3c-3,0-4.8-1.7-4.8-4.8V61.1h8.2v-2.5h-8.2v-8
			h-2.5v8h-6v2.5h6v20.2c0,4.4,2.9,7.3,7.3,7.3c0.9,0,1.8-0.2,2.6-0.5c0.4-0.2,0.8-0.3,1.2-0.6l0.4-0.2l-1.3-2.2L759.6,85.4z"/>
		<path class="st2" d="M726.8,42.6c0.6,0,1.1,0.1,1.7,0.3c0.3,0.1,0.5,0.2,0.8,0.4l0.4,0.2l1.3-2.2l-0.4-0.2
			c-0.4-0.2-0.8-0.4-1.2-0.6c-0.8-0.3-1.7-0.5-2.6-0.5c-4.4,0-7.3,2.9-7.3,7.3v11.2h-5.7v2.5h5.7v27.5h2.5V61.1h8v-2.5h-8V47.4
			C722,44.3,723.8,42.6,726.8,42.6z"/>
		<path class="st2" d="M736.2,50.5c-1.1,0-2,0.9-2,2c0,1.1,0.9,2,2,2c1.1,0,2-0.9,2-2C738.2,51.4,737.3,50.5,736.2,50.5z"/>
		<path class="st2" d="M812.8,57.9c-8.2,0-14.1,6.4-14.1,15.3s5.9,15.3,14.1,15.3c4.6,0,8.7-1.7,11.8-5l0.3-0.3l-1.8-1.7l-0.3,0.3
			c-2.6,2.7-6.1,4.2-10,4.2c-6.3,0-11-4.8-11.6-11.6H827v-1.3C827,64.3,821,57.9,812.8,57.9z M801.3,72c0.5-6.8,5.2-11.6,11.6-11.6
			c6.3,0,11,4.7,11.6,11.6H801.3z"/>
		<path class="st2" d="M685.4,56.7c-7.2-1.1-10.8,4.8-10.8,4.8v-5.8v-2.1V40.9h-10.2v47.6h10.2h0V70.1c0-2.8,2.3-5.1,5.1-5.1
			c2.8,0,5.1,2.3,5.1,5.1v18.4h9.9V70.9c0,0,0,0,0,0C694.5,63.2,691.9,57.8,685.4,56.7z"/>
	</g>
</g>
</svg>
