<?xml version="1.0" encoding="utf-8"?>
<!-- Generator: Adobe Illustrator 23.0.3, SVG Export Plug-In . SVG Version: 6.00 Build 0)  -->
<svg version="1.1" id="圖層_1" xmlns="http://www.w3.org/2000/svg" xmlns:xlink="http://www.w3.org/1999/xlink" x="0px" y="0px"
	 viewBox="0 0 200.6 186" style="enable-background:new 0 0 200.6 186;" xml:space="preserve">
<style type="text/css">
	.st0{display:none;fill:#262625;}
	.st1{display:none;}
	.st2{display:inline;}
	.st3{fill:#FFFFFF;}
	.st4{display:inline;fill:#FFFFFF;}
	.st5{fill:none;}
	.st6{fill:none;stroke:#FFFFFF;stroke-width:6.0043;}
	.st7{display:inline;fill:none;stroke:#FFFFFF;stroke-width:6.0043;}
	.st8{fill:none;stroke:#FFFFFF;stroke-width:5.0036;}
	.st9{font-family:'SegoeUI';}
	.st10{font-size:22.0159px;}
	.st11{display:inline;fill:none;stroke:#FFFFFF;stroke-width:1.0007;}
	.st12{display:inline;fill:#00BAB3;}
	.st13{fill:#00BAB3;}
</style>
<rect x="-43.2" y="-39.5" class="st0" width="343" height="229"/>
<g id="Group_1217" transform="translate(-787.263 -68.227)" class="st1">
	<g id="Group_1217-2" transform="translate(805.597 76.128)" class="st2">
		<path id="Path_1331" class="st3" d="M18.7,32.5c-0.8,0-1.4,0.6-1.4,1.4l0,0v7.2c0,0.8,0.6,1.5,1.4,1.5c0.8,0,1.5-0.6,1.5-1.4l0,0
			V34C20.2,33.2,19.5,32.5,18.7,32.5z"/>
		<path id="Path_1332" class="st3" d="M26,26.6c-0.8,0-1.4,0.6-1.4,1.4v20.1c0,0.8,0.6,1.5,1.5,1.5s1.5-0.6,1.5-1.5l0,0v-20
			C27.4,27.3,26.8,26.6,26,26.6z"/>
		<path id="Path_1333" class="st3" d="M33.2,16.6c-0.8,0-1.4,0.6-1.4,1.4l0,0v40.6c0,0.8,0.6,1.5,1.4,1.5c0.8,0,1.5-0.6,1.5-1.4l0,0
			V18C34.7,17.2,34,16.6,33.2,16.6z"/>
		<path id="Path_1334" class="st3" d="M40.5,23.8c-0.8,0-1.4,0.6-1.4,1.4l0,0v24.7c0,0.8,0.6,1.5,1.5,1.5s1.5-0.6,1.5-1.5V25.3
			C41.9,24.5,41.3,23.8,40.5,23.8L40.5,23.8z"/>
		<path id="Path_1335" class="st3" d="M62.3,20.3c-0.8,0-1.4,0.6-1.4,1.4l0,0v32.6c0,0.8,0.7,1.4,1.5,1.4s1.4-0.6,1.4-1.4V21.8
			C63.8,21,63.1,20.3,62.3,20.3z"/>
		<path id="Path_1336" class="st3" d="M76.7,22.4c-0.8,0-1.4,0.6-1.4,1.4v29c0,0.8,0.6,1.4,1.5,1.4c0.8,0,1.4-0.6,1.4-1.4v-29
			C78.2,23,77.5,22.4,76.7,22.4L76.7,22.4z"/>
		<path id="Path_1337" class="st3" d="M84,29.6c-0.8,0-1.4,0.6-1.4,1.4v14.5c0,0.8,0.6,1.4,1.5,1.4c0.8,0,1.4-0.6,1.4-1.4l0,0V31.1
			C85.4,30.3,84.8,29.6,84,29.6L84,29.6z"/>
		<path id="Path_1338" class="st3" d="M69.4,10.8c-0.8,0-1.4,0.6-1.4,1.4l0,0v52.2c0,0.8,0.6,1.5,1.4,1.5s1.5-0.6,1.5-1.4l0,0V12.2
			C70.9,11.4,70.2,10.8,69.4,10.8L69.4,10.8z"/>
		<path id="Path_1339" class="st3" d="M47.7,34c-0.8,0-1.4,0.6-1.4,1.4l0,0v5.8c0,0.8,0.6,1.5,1.4,1.5s1.5-0.6,1.5-1.4l0,0v-5.8
			C49.2,34.6,48.5,34,47.7,34z"/>
		<path id="Path_1340" class="st3" d="M91.2,33.5c-0.8,0-1.4,0.6-1.4,1.4v6.3c0,0.8,0.6,1.4,1.4,1.4s1.5-0.6,1.5-1.4l0,0V35
			C92.7,34.2,92,33.5,91.2,33.5L91.2,33.5z"/>
		<path id="Path_1341" class="st3" d="M54.8,30.7c-0.8,0-1.4,0.6-1.4,1.4l0,0V44c0,0.8,0.6,1.5,1.4,1.5s1.5-0.6,1.5-1.4l0,0V32.2
			C56.3,31.4,55.6,30.7,54.8,30.7z"/>
	</g>
	<g id="Group_1218" transform="translate(833.86 123.432)" class="st2">
		<path id="Path_1342" class="st3" d="M47.8,81.2c-0.8,0-1.4,0.6-1.4,1.4v7.2c0,0.8,0.6,1.4,1.5,1.4c0.8,0,1.4-0.6,1.4-1.4l0,0v-7.2
			C49.2,81.8,48.6,81.2,47.8,81.2L47.8,81.2z"/>
		<path id="Path_1343" class="st3" d="M55,75.2c-0.8,0-1.4,0.6-1.4,1.4v20.1c0,0.8,0.6,1.5,1.5,1.5c0.8,0,1.5-0.6,1.5-1.5v-20
			C56.5,75.9,55.8,75.2,55,75.2L55,75.2z"/>
		<path id="Path_1344" class="st3" d="M62.3,65.2c-0.8,0-1.4,0.6-1.4,1.4v40.6c0,0.8,0.6,1.5,1.5,1.5c0.8,0,1.5-0.6,1.5-1.5l0,0
			V66.7C63.7,65.9,63.1,65.2,62.3,65.2L62.3,65.2z"/>
		<path id="Path_1345" class="st3" d="M69.5,72.5c-0.8,0-1.4,0.6-1.4,1.4v24.7c0,0.8,0.6,1.5,1.5,1.5c0.8,0,1.5-0.6,1.5-1.5V73.9
			C71,73.1,70.3,72.5,69.5,72.5L69.5,72.5z"/>
		<path id="Path_1346" class="st3" d="M91.4,69c-0.8,0-1.4,0.6-1.4,1.4V103c0,0.8,0.6,1.4,1.5,1.4c0.8,0,1.4-0.6,1.4-1.4l0,0V70.4
			C92.8,69.6,92.2,69,91.4,69L91.4,69z"/>
		<path id="Path_1347" class="st3" d="M105.8,71c-0.8,0-1.4,0.6-1.4,1.4v29c0,0.8,0.6,1.4,1.5,1.4c0.8,0,1.4-0.6,1.4-1.4l0,0v-29
			C107.2,71.7,106.6,71,105.8,71L105.8,71z"/>
		<path id="Path_1348" class="st3" d="M113,78.3c-0.8,0-1.4,0.6-1.4,1.4v14.5c0,0.8,0.6,1.4,1.5,1.4c0.8,0,1.4-0.6,1.4-1.4l0,0V79.7
			C114.5,78.9,113.8,78.3,113,78.3L113,78.3z"/>
		<path id="Path_1349" class="st3" d="M98.5,59.4c-0.8,0-1.4,0.6-1.4,1.4V113c0,0.8,0.6,1.4,1.5,1.4c0.8,0,1.4-0.6,1.4-1.4l0,0V60.9
			C99.9,60.1,99.3,59.4,98.5,59.4L98.5,59.4z"/>
		<path id="Path_1350" class="st3" d="M76.8,82.6c-0.8,0-1.4,0.6-1.4,1.4v5.8c0,0.8,0.6,1.4,1.5,1.4c0.8,0,1.4-0.6,1.4-1.4l0,0V84
			C78.2,83.3,77.6,82.6,76.8,82.6z"/>
		<path id="Path_1351" class="st3" d="M120.3,82.1c-0.8,0-1.4,0.6-1.4,1.4v6.3c0,0.8,0.6,1.4,1.4,1.4c0.8,0,1.5-0.6,1.5-1.4v-6.3
			C121.7,82.8,121.1,82.1,120.3,82.1L120.3,82.1z"/>
		<path id="Path_1352" class="st3" d="M83.9,79.4c-0.8,0-1.4,0.6-1.4,1.4v11.8c0,0.8,0.6,1.4,1.5,1.4c0.8,0,1.4-0.6,1.4-1.4l0,0
			V80.8C85.3,80,84.7,79.4,83.9,79.4L83.9,79.4z"/>
	</g>
	<path id="Path_1353" class="st4" d="M939,132.8v-3.1c-5.3-0.6-9.1-3.6-9.1-10.7v-13.2c0-8,4.8-10.9,11.1-10.9s11.2,2.9,11.2,10.9
		V119c0,7.1-3.9,10.2-9.2,10.7v3.1c0,1-0.8,1.9-1.8,1.9c-0.1,0-0.1,0-0.2,0C939.9,134.7,939.1,133.9,939,132.8
		C939,132.9,939,132.9,939,132.8L939,132.8z M946,105.8c0-3.7-1.9-5.5-5-5.5s-4.9,1.8-4.9,5.5V119c0,2.8,1,4.5,2.9,5.1v-2.5
		c0-1,0.8-1.9,1.8-1.9c0.1,0,0.2,0,0.2,0c1-0.1,1.9,0.7,1.9,1.6c0,0.1,0,0.2,0,0.3v2.5c2.1-0.8,3.3-2.9,3-5.1L946,105.8z"/>
	<path id="Path_1354" class="st4" d="M847.2,222.2l-9.2-29.9c-0.4-1.4-2.2-2.1-4-2.1c-1.6-0.2-3.2,0.6-3.9,2.1l-9.2,29.9
		c0,0.2-0.1,0.3-0.1,0.5c0,1.5,2.2,2.6,3.9,2.6c1,0,1.9-0.3,2.1-1.2l1.8-6.3h10.9l1.8,6.3c0.2,0.9,1,1.2,2.1,1.2
		c1.7,0,3.9-1.1,3.9-2.6C847.3,222.5,847.2,222.3,847.2,222.2L847.2,222.2z M829.9,212.8l4.1-14.6l4.1,14.6H829.9z"/>
	<path id="Path_1355" class="st4" d="M986.9,108.8l-14.7-8.5V82.5c0-6.4-5.2-11.6-11.6-11.6H843c-1.7,0-3,1.3-3,3s1.3,3,3,3h65.7
		v72.6h-93.9c-3.1,0-5.6-2.5-5.6-5.6V82.5c0-3.1,2.5-5.6,5.6-5.6H831c1.7,0,3-1.3,3-3s-1.3-3-3-3h-16.2c-6.4,0-11.6,5.2-11.6,11.6
		v61.4c0,6.4,5.2,11.6,11.6,11.6h145.8c6.4,0,11.6-5.2,11.6-11.6v-17.8l14.7-8.5c2.4-1.4,3.2-4.5,1.9-6.9
		C988.3,109.9,987.7,109.2,986.9,108.8z M967.7,121.7c-0.9,0.5-1.5,1.5-1.5,2.6v19.5c0,3.1-2.5,5.6-5.6,5.6h-46V76.9h46
		c3.1,0,5.6,2.5,5.6,5.6V102c0,1.1,0.6,2.1,1.5,2.6l14.8,8.5L967.7,121.7z"/>
	<path id="Path_1356" class="st4" d="M960.3,167h-59c-1.7,0-3,1.4-3,3c0,1.7,1.3,3,3,3h59c3.1,0,5.6,2.5,5.6,5.6V240
		c0,3.1-2.5,5.6-5.6,5.6h-93.9V173h22.9c1.7,0,3-1.3,3-3s-1.3-3-3-3l0,0h-74.9c-6.4,0-11.6,5.2-11.6,11.6v17.8l-14.7,8.5
		c-2.4,1.4-3.2,4.5-1.8,6.9c0.4,0.8,1.1,1.4,1.8,1.8l14.7,8.5V240c0,6.4,5.2,11.6,11.6,11.6h145.9c6.4,0,11.6-5.2,11.6-11.6v-61.4
		C971.9,172.2,966.7,167,960.3,167L960.3,167z M808.9,240v-19.6c0-1.1-0.6-2.1-1.5-2.6l-14.8-8.5l14.8-8.5c0.9-0.5,1.5-1.5,1.5-2.6
		v-19.5c0-3.1,2.5-5.6,5.6-5.6h46v72.6h-46C811.4,245.6,808.9,243.1,808.9,240L808.9,240z"/>
</g>
<g class="st1">
	<path id="Path_256" class="st4" d="M167.1,61.1V32h-11.6V3H21.9v165.5c0,8,6.5,14.5,14.5,14.5h127.7c8,0,14.5-6.5,14.5-14.5V61.1
		H167.1z M36.4,177.2c-4.8,0-8.7-3.9-8.7-8.7V8.8h121.9v159.7c0,3.1,1,6.2,2.9,8.7H36.4z M172.9,168.5c-0.1,4.8-4.2,8.6-9,8.4
		c-4.6-0.1-8.3-3.8-8.4-8.4V37.8h5.8v121.9h5.8V66.9h5.8L172.9,168.5z"/>
	<path id="Path_257" class="st4" d="M161.3,165.6h5.8v5.8h-5.8V165.6z"/>
	<g id="Group_1228" transform="translate(-1229 -4747)" class="st2">
		<path id="Path_261" class="st3" d="M1338,4763.8h34.8v6.7H1338V4763.8z"/>
		<path id="Path_262" class="st3" d="M1338,4777.1h5.8v6.7h-5.8V4777.1z"/>
		<path id="Path_263" class="st3" d="M1349.6,4777.1h23.2v6.7h-23.2V4777.1z"/>
		<path id="Path_264" class="st3" d="M1338,4788.3h34.8v7.7H1338V4788.3z"/>
		<path id="Path_265" class="st3" d="M1282.6,4830h47.7v8h-47.7V4830z"/>
		<path id="Path_266" class="st3" d="M1282.6,4845.9h31.8v8h-31.8V4845.9z"/>
		<path id="Path_267" class="st3" d="M1322.4,4845.9h8v8h-8V4845.9z"/>
		<path id="Path_269" class="st3" d="M1262.5,4905.5h107.4v7.1h-107.4V4905.5z"/>
		<path id="Path_270" class="st3" d="M1262.5,4891.4h107.4v7.1h-107.4V4891.4z"/>
		<path id="Path_271" class="st3" d="M1262.5,4877.3h37v7.1h-37V4877.3z"/>
		<path id="Path_273" class="st3" d="M1306.8,4877.3h63.1v7.1h-63.1V4877.3z"/>
		<path id="Path_272" class="st3" d="M1262.5,4863.2h107.4v7.1h-107.4V4863.2z"/>
	</g>
	<g id="Rectangle_110" transform="translate(6.035 6.035)" class="st2">
		<rect x="28" y="9" class="st5" width="67.4" height="53.3"/>
		<rect x="31" y="12" class="st6" width="61.4" height="47.3"/>
	</g>
	<path id="Path_274" class="st7" d="M36.4,48.5c1.3,1.1,2.7,2,4.3,2.5c3.7,1.5,8,0.5,10.7-2.5c8.2-8.2,10.2-11.9,10.2-11.9
		s7.2-10.7,14.7,1.4s17.1,11.5,21,4.7"/>
	<g id="Ellipse_2" transform="translate(43.249 35.202)" class="st2">
		<ellipse class="st5" cx="84.3" cy="57.4" rx="19.1" ry="19.1"/>
		<ellipse class="st8" cx="84.3" cy="57.4" rx="16.6" ry="16.6"/>
	</g>
	<text transform="matrix(1 0 0 1 121.7232 100.2656)" class="st4 st9 st10">$</text>
	<text transform="matrix(1 0 0 1 121.7232 100.2656)" class="st11 st9 st10">$</text>
</g>
<g class="st1">
	<path id="Path_645" class="st12" d="M75.2,150.3h50.1v21.5H75.2V150.3z"/>
	<path id="Path_646" class="st12" d="M82.4,37.9v45.7l45.7-22.9L82.4,37.9z"/>
	<path id="Path_647" class="st12" d="M39.4,179h121.8v7.2H39.4V179z"/>
	<path id="Path_648" class="st12" d="M186.3,14.2H14.3v93.1h171.9V14.2z M75.2,95.2V26.3l68.9,34.5L75.2,95.2z"/>
	<path id="Path_649" class="st12" d="M200.6,139.6V3.5c0-2-1.6-3.6-3.6-3.6H3.6C1.6-0.1,0,1.5,0,3.5c0,0,0,0,0,0v136.1
		c0,2,1.6,3.6,3.6,3.6c0,0,0,0,0,0H197C199,143.1,200.6,141.5,200.6,139.6z M32.2,132.4H14.3v-7.2h17.9L32.2,132.4z M43,136h-7.2
		v-14.3H43L43,136z M186.2,132.4H46.6v-7.2h139.7L186.2,132.4z M193.4,114.5H7.2V7h186.3L193.4,114.5z"/>
</g>
<g>
	<path id="Path_650" class="st13" d="M176.8,159.5V-0.1H50.4v6.7h116.4c1.8,0,3.3,1.5,3.3,3.3v149.7H176.8z"/>
	<path id="Path_651" class="st13" d="M163.5,172.8V13.2H37.1v6.7h83.2c0.9,0,1.7,0.4,2.4,1l33.3,33.3c0.6,0.6,1,1.5,1,2.4v116.4
		L163.5,172.8z"/>
	<path id="Path_652" class="st13" d="M145.5,53.1l-21.9-21.9v18.6c0,1.8,1.5,3.3,3.3,3.3l0,0L145.5,53.1z"/>
	<path id="Path_653" class="st13" d="M23.8,26.5v159.6h126.4V59.7h-23.3c-5.5,0-10-4.5-10-10V26.5H23.8z M70.4,56.4h33.3v6.7H70.4
		V56.4z M136.9,122.9H97v-6.7h39.9V122.9z M136.9,103H37.1v-6.7h99.8V103z M136.9,76.4V83H37.1v-6.7L136.9,76.4z"/>
</g>
<g class="st1">
	<path id="Path_1018" class="st12" d="M100.3,154.6c15.7,0,28.4-12.7,28.4-28.4c0-15.7-12.7-28.4-28.4-28.4
		c-15.7,0-28.4,12.7-28.4,28.4C71.9,141.8,84.6,154.5,100.3,154.6z M87.6,105.3l35.5,17.7l-35.5,17.7V105.3z"/>
	<path id="Path_1019" class="st12" d="M68.7,179.8c-3.4,0-6.8-1.1-9.5-3.2v0.1c0,5.2,4.2,9.5,9.5,9.5h63.1c5.2,0,9.5-4.2,9.5-9.5
		v-0.1c-2.7,2.1-6,3.2-9.5,3.2H68.7z"/>
	<path id="Path_1020" class="st12" d="M94,115.5v15l15-7.5L94,115.5z"/>
	<path id="Path_1021" class="st12" d="M8.7,123c0,11,8.1,20.3,18.9,21.8v-43.7C16.8,102.7,8.7,112,8.7,123z"/>
	<path id="Path_1022" class="st12" d="M43.4,94.6h-6.3c-1.7,0-3.2,1.4-3.2,3.2v50.5c0,1.7,1.4,3.2,3.2,3.2h6.3
		c5.2,0,9.5-4.2,9.5-9.5v-37.9C52.9,98.8,48.7,94.6,43.4,94.6z"/>
	<path id="Path_1023" class="st12" d="M131.8,53.6H68.7c-5.2,0-9.5,4.2-9.5,9.5v9.5h82.1V63C141.3,57.8,137.1,53.6,131.8,53.6z
		 M90.8,66.2h-6.3v-6.3h6.3V66.2z M116,66.2H97.1v-6.3H116V66.2z"/>
	<path id="Path_1024" class="st12" d="M172.9,101.2v43.7c12.1-1.7,20.5-12.8,18.8-24.9C190.3,110.2,182.6,102.5,172.9,101.2z"/>
	<path id="Path_1025" class="st12" d="M163.4,94.6h-6.3c-5.2,0-9.5,4.2-9.5,9.5v37.9c0,5.2,4.2,9.5,9.5,9.5h6.3
		c1.7,0,3.2-1.4,3.2-3.2V97.7C166.5,96,165.1,94.6,163.4,94.6z"/>
	<path id="Path_1026" class="st12" d="M59.2,104.1v60c0,5.2,4.2,9.5,9.5,9.5h63.1c5.2,0,9.5-4.2,9.5-9.5V78.8H59.2V104.1z
		 M100.3,91.4c19.2,0,34.7,15.6,34.7,34.7s-15.6,34.7-34.7,34.7s-34.7-15.6-34.7-34.7l0,0C65.6,107,81.1,91.4,100.3,91.4L100.3,91.4
		z"/>
	<path id="Path_1027" class="st12" d="M100.3,12.5c28.1,0,53.5,17,64.2,43c3-3.2,7.1-5.1,11.5-5.1C158.6,8.6,110.6-11.2,68.8,6.2
		c-20,8.3-35.9,24.2-44.2,44.2c4.4,0,8.6,1.9,11.5,5.1C46.8,29.5,72.1,12.5,100.3,12.5z"/>
	<path id="Path_1028" class="st12" d="M182.3,97.6V82c0-0.4,0-0.9,0-1.3c-4,1.8-8.6,1.8-12.6,0c0,0.5,0,0.9,0,1.4v8.8
		c1.2,1.1,2.1,2.4,2.6,4l1.4,0.2C176.8,95.4,179.6,96.3,182.3,97.6L182.3,97.6z"/>
	<path id="Path_1029" class="st12" d="M18.2,80.6c0,0.4,0,0.9,0,1.3v15.7c2.7-1.4,5.6-2.3,8.6-2.7l1.4-0.2c0.5-1.5,1.4-2.9,2.6-4V82
		c0-0.5,0-0.9,0-1.4C26.9,82.4,22.3,82.4,18.2,80.6L18.2,80.6z"/>
	<path id="Path_1030" class="st12" d="M171.2,74.3c4.5,2.7,10.3,1.2,13-3.3c2.7-4.5,1.2-10.3-3.3-13c-4.5-2.7-10.3-1.2-13,3.3
		c-0.9,1.5-1.4,3.2-1.3,4.9C166.6,69.5,168.3,72.6,171.2,74.3z M176,63c1.7,0,3.2,1.4,3.2,3.2c0,1.7-1.4,3.2-3.2,3.2
		c-1.7,0-3.2-1.4-3.2-3.2c0,0,0,0,0,0C172.9,64.4,174.3,63,176,63L176,63z"/>
	<path id="Path_1031" class="st12" d="M24.5,56.7c-5.2,0-9.5,4.2-9.5,9.5s4.2,9.5,9.5,9.5s9.5-4.2,9.5-9.5
		C34,61,29.7,56.7,24.5,56.7z M24.5,69.3c-1.7,0-3.2-1.4-3.2-3.2c0-1.7,1.4-3.2,3.2-3.2c1.7,0,3.2,1.4,3.2,3.2l0,0
		C27.7,67.9,26.3,69.3,24.5,69.3z"/>
</g>
</svg>
