<svg id="Group_2564" data-name="Group 2564" xmlns="http://www.w3.org/2000/svg" width="125.393" height="68.846" viewBox="0 0 125.393 68.846">
  <path id="Path_6460" data-name="Path 6460" d="M402.366,1236.484H403.9c0-.02,0-.039,0-.059v-2.45a2.373,2.373,0,0,1,2.366-2.366h44.179a2.373,2.373,0,0,1,2.366,2.366v2.45c0,.02,0,.039,0,.059h.879a2.373,2.373,0,0,1,2.366,2.366v.614a2.373,2.373,0,0,1-2.366,2.366h-51.32a2.373,2.373,0,0,1-2.366-2.366v-.614A2.373,2.373,0,0,1,402.366,1236.484Z" transform="translate(-330.658 -1172.984)" fill="#c1a986"/>
  <g id="Group_2563" data-name="Group 2563" transform="translate(0 0)">
    <path id="Path_6461" data-name="Path 6461" d="M658.252,682.615l1.324-.618a2.367,2.367,0,0,1,1.343-1.849l19.07-8.893a2.368,2.368,0,0,1,2.28.16l1.324-.617a2.373,2.373,0,0,1,3.144,1.144l.214.458a2.373,2.373,0,0,1-1.144,3.144l-25.342,11.817a2.373,2.373,0,0,1-3.144-1.144l-.214-.458A2.373,2.373,0,0,1,658.252,682.615Z" transform="translate(-588.622 -670.577)" fill="#c1a986"/>
    <path id="Path_6462" data-name="Path 6462" d="M524.655,969.114,550,957.3a2.373,2.373,0,0,1,3.144,1.144l.214.458a2.373,2.373,0,0,1-1.144,3.144l-1.324.618a2.368,2.368,0,0,1-1.343,1.849l-19.07,8.893a2.368,2.368,0,0,1-2.28-.16l-1.324.617a2.373,2.373,0,0,1-3.144-1.144l-.214-.458A2.373,2.373,0,0,1,524.655,969.114Z" transform="translate(-441.065 -927.139)" fill="#c1a986"/>
    <path id="Path_6463" data-name="Path 6463" d="M579.233,800.113a16.28,16.28,0,0,1,2.133-5.091l68.344-29.042a2.354,2.354,0,0,1,3.242-1.577l3.264-2.045a2.4,2.4,0,0,1,.371-.9l-1.357-2.909a2.363,2.363,0,0,1-.788-4.5l1.069-.5,1.149-.536,15.254-7.113,1.149-.536,1.069-.5a2.363,2.363,0,0,1,2.938,3.494l6.458,13.85a2.369,2.369,0,0,1,1.932,1.352h0a2.373,2.373,0,0,1-1.144,3.144l-1.069.5-1.149.536-15.254,7.113-1.149.536-1.069.5a2.373,2.373,0,0,1-3.144-1.144h0a2.369,2.369,0,0,1,.206-2.349l-1.356-2.909a2.4,2.4,0,0,1-.931-.3l-3.664,1.186a2.355,2.355,0,0,1-3.292,1.47l-66.178,33.687a9.848,9.848,0,0,1-6.84-2.93l-.214-.458A2.364,2.364,0,0,1,579.233,800.113Z" transform="translate(-578.994 -736.907)" fill="#c1a986"/>
  </g>
</svg>
