<svg xmlns="http://www.w3.org/2000/svg" width="127.538" height="110.844" viewBox="0 0 127.538 110.844">
  <path id="Path_6459" data-name="Path 6459" d="M-106.28,171.938a15.7,15.7,0,0,0,2.919-1.311l-.731-2.01c-8.133,2.559-11.33,1.736-17.179-1.553s-10.417-4.843-15.625-1.828-6.763,1.37-6.763,1.37v-3.289c-2.261-.274-1.8-6.876-1.8-6.876l1.713-1.805V153.22l-2.65-2.061-2.65,2.061v1.416l1.713,1.805s.457,6.6-1.8,6.876v3.289s-1.553,1.645-6.762-1.37-9.777-1.462-15.626,1.828-9.046,4.112-17.179,1.553l-.731,2.01a15.7,15.7,0,0,0,2.919,1.311l-23.649,53.012V225c.993,7.667,11.556,13.7,24.453,13.7s23.461-6.036,24.453-13.7l-.01-.05-23.4-52.466a20.8,20.8,0,0,0,13.047-1.035c9.959-4.112,16.357-2.924,21.473,2.193l-.182,2.376s1.919.091,1.37,2.923c0,0-1.736,1.553-1.553,2.924s1.1,42.033,1.1,42.033l.091,20.56s0,1.736-1.188,1.828v5.756h-12.075a5.7,5.7,0,0,0-4.033,1.671l-2.441,2.441h-3.473A5.848,5.848,0,0,0-178.38,262h63.963a5.849,5.849,0,0,0-5.848-5.848h-3.472l-2.442-2.441a5.7,5.7,0,0,0-4.033-1.671h-12.075v-5.756c-1.188-.091-1.188-1.828-1.188-1.828l.091-20.56s.914-40.662,1.1-42.033-1.553-2.924-1.553-2.924c-.548-2.832,1.371-2.923,1.371-2.923l-.183-2.376c5.117-5.117,11.514-6.305,21.473-2.193a20.807,20.807,0,0,0,13.048,1.035l-23.4,52.466-.01.05c.993,7.667,11.556,13.7,24.453,13.7s23.461-6.036,24.453-13.7v-.05ZM-186.422,224.9H-208.6l22.177-49.6Zm23.593,0H-184.96v-49.5Zm54.991,0h-22.131l22.131-49.5Zm1.462,0V175.3L-84.2,224.9Z" transform="translate(210.168 -151.159)" fill="#c1a986"/>
</svg>
