<?xml version="1.0" encoding="utf-8"?>
<!-- Generator: Adobe Illustrator 23.0.3, SVG Export Plug-In . SVG Version: 6.00 Build 0)  -->
<svg version="1.1" id="圖層_1" xmlns="http://www.w3.org/2000/svg" xmlns:xlink="http://www.w3.org/1999/xlink" x="0px" y="0px"
	 viewBox="0 0 100 100" style="enable-background:new 0 0 100 100;" xml:space="preserve">
<style type="text/css">
	.st0{fill:none;}
	.st1{fill:none;stroke:#FFFFFF;stroke-width:4;stroke-miterlimit:10;}
	.st2{fill:#FFFFFF;}
	.st3{fill:#FF8636;}
</style>
<rect class="st0" width="100" height="100"/>
<path class="st1" d="M85.1,63c1.1,0,2-0.9,2-2V19.3c0-3.1-2.5-5.7-5.7-5.7H18.6c-3.1,0-5.7,2.5-5.7,5.7V61c0,1.1,0.9,2,2,2H85.1z"/>
<path class="st2" d="M92.5,68.3h-85c-1.1,0-2,0.9-2,2v1.8c0,6.2,5,11.2,11.2,11.2h66.6c6.2,0,11.2-5,11.2-11.2v-1.8
	C94.5,69.2,93.6,68.3,92.5,68.3z M83.3,79.4H16.7c-4,0-7.2-3.2-7.3-7.2h81.1C90.5,76.2,87.3,79.4,83.3,79.4z"/>
<path class="st2" d="M44.5,77.8h11.1c1.1,0,2-0.9,2-2s-0.9-2-2-2H44.5c-1.1,0-2,0.9-2,2S43.4,77.8,44.5,77.8z"/>
<path class="st3" d="M50.1,38.3L50.1,38.3L50.1,38.3c-2.1-2.3-7.4-7.8-12.5-7.8c-5.2,0-10.4,3.2-10.4,10.4s5.2,10.4,10.4,10.4
	c5.1,0,10.3-5.4,12.4-7.8l0.1-0.1l0.1,0.1c2,2.3,7.3,7.8,12.4,7.8c5.2,0,10.4-3.2,10.4-10.4s-5.2-10.4-10.4-10.4
	C57.4,30.5,52.1,35.9,50.1,38.3z M62.4,46.9c-2.7,0-6.4-3-9-6c2.6-2.9,6.3-6,9-6c4.1,0,6.4,2.1,6.4,6C68.8,44.7,66.5,46.9,62.4,46.9
	z M37.6,34.9c2.7,0,6.4,3,9,6c-2.6,2.9-6.3,6-9,6c-4.1,0-6.4-2.1-6.4-6C31.2,37,33.5,34.9,37.6,34.9z"/>
</svg>
