<?xml version="1.0" encoding="utf-8"?>
<!-- Generator: Adobe Illustrator 23.0.3, SVG Export Plug-In . SVG Version: 6.00 Build 0)  -->
<svg version="1.1" id="圖層_1" xmlns="http://www.w3.org/2000/svg" xmlns:xlink="http://www.w3.org/1999/xlink" x="0px" y="0px"
	 viewBox="0 0 100 100" style="enable-background:new 0 0 100 100;" xml:space="preserve">
<style type="text/css">
	.st0{fill:none;}
	.st1{fill:none;stroke:#FFFFFF;stroke-width:3;stroke-miterlimit:10;}
	.st2{fill:#FF8636;}
</style>
<rect class="st0" width="100" height="100"/>
<path class="st1" d="M72,88.8H28c-9.3,0-16.8-7.5-16.8-16.8V28c0-9.3,7.5-16.8,16.8-16.8h44c9.3,0,16.8,7.5,16.8,16.8v44
	C88.8,81.3,81.3,88.8,72,88.8"/>
<path class="st2" d="M50,24.8c-13.9,0-25.2,11.3-25.2,25.2S36.1,75.2,50,75.2c2.7,0,5.3-0.4,7.8-1.2l1.5-0.5
	c0.5-0.2,0.8-0.7,0.7-1.3l-1.4-4.4c-0.2-0.5-0.7-0.8-1.3-0.6l-1.5,0.5c-1.9,0.6-3.8,0.9-5.8,0.9c-10.2,0-18.5-8.3-18.5-18.5
	S39.8,31.5,50,31.5S68.5,39.8,68.5,50c0,2.1-0.4,4.3-1.2,6.5c-0.6,1.6-1.9,2.9-2.9,2.9c-1.4,0-2.6-1.2-2.6-2.6V39c0-0.6-0.5-1-1-1
	h-4.7c-0.5,0-1,0.4-1,1v0.4l-0.3-0.2c-1.8-1-3.8-1.5-5.8-1.5c-6.8,0-12.3,5.5-12.3,12.3S42.2,62.3,49,62.3c2.3,0,4.6-0.7,6.6-1.9
	l0.2-0.2l0.1,0.3c1.5,3.4,4.8,5.6,8.5,5.6c4,0,7.7-3,9.2-7.4c1-2.9,1.5-5.9,1.5-8.7C75.2,36.1,63.9,24.8,50,24.8 M55.1,50
	c0,3.4-2.7,6.1-6.1,6.1c-3.4,0-6.1-2.7-6.1-6.1c0-3.4,2.7-6.1,6.1-6.1C52.3,43.9,55.1,46.6,55.1,50"/>
</svg>
