<?xml version="1.0" encoding="utf-8"?>
<!-- Generator: Adobe Illustrator 23.0.3, SVG Export Plug-In . SVG Version: 6.00 Build 0)  -->
<svg version="1.1" id="圖層_1" xmlns="http://www.w3.org/2000/svg" xmlns:xlink="http://www.w3.org/1999/xlink" x="0px" y="0px"
	 viewBox="0 0 100 100" style="enable-background:new 0 0 100 100;" xml:space="preserve">
<style type="text/css">
	.st0{fill:none;}
	.st1{fill:#FFFFFF;}
	.st2{fill:#FF8636;}
</style>
<rect class="st0" width="100" height="100"/>
<path class="st1" d="M81.9,62.4c-1,0-1.8,0.8-1.8,1.8v23c0,1-0.8,1.7-1.7,1.7H21.7c-1,0-1.7-0.8-1.7-1.7V21.7c0-1,0.8-1.7,1.7-1.7
	h7.1c1,0,1.8-0.8,1.8-1.8s-0.8-1.8-1.8-1.8h-7.1c-2.9,0-5.3,2.4-5.3,5.3v65.5c0,2.9,2.4,5.3,5.3,5.3h56.6c2.9,0,5.3-2.4,5.3-5.3v-23
	C83.7,63.2,82.9,62.4,81.9,62.4z"/>
<path class="st1" d="M71.3,19.9h7.1c1,0,1.7,0.8,1.7,1.7V34c0,1,0.8,1.8,1.8,1.8s1.8-0.8,1.8-1.8V21.7c0-2.9-2.4-5.3-5.3-5.3h-7.1
	c-1,0-1.8,0.8-1.8,1.8C69.5,19.1,70.3,19.9,71.3,19.9z"/>
<path class="st1" d="M25.3,26.3c-1,0-1.8,0.8-1.8,1.8v55.5c0,1,0.8,1.8,1.8,1.8h49.6c1,0,1.8-0.8,1.8-1.8V71.2c0-1-0.8-1.8-1.8-1.8
	s-1.8,0.8-1.8,1.8v10.6h-46V28.1C27.1,27.1,26.3,26.3,25.3,26.3z"/>
<path class="st1" d="M73,28.1v13.1c0,1,0.8,1.8,1.8,1.8s1.8-0.8,1.8-1.8V28.1c0-1-0.8-1.8-1.8-1.8C73.8,26.3,73,27.1,73,28.1z"/>
<path class="st1" d="M30.6,27c0,1,0.8,1.8,1.8,1.8h35.4c1,0,1.8-0.8,1.8-1.8v-5.3c0-3.9-3.2-7.1-7.1-7.1h-3.7
	c-0.8-4-4.4-7.1-8.7-7.1s-7.9,3-8.7,7.1h-3.7c-3.9,0-7.1,3.2-7.1,7.1C30.6,21.7,30.6,27,30.6,27z M34.1,21.7c0-1.9,1.6-3.5,3.5-3.5
	H43c1,0,1.8-0.8,1.8-1.8c0-2.9,2.4-5.3,5.3-5.3c2.9,0,5.3,2.4,5.3,5.3c0,1,0.8,1.8,1.8,1.8h5.3c1.9,0,3.5,1.6,3.5,3.5v3.5H34.1V21.7
	z"/>
<path class="st1" d="M50,12.8c-1,0-1.8,0.8-1.8,1.8v3.5c0,1,0.8,1.8,1.8,1.8s1.8-0.8,1.8-1.8v-3.5C51.8,13.6,51,12.8,50,12.8z"/>
<path class="st2" d="M91.7,46.9L85,40.2c-0.7-0.7-1.8-0.7-2.5,0L62.1,60.4L55,53.3c-0.7-0.7-1.8-0.7-2.5,0L45.8,60
	c-0.7,0.7-0.7,1.8,0,2.5l14.7,15.2c0.3,0.3,0.8,0.5,1.3,0.5l0,0c0.5,0,0.9-0.2,1.3-0.5l28.6-28.3c0.3-0.3,0.5-0.8,0.5-1.3
	C92.2,47.7,92,47.2,91.7,46.9z M61.8,73.9L49.6,61.3l4.2-4.1l7.1,7.1c0.7,0.7,1.8,0.7,2.5,0L83.8,44l4.1,4.1L61.8,73.9z"/>
</svg>
