<?xml version="1.0" encoding="utf-8"?>
<!-- Generator: Adobe Illustrator 23.0.3, SVG Export Plug-In . SVG Version: 6.00 Build 0)  -->
<svg version="1.1" id="圖層_1" xmlns="http://www.w3.org/2000/svg" xmlns:xlink="http://www.w3.org/1999/xlink" x="0px" y="0px"
	 viewBox="0 0 100 100" style="enable-background:new 0 0 100 100;" xml:space="preserve">
<style type="text/css">
	.st0{fill:none;}
	.st1{fill:#FFFFFF;}
	.st2{fill:none;stroke:#FFFFFF;stroke-width:3;stroke-miterlimit:10;}
	.st3{fill:#FF8636;}
</style>
<rect class="st0" width="100" height="100"/>
<path class="st1" d="M85.2,27.4l-12.3-4.5c-0.9-0.3-2,0.1-2.3,1.1c-0.3,0.9,0.1,2,1.1,2.3L84,30.8c1.8,0.6,2.7,2.6,2.1,4.4l-0.6,1.7
	l-11-4c-0.9-0.3-2,0.1-2.3,1.1c-0.3,0.9,0.1,2,1.1,2.3l11,4L70.5,77.9L37.7,66l2.4-6.6c0.3-0.9-0.1-2-1.1-2.3
	c-0.9-0.3-2,0.1-2.3,1.1L31.3,73c-1.3,3.7,0.6,7.7,4.2,9l26.3,9.6c0.8,0.3,1.6,0.4,2.4,0.4c2.9,0,5.6-1.8,6.6-4.6l18.5-51
	C90.7,32.8,88.8,28.7,85.2,27.4z M67.5,86.2c-0.7,1.8-2.6,2.7-4.4,2.1l-26.3-9.6C35,78,34.1,76,34.7,74.2l1.8-4.9l32.8,11.9
	L67.5,86.2z"/>
<path class="st1" d="M55.6,78.1L49,75.7c-0.9-0.3-2,0.1-2.3,1.1c-0.3,0.9,0.1,2,1.1,2.3l6.6,2.4c0.2,0.1,0.4,0.1,0.6,0.1
	c0.7,0,1.4-0.5,1.7-1.2C57,79.4,56.5,78.4,55.6,78.1z"/>
<path class="st2" d="M44.9,55.4c3.4,2.8,7.7,5.5,12.7,8.1c0.9,0.5,1.7,0.7,2.3,0.7c0.9,0,1.6-0.4,2-1.1c0.7-1.2,0.1-2.7-0.4-3.7
	c-1.4-2.7-2.3-5.6-2.7-8.7c7.3-4.5,11.7-11.5,11.7-18.8C70.6,18.7,57,8,40.4,8C23.7,8,10.2,18.7,10.2,31.8
	c0,13.2,13.6,23.9,30.2,23.9C41.9,55.7,43.3,55.6,44.9,55.4z"/>
<g>
	<path class="st3" d="M40.4,17.5c-7.9,0-14.3,6.4-14.3,14.3s6.4,14.3,14.3,14.3c1.5,0,3-0.2,4.5-0.7l0.9-0.3
		c0.3-0.1,0.5-0.4,0.4-0.7l-0.8-2.5c-0.1-0.3-0.4-0.5-0.7-0.4l-0.9,0.3c-1.1,0.3-2.2,0.5-3.3,0.5c-5.8,0-10.5-4.7-10.5-10.5
		s4.7-10.5,10.5-10.5S51,26,51,31.8c0,1.2-0.2,2.4-0.7,3.7c-0.3,0.9-1.1,1.7-1.7,1.7c-0.8,0-1.5-0.7-1.5-1.5V25.6
		c0-0.3-0.3-0.6-0.6-0.6h-2.7c-0.3,0-0.6,0.2-0.6,0.5v0.2L43,25.6c-1-0.5-2.2-0.8-3.3-0.8c-3.9,0-7,3.1-7,7s3.1,7,7,7
		c1.3,0,2.6-0.4,3.7-1.1l0.1-0.1l0.1,0.2c0.8,1.9,2.7,3.2,4.8,3.2c2.3,0,4.4-1.7,5.2-4.2c0.6-1.7,0.9-3.3,0.9-4.9
		C54.7,23.9,48.3,17.5,40.4,17.5 M43.3,31.8c0,1.9-1.6,3.5-3.5,3.5s-3.5-1.6-3.5-3.5c0-1.9,1.6-3.5,3.5-3.5
		C41.7,28.4,43.3,29.9,43.3,31.8"/>
</g>
</svg>
