<?xml version="1.0" encoding="utf-8"?>
<!-- Generator: Adobe Illustrator 23.0.3, SVG Export Plug-In . SVG Version: 6.00 Build 0)  -->
<svg version="1.1" id="圖層_1" xmlns="http://www.w3.org/2000/svg" xmlns:xlink="http://www.w3.org/1999/xlink" x="0px" y="0px"
	 viewBox="0 0 100 100" style="enable-background:new 0 0 100 100;" xml:space="preserve">
<style type="text/css">
	.st0{fill:#FFFFFF;}
	.st1{fill:#FF8636;}
</style>
<path class="st0" d="M82.5,39.3L82.1,39c-1.3-1.1-6.2-5-8-6.4V20.2c0-3.7-3.2-6.9-6.9-6.9H20.8c-0.6,0-1.2,0.3-1.5,0.8
	c-2.2,1.2-3.7,3.5-3.7,6V27c0,1,0.8,1.7,1.7,1.7h8.6v3.8c-1.8,1.4-6.7,5.3-8,6.4l-0.4,0.3c-1.5,1.3-3.7,3.1-3.7,6.1v34.4
	c0,3.8,3.1,6.9,6.9,6.9H50h29.2c3.8,0,6.9-3.1,6.9-6.9V45.4C86.1,42.4,84,40.6,82.5,39.3z M70.6,20.2v33.1l-9.8,9.8
	c-2.9,2.5-4.9,3-7.4,3h-6.9c-2.5,0-4.5-0.5-7.4-3l-9.8-9.8V27.1v-5.2v-1.7c0-1.2-0.4-2.4-1-3.4h38.8C69.1,16.8,70.6,18.6,70.6,20.2z
	 M19.1,25.3v-5.1c0-1.6,1.5-3.4,3.4-3.4s3.4,1.9,3.4,3.4v1.7v3.4H19.1z M82.7,79.8c0,1.9-1.5,3.4-3.4,3.4H50H20.8
	c-1.9,0-3.4-1.5-3.4-3.4V45.4c0-1.4,0.9-2.2,2.4-3.5l0.4-0.3c0.9-0.7,3.6-2.9,5.7-4.6v12.9l-3.9-4c-0.7-0.7-1.8-0.7-2.4,0
	c-0.7,0.7-0.7,1.8,0,2.4l14.3,14.3L19.5,76.9c-0.7,0.7-0.7,1.8,0,2.4c0.3,0.3,0.8,0.5,1.2,0.5s0.9-0.2,1.2-0.5L36.2,65l0.5,0.5
	l0.1,0.1c3.7,3.2,6.6,3.9,9.7,3.9h6.9c3.1,0,6-0.7,9.7-3.9l0.1-0.1l0.5-0.5L78,79.3c0.3,0.3,0.8,0.5,1.2,0.5s0.9-0.2,1.2-0.5
	c0.7-0.7,0.7-1.8,0-2.4L66.2,62.6l14.3-14.3c0.7-0.7,0.7-1.8,0-2.4c-0.7-0.7-1.8-0.7-2.4,0l-3.9,3.9V37c2.2,1.7,4.9,3.9,5.7,4.6
	l0.4,0.3c1.5,1.3,2.4,2.1,2.4,3.5V79.8z"/>
<path class="st1" d="M38,30.5h24c1,0,1.7-0.8,1.7-1.7c0-1-0.8-1.7-1.7-1.7H38c-1,0-1.7,0.8-1.7,1.7C36.2,29.7,37,30.5,38,30.5z"/>
<path class="st1" d="M38,37.4h24c1,0,1.7-0.8,1.7-1.7c0-1-0.8-1.7-1.7-1.7H38c-1,0-1.7,0.8-1.7,1.7C36.2,36.6,37,37.4,38,37.4z"/>
<path class="st1" d="M38,44.3h12c1,0,1.7-0.8,1.7-1.7c0-1-0.8-1.7-1.7-1.7H38c-1,0-1.7,0.8-1.7,1.7C36.2,43.5,37,44.3,38,44.3z"/>
</svg>
