<?xml version="1.0" encoding="utf-8"?>
<!-- Generator: Adobe Illustrator 23.0.1, SVG Export Plug-In . SVG Version: 6.00 Build 0)  -->
<svg version="1.1" id="圖層_1" xmlns="http://www.w3.org/2000/svg" xmlns:xlink="http://www.w3.org/1999/xlink" x="0px" y="0px"
	 viewBox="0 0 512 512" style="enable-background:new 0 0 512 512;" xml:space="preserve">
<style type="text/css">
	.st0{fill:#190065;}
</style>
<title>001 - Thinking</title>
<desc>Created with Sketch.</desc>
<g id="Page-1">
	<g transform="translate(-1.000000, -1.000000)">
		<path class="st0" d="M165.6,98.3l-7.7,38.3c-7.4,2.4-14.6,5.4-21.6,9l-32.5-21.8c-10.2-6.7-23.6-5.3-32.2,3.3l-21.2,21.2
			c-8.8,8.6-10.2,22.2-3.4,32.4l21.7,32.3c-3.5,6.9-6.5,14.2-9,21.6l-38.2,7.7C9.6,244.8,1,255.3,1,267.5v30.2
			c0,12.2,8.6,22.7,20.5,25.1l38.3,7.7c2.4,7.4,5.4,14.6,9,21.6L47,384.5c-6.7,10.2-5.3,23.6,3.3,32.2l21.2,21.2
			c8.6,8.7,22.2,10.1,32.4,3.4l32.3-21.7c6.9,3.5,14.2,6.5,21.6,9l7.7,38.2c2.4,12,12.9,20.6,25.1,20.5h30.2
			c12.2,0,22.7-8.6,25.1-20.5l7.7-38.3c7.4-2.4,14.6-5.4,21.6-9l32.5,21.8c10.2,6.7,23.6,5.3,32.2-3.3l21.2-21.2
			c8.8-8.6,10.2-22.2,3.4-32.4l-21.7-32.3c3.5-6.9,6.5-14.2,9-21.6l38.2-7.7c7.6-1.5,14.1-6.4,17.6-13.3l19.3,12.9
			c3.7,2.3,8,3.6,12.4,3.6c6.1,0,12-2.4,16.3-6.8l17-17c7.7-7.8,9-19.9,3-29.1l-16.5-24.7c2.4-4.8,4.5-9.8,6.2-14.9l29-5.8
			c10.8-2.1,18.6-11.6,18.6-22.7V181c0-11-7.7-20.5-18.5-22.7l-29.1-5.8c-1.7-5.1-3.8-10.1-6.2-14.9l16.8-25
			c5.8-9.2,4.5-21.1-3.2-28.8l-17-17c-7.8-7.7-19.9-9-29.1-3L402,80.4c-4.8-2.4-9.8-4.5-14.9-6.2l-5.8-29
			c-2.1-10.8-11.6-18.6-22.7-18.6h-24.1c-11,0-20.5,7.7-22.7,18.5l-5.8,29.1c-5.1,1.7-10.1,3.8-14.9,6.2l-25-16.8
			c-9.2-5.8-21.1-4.5-28.8,3.2l-11.5,11.5c-1.7-0.3-3.3-0.5-5-0.6h-30.2C178.5,77.8,168,86.4,165.6,98.3z M361.3,148.5l-6-6
			c22.2,3,39.8,20.1,43.5,42.2c3.7,22.1-7.5,44-27.6,53.9l-19.4-3.8c-2.4-7.4-5.4-14.6-9-21.6l21.8-32.5
			C371.3,170.5,369.9,157.1,361.3,148.5L361.3,148.5z M254.1,86.3l29.3,19.7c4.1,2.8,9.4,2.9,13.7,0.4c7.3-4.3,15.2-7.6,23.4-9.8
			c4.7-1.3,8.3-5.1,9.2-9.9l6.9-34.5h20l6.9,34.6c1,4.8,4.5,8.6,9.2,9.9c8.2,2.2,16.1,5.5,23.4,9.8c4.3,2.5,9.6,2.3,13.7-0.4
			l29.3-19.6l14.2,14.2l-19.6,29.3c-2.8,4.1-2.9,9.4-0.4,13.7c4.3,7.3,7.6,15.2,9.8,23.4c1.3,4.7,5.1,8.3,9.9,9.2l34.6,6.9v20
			l-34.5,6.9c-4.8,1-8.6,4.5-9.9,9.2c-2.2,8.2-5.5,16.1-9.8,23.4c-2.5,4.2-2.4,9.6,0.4,13.7l19.6,29.3l-14.2,14.2l-28.5-19.1v-13.1
			c0-7.5-3.3-14.6-9-19.5c22.5-21.7,29.6-54.9,17.9-83.9c-11.7-29-39.9-47.9-71.2-47.9c-7.7,0-15.4,1.3-22.8,3.7
			c-6.3-0.9-12.6,0.5-17.9,3.9l-32.3,21.7c-6.9-3.5-14.2-6.5-21.6-9L246,98.3c-0.2-1-0.5-2-0.9-3L254.1,86.3z M181.5,149.2l9.2-45.8
			h30.2l9.2,45.8c1,4.8,4.5,8.6,9.2,9.8c10.6,2.9,20.7,7.1,30.2,12.5c4.2,2.5,9.5,2.3,13.5-0.4l38.7-25.9l21.5,21.3l-26,38.8
			c-2.7,4.1-2.9,9.3-0.4,13.5c5.5,9.5,9.7,19.6,12.5,30.2c1.3,4.7,5.1,8.2,9.8,9.2l45.8,9.2v30.2l-45.8,9.2c-4.8,1-8.6,4.5-9.8,9.2
			c-2.9,10.6-7.1,20.7-12.5,30.2c-2.5,4.2-2.3,9.5,0.4,13.5l25.9,38.7l-21.3,21.5l-38.8-26c-4.1-2.7-9.3-2.9-13.5-0.4
			c-9.5,5.5-19.6,9.7-30.2,12.5c-4.7,1.3-8.2,5.1-9.2,9.8l-9.2,45.8h-30.2l-9.2-45.8c-1-4.8-4.5-8.6-9.2-9.8
			c-10.6-2.9-20.7-7.1-30.2-12.5c-4.2-2.5-9.5-2.3-13.5,0.4l-38.7,25.9l-21.5-21.3l26-38.8c2.7-4.1,2.9-9.3,0.4-13.5
			c-5.5-9.5-9.7-19.6-12.5-30.2c-1.3-4.7-5.1-8.2-9.8-9.2l-45.8-9.2v-30.2l45.8-9.2c4.8-1,8.6-4.5,9.8-9.2
			c2.9-10.6,7.1-20.7,12.5-30.2c2.5-4.2,2.3-9.5-0.4-13.5l-25.9-38.7l21.3-21.5l38.8,26c4.1,2.7,9.3,2.9,13.5,0.4
			c9.5-5.5,19.6-9.7,30.2-12.5C177,157.7,180.5,153.9,181.5,149.2z"/>
		<path class="st0" d="M205.8,372.2c49.5,0,89.6-40.1,89.6-89.6S255.3,193,205.8,193s-89.6,40.1-89.6,89.6
			C116.3,332.1,156.3,372.1,205.8,372.2z M205.8,218.6c35.3,0,64,28.7,64,64s-28.7,64-64,64s-64-28.7-64-64
			C141.8,247.3,170.5,218.6,205.8,218.6z"/>
		<circle id="Oval" class="st0" cx="205.8" cy="282.6" r="12.8"/>
	</g>
</g>
</svg>
