<?xml version="1.0" encoding="utf-8"?>
<!-- Generator: Adobe Illustrator 23.0.1, SVG Export Plug-In . SVG Version: 6.00 Build 0)  -->
<svg version="1.1" id="圖層_1" xmlns="http://www.w3.org/2000/svg" xmlns:xlink="http://www.w3.org/1999/xlink" x="0px" y="0px"
	 viewBox="0 0 512 512" style="enable-background:new 0 0 512 512;" xml:space="preserve">
<style type="text/css">
	.st0{fill:#190065;}
</style>
<title>012 - Target</title>
<desc>Created with Sketch.</desc>
<g>
	<path class="st0" d="M220.3,83.2c-118.4,0-214.4,96-214.4,214.4S101.9,512,220.3,512s214.4-96,214.4-214.4S338.7,83.2,220.3,83.2z
		 M220.3,485.9c-104,0-188.3-84.3-188.3-188.3s84.3-188.3,188.3-188.3s188.3,84.3,188.3,188.3S324.3,485.9,220.3,485.9z"/>
	<path class="st0" d="M220.3,132.5c-91.2,0-165.1,73.9-165.1,165.1s73.9,165.1,165.1,165.1s165.1-73.9,165.1-165.1
		S311.4,132.5,220.3,132.5z M220.3,437.1c-77,0-139.4-62.4-139.4-139.4s62.4-139.4,139.4-139.4s139.4,62.4,139.4,139.4
		S297.3,437.1,220.3,437.1z"/>
	<path class="st0" d="M220.3,180.5c-64.7,0-117.1,52.4-117.1,117.1c0,64.7,52.4,117.1,117.1,117.1s117.1-52.4,117.1-117.1
		C337.4,232.9,284.9,180.5,220.3,180.5z M220.3,390.4c-51.2,0-92.7-41.5-92.7-92.7c0-51.2,41.5-92.7,92.7-92.7s92.7,41.5,92.7,92.7
		C313,348.8,271.5,390.4,220.3,390.4z"/>
	<path class="st0" d="M220.3,228.6c-38.1,0-69,30.9-69,69s30.9,69,69,69s69-30.9,69-69S258.4,228.6,220.3,228.6z M220.3,344.8
		c-26.1,0-47.2-21.1-47.2-47.2s21.1-47.2,47.2-47.2s47.2,21.1,47.2,47.2S246.3,344.8,220.3,344.8z"/>
	<path class="st0" d="M394.9,130.8h51.8c3.2,0,6.2-1.3,8.4-3.5l47.6-47.6c3.4-3.4,4.4-8.5,2.6-13c-1.8-4.4-6.2-7.3-11-7.3h-47.6
		V11.9c0-4.8-2.9-9.1-7.3-11c-4.4-1.8-9.6-0.8-13,2.6L378.8,51c-2.2,2.2-3.5,5.3-3.5,8.4v57.4l-5.5,5.8l-28.2,29.8c0,0,0,0,0.1,0.1
		l-16.2,17.1c0,0,0,0-0.1-0.1L224.1,276.5l-11.9,12.6c-4.5,4.8-4.3,12.3,0.5,16.8c4.8,4.5,12.3,4.3,16.8-0.5l13.9-14.6l0,0
		l34.4-36.4c0,0,0,0,0,0l16.6-17.5c0,0,0,0,0,0l16.4-17.3c0,0,0,0,0,0l16.4-17.3c0,0,0,0,0,0l15.4-16.3c0,0,0,0-0.1-0.1l16.2-17.1
		c0,0,0,0,0.1,0.1l17.4-18.4c0,0,0,0,0,0L394.9,130.8z M440,83.2h25.6L441.8,107h-24.4L440,83.2z M399.1,64.4l23.8-23.8v26
		l-23.8,25.1V64.4z"/>
</g>
</svg>
