<?xml version="1.0" encoding="utf-8"?>
<!-- Generator: Adobe Illustrator 23.0.1, SVG Export Plug-In . SVG Version: 6.00 Build 0)  -->
<svg version="1.1" id="圖層_1" xmlns="http://www.w3.org/2000/svg" xmlns:xlink="http://www.w3.org/1999/xlink" x="0px" y="0px"
	 viewBox="0 0 512 512" style="enable-background:new 0 0 512 512;" xml:space="preserve">
<style type="text/css">
	.st0{fill:#190065;}
	.st1{fill:#FFFFFF;}
</style>
<title>052 - Split Personality</title>
<desc>Created with Sketch.</desc>
<g>
	<path class="st0" d="M180.2,0C90.4,0,17.6,72.8,17.6,162.6s72.8,162.6,162.6,162.6s162.6-72.8,162.6-162.6S270,0,180.2,0z
		 M180.2,302.1c-77.1,0-139.5-62.5-139.5-139.5S103.2,23.1,180.2,23.1s139.5,62.5,139.5,139.5S257.3,302.1,180.2,302.1z"/>
	<path class="st0" d="M331.8,186.8c-89.8,0-162.6,72.8-162.6,162.6c0,89.8,72.8,162.6,162.6,162.6s162.6-72.8,162.6-162.6
		C494.4,259.6,421.6,186.8,331.8,186.8z M331.8,488.9c-77.1,0-139.5-62.5-139.5-139.5c0-77.1,62.5-139.5,139.5-139.5
		s139.5,62.5,139.5,139.5C471.3,426.4,408.8,488.9,331.8,488.9z"/>
	<circle class="st1" cx="180.2" cy="162.6" r="139.5"/>
	<g id="Page-1">
		<g transform="translate(-1.000000, -1.000000)">
			<path class="st0" d="M122.8,164c19.3,0,34.9-15.6,34.9-34.9s-15.6-34.9-34.9-34.9s-34.9,15.6-34.9,34.9S103.6,164,122.8,164z
				 M122.8,117.4c6.4,0,11.6,5.2,11.6,11.6c0,6.4-5.2,11.6-11.6,11.6c-6.4,0-11.6-5.2-11.6-11.6
				C111.2,122.6,116.4,117.4,122.8,117.4z"/>
			<path class="st0" d="M239.3,164c19.3,0,34.9-15.6,34.9-34.9s-15.6-34.9-34.9-34.9s-34.9,15.6-34.9,34.9S220,164,239.3,164z
				 M239.3,117.4c6.4,0,11.6,5.2,11.6,11.6c0,6.4-5.2,11.6-11.6,11.6c-6.4,0-11.6-5.2-11.6-11.6
				C227.6,122.6,232.8,117.4,239.3,117.4z"/>
			<path class="st0" d="M134.5,198.9c0-6.4-5.2-11.6-11.6-11.6c-6.4,0-11.6,5.2-11.6,11.6c0,38.6,31.3,69.8,69.8,69.8
				s69.8-31.3,69.8-69.8c0-6.4-5.2-11.6-11.6-11.6c-6.4,0-11.6,5.2-11.6,11.6c0,25.7-20.8,46.6-46.6,46.6
				C155.3,245.5,134.5,224.6,134.5,198.9z"/>
			<path class="st0" d="M390.6,350.3c19.3,0,34.9-15.6,34.9-34.9s-15.6-34.9-34.9-34.9c-19.3,0-34.9,15.6-34.9,34.9
				S371.3,350.3,390.6,350.3z M390.6,303.7c6.4,0,11.6,5.2,11.6,11.6S397,327,390.6,327c-6.4,0-11.6-5.2-11.6-11.6
				S384.2,303.7,390.6,303.7z"/>
			<path class="st0" d="M274.2,350.3c19.3,0,34.9-15.6,34.9-34.9s-15.6-34.9-34.9-34.9s-34.9,15.6-34.9,34.9
				S254.9,350.3,274.2,350.3z M274.2,303.7c6.4,0,11.6,5.2,11.6,11.6s-5.2,11.6-11.6,11.6s-11.6-5.2-11.6-11.6
				S267.8,303.7,274.2,303.7z"/>
			<path class="st0" d="M332.4,373.5c-38.6,0-69.8,31.3-69.8,69.8c0,6.4,5.2,11.6,11.6,11.6s11.6-5.2,11.6-11.6
				c0-25.7,20.8-46.6,46.6-46.6s46.6,20.8,46.6,46.6c0,6.4,5.2,11.6,11.6,11.6c6.4,0,11.6-5.2,11.6-11.6
				C402.2,404.8,371,373.6,332.4,373.5z"/>
		</g>
	</g>
</g>
</svg>
