<?xml version="1.0" encoding="utf-8"?>
<!-- Generator: Adobe Illustrator 23.0.1, SVG Export Plug-In . SVG Version: 6.00 Build 0)  -->
<svg version="1.1" id="Layer_1" xmlns="http://www.w3.org/2000/svg" xmlns:xlink="http://www.w3.org/1999/xlink" x="0px" y="0px"
	 viewBox="0 0 512 512" style="enable-background:new 0 0 512 512;" xml:space="preserve">
<style type="text/css">
	.st0{fill:#190065;}
</style>
<g>
	<path class="st0" d="M504.5,460.9H496V147.8c0-4.1-3.4-7.5-7.5-7.5h-88.7v-16.5c0-8.6-7-15.5-15.5-15.5h-49
		c-3.8-40.4-37.9-72.1-79.3-72.1s-75.5,31.7-79.3,72.1h-49c-8.6,0-15.5,7-15.5,15.5v16.5H23.5c-4.1,0-7.5,3.4-7.5,7.5v16
		c0,4.1,3.4,7.5,7.5,7.5s7.5-3.4,7.5-7.5v-8.5h155.9c13.8,23.9,39.6,40.1,69.1,40.1s55.3-16.2,69.1-40.1H481v201.4H375.7v-24.6
		c0-4.1-3.4-7.5-7.5-7.5H143.8c-4.1,0-7.5,3.4-7.5,7.5v24.6H31V195.9c0-4.1-3.4-7.5-7.5-7.5s-7.5,3.4-7.5,7.5v265H7.5
		c-4.1,0-7.5,3.4-7.5,7.5s3.4,7.5,7.5,7.5h497c4.1,0,7.5-3.4,7.5-7.5S508.6,460.9,504.5,460.9z M127.2,140.3v-16.5
		c0-0.3,0.2-0.5,0.5-0.5h49c0.6,5.9,1.8,11.6,3.5,17.1H127.2z M256,180.4c-35.6,0-64.6-29-64.6-64.6s29-64.6,64.6-64.6
		s64.6,29,64.6,64.6S291.6,180.4,256,180.4z M335.3,123.2h49c0.3,0,0.5,0.2,0.5,0.5v16.5h-53C333.5,134.8,334.7,129.1,335.3,123.2z
		 M481,460.9H359.7v-48.6c0-4.1-3.4-7.5-7.5-7.5s-7.5,3.4-7.5,7.5v48.6h-81.2v-89.2h81.2v8.5c0,4.1,3.4,7.5,7.5,7.5s7.5-3.4,7.5-7.5
		v-8.5h33.1v56.6c0,4.1,3.4,7.5,7.5,7.5h56.1c4.1,0,7.5-3.4,7.5-7.5v-56.6H481L481,460.9L481,460.9z M248.5,371.7v89.2h-81.2v-89.2
		L248.5,371.7L248.5,371.7z M407.8,371.7h41.1v49.1h-41.1V371.7z M151.3,339.7h209.5v17.1H151.3V339.7z M63.1,371.7h41.1v49.1H63.1
		V371.7z M31,371.7h17.1v56.6c0,4.1,3.4,7.5,7.5,7.5h56.1c4.1,0,7.5-3.4,7.5-7.5v-56.6h33.1v89.2H31V371.7z"/>
	<path class="st0" d="M256.2,91.2c7.7,0,12.5,3.9,12.5,6.5c0,4.1,3.4,7.5,7.5,7.5s7.5-3.4,7.5-7.5c0-10.1-8.5-18.3-20.3-20.8v-1.3
		c0-4.1-3.4-7.5-7.5-7.5s-7.5,3.4-7.5,7.5V77c-11.6,2.5-19.8,10.7-19.8,20.7c0,16.8,15.8,22,25.2,25.2c12.8,4.3,14.9,6.8,14.9,10.9
		c0,2.7-4.9,6.5-12.5,6.5c-7.7,0-12.5-3.9-12.5-6.5c0-4.1-3.4-7.5-7.5-7.5s-7.5,3.4-7.5,7.5c0,10,8.3,18.2,19.8,20.7v1.3
		c0,4.1,3.4,7.5,7.5,7.5c4.1,0,7.5-3.4,7.5-7.5v-1.3c11.8-2.4,20.3-10.7,20.3-20.8c0-16.8-15.8-22-25.2-25.2
		c-12.8-4.3-14.9-6.8-14.9-10.9C243.7,95,248.6,91.2,256.2,91.2z"/>
	<path class="st0" d="M111.7,307.6c4.1,0,7.5-3.4,7.5-7.5v-72.1c0-4.1-3.4-7.5-7.5-7.5H55.6c-4.1,0-7.5,3.4-7.5,7.5v72.1
		c0,4.1,3.4,7.5,7.5,7.5H111.7z M63.1,235.4h41.1v57.1H63.1V235.4z"/>
	<path class="st0" d="M456.4,307.6c4.1,0,7.5-3.4,7.5-7.5v-72.1c0-4.1-3.4-7.5-7.5-7.5h-56.1c-4.1,0-7.5,3.4-7.5,7.5v72.1
		c0,4.1,3.4,7.5,7.5,7.5H456.4z M407.8,235.4h41.1v57.1h-41.1V235.4z"/>
	<path class="st0" d="M143.8,307.6h224.5c4.1,0,7.5-3.4,7.5-7.5v-72.1c0-4.1-3.4-7.5-7.5-7.5H143.8c-4.1,0-7.5,3.4-7.5,7.5v72.1
		C136.3,304.2,139.6,307.6,143.8,307.6z M248.5,292.6h-41.1v-57.1h41.1V292.6z M263.5,235.4h41.1v57.1h-41.1V235.4z M360.7,292.6
		h-41.1v-57.1h41.1V292.6z M151.3,235.4h41.1v57.1h-41.1L151.3,235.4L151.3,235.4z"/>
</g>
</svg>
