<?xml version="1.0" encoding="utf-8"?>
<!-- Generator: Adobe Illustrator 23.0.1, SVG Export Plug-In . SVG Version: 6.00 Build 0)  -->
<svg version="1.1" id="Capa_1" xmlns="http://www.w3.org/2000/svg" xmlns:xlink="http://www.w3.org/1999/xlink" x="0px" y="0px"
	 viewBox="0 0 512 512" style="enable-background:new 0 0 512 512;" xml:space="preserve">
<style type="text/css">
	.st0{fill:#190065;}
</style>
<g>
	<g>
		<path class="st0" d="M416,426c-5.5,0-10,4.5-10,10s4.5,10,10,10s10-4.5,10-10S421.5,426,416,426z"/>
	</g>
</g>
<g>
	<g>
		<path class="st0" d="M446,47.4V30c0-16.5-13.5-30-30-30H96C79.5,0,66,13.5,66,30v17.4C0.8,167.9,0,164.3,0,170c0,0,0,0,0,0v20
			c0,17.3,10,33.5,26,42.6V502c0,5.5,4.5,10,10,10h440c5.5,0,10-4.5,10-10V232.6c15.8-9.2,26-25.5,26-42.6v-20c0,0,0,0,0,0
			C512,164.3,510.6,166.7,446,47.4z M485.1,160h-61.9L389.9,60h40.2L485.1,160z M346,180h60v10c0,16.5-13.5,30-30,30s-30-13.5-30-30
			V180z M344.5,160L327.8,60h41l33.3,100H344.5z M86,30c0-5.5,4.5-10,10-10h320c5.5,0,10,4.5,10,10v10c-9.5,0-330.4,0-340,0V30z
			 M326,180v10c0,16.5-13.5,30-30,30s-30-13.5-30-30v-10H326z M266,160V60h41.5l16.7,100H266z M187.8,160l16.7-100H246v100H187.8z
			 M246,180v10c0,16.5-13.5,30-30,30s-30-13.5-30-30v-10H246z M109.9,160l33.3-100h41l-16.7,100H109.9z M166,180v10
			c0,16.5-13.5,30-30,30s-30-13.5-30-30v-10H166z M81.9,60h40.2L88.8,160H26.9L81.9,60z M20,190v-10h66v10c0,15.7-15.7,30-33,30
			c-4.4,0-8.9-0.9-13.1-2.7C28,212.2,20,201.2,20,190z M206,492H106v-86h100V492z M206,386H106v-86h100V386z M466,492H226V290
			c0-5.5-4.5-10-10-10H96c-5.5,0-10,4.5-10,10v202H46V239.5c2.3,0.3,4.7,0.5,7,0.5c13.2,0,26.5-5.2,36.5-14.3c2.2-2,4.2-4.2,6-6.4
			c9.1,12.5,23.9,20.7,40.5,20.7c16.3,0,30.9-7.9,40-20c9.1,12.2,23.7,20,40,20s30.9-7.9,40-20c9.1,12.2,23.7,20,40,20
			s30.9-7.9,40-20c9.1,12.2,23.7,20,40,20c16.6,0,31.4-8.2,40.5-20.7c1.8,2.3,3.8,4.4,6,6.4c10,9.1,23.3,14.3,36.5,14.3
			c2.3,0,4.7-0.2,7-0.5V492z M492,190c0,11.5-8.3,22.6-20.7,27.6c-4,1.6-8.2,2.4-12.3,2.4c-17.3,0-33-14.3-33-30v-10h66V190z"/>
	</g>
</g>
<g>
	<g>
		<path class="st0" d="M436,386h-10v-96c0-5.5-4.5-10-10-10H296c-5.5,0-10,4.5-10,10v96h-10c-5.5,0-10,4.5-10,10s4.5,10,10,10h160
			c5.5,0,10-4.5,10-10S441.5,386,436,386z M406,386H306v-86h100V386z"/>
	</g>
</g>
<g>
	<g>
		<path class="st0" d="M376,426h-80c-5.5,0-10,4.5-10,10s4.5,10,10,10h80c5.5,0,10-4.5,10-10S381.5,426,376,426z"/>
	</g>
</g>
</svg>
