<svg xmlns="http://www.w3.org/2000/svg" width="304.242" height="64.021" viewBox="0 0 304.242 64.021">
  <g id="Group_2025" data-name="Group 2025" transform="translate(309.488 -1052.444)">
    <path id="Path_5741" data-name="Path 5741" d="M1698.726,1052.846a.342.342,0,1,0-.337.4A.374.374,0,0,0,1698.726,1052.846Z" transform="translate(-1750.786)" fill="#101126"/>
    <path id="Path_5742" data-name="Path 5742" d="M-15.314,1107.137l-2.092-13.994h-4.279V1081.53h.529v-1.051h-2.077v-4.523h-.253v4.523h-1.436v-3.706h-.253v3.706H-33.83v1.051h.591v23.562H-43.12v-10.554h-5.627V1068.6h.515v-1.272h-1.124V1065.7h-1.294v-4.091H-52.21v-2.887h-.375v2.887h-.841l-.509,1.616H-57.34v2.475h-8.913v1.629h-1.124v1.272h.515v16.874H-74.32v16.579l-8.275-3.666V1082.3h1.335v-1.182h-2.349v-3.209H-93.665v3.209h-3.286v-3.209H-98.64v3.209h-1.689v-3.209h-1.858v3.209h-3.885v1.182h.591v22.3h-3.772v-.234h-.683v-6.356h.683v-.51h-.683v-6.356h.683v-.51h-.683v-6.356h.683v-.51h-.683v-6.356h.683v-.51h-.683v-6.356h.683v-.51h-.683v-6.578h1.17v-.512h.6v-1.394H-119.28V1060h.361v-.448h-6.048V1060h.361v1.551h-2.753v1.394h.6v.512h1.17v6.578h-.683v.51h.683v6.356h-.683v.51h.683v6.356h-.683v.51h.683v6.356h-.683v.51h.683v6.356h-.683v.51h.683v6.356h-.683v.51h.683v5.194h-3.792V1090h-15.258v14.6h-2.477v-45.485h-1.833v1.171l-3.382.827v-.76h-1.833v1.209l-3.382.827v-.872h-1.833v1.32l-3.382.827v-.72H-164.6v1.168l-3.382.827v-.62h-1.833v44.667h-2.578v-23.813h-9.55v14.644h-9.791v-12.487h-1.206v-4.1h.716v-.412h-3.168v-1.289h-.338v1.289h-1.013V1076.2h-.253v6.619h-1.32v.412h.777v4.1H-204v9.526h-6.29l-3.285,12.131h-6.592v-39.609h-8.728v-1.419h.5v-.5h-6.61v.5h.52v30.828H-238.6v-10.25h1.463v-.928h-10.355v-6.192h-1.975v-1.272h-4.409v1.272h-3.588v22.109h-11.77v-16.4h-9.911v12.952h-8.6v8.287h-6.2v-10.418H-302.1v8.882h-7.383v15.107H-5.246v-14.806Z" transform="translate(0 -5.477)" fill="#101126"/>
  </g>
</svg>
