<svg xmlns="http://www.w3.org/2000/svg" xmlns:xlink="http://www.w3.org/1999/xlink" width="536.5" height="806.776" viewBox="0 0 536.5 806.776">
  <defs>
    <linearGradient id="linear-gradient" x1="0.5" x2="0.5" y2="1" gradientUnits="objectBoundingBox">
      <stop offset="0" stop-color="#16146a"/>
      <stop offset="1" stop-color="#29268e"/>
    </linearGradient>
    <filter id="Rectangle_1399" x="59.5" y="147" width="477" height="659.776" filterUnits="userSpaceOnUse">
      <feOffset input="SourceAlpha"/>
      <feGaussianBlur stdDeviation="5" result="blur"/>
      <feFlood flood-color="#ff1c33" flood-opacity="0.62"/>
      <feComposite operator="in" in2="blur"/>
      <feComposite in="SourceGraphic"/>
    </filter>
    <filter id="Union_3" x="42" y="130.499" width="483" height="664.776" filterUnits="userSpaceOnUse">
      <feOffset input="SourceAlpha"/>
      <feGaussianBlur stdDeviation="5" result="blur-2"/>
      <feFlood flood-color="#ff1c33" flood-opacity="0.62"/>
      <feComposite operator="in" in2="blur-2"/>
      <feComposite in="SourceGraphic"/>
    </filter>
    <filter id="Path_6106" x="429.5" y="130.499" width="68.21" height="83.154" filterUnits="userSpaceOnUse">
      <feOffset input="SourceAlpha"/>
      <feGaussianBlur stdDeviation="5" result="blur-3"/>
      <feFlood flood-color="#ff1c33" flood-opacity="0.62"/>
      <feComposite operator="in" in2="blur-3"/>
      <feComposite in="SourceGraphic"/>
    </filter>
    <filter id="_2" x="0" y="0" width="181" height="301" filterUnits="userSpaceOnUse">
      <feOffset input="SourceAlpha"/>
      <feGaussianBlur stdDeviation="7.5" result="blur-4"/>
      <feFlood flood-color="#ff1c33" flood-opacity="0.62"/>
      <feComposite operator="in" in2="blur-4"/>
      <feComposite in="SourceGraphic"/>
    </filter>
  </defs>
  <g id="Group_2966" data-name="Group 2966" transform="translate(-919 -2359.501)">
    <g transform="matrix(1, 0, 0, 1, 919, 2359.5)" filter="url(#Rectangle_1399)">
      <rect id="Rectangle_1399-2" data-name="Rectangle 1399" width="447" height="629.776" rx="10" transform="translate(74.5 162)" fill="url(#linear-gradient)"/>
    </g>
    <g transform="matrix(1, 0, 0, 1, 919, 2359.5)" filter="url(#Union_3)">
      <path id="Union_3-2" data-name="Union 3" d="M224.5,629.776H10a10,10,0,0,1-10-10V10A10,10,0,0,1,10,0H204.5A20.008,20.008,0,0,1,224,15.537,20.008,20.008,0,0,1,243.5,0H438a10,10,0,0,1,10,10V619.776a10,10,0,0,1-10,10Z" transform="translate(59.5 148)" fill="none" stroke="#ffe9ec" stroke-linejoin="round" stroke-width="5"/>
    </g>
    <g transform="matrix(1, 0, 0, 1, 919, 2359.5)" filter="url(#Path_6106)">
      <path id="Path_6106-2" data-name="Path 6106" d="M0,0H33.21V48.154l-16.358-11.4L0,48.154Z" transform="translate(447 148)" fill="none" stroke="#ffe9ec" stroke-linejoin="round" stroke-width="5"/>
    </g>
    <g transform="matrix(1, 0, 0, 1, 919, 2359.5)" filter="url(#_2)">
      <text id="_2-2" data-name="2" transform="translate(27.5 226.5)" fill="#16146b" stroke="#ffe9ec" stroke-linecap="round" stroke-width="5" font-size="220" font-family="Arial-BoldItalicMT, Arial" font-weight="700" font-style="italic"><tspan x="0" y="0">2</tspan></text>
    </g>
  </g>
</svg>
