<?xml version="1.0" encoding="utf-8"?>
<!-- Generator: Adobe Illustrator 22.1.0, SVG Export Plug-In . SVG Version: 6.00 Build 0)  -->
<svg version="1.1" id="圖層_1" xmlns="http://www.w3.org/2000/svg" xmlns:xlink="http://www.w3.org/1999/xlink" x="0px" y="0px"
	 viewBox="0 0 1000 502" style="enable-background:new 0 0 1000 502;" xml:space="preserve">
<style type="text/css">
	.st0{opacity:0.1;}
	.st1{fill:#F05F43;}
</style>
<g id="Mask_Group_22" transform="translate(-460 -1585)">
	<g id="Group_2264" transform="translate(455.563 1546.888)" class="st0">
		<g id="Group_2263" transform="translate(0 0)">
			<rect id="Rectangle_1299" x="23.4" y="0" class="st1" width="1.2" height="629.2"/>
			<rect id="Rectangle_1300" x="48.7" y="0" class="st1" width="1.2" height="629.2"/>
			<rect id="Rectangle_1301" x="73.9" y="0" class="st1" width="1.2" height="629.2"/>
			<rect id="Rectangle_1302" x="99.1" y="0" class="st1" width="1.2" height="629.2"/>
			<rect id="Rectangle_1303" x="124.3" y="0" class="st1" width="1.2" height="629.2"/>
			<rect id="Rectangle_1304" x="149.5" y="0" class="st1" width="1.2" height="629.2"/>
			<rect id="Rectangle_1305" x="174.8" y="0" class="st1" width="1.2" height="629.2"/>
			<rect id="Rectangle_1306" x="200" y="0" class="st1" width="1.2" height="629.2"/>
			<rect id="Rectangle_1307" x="225.2" y="0" class="st1" width="1.2" height="629.2"/>
			<rect id="Rectangle_1308" x="250.4" y="0" class="st1" width="1.2" height="629.2"/>
			<rect id="Rectangle_1309" x="275.6" y="0" class="st1" width="1.2" height="629.2"/>
			<rect id="Rectangle_1310" x="300.9" y="0" class="st1" width="1.2" height="629.2"/>
			<rect id="Rectangle_1311" x="326.1" y="0" class="st1" width="1.2" height="629.2"/>
			<rect id="Rectangle_1312" x="351.3" y="0" class="st1" width="1.2" height="629.2"/>
			<rect id="Rectangle_1313" x="376.5" y="0" class="st1" width="1.2" height="629.2"/>
			<rect id="Rectangle_1314" x="401.7" y="0" class="st1" width="1.2" height="629.2"/>
			<rect id="Rectangle_1315" x="427" y="0" class="st1" width="1.2" height="629.2"/>
			<rect id="Rectangle_1316" x="452.2" y="0" class="st1" width="1.2" height="629.2"/>
			<rect id="Rectangle_1317" x="477.4" y="0" class="st1" width="1.2" height="629.2"/>
			<rect id="Rectangle_1318" x="502.6" y="0" class="st1" width="1.2" height="629.2"/>
			<rect id="Rectangle_1319" x="527.8" y="0" class="st1" width="1.2" height="629.2"/>
			<rect id="Rectangle_1320" x="553" y="0" class="st1" width="1.2" height="629.2"/>
			<rect id="Rectangle_1321" x="578.3" y="0" class="st1" width="1.2" height="629.2"/>
			<rect id="Rectangle_1322" x="603.5" y="0" class="st1" width="1.2" height="629.2"/>
			<rect id="Rectangle_1323" x="0" y="24.3" class="st1" width="629.2" height="1.2"/>
			<rect id="Rectangle_1324" x="0" y="49.5" class="st1" width="629.2" height="1.2"/>
			<rect id="Rectangle_1325" x="0" y="74.7" class="st1" width="629.2" height="1.2"/>
			<rect id="Rectangle_1326" x="0" y="99.9" class="st1" width="629.2" height="1.2"/>
			<rect id="Rectangle_1327" x="0" y="125.1" class="st1" width="629.2" height="1.2"/>
			<rect id="Rectangle_1328" x="0" y="150.4" class="st1" width="629.2" height="1.2"/>
			<rect id="Rectangle_1329" x="0" y="175.6" class="st1" width="629.2" height="1.2"/>
			<rect id="Rectangle_1330" x="0" y="200.8" class="st1" width="629.2" height="1.2"/>
			<rect id="Rectangle_1331" x="0" y="226" class="st1" width="629.2" height="1.2"/>
			<rect id="Rectangle_1332" x="0" y="251.2" class="st1" width="629.2" height="1.2"/>
			<rect id="Rectangle_1333" x="0" y="276.5" class="st1" width="629.2" height="1.2"/>
			<rect id="Rectangle_1334" x="0" y="301.7" class="st1" width="629.2" height="1.2"/>
			<rect id="Rectangle_1335" x="0" y="326.9" class="st1" width="629.2" height="1.2"/>
			<rect id="Rectangle_1336" x="0" y="352.1" class="st1" width="629.2" height="1.2"/>
			<rect id="Rectangle_1337" x="0" y="377.3" class="st1" width="629.2" height="1.2"/>
			<rect id="Rectangle_1338" x="0" y="402.6" class="st1" width="629.2" height="1.2"/>
			<rect id="Rectangle_1339" x="0" y="427.8" class="st1" width="629.2" height="1.2"/>
			<rect id="Rectangle_1340" x="0" y="453" class="st1" width="629.2" height="1.2"/>
			<rect id="Rectangle_1341" x="0" y="478.2" class="st1" width="629.2" height="1.2"/>
			<rect id="Rectangle_1342" x="0" y="503.4" class="st1" width="629.2" height="1.2"/>
			<rect id="Rectangle_1343" x="0" y="528.7" class="st1" width="629.2" height="1.2"/>
			<rect id="Rectangle_1344" x="0" y="553.9" class="st1" width="629.2" height="1.2"/>
			<rect id="Rectangle_1345" x="0" y="579.1" class="st1" width="629.2" height="1.2"/>
			<rect id="Rectangle_1346" x="0" y="604.3" class="st1" width="629.2" height="1.2"/>
		</g>
		<rect id="Rectangle_1347" x="629.4" y="0" class="st1" width="1.2" height="629.2"/>
		<rect id="Rectangle_1348" x="654.6" y="0" class="st1" width="1.2" height="629.2"/>
		<rect id="Rectangle_1349" x="679.9" y="0" class="st1" width="1.2" height="629.2"/>
		<rect id="Rectangle_1350" x="705.1" y="0" class="st1" width="1.2" height="629.2"/>
		<rect id="Rectangle_1351" x="730.3" y="0" class="st1" width="1.2" height="629.2"/>
		<rect id="Rectangle_1352" x="755.5" y="0" class="st1" width="1.2" height="629.2"/>
		<rect id="Rectangle_1353" x="780.7" y="0" class="st1" width="1.2" height="629.2"/>
		<rect id="Rectangle_1354" x="805.9" y="0" class="st1" width="1.2" height="629.2"/>
		<rect id="Rectangle_1355" x="831.2" y="0" class="st1" width="1.2" height="629.2"/>
		<rect id="Rectangle_1356" x="856.4" y="0" class="st1" width="1.2" height="629.2"/>
		<rect id="Rectangle_1357" x="881.6" y="0" class="st1" width="1.2" height="629.2"/>
		<rect id="Rectangle_1358" x="906.8" y="0" class="st1" width="1.2" height="629.2"/>
		<rect id="Rectangle_1359" x="932" y="0" class="st1" width="1.2" height="629.2"/>
		<rect id="Rectangle_1360" x="957.3" y="0" class="st1" width="1.2" height="629.2"/>
		<rect id="Rectangle_1361" x="982.5" y="0" class="st1" width="1.2" height="629.2"/>
		<rect id="Rectangle_1362" x="1007.7" y="0" class="st1" width="1.2" height="629.2"/>
		<rect id="Rectangle_1363" x="630" y="24.3" class="st1" width="378.3" height="1.2"/>
		<rect id="Rectangle_1364" x="630" y="49.5" class="st1" width="378.3" height="1.2"/>
		<rect id="Rectangle_1365" x="630" y="74.7" class="st1" width="378.3" height="1.2"/>
		<rect id="Rectangle_1366" x="630" y="99.9" class="st1" width="378.3" height="1.2"/>
		<rect id="Rectangle_1367" x="630" y="125.1" class="st1" width="378.3" height="1.2"/>
		<rect id="Rectangle_1368" x="630" y="150.4" class="st1" width="378.3" height="1.2"/>
		<rect id="Rectangle_1369" x="630" y="175.6" class="st1" width="378.3" height="1.2"/>
		<rect id="Rectangle_1370" x="630" y="200.8" class="st1" width="378.3" height="1.2"/>
		<rect id="Rectangle_1371" x="630" y="226" class="st1" width="378.3" height="1.2"/>
		<rect id="Rectangle_1372" x="630" y="251.2" class="st1" width="378.3" height="1.2"/>
		<rect id="Rectangle_1373" x="630" y="276.5" class="st1" width="378.3" height="1.2"/>
		<rect id="Rectangle_1374" x="630" y="301.7" class="st1" width="378.3" height="1.2"/>
		<rect id="Rectangle_1375" x="630" y="326.9" class="st1" width="378.3" height="1.2"/>
		<rect id="Rectangle_1376" x="630" y="352.1" class="st1" width="378.3" height="1.2"/>
		<rect id="Rectangle_1377" x="630" y="377.3" class="st1" width="378.3" height="1.2"/>
		<rect id="Rectangle_1378" x="630" y="402.6" class="st1" width="378.3" height="1.2"/>
		<rect id="Rectangle_1379" x="630" y="427.8" class="st1" width="378.3" height="1.2"/>
		<rect id="Rectangle_1380" x="630" y="453" class="st1" width="378.3" height="1.2"/>
		<rect id="Rectangle_1381" x="630" y="478.2" class="st1" width="378.3" height="1.2"/>
		<rect id="Rectangle_1382" x="630" y="503.4" class="st1" width="378.3" height="1.2"/>
		<rect id="Rectangle_1383" x="630" y="528.7" class="st1" width="378.3" height="1.2"/>
		<rect id="Rectangle_1384" x="630" y="553.9" class="st1" width="378.3" height="1.2"/>
		<rect id="Rectangle_1385" x="630" y="579.1" class="st1" width="378.3" height="1.2"/>
		<rect id="Rectangle_1386" x="630" y="604.3" class="st1" width="378.3" height="1.2"/>
	</g>
</g>
</svg>
