<svg xmlns="http://www.w3.org/2000/svg" width="1152.021" height="357.229" viewBox="0 0 1152.021 357.229">
  <g id="Group_2581" data-name="Group 2581" transform="translate(-377.804 -5287.56)">
    <g id="Group_2575" data-name="Group 2575" transform="translate(-299.182 2844.126)">
      <g id="Group_2568" data-name="Group 2568" transform="translate(683.108 2451.753)">
        <path id="Path_25533" data-name="Path 25533" d="M1016.784,2737.9l-13.149-8.6a159.7,159.7,0,0,0,26.064-87.67c0-88.424-71.938-160.362-160.361-160.362S708.976,2553.2,708.976,2641.625a159.7,159.7,0,0,0,26.064,87.67l-13.149,8.6a175.379,175.379,0,0,1-28.628-96.272c0-97.088,78.987-176.074,176.074-176.074s176.074,78.987,176.074,176.074A175.379,175.379,0,0,1,1016.784,2737.9Z" transform="translate(-693.263 -2465.551)" fill="#c1a986"/>
      </g>
      <g id="Group_2569" data-name="Group 2569" transform="translate(676.986 2443.434)">
        <path id="Path_25534" data-name="Path 25534" d="M1025.182,2616.737a16.179,16.179,0,0,1-15.945-13.575,152.075,152.075,0,0,0-300.11,0,16.175,16.175,0,0,1-31.928-5.2,184.424,184.424,0,0,1,363.967,0,16.19,16.19,0,0,1-15.984,18.779Z" transform="translate(-676.986 -2443.434)" fill="#c1a986"/>
      </g>
      <g id="Group_2574" data-name="Group 2574" transform="translate(708.452 2670.344)">
        <g id="Group_2570" data-name="Group 2570" transform="translate(0 41.817)">
          <path id="Path_25535" data-name="Path 25535" d="M775.035,3157.916h0c-13.727,7.32-18.46,25.247-10.571,40.039l16.384,30.722c7.889,14.792,25.412,20.849,39.139,13.528a26.544,26.544,0,0,0,2.616-1.6C807.791,3214.854,785.785,3176.6,775.035,3157.916Z" transform="translate(-760.647 -3157.916)" fill="#c1a986"/>
        </g>
        <g id="Group_2571" data-name="Group 2571" transform="translate(22.713 0)">
          <path id="Path_25536" data-name="Path 25536" d="M914.22,3133.63l-38-71.258a29.519,29.519,0,0,0-55.185,9.144c6.893,11.971,44,76.483,60.24,104.714a29.522,29.522,0,0,0,32.944-42.6Z" transform="translate(-821.036 -3046.734)" fill="#c1a986"/>
        </g>
        <g id="Group_2572" data-name="Group 2572" transform="translate(239.504 41.817)">
          <path id="Path_25537" data-name="Path 25537" d="M1445,3157.916h0c13.727,7.32,18.46,25.247,10.571,40.039l-16.384,30.722c-7.889,14.792-25.412,20.849-39.139,13.528a26.553,26.553,0,0,1-2.616-1.6C1412.246,3214.854,1434.251,3176.6,1445,3157.916Z" transform="translate(-1397.433 -3157.916)" fill="#c1a986"/>
        </g>
        <g id="Group_2573" data-name="Group 2573" transform="translate(182.082 0)">
          <path id="Path_25538" data-name="Path 25538" d="M1248.241,3133.63l38-71.258a29.519,29.519,0,0,1,55.185,9.144c-6.893,11.971-44,76.483-60.24,104.714a29.522,29.522,0,0,1-32.945-42.6Z" transform="translate(-1244.761 -3046.734)" fill="#c1a986"/>
        </g>
      </g>
    </g>
    <g id="Group_2576" data-name="Group 2576" transform="translate(1888.469 6022.11) rotate(180)">
      <path id="Path_25539" data-name="Path 25539" d="M367.122,562.154a8.478,8.478,0,0,1-8.478-8.478v-58.07a8.478,8.478,0,1,1,16.956,0v58.07A8.478,8.478,0,0,1,367.122,562.154Z" transform="translate(0 -15.704)" fill="#c1a986"/>
      <path id="Path_25540" data-name="Path 25540" d="M410.441,582.576c-4.682,0-8.478-5.1-8.478-11.393V456.623c0-6.293,3.8-11.393,8.478-11.393s8.478,5.1,8.478,11.393v114.56C418.919,577.475,415.123,582.576,410.441,582.576Z" transform="translate(-11.102 -4.967)" fill="#c1a986"/>
      <path id="Path_25541" data-name="Path 25541" d="M453.76,561.812a8.478,8.478,0,0,1-8.478-8.478V496.305a8.478,8.478,0,1,1,16.956,0v57.029A8.478,8.478,0,0,1,453.76,561.812Z" transform="translate(-22.204 -15.884)" fill="#c1a986"/>
      <path id="Path_25542" data-name="Path 25542" d="M497.078,568.021a8.479,8.479,0,0,1-8.478-8.478V483.568a8.478,8.478,0,0,1,16.957,0v75.974A8.479,8.479,0,0,1,497.078,568.021Z" transform="translate(-33.305 -12.619)" fill="#c1a986"/>
      <path id="Path_25543" data-name="Path 25543" d="M540.4,592.022c-4.682,0-8.478-4.7-8.478-10.5V436.352c0-5.8,3.8-10.5,8.478-10.5s8.478,4.7,8.478,10.5V581.52C548.876,587.32,545.079,592.022,540.4,592.022Z" transform="translate(-44.407 0)" fill="#c1a986"/>
    </g>
  </g>
</svg>
